G04 #@! TF.GenerationSoftware,KiCad,Pcbnew,5.0.2-bee76a0~70~ubuntu18.04.1*
G04 #@! TF.CreationDate,2019-02-21T21:15:02-07:00*
G04 #@! TF.ProjectId,adc,6164632e-6b69-4636-9164-5f7063625858,rev?*
G04 #@! TF.SameCoordinates,Original*
G04 #@! TF.FileFunction,Soldermask,Bot*
G04 #@! TF.FilePolarity,Negative*
%FSLAX46Y46*%
G04 Gerber Fmt 4.6, Leading zero omitted, Abs format (unit mm)*
G04 Created by KiCad (PCBNEW 5.0.2-bee76a0~70~ubuntu18.04.1) date Thu 21 Feb 2019 09:15:02 PM MST*
%MOMM*%
%LPD*%
G01*
G04 APERTURE LIST*
%ADD10C,0.100000*%
G04 APERTURE END LIST*
D10*
G36*
X263564787Y-142925510D02*
X263725160Y-142974160D01*
X263725162Y-142974161D01*
X263872966Y-143053163D01*
X264002517Y-143159483D01*
X264108837Y-143289034D01*
X264161758Y-143388044D01*
X264187840Y-143436840D01*
X264236490Y-143597213D01*
X264252916Y-143764000D01*
X264236490Y-143930787D01*
X264187840Y-144091160D01*
X264187839Y-144091162D01*
X264108837Y-144238966D01*
X264002517Y-144368517D01*
X263872966Y-144474837D01*
X263725162Y-144553839D01*
X263725160Y-144553840D01*
X263564787Y-144602490D01*
X263439794Y-144614800D01*
X263356206Y-144614800D01*
X263231213Y-144602490D01*
X263070840Y-144553840D01*
X263070838Y-144553839D01*
X262923034Y-144474837D01*
X262793483Y-144368517D01*
X262687163Y-144238966D01*
X262608161Y-144091162D01*
X262608160Y-144091160D01*
X262559510Y-143930787D01*
X262543084Y-143764000D01*
X262559510Y-143597213D01*
X262608160Y-143436840D01*
X262634242Y-143388044D01*
X262687163Y-143289034D01*
X262793483Y-143159483D01*
X262923034Y-143053163D01*
X263070838Y-142974161D01*
X263070840Y-142974160D01*
X263231213Y-142925510D01*
X263356206Y-142913200D01*
X263439794Y-142913200D01*
X263564787Y-142925510D01*
X263564787Y-142925510D01*
G37*
G36*
X215304787Y-142925510D02*
X215465160Y-142974160D01*
X215465162Y-142974161D01*
X215612966Y-143053163D01*
X215742517Y-143159483D01*
X215848837Y-143289034D01*
X215901758Y-143388044D01*
X215927840Y-143436840D01*
X215976490Y-143597213D01*
X215992916Y-143764000D01*
X215976490Y-143930787D01*
X215927840Y-144091160D01*
X215927839Y-144091162D01*
X215848837Y-144238966D01*
X215742517Y-144368517D01*
X215612966Y-144474837D01*
X215465162Y-144553839D01*
X215465160Y-144553840D01*
X215304787Y-144602490D01*
X215179794Y-144614800D01*
X215096206Y-144614800D01*
X214971213Y-144602490D01*
X214810840Y-144553840D01*
X214810838Y-144553839D01*
X214663034Y-144474837D01*
X214533483Y-144368517D01*
X214427163Y-144238966D01*
X214348161Y-144091162D01*
X214348160Y-144091160D01*
X214299510Y-143930787D01*
X214283084Y-143764000D01*
X214299510Y-143597213D01*
X214348160Y-143436840D01*
X214374242Y-143388044D01*
X214427163Y-143289034D01*
X214533483Y-143159483D01*
X214663034Y-143053163D01*
X214810838Y-142974161D01*
X214810840Y-142974160D01*
X214971213Y-142925510D01*
X215096206Y-142913200D01*
X215179794Y-142913200D01*
X215304787Y-142925510D01*
X215304787Y-142925510D01*
G37*
G36*
X221576362Y-141851545D02*
X221664588Y-141860234D01*
X221777789Y-141894573D01*
X221834390Y-141911743D01*
X221877595Y-141934837D01*
X221990879Y-141995389D01*
X222026609Y-142024712D01*
X222128044Y-142107956D01*
X222211288Y-142209391D01*
X222240611Y-142245121D01*
X222240612Y-142245123D01*
X222324257Y-142401610D01*
X222324257Y-142401611D01*
X222375766Y-142571412D01*
X222393158Y-142748000D01*
X222375766Y-142924588D01*
X222360728Y-142974160D01*
X222324257Y-143094390D01*
X222250178Y-143232980D01*
X222240611Y-143250879D01*
X222211288Y-143286609D01*
X222128044Y-143388044D01*
X222026609Y-143471288D01*
X221990879Y-143500611D01*
X221990877Y-143500612D01*
X221834390Y-143584257D01*
X221791679Y-143597213D01*
X221664588Y-143635766D01*
X221576362Y-143644455D01*
X221532250Y-143648800D01*
X221443750Y-143648800D01*
X221399638Y-143644455D01*
X221311412Y-143635766D01*
X221184321Y-143597213D01*
X221141610Y-143584257D01*
X220985123Y-143500612D01*
X220985121Y-143500611D01*
X220949391Y-143471288D01*
X220847956Y-143388044D01*
X220764712Y-143286609D01*
X220735389Y-143250879D01*
X220725822Y-143232980D01*
X220651743Y-143094390D01*
X220615272Y-142974160D01*
X220600234Y-142924588D01*
X220582842Y-142748000D01*
X220600234Y-142571412D01*
X220651743Y-142401611D01*
X220651743Y-142401610D01*
X220735388Y-142245123D01*
X220735389Y-142245121D01*
X220764712Y-142209391D01*
X220847956Y-142107956D01*
X220949391Y-142024712D01*
X220985121Y-141995389D01*
X221098405Y-141934837D01*
X221141610Y-141911743D01*
X221198211Y-141894573D01*
X221311412Y-141860234D01*
X221399638Y-141851545D01*
X221443750Y-141847200D01*
X221532250Y-141847200D01*
X221576362Y-141851545D01*
X221576362Y-141851545D01*
G37*
G36*
X252564362Y-141851545D02*
X252652588Y-141860234D01*
X252765789Y-141894573D01*
X252822390Y-141911743D01*
X252865595Y-141934837D01*
X252978879Y-141995389D01*
X253014609Y-142024712D01*
X253116044Y-142107956D01*
X253199288Y-142209391D01*
X253228611Y-142245121D01*
X253228612Y-142245123D01*
X253312257Y-142401610D01*
X253312257Y-142401611D01*
X253363766Y-142571412D01*
X253381158Y-142748000D01*
X253363766Y-142924588D01*
X253348728Y-142974160D01*
X253312257Y-143094390D01*
X253238178Y-143232980D01*
X253228611Y-143250879D01*
X253199288Y-143286609D01*
X253116044Y-143388044D01*
X253014609Y-143471288D01*
X252978879Y-143500611D01*
X252978877Y-143500612D01*
X252822390Y-143584257D01*
X252779679Y-143597213D01*
X252652588Y-143635766D01*
X252564362Y-143644455D01*
X252520250Y-143648800D01*
X252431750Y-143648800D01*
X252387638Y-143644455D01*
X252299412Y-143635766D01*
X252172321Y-143597213D01*
X252129610Y-143584257D01*
X251973123Y-143500612D01*
X251973121Y-143500611D01*
X251937391Y-143471288D01*
X251835956Y-143388044D01*
X251752712Y-143286609D01*
X251723389Y-143250879D01*
X251713822Y-143232980D01*
X251639743Y-143094390D01*
X251603272Y-142974160D01*
X251588234Y-142924588D01*
X251570842Y-142748000D01*
X251588234Y-142571412D01*
X251639743Y-142401611D01*
X251639743Y-142401610D01*
X251723388Y-142245123D01*
X251723389Y-142245121D01*
X251752712Y-142209391D01*
X251835956Y-142107956D01*
X251937391Y-142024712D01*
X251973121Y-141995389D01*
X252086405Y-141934837D01*
X252129610Y-141911743D01*
X252186211Y-141894573D01*
X252299412Y-141860234D01*
X252387638Y-141851545D01*
X252431750Y-141847200D01*
X252520250Y-141847200D01*
X252564362Y-141851545D01*
X252564362Y-141851545D01*
G37*
G36*
X255104362Y-141851545D02*
X255192588Y-141860234D01*
X255305789Y-141894573D01*
X255362390Y-141911743D01*
X255405595Y-141934837D01*
X255518879Y-141995389D01*
X255554609Y-142024712D01*
X255656044Y-142107956D01*
X255739288Y-142209391D01*
X255768611Y-142245121D01*
X255768612Y-142245123D01*
X255852257Y-142401610D01*
X255852257Y-142401611D01*
X255903766Y-142571412D01*
X255921158Y-142748000D01*
X255903766Y-142924588D01*
X255888728Y-142974160D01*
X255852257Y-143094390D01*
X255778178Y-143232980D01*
X255768611Y-143250879D01*
X255739288Y-143286609D01*
X255656044Y-143388044D01*
X255554609Y-143471288D01*
X255518879Y-143500611D01*
X255518877Y-143500612D01*
X255362390Y-143584257D01*
X255319679Y-143597213D01*
X255192588Y-143635766D01*
X255104362Y-143644455D01*
X255060250Y-143648800D01*
X254971750Y-143648800D01*
X254927638Y-143644455D01*
X254839412Y-143635766D01*
X254712321Y-143597213D01*
X254669610Y-143584257D01*
X254513123Y-143500612D01*
X254513121Y-143500611D01*
X254477391Y-143471288D01*
X254375956Y-143388044D01*
X254292712Y-143286609D01*
X254263389Y-143250879D01*
X254253822Y-143232980D01*
X254179743Y-143094390D01*
X254143272Y-142974160D01*
X254128234Y-142924588D01*
X254110842Y-142748000D01*
X254128234Y-142571412D01*
X254179743Y-142401611D01*
X254179743Y-142401610D01*
X254263388Y-142245123D01*
X254263389Y-142245121D01*
X254292712Y-142209391D01*
X254375956Y-142107956D01*
X254477391Y-142024712D01*
X254513121Y-141995389D01*
X254626405Y-141934837D01*
X254669610Y-141911743D01*
X254726211Y-141894573D01*
X254839412Y-141860234D01*
X254927638Y-141851545D01*
X254971750Y-141847200D01*
X255060250Y-141847200D01*
X255104362Y-141851545D01*
X255104362Y-141851545D01*
G37*
G36*
X243928362Y-141851545D02*
X244016588Y-141860234D01*
X244129789Y-141894573D01*
X244186390Y-141911743D01*
X244229595Y-141934837D01*
X244342879Y-141995389D01*
X244378609Y-142024712D01*
X244480044Y-142107956D01*
X244563288Y-142209391D01*
X244592611Y-142245121D01*
X244592612Y-142245123D01*
X244676257Y-142401610D01*
X244676257Y-142401611D01*
X244727766Y-142571412D01*
X244745158Y-142748000D01*
X244727766Y-142924588D01*
X244712728Y-142974160D01*
X244676257Y-143094390D01*
X244602178Y-143232980D01*
X244592611Y-143250879D01*
X244563288Y-143286609D01*
X244480044Y-143388044D01*
X244378609Y-143471288D01*
X244342879Y-143500611D01*
X244342877Y-143500612D01*
X244186390Y-143584257D01*
X244143679Y-143597213D01*
X244016588Y-143635766D01*
X243928362Y-143644455D01*
X243884250Y-143648800D01*
X243795750Y-143648800D01*
X243751638Y-143644455D01*
X243663412Y-143635766D01*
X243536321Y-143597213D01*
X243493610Y-143584257D01*
X243337123Y-143500612D01*
X243337121Y-143500611D01*
X243301391Y-143471288D01*
X243199956Y-143388044D01*
X243116712Y-143286609D01*
X243087389Y-143250879D01*
X243077822Y-143232980D01*
X243003743Y-143094390D01*
X242967272Y-142974160D01*
X242952234Y-142924588D01*
X242934842Y-142748000D01*
X242952234Y-142571412D01*
X243003743Y-142401611D01*
X243003743Y-142401610D01*
X243087388Y-142245123D01*
X243087389Y-142245121D01*
X243116712Y-142209391D01*
X243199956Y-142107956D01*
X243301391Y-142024712D01*
X243337121Y-141995389D01*
X243450405Y-141934837D01*
X243493610Y-141911743D01*
X243550211Y-141894573D01*
X243663412Y-141860234D01*
X243751638Y-141851545D01*
X243795750Y-141847200D01*
X243884250Y-141847200D01*
X243928362Y-141851545D01*
X243928362Y-141851545D01*
G37*
G36*
X241388362Y-141851545D02*
X241476588Y-141860234D01*
X241589789Y-141894573D01*
X241646390Y-141911743D01*
X241689595Y-141934837D01*
X241802879Y-141995389D01*
X241838609Y-142024712D01*
X241940044Y-142107956D01*
X242023288Y-142209391D01*
X242052611Y-142245121D01*
X242052612Y-142245123D01*
X242136257Y-142401610D01*
X242136257Y-142401611D01*
X242187766Y-142571412D01*
X242205158Y-142748000D01*
X242187766Y-142924588D01*
X242172728Y-142974160D01*
X242136257Y-143094390D01*
X242062178Y-143232980D01*
X242052611Y-143250879D01*
X242023288Y-143286609D01*
X241940044Y-143388044D01*
X241838609Y-143471288D01*
X241802879Y-143500611D01*
X241802877Y-143500612D01*
X241646390Y-143584257D01*
X241603679Y-143597213D01*
X241476588Y-143635766D01*
X241388362Y-143644455D01*
X241344250Y-143648800D01*
X241255750Y-143648800D01*
X241211638Y-143644455D01*
X241123412Y-143635766D01*
X240996321Y-143597213D01*
X240953610Y-143584257D01*
X240797123Y-143500612D01*
X240797121Y-143500611D01*
X240761391Y-143471288D01*
X240659956Y-143388044D01*
X240576712Y-143286609D01*
X240547389Y-143250879D01*
X240537822Y-143232980D01*
X240463743Y-143094390D01*
X240427272Y-142974160D01*
X240412234Y-142924588D01*
X240394842Y-142748000D01*
X240412234Y-142571412D01*
X240463743Y-142401611D01*
X240463743Y-142401610D01*
X240547388Y-142245123D01*
X240547389Y-142245121D01*
X240576712Y-142209391D01*
X240659956Y-142107956D01*
X240761391Y-142024712D01*
X240797121Y-141995389D01*
X240910405Y-141934837D01*
X240953610Y-141911743D01*
X241010211Y-141894573D01*
X241123412Y-141860234D01*
X241211638Y-141851545D01*
X241255750Y-141847200D01*
X241344250Y-141847200D01*
X241388362Y-141851545D01*
X241388362Y-141851545D01*
G37*
G36*
X230212362Y-141851545D02*
X230300588Y-141860234D01*
X230413789Y-141894573D01*
X230470390Y-141911743D01*
X230513595Y-141934837D01*
X230626879Y-141995389D01*
X230662609Y-142024712D01*
X230764044Y-142107956D01*
X230847288Y-142209391D01*
X230876611Y-142245121D01*
X230876612Y-142245123D01*
X230960257Y-142401610D01*
X230960257Y-142401611D01*
X231011766Y-142571412D01*
X231029158Y-142748000D01*
X231011766Y-142924588D01*
X230996728Y-142974160D01*
X230960257Y-143094390D01*
X230886178Y-143232980D01*
X230876611Y-143250879D01*
X230847288Y-143286609D01*
X230764044Y-143388044D01*
X230662609Y-143471288D01*
X230626879Y-143500611D01*
X230626877Y-143500612D01*
X230470390Y-143584257D01*
X230427679Y-143597213D01*
X230300588Y-143635766D01*
X230212362Y-143644455D01*
X230168250Y-143648800D01*
X230079750Y-143648800D01*
X230035638Y-143644455D01*
X229947412Y-143635766D01*
X229820321Y-143597213D01*
X229777610Y-143584257D01*
X229621123Y-143500612D01*
X229621121Y-143500611D01*
X229585391Y-143471288D01*
X229483956Y-143388044D01*
X229400712Y-143286609D01*
X229371389Y-143250879D01*
X229361822Y-143232980D01*
X229287743Y-143094390D01*
X229251272Y-142974160D01*
X229236234Y-142924588D01*
X229218842Y-142748000D01*
X229236234Y-142571412D01*
X229287743Y-142401611D01*
X229287743Y-142401610D01*
X229371388Y-142245123D01*
X229371389Y-142245121D01*
X229400712Y-142209391D01*
X229483956Y-142107956D01*
X229585391Y-142024712D01*
X229621121Y-141995389D01*
X229734405Y-141934837D01*
X229777610Y-141911743D01*
X229834211Y-141894573D01*
X229947412Y-141860234D01*
X230035638Y-141851545D01*
X230079750Y-141847200D01*
X230168250Y-141847200D01*
X230212362Y-141851545D01*
X230212362Y-141851545D01*
G37*
G36*
X232752362Y-141851545D02*
X232840588Y-141860234D01*
X232953789Y-141894573D01*
X233010390Y-141911743D01*
X233053595Y-141934837D01*
X233166879Y-141995389D01*
X233202609Y-142024712D01*
X233304044Y-142107956D01*
X233387288Y-142209391D01*
X233416611Y-142245121D01*
X233416612Y-142245123D01*
X233500257Y-142401610D01*
X233500257Y-142401611D01*
X233551766Y-142571412D01*
X233569158Y-142748000D01*
X233551766Y-142924588D01*
X233536728Y-142974160D01*
X233500257Y-143094390D01*
X233426178Y-143232980D01*
X233416611Y-143250879D01*
X233387288Y-143286609D01*
X233304044Y-143388044D01*
X233202609Y-143471288D01*
X233166879Y-143500611D01*
X233166877Y-143500612D01*
X233010390Y-143584257D01*
X232967679Y-143597213D01*
X232840588Y-143635766D01*
X232752362Y-143644455D01*
X232708250Y-143648800D01*
X232619750Y-143648800D01*
X232575638Y-143644455D01*
X232487412Y-143635766D01*
X232360321Y-143597213D01*
X232317610Y-143584257D01*
X232161123Y-143500612D01*
X232161121Y-143500611D01*
X232125391Y-143471288D01*
X232023956Y-143388044D01*
X231940712Y-143286609D01*
X231911389Y-143250879D01*
X231901822Y-143232980D01*
X231827743Y-143094390D01*
X231791272Y-142974160D01*
X231776234Y-142924588D01*
X231758842Y-142748000D01*
X231776234Y-142571412D01*
X231827743Y-142401611D01*
X231827743Y-142401610D01*
X231911388Y-142245123D01*
X231911389Y-142245121D01*
X231940712Y-142209391D01*
X232023956Y-142107956D01*
X232125391Y-142024712D01*
X232161121Y-141995389D01*
X232274405Y-141934837D01*
X232317610Y-141911743D01*
X232374211Y-141894573D01*
X232487412Y-141860234D01*
X232575638Y-141851545D01*
X232619750Y-141847200D01*
X232708250Y-141847200D01*
X232752362Y-141851545D01*
X232752362Y-141851545D01*
G37*
G36*
X219036362Y-141851545D02*
X219124588Y-141860234D01*
X219237789Y-141894573D01*
X219294390Y-141911743D01*
X219337595Y-141934837D01*
X219450879Y-141995389D01*
X219486609Y-142024712D01*
X219588044Y-142107956D01*
X219671288Y-142209391D01*
X219700611Y-142245121D01*
X219700612Y-142245123D01*
X219784257Y-142401610D01*
X219784257Y-142401611D01*
X219835766Y-142571412D01*
X219853158Y-142748000D01*
X219835766Y-142924588D01*
X219820728Y-142974160D01*
X219784257Y-143094390D01*
X219710178Y-143232980D01*
X219700611Y-143250879D01*
X219671288Y-143286609D01*
X219588044Y-143388044D01*
X219486609Y-143471288D01*
X219450879Y-143500611D01*
X219450877Y-143500612D01*
X219294390Y-143584257D01*
X219251679Y-143597213D01*
X219124588Y-143635766D01*
X219036362Y-143644455D01*
X218992250Y-143648800D01*
X218903750Y-143648800D01*
X218859638Y-143644455D01*
X218771412Y-143635766D01*
X218644321Y-143597213D01*
X218601610Y-143584257D01*
X218445123Y-143500612D01*
X218445121Y-143500611D01*
X218409391Y-143471288D01*
X218307956Y-143388044D01*
X218224712Y-143286609D01*
X218195389Y-143250879D01*
X218185822Y-143232980D01*
X218111743Y-143094390D01*
X218075272Y-142974160D01*
X218060234Y-142924588D01*
X218042842Y-142748000D01*
X218060234Y-142571412D01*
X218111743Y-142401611D01*
X218111743Y-142401610D01*
X218195388Y-142245123D01*
X218195389Y-142245121D01*
X218224712Y-142209391D01*
X218307956Y-142107956D01*
X218409391Y-142024712D01*
X218445121Y-141995389D01*
X218558405Y-141934837D01*
X218601610Y-141911743D01*
X218658211Y-141894573D01*
X218771412Y-141860234D01*
X218859638Y-141851545D01*
X218903750Y-141847200D01*
X218992250Y-141847200D01*
X219036362Y-141851545D01*
X219036362Y-141851545D01*
G37*
G36*
X215304787Y-140385510D02*
X215465160Y-140434160D01*
X215465162Y-140434161D01*
X215612966Y-140513163D01*
X215742517Y-140619483D01*
X215848837Y-140749034D01*
X215901758Y-140848044D01*
X215927840Y-140896840D01*
X215976490Y-141057213D01*
X215992916Y-141224000D01*
X215976490Y-141390787D01*
X215927840Y-141551160D01*
X215927839Y-141551162D01*
X215848837Y-141698966D01*
X215742517Y-141828517D01*
X215612966Y-141934837D01*
X215465162Y-142013839D01*
X215465160Y-142013840D01*
X215304787Y-142062490D01*
X215179794Y-142074800D01*
X215096206Y-142074800D01*
X214971213Y-142062490D01*
X214810840Y-142013840D01*
X214810838Y-142013839D01*
X214663034Y-141934837D01*
X214533483Y-141828517D01*
X214427163Y-141698966D01*
X214348161Y-141551162D01*
X214348160Y-141551160D01*
X214299510Y-141390787D01*
X214283084Y-141224000D01*
X214299510Y-141057213D01*
X214348160Y-140896840D01*
X214374242Y-140848044D01*
X214427163Y-140749034D01*
X214533483Y-140619483D01*
X214663034Y-140513163D01*
X214810838Y-140434161D01*
X214810840Y-140434160D01*
X214971213Y-140385510D01*
X215096206Y-140373200D01*
X215179794Y-140373200D01*
X215304787Y-140385510D01*
X215304787Y-140385510D01*
G37*
G36*
X263564787Y-140385510D02*
X263725160Y-140434160D01*
X263725162Y-140434161D01*
X263872966Y-140513163D01*
X264002517Y-140619483D01*
X264108837Y-140749034D01*
X264161758Y-140848044D01*
X264187840Y-140896840D01*
X264236490Y-141057213D01*
X264252916Y-141224000D01*
X264236490Y-141390787D01*
X264187840Y-141551160D01*
X264187839Y-141551162D01*
X264108837Y-141698966D01*
X264002517Y-141828517D01*
X263872966Y-141934837D01*
X263725162Y-142013839D01*
X263725160Y-142013840D01*
X263564787Y-142062490D01*
X263439794Y-142074800D01*
X263356206Y-142074800D01*
X263231213Y-142062490D01*
X263070840Y-142013840D01*
X263070838Y-142013839D01*
X262923034Y-141934837D01*
X262793483Y-141828517D01*
X262687163Y-141698966D01*
X262608161Y-141551162D01*
X262608160Y-141551160D01*
X262559510Y-141390787D01*
X262543084Y-141224000D01*
X262559510Y-141057213D01*
X262608160Y-140896840D01*
X262634242Y-140848044D01*
X262687163Y-140749034D01*
X262793483Y-140619483D01*
X262923034Y-140513163D01*
X263070838Y-140434161D01*
X263070840Y-140434160D01*
X263231213Y-140385510D01*
X263356206Y-140373200D01*
X263439794Y-140373200D01*
X263564787Y-140385510D01*
X263564787Y-140385510D01*
G37*
G36*
X221576362Y-139311545D02*
X221664588Y-139320234D01*
X221777789Y-139354573D01*
X221834390Y-139371743D01*
X221877595Y-139394837D01*
X221990879Y-139455389D01*
X222026609Y-139484712D01*
X222128044Y-139567956D01*
X222211288Y-139669391D01*
X222240611Y-139705121D01*
X222240612Y-139705123D01*
X222324257Y-139861610D01*
X222324257Y-139861611D01*
X222375766Y-140031412D01*
X222393158Y-140208000D01*
X222375766Y-140384588D01*
X222360728Y-140434160D01*
X222324257Y-140554390D01*
X222250178Y-140692980D01*
X222240611Y-140710879D01*
X222211288Y-140746609D01*
X222128044Y-140848044D01*
X222026609Y-140931288D01*
X221990879Y-140960611D01*
X221990877Y-140960612D01*
X221834390Y-141044257D01*
X221791679Y-141057213D01*
X221664588Y-141095766D01*
X221576362Y-141104455D01*
X221532250Y-141108800D01*
X221443750Y-141108800D01*
X221399638Y-141104455D01*
X221311412Y-141095766D01*
X221184321Y-141057213D01*
X221141610Y-141044257D01*
X220985123Y-140960612D01*
X220985121Y-140960611D01*
X220949391Y-140931288D01*
X220847956Y-140848044D01*
X220764712Y-140746609D01*
X220735389Y-140710879D01*
X220725822Y-140692980D01*
X220651743Y-140554390D01*
X220615272Y-140434160D01*
X220600234Y-140384588D01*
X220582842Y-140208000D01*
X220600234Y-140031412D01*
X220651743Y-139861611D01*
X220651743Y-139861610D01*
X220735388Y-139705123D01*
X220735389Y-139705121D01*
X220764712Y-139669391D01*
X220847956Y-139567956D01*
X220949391Y-139484712D01*
X220985121Y-139455389D01*
X221098405Y-139394837D01*
X221141610Y-139371743D01*
X221198211Y-139354573D01*
X221311412Y-139320234D01*
X221399638Y-139311545D01*
X221443750Y-139307200D01*
X221532250Y-139307200D01*
X221576362Y-139311545D01*
X221576362Y-139311545D01*
G37*
G36*
X255104362Y-139311545D02*
X255192588Y-139320234D01*
X255305789Y-139354573D01*
X255362390Y-139371743D01*
X255405595Y-139394837D01*
X255518879Y-139455389D01*
X255554609Y-139484712D01*
X255656044Y-139567956D01*
X255739288Y-139669391D01*
X255768611Y-139705121D01*
X255768612Y-139705123D01*
X255852257Y-139861610D01*
X255852257Y-139861611D01*
X255903766Y-140031412D01*
X255921158Y-140208000D01*
X255903766Y-140384588D01*
X255888728Y-140434160D01*
X255852257Y-140554390D01*
X255778178Y-140692980D01*
X255768611Y-140710879D01*
X255739288Y-140746609D01*
X255656044Y-140848044D01*
X255554609Y-140931288D01*
X255518879Y-140960611D01*
X255518877Y-140960612D01*
X255362390Y-141044257D01*
X255319679Y-141057213D01*
X255192588Y-141095766D01*
X255104362Y-141104455D01*
X255060250Y-141108800D01*
X254971750Y-141108800D01*
X254927638Y-141104455D01*
X254839412Y-141095766D01*
X254712321Y-141057213D01*
X254669610Y-141044257D01*
X254513123Y-140960612D01*
X254513121Y-140960611D01*
X254477391Y-140931288D01*
X254375956Y-140848044D01*
X254292712Y-140746609D01*
X254263389Y-140710879D01*
X254253822Y-140692980D01*
X254179743Y-140554390D01*
X254143272Y-140434160D01*
X254128234Y-140384588D01*
X254110842Y-140208000D01*
X254128234Y-140031412D01*
X254179743Y-139861611D01*
X254179743Y-139861610D01*
X254263388Y-139705123D01*
X254263389Y-139705121D01*
X254292712Y-139669391D01*
X254375956Y-139567956D01*
X254477391Y-139484712D01*
X254513121Y-139455389D01*
X254626405Y-139394837D01*
X254669610Y-139371743D01*
X254726211Y-139354573D01*
X254839412Y-139320234D01*
X254927638Y-139311545D01*
X254971750Y-139307200D01*
X255060250Y-139307200D01*
X255104362Y-139311545D01*
X255104362Y-139311545D01*
G37*
G36*
X219036362Y-139311545D02*
X219124588Y-139320234D01*
X219237789Y-139354573D01*
X219294390Y-139371743D01*
X219337595Y-139394837D01*
X219450879Y-139455389D01*
X219486609Y-139484712D01*
X219588044Y-139567956D01*
X219671288Y-139669391D01*
X219700611Y-139705121D01*
X219700612Y-139705123D01*
X219784257Y-139861610D01*
X219784257Y-139861611D01*
X219835766Y-140031412D01*
X219853158Y-140208000D01*
X219835766Y-140384588D01*
X219820728Y-140434160D01*
X219784257Y-140554390D01*
X219710178Y-140692980D01*
X219700611Y-140710879D01*
X219671288Y-140746609D01*
X219588044Y-140848044D01*
X219486609Y-140931288D01*
X219450879Y-140960611D01*
X219450877Y-140960612D01*
X219294390Y-141044257D01*
X219251679Y-141057213D01*
X219124588Y-141095766D01*
X219036362Y-141104455D01*
X218992250Y-141108800D01*
X218903750Y-141108800D01*
X218859638Y-141104455D01*
X218771412Y-141095766D01*
X218644321Y-141057213D01*
X218601610Y-141044257D01*
X218445123Y-140960612D01*
X218445121Y-140960611D01*
X218409391Y-140931288D01*
X218307956Y-140848044D01*
X218224712Y-140746609D01*
X218195389Y-140710879D01*
X218185822Y-140692980D01*
X218111743Y-140554390D01*
X218075272Y-140434160D01*
X218060234Y-140384588D01*
X218042842Y-140208000D01*
X218060234Y-140031412D01*
X218111743Y-139861611D01*
X218111743Y-139861610D01*
X218195388Y-139705123D01*
X218195389Y-139705121D01*
X218224712Y-139669391D01*
X218307956Y-139567956D01*
X218409391Y-139484712D01*
X218445121Y-139455389D01*
X218558405Y-139394837D01*
X218601610Y-139371743D01*
X218658211Y-139354573D01*
X218771412Y-139320234D01*
X218859638Y-139311545D01*
X218903750Y-139307200D01*
X218992250Y-139307200D01*
X219036362Y-139311545D01*
X219036362Y-139311545D01*
G37*
G36*
X243928362Y-139311545D02*
X244016588Y-139320234D01*
X244129789Y-139354573D01*
X244186390Y-139371743D01*
X244229595Y-139394837D01*
X244342879Y-139455389D01*
X244378609Y-139484712D01*
X244480044Y-139567956D01*
X244563288Y-139669391D01*
X244592611Y-139705121D01*
X244592612Y-139705123D01*
X244676257Y-139861610D01*
X244676257Y-139861611D01*
X244727766Y-140031412D01*
X244745158Y-140208000D01*
X244727766Y-140384588D01*
X244712728Y-140434160D01*
X244676257Y-140554390D01*
X244602178Y-140692980D01*
X244592611Y-140710879D01*
X244563288Y-140746609D01*
X244480044Y-140848044D01*
X244378609Y-140931288D01*
X244342879Y-140960611D01*
X244342877Y-140960612D01*
X244186390Y-141044257D01*
X244143679Y-141057213D01*
X244016588Y-141095766D01*
X243928362Y-141104455D01*
X243884250Y-141108800D01*
X243795750Y-141108800D01*
X243751638Y-141104455D01*
X243663412Y-141095766D01*
X243536321Y-141057213D01*
X243493610Y-141044257D01*
X243337123Y-140960612D01*
X243337121Y-140960611D01*
X243301391Y-140931288D01*
X243199956Y-140848044D01*
X243116712Y-140746609D01*
X243087389Y-140710879D01*
X243077822Y-140692980D01*
X243003743Y-140554390D01*
X242967272Y-140434160D01*
X242952234Y-140384588D01*
X242934842Y-140208000D01*
X242952234Y-140031412D01*
X243003743Y-139861611D01*
X243003743Y-139861610D01*
X243087388Y-139705123D01*
X243087389Y-139705121D01*
X243116712Y-139669391D01*
X243199956Y-139567956D01*
X243301391Y-139484712D01*
X243337121Y-139455389D01*
X243450405Y-139394837D01*
X243493610Y-139371743D01*
X243550211Y-139354573D01*
X243663412Y-139320234D01*
X243751638Y-139311545D01*
X243795750Y-139307200D01*
X243884250Y-139307200D01*
X243928362Y-139311545D01*
X243928362Y-139311545D01*
G37*
G36*
X230212362Y-139311545D02*
X230300588Y-139320234D01*
X230413789Y-139354573D01*
X230470390Y-139371743D01*
X230513595Y-139394837D01*
X230626879Y-139455389D01*
X230662609Y-139484712D01*
X230764044Y-139567956D01*
X230847288Y-139669391D01*
X230876611Y-139705121D01*
X230876612Y-139705123D01*
X230960257Y-139861610D01*
X230960257Y-139861611D01*
X231011766Y-140031412D01*
X231029158Y-140208000D01*
X231011766Y-140384588D01*
X230996728Y-140434160D01*
X230960257Y-140554390D01*
X230886178Y-140692980D01*
X230876611Y-140710879D01*
X230847288Y-140746609D01*
X230764044Y-140848044D01*
X230662609Y-140931288D01*
X230626879Y-140960611D01*
X230626877Y-140960612D01*
X230470390Y-141044257D01*
X230427679Y-141057213D01*
X230300588Y-141095766D01*
X230212362Y-141104455D01*
X230168250Y-141108800D01*
X230079750Y-141108800D01*
X230035638Y-141104455D01*
X229947412Y-141095766D01*
X229820321Y-141057213D01*
X229777610Y-141044257D01*
X229621123Y-140960612D01*
X229621121Y-140960611D01*
X229585391Y-140931288D01*
X229483956Y-140848044D01*
X229400712Y-140746609D01*
X229371389Y-140710879D01*
X229361822Y-140692980D01*
X229287743Y-140554390D01*
X229251272Y-140434160D01*
X229236234Y-140384588D01*
X229218842Y-140208000D01*
X229236234Y-140031412D01*
X229287743Y-139861611D01*
X229287743Y-139861610D01*
X229371388Y-139705123D01*
X229371389Y-139705121D01*
X229400712Y-139669391D01*
X229483956Y-139567956D01*
X229585391Y-139484712D01*
X229621121Y-139455389D01*
X229734405Y-139394837D01*
X229777610Y-139371743D01*
X229834211Y-139354573D01*
X229947412Y-139320234D01*
X230035638Y-139311545D01*
X230079750Y-139307200D01*
X230168250Y-139307200D01*
X230212362Y-139311545D01*
X230212362Y-139311545D01*
G37*
G36*
X252564362Y-139311545D02*
X252652588Y-139320234D01*
X252765789Y-139354573D01*
X252822390Y-139371743D01*
X252865595Y-139394837D01*
X252978879Y-139455389D01*
X253014609Y-139484712D01*
X253116044Y-139567956D01*
X253199288Y-139669391D01*
X253228611Y-139705121D01*
X253228612Y-139705123D01*
X253312257Y-139861610D01*
X253312257Y-139861611D01*
X253363766Y-140031412D01*
X253381158Y-140208000D01*
X253363766Y-140384588D01*
X253348728Y-140434160D01*
X253312257Y-140554390D01*
X253238178Y-140692980D01*
X253228611Y-140710879D01*
X253199288Y-140746609D01*
X253116044Y-140848044D01*
X253014609Y-140931288D01*
X252978879Y-140960611D01*
X252978877Y-140960612D01*
X252822390Y-141044257D01*
X252779679Y-141057213D01*
X252652588Y-141095766D01*
X252564362Y-141104455D01*
X252520250Y-141108800D01*
X252431750Y-141108800D01*
X252387638Y-141104455D01*
X252299412Y-141095766D01*
X252172321Y-141057213D01*
X252129610Y-141044257D01*
X251973123Y-140960612D01*
X251973121Y-140960611D01*
X251937391Y-140931288D01*
X251835956Y-140848044D01*
X251752712Y-140746609D01*
X251723389Y-140710879D01*
X251713822Y-140692980D01*
X251639743Y-140554390D01*
X251603272Y-140434160D01*
X251588234Y-140384588D01*
X251570842Y-140208000D01*
X251588234Y-140031412D01*
X251639743Y-139861611D01*
X251639743Y-139861610D01*
X251723388Y-139705123D01*
X251723389Y-139705121D01*
X251752712Y-139669391D01*
X251835956Y-139567956D01*
X251937391Y-139484712D01*
X251973121Y-139455389D01*
X252086405Y-139394837D01*
X252129610Y-139371743D01*
X252186211Y-139354573D01*
X252299412Y-139320234D01*
X252387638Y-139311545D01*
X252431750Y-139307200D01*
X252520250Y-139307200D01*
X252564362Y-139311545D01*
X252564362Y-139311545D01*
G37*
G36*
X241388362Y-139311545D02*
X241476588Y-139320234D01*
X241589789Y-139354573D01*
X241646390Y-139371743D01*
X241689595Y-139394837D01*
X241802879Y-139455389D01*
X241838609Y-139484712D01*
X241940044Y-139567956D01*
X242023288Y-139669391D01*
X242052611Y-139705121D01*
X242052612Y-139705123D01*
X242136257Y-139861610D01*
X242136257Y-139861611D01*
X242187766Y-140031412D01*
X242205158Y-140208000D01*
X242187766Y-140384588D01*
X242172728Y-140434160D01*
X242136257Y-140554390D01*
X242062178Y-140692980D01*
X242052611Y-140710879D01*
X242023288Y-140746609D01*
X241940044Y-140848044D01*
X241838609Y-140931288D01*
X241802879Y-140960611D01*
X241802877Y-140960612D01*
X241646390Y-141044257D01*
X241603679Y-141057213D01*
X241476588Y-141095766D01*
X241388362Y-141104455D01*
X241344250Y-141108800D01*
X241255750Y-141108800D01*
X241211638Y-141104455D01*
X241123412Y-141095766D01*
X240996321Y-141057213D01*
X240953610Y-141044257D01*
X240797123Y-140960612D01*
X240797121Y-140960611D01*
X240761391Y-140931288D01*
X240659956Y-140848044D01*
X240576712Y-140746609D01*
X240547389Y-140710879D01*
X240537822Y-140692980D01*
X240463743Y-140554390D01*
X240427272Y-140434160D01*
X240412234Y-140384588D01*
X240394842Y-140208000D01*
X240412234Y-140031412D01*
X240463743Y-139861611D01*
X240463743Y-139861610D01*
X240547388Y-139705123D01*
X240547389Y-139705121D01*
X240576712Y-139669391D01*
X240659956Y-139567956D01*
X240761391Y-139484712D01*
X240797121Y-139455389D01*
X240910405Y-139394837D01*
X240953610Y-139371743D01*
X241010211Y-139354573D01*
X241123412Y-139320234D01*
X241211638Y-139311545D01*
X241255750Y-139307200D01*
X241344250Y-139307200D01*
X241388362Y-139311545D01*
X241388362Y-139311545D01*
G37*
G36*
X232752362Y-139311545D02*
X232840588Y-139320234D01*
X232953789Y-139354573D01*
X233010390Y-139371743D01*
X233053595Y-139394837D01*
X233166879Y-139455389D01*
X233202609Y-139484712D01*
X233304044Y-139567956D01*
X233387288Y-139669391D01*
X233416611Y-139705121D01*
X233416612Y-139705123D01*
X233500257Y-139861610D01*
X233500257Y-139861611D01*
X233551766Y-140031412D01*
X233569158Y-140208000D01*
X233551766Y-140384588D01*
X233536728Y-140434160D01*
X233500257Y-140554390D01*
X233426178Y-140692980D01*
X233416611Y-140710879D01*
X233387288Y-140746609D01*
X233304044Y-140848044D01*
X233202609Y-140931288D01*
X233166879Y-140960611D01*
X233166877Y-140960612D01*
X233010390Y-141044257D01*
X232967679Y-141057213D01*
X232840588Y-141095766D01*
X232752362Y-141104455D01*
X232708250Y-141108800D01*
X232619750Y-141108800D01*
X232575638Y-141104455D01*
X232487412Y-141095766D01*
X232360321Y-141057213D01*
X232317610Y-141044257D01*
X232161123Y-140960612D01*
X232161121Y-140960611D01*
X232125391Y-140931288D01*
X232023956Y-140848044D01*
X231940712Y-140746609D01*
X231911389Y-140710879D01*
X231901822Y-140692980D01*
X231827743Y-140554390D01*
X231791272Y-140434160D01*
X231776234Y-140384588D01*
X231758842Y-140208000D01*
X231776234Y-140031412D01*
X231827743Y-139861611D01*
X231827743Y-139861610D01*
X231911388Y-139705123D01*
X231911389Y-139705121D01*
X231940712Y-139669391D01*
X232023956Y-139567956D01*
X232125391Y-139484712D01*
X232161121Y-139455389D01*
X232274405Y-139394837D01*
X232317610Y-139371743D01*
X232374211Y-139354573D01*
X232487412Y-139320234D01*
X232575638Y-139311545D01*
X232619750Y-139307200D01*
X232708250Y-139307200D01*
X232752362Y-139311545D01*
X232752362Y-139311545D01*
G37*
G36*
X215304787Y-137845510D02*
X215465160Y-137894160D01*
X215465162Y-137894161D01*
X215612966Y-137973163D01*
X215742517Y-138079483D01*
X215848837Y-138209034D01*
X215901758Y-138308044D01*
X215927840Y-138356840D01*
X215976490Y-138517213D01*
X215992916Y-138684000D01*
X215976490Y-138850787D01*
X215927840Y-139011160D01*
X215927839Y-139011162D01*
X215848837Y-139158966D01*
X215742517Y-139288517D01*
X215612966Y-139394837D01*
X215465162Y-139473839D01*
X215465160Y-139473840D01*
X215304787Y-139522490D01*
X215179794Y-139534800D01*
X215096206Y-139534800D01*
X214971213Y-139522490D01*
X214810840Y-139473840D01*
X214810838Y-139473839D01*
X214663034Y-139394837D01*
X214533483Y-139288517D01*
X214427163Y-139158966D01*
X214348161Y-139011162D01*
X214348160Y-139011160D01*
X214299510Y-138850787D01*
X214283084Y-138684000D01*
X214299510Y-138517213D01*
X214348160Y-138356840D01*
X214374242Y-138308044D01*
X214427163Y-138209034D01*
X214533483Y-138079483D01*
X214663034Y-137973163D01*
X214810838Y-137894161D01*
X214810840Y-137894160D01*
X214971213Y-137845510D01*
X215096206Y-137833200D01*
X215179794Y-137833200D01*
X215304787Y-137845510D01*
X215304787Y-137845510D01*
G37*
G36*
X263564787Y-137845510D02*
X263725160Y-137894160D01*
X263725162Y-137894161D01*
X263872966Y-137973163D01*
X264002517Y-138079483D01*
X264108837Y-138209034D01*
X264161758Y-138308044D01*
X264187840Y-138356840D01*
X264236490Y-138517213D01*
X264252916Y-138684000D01*
X264236490Y-138850787D01*
X264187840Y-139011160D01*
X264187839Y-139011162D01*
X264108837Y-139158966D01*
X264002517Y-139288517D01*
X263872966Y-139394837D01*
X263725162Y-139473839D01*
X263725160Y-139473840D01*
X263564787Y-139522490D01*
X263439794Y-139534800D01*
X263356206Y-139534800D01*
X263231213Y-139522490D01*
X263070840Y-139473840D01*
X263070838Y-139473839D01*
X262923034Y-139394837D01*
X262793483Y-139288517D01*
X262687163Y-139158966D01*
X262608161Y-139011162D01*
X262608160Y-139011160D01*
X262559510Y-138850787D01*
X262543084Y-138684000D01*
X262559510Y-138517213D01*
X262608160Y-138356840D01*
X262634242Y-138308044D01*
X262687163Y-138209034D01*
X262793483Y-138079483D01*
X262923034Y-137973163D01*
X263070838Y-137894161D01*
X263070840Y-137894160D01*
X263231213Y-137845510D01*
X263356206Y-137833200D01*
X263439794Y-137833200D01*
X263564787Y-137845510D01*
X263564787Y-137845510D01*
G37*
G36*
X241388362Y-136771545D02*
X241476588Y-136780234D01*
X241589789Y-136814573D01*
X241646390Y-136831743D01*
X241689595Y-136854837D01*
X241802879Y-136915389D01*
X241838609Y-136944712D01*
X241940044Y-137027956D01*
X242023288Y-137129391D01*
X242052611Y-137165121D01*
X242052612Y-137165123D01*
X242136257Y-137321610D01*
X242136257Y-137321611D01*
X242187766Y-137491412D01*
X242205158Y-137668000D01*
X242187766Y-137844588D01*
X242172728Y-137894160D01*
X242136257Y-138014390D01*
X242062178Y-138152980D01*
X242052611Y-138170879D01*
X242023288Y-138206609D01*
X241940044Y-138308044D01*
X241838609Y-138391288D01*
X241802879Y-138420611D01*
X241802877Y-138420612D01*
X241646390Y-138504257D01*
X241603679Y-138517213D01*
X241476588Y-138555766D01*
X241388362Y-138564455D01*
X241344250Y-138568800D01*
X241255750Y-138568800D01*
X241211638Y-138564455D01*
X241123412Y-138555766D01*
X240996321Y-138517213D01*
X240953610Y-138504257D01*
X240797123Y-138420612D01*
X240797121Y-138420611D01*
X240761391Y-138391288D01*
X240659956Y-138308044D01*
X240576712Y-138206609D01*
X240547389Y-138170879D01*
X240537822Y-138152980D01*
X240463743Y-138014390D01*
X240427272Y-137894160D01*
X240412234Y-137844588D01*
X240394842Y-137668000D01*
X240412234Y-137491412D01*
X240463743Y-137321611D01*
X240463743Y-137321610D01*
X240547388Y-137165123D01*
X240547389Y-137165121D01*
X240576712Y-137129391D01*
X240659956Y-137027956D01*
X240761391Y-136944712D01*
X240797121Y-136915389D01*
X240910405Y-136854837D01*
X240953610Y-136831743D01*
X241010211Y-136814573D01*
X241123412Y-136780234D01*
X241211638Y-136771545D01*
X241255750Y-136767200D01*
X241344250Y-136767200D01*
X241388362Y-136771545D01*
X241388362Y-136771545D01*
G37*
G36*
X252564362Y-136771545D02*
X252652588Y-136780234D01*
X252765789Y-136814573D01*
X252822390Y-136831743D01*
X252865595Y-136854837D01*
X252978879Y-136915389D01*
X253014609Y-136944712D01*
X253116044Y-137027956D01*
X253199288Y-137129391D01*
X253228611Y-137165121D01*
X253228612Y-137165123D01*
X253312257Y-137321610D01*
X253312257Y-137321611D01*
X253363766Y-137491412D01*
X253381158Y-137668000D01*
X253363766Y-137844588D01*
X253348728Y-137894160D01*
X253312257Y-138014390D01*
X253238178Y-138152980D01*
X253228611Y-138170879D01*
X253199288Y-138206609D01*
X253116044Y-138308044D01*
X253014609Y-138391288D01*
X252978879Y-138420611D01*
X252978877Y-138420612D01*
X252822390Y-138504257D01*
X252779679Y-138517213D01*
X252652588Y-138555766D01*
X252564362Y-138564455D01*
X252520250Y-138568800D01*
X252431750Y-138568800D01*
X252387638Y-138564455D01*
X252299412Y-138555766D01*
X252172321Y-138517213D01*
X252129610Y-138504257D01*
X251973123Y-138420612D01*
X251973121Y-138420611D01*
X251937391Y-138391288D01*
X251835956Y-138308044D01*
X251752712Y-138206609D01*
X251723389Y-138170879D01*
X251713822Y-138152980D01*
X251639743Y-138014390D01*
X251603272Y-137894160D01*
X251588234Y-137844588D01*
X251570842Y-137668000D01*
X251588234Y-137491412D01*
X251639743Y-137321611D01*
X251639743Y-137321610D01*
X251723388Y-137165123D01*
X251723389Y-137165121D01*
X251752712Y-137129391D01*
X251835956Y-137027956D01*
X251937391Y-136944712D01*
X251973121Y-136915389D01*
X252086405Y-136854837D01*
X252129610Y-136831743D01*
X252186211Y-136814573D01*
X252299412Y-136780234D01*
X252387638Y-136771545D01*
X252431750Y-136767200D01*
X252520250Y-136767200D01*
X252564362Y-136771545D01*
X252564362Y-136771545D01*
G37*
G36*
X255104362Y-136771545D02*
X255192588Y-136780234D01*
X255305789Y-136814573D01*
X255362390Y-136831743D01*
X255405595Y-136854837D01*
X255518879Y-136915389D01*
X255554609Y-136944712D01*
X255656044Y-137027956D01*
X255739288Y-137129391D01*
X255768611Y-137165121D01*
X255768612Y-137165123D01*
X255852257Y-137321610D01*
X255852257Y-137321611D01*
X255903766Y-137491412D01*
X255921158Y-137668000D01*
X255903766Y-137844588D01*
X255888728Y-137894160D01*
X255852257Y-138014390D01*
X255778178Y-138152980D01*
X255768611Y-138170879D01*
X255739288Y-138206609D01*
X255656044Y-138308044D01*
X255554609Y-138391288D01*
X255518879Y-138420611D01*
X255518877Y-138420612D01*
X255362390Y-138504257D01*
X255319679Y-138517213D01*
X255192588Y-138555766D01*
X255104362Y-138564455D01*
X255060250Y-138568800D01*
X254971750Y-138568800D01*
X254927638Y-138564455D01*
X254839412Y-138555766D01*
X254712321Y-138517213D01*
X254669610Y-138504257D01*
X254513123Y-138420612D01*
X254513121Y-138420611D01*
X254477391Y-138391288D01*
X254375956Y-138308044D01*
X254292712Y-138206609D01*
X254263389Y-138170879D01*
X254253822Y-138152980D01*
X254179743Y-138014390D01*
X254143272Y-137894160D01*
X254128234Y-137844588D01*
X254110842Y-137668000D01*
X254128234Y-137491412D01*
X254179743Y-137321611D01*
X254179743Y-137321610D01*
X254263388Y-137165123D01*
X254263389Y-137165121D01*
X254292712Y-137129391D01*
X254375956Y-137027956D01*
X254477391Y-136944712D01*
X254513121Y-136915389D01*
X254626405Y-136854837D01*
X254669610Y-136831743D01*
X254726211Y-136814573D01*
X254839412Y-136780234D01*
X254927638Y-136771545D01*
X254971750Y-136767200D01*
X255060250Y-136767200D01*
X255104362Y-136771545D01*
X255104362Y-136771545D01*
G37*
G36*
X243928362Y-136771545D02*
X244016588Y-136780234D01*
X244129789Y-136814573D01*
X244186390Y-136831743D01*
X244229595Y-136854837D01*
X244342879Y-136915389D01*
X244378609Y-136944712D01*
X244480044Y-137027956D01*
X244563288Y-137129391D01*
X244592611Y-137165121D01*
X244592612Y-137165123D01*
X244676257Y-137321610D01*
X244676257Y-137321611D01*
X244727766Y-137491412D01*
X244745158Y-137668000D01*
X244727766Y-137844588D01*
X244712728Y-137894160D01*
X244676257Y-138014390D01*
X244602178Y-138152980D01*
X244592611Y-138170879D01*
X244563288Y-138206609D01*
X244480044Y-138308044D01*
X244378609Y-138391288D01*
X244342879Y-138420611D01*
X244342877Y-138420612D01*
X244186390Y-138504257D01*
X244143679Y-138517213D01*
X244016588Y-138555766D01*
X243928362Y-138564455D01*
X243884250Y-138568800D01*
X243795750Y-138568800D01*
X243751638Y-138564455D01*
X243663412Y-138555766D01*
X243536321Y-138517213D01*
X243493610Y-138504257D01*
X243337123Y-138420612D01*
X243337121Y-138420611D01*
X243301391Y-138391288D01*
X243199956Y-138308044D01*
X243116712Y-138206609D01*
X243087389Y-138170879D01*
X243077822Y-138152980D01*
X243003743Y-138014390D01*
X242967272Y-137894160D01*
X242952234Y-137844588D01*
X242934842Y-137668000D01*
X242952234Y-137491412D01*
X243003743Y-137321611D01*
X243003743Y-137321610D01*
X243087388Y-137165123D01*
X243087389Y-137165121D01*
X243116712Y-137129391D01*
X243199956Y-137027956D01*
X243301391Y-136944712D01*
X243337121Y-136915389D01*
X243450405Y-136854837D01*
X243493610Y-136831743D01*
X243550211Y-136814573D01*
X243663412Y-136780234D01*
X243751638Y-136771545D01*
X243795750Y-136767200D01*
X243884250Y-136767200D01*
X243928362Y-136771545D01*
X243928362Y-136771545D01*
G37*
G36*
X232752362Y-136771545D02*
X232840588Y-136780234D01*
X232953789Y-136814573D01*
X233010390Y-136831743D01*
X233053595Y-136854837D01*
X233166879Y-136915389D01*
X233202609Y-136944712D01*
X233304044Y-137027956D01*
X233387288Y-137129391D01*
X233416611Y-137165121D01*
X233416612Y-137165123D01*
X233500257Y-137321610D01*
X233500257Y-137321611D01*
X233551766Y-137491412D01*
X233569158Y-137668000D01*
X233551766Y-137844588D01*
X233536728Y-137894160D01*
X233500257Y-138014390D01*
X233426178Y-138152980D01*
X233416611Y-138170879D01*
X233387288Y-138206609D01*
X233304044Y-138308044D01*
X233202609Y-138391288D01*
X233166879Y-138420611D01*
X233166877Y-138420612D01*
X233010390Y-138504257D01*
X232967679Y-138517213D01*
X232840588Y-138555766D01*
X232752362Y-138564455D01*
X232708250Y-138568800D01*
X232619750Y-138568800D01*
X232575638Y-138564455D01*
X232487412Y-138555766D01*
X232360321Y-138517213D01*
X232317610Y-138504257D01*
X232161123Y-138420612D01*
X232161121Y-138420611D01*
X232125391Y-138391288D01*
X232023956Y-138308044D01*
X231940712Y-138206609D01*
X231911389Y-138170879D01*
X231901822Y-138152980D01*
X231827743Y-138014390D01*
X231791272Y-137894160D01*
X231776234Y-137844588D01*
X231758842Y-137668000D01*
X231776234Y-137491412D01*
X231827743Y-137321611D01*
X231827743Y-137321610D01*
X231911388Y-137165123D01*
X231911389Y-137165121D01*
X231940712Y-137129391D01*
X232023956Y-137027956D01*
X232125391Y-136944712D01*
X232161121Y-136915389D01*
X232274405Y-136854837D01*
X232317610Y-136831743D01*
X232374211Y-136814573D01*
X232487412Y-136780234D01*
X232575638Y-136771545D01*
X232619750Y-136767200D01*
X232708250Y-136767200D01*
X232752362Y-136771545D01*
X232752362Y-136771545D01*
G37*
G36*
X219036362Y-136771545D02*
X219124588Y-136780234D01*
X219237789Y-136814573D01*
X219294390Y-136831743D01*
X219337595Y-136854837D01*
X219450879Y-136915389D01*
X219486609Y-136944712D01*
X219588044Y-137027956D01*
X219671288Y-137129391D01*
X219700611Y-137165121D01*
X219700612Y-137165123D01*
X219784257Y-137321610D01*
X219784257Y-137321611D01*
X219835766Y-137491412D01*
X219853158Y-137668000D01*
X219835766Y-137844588D01*
X219820728Y-137894160D01*
X219784257Y-138014390D01*
X219710178Y-138152980D01*
X219700611Y-138170879D01*
X219671288Y-138206609D01*
X219588044Y-138308044D01*
X219486609Y-138391288D01*
X219450879Y-138420611D01*
X219450877Y-138420612D01*
X219294390Y-138504257D01*
X219251679Y-138517213D01*
X219124588Y-138555766D01*
X219036362Y-138564455D01*
X218992250Y-138568800D01*
X218903750Y-138568800D01*
X218859638Y-138564455D01*
X218771412Y-138555766D01*
X218644321Y-138517213D01*
X218601610Y-138504257D01*
X218445123Y-138420612D01*
X218445121Y-138420611D01*
X218409391Y-138391288D01*
X218307956Y-138308044D01*
X218224712Y-138206609D01*
X218195389Y-138170879D01*
X218185822Y-138152980D01*
X218111743Y-138014390D01*
X218075272Y-137894160D01*
X218060234Y-137844588D01*
X218042842Y-137668000D01*
X218060234Y-137491412D01*
X218111743Y-137321611D01*
X218111743Y-137321610D01*
X218195388Y-137165123D01*
X218195389Y-137165121D01*
X218224712Y-137129391D01*
X218307956Y-137027956D01*
X218409391Y-136944712D01*
X218445121Y-136915389D01*
X218558405Y-136854837D01*
X218601610Y-136831743D01*
X218658211Y-136814573D01*
X218771412Y-136780234D01*
X218859638Y-136771545D01*
X218903750Y-136767200D01*
X218992250Y-136767200D01*
X219036362Y-136771545D01*
X219036362Y-136771545D01*
G37*
G36*
X230212362Y-136771545D02*
X230300588Y-136780234D01*
X230413789Y-136814573D01*
X230470390Y-136831743D01*
X230513595Y-136854837D01*
X230626879Y-136915389D01*
X230662609Y-136944712D01*
X230764044Y-137027956D01*
X230847288Y-137129391D01*
X230876611Y-137165121D01*
X230876612Y-137165123D01*
X230960257Y-137321610D01*
X230960257Y-137321611D01*
X231011766Y-137491412D01*
X231029158Y-137668000D01*
X231011766Y-137844588D01*
X230996728Y-137894160D01*
X230960257Y-138014390D01*
X230886178Y-138152980D01*
X230876611Y-138170879D01*
X230847288Y-138206609D01*
X230764044Y-138308044D01*
X230662609Y-138391288D01*
X230626879Y-138420611D01*
X230626877Y-138420612D01*
X230470390Y-138504257D01*
X230427679Y-138517213D01*
X230300588Y-138555766D01*
X230212362Y-138564455D01*
X230168250Y-138568800D01*
X230079750Y-138568800D01*
X230035638Y-138564455D01*
X229947412Y-138555766D01*
X229820321Y-138517213D01*
X229777610Y-138504257D01*
X229621123Y-138420612D01*
X229621121Y-138420611D01*
X229585391Y-138391288D01*
X229483956Y-138308044D01*
X229400712Y-138206609D01*
X229371389Y-138170879D01*
X229361822Y-138152980D01*
X229287743Y-138014390D01*
X229251272Y-137894160D01*
X229236234Y-137844588D01*
X229218842Y-137668000D01*
X229236234Y-137491412D01*
X229287743Y-137321611D01*
X229287743Y-137321610D01*
X229371388Y-137165123D01*
X229371389Y-137165121D01*
X229400712Y-137129391D01*
X229483956Y-137027956D01*
X229585391Y-136944712D01*
X229621121Y-136915389D01*
X229734405Y-136854837D01*
X229777610Y-136831743D01*
X229834211Y-136814573D01*
X229947412Y-136780234D01*
X230035638Y-136771545D01*
X230079750Y-136767200D01*
X230168250Y-136767200D01*
X230212362Y-136771545D01*
X230212362Y-136771545D01*
G37*
G36*
X221576362Y-136771545D02*
X221664588Y-136780234D01*
X221777789Y-136814573D01*
X221834390Y-136831743D01*
X221877595Y-136854837D01*
X221990879Y-136915389D01*
X222026609Y-136944712D01*
X222128044Y-137027956D01*
X222211288Y-137129391D01*
X222240611Y-137165121D01*
X222240612Y-137165123D01*
X222324257Y-137321610D01*
X222324257Y-137321611D01*
X222375766Y-137491412D01*
X222393158Y-137668000D01*
X222375766Y-137844588D01*
X222360728Y-137894160D01*
X222324257Y-138014390D01*
X222250178Y-138152980D01*
X222240611Y-138170879D01*
X222211288Y-138206609D01*
X222128044Y-138308044D01*
X222026609Y-138391288D01*
X221990879Y-138420611D01*
X221990877Y-138420612D01*
X221834390Y-138504257D01*
X221791679Y-138517213D01*
X221664588Y-138555766D01*
X221576362Y-138564455D01*
X221532250Y-138568800D01*
X221443750Y-138568800D01*
X221399638Y-138564455D01*
X221311412Y-138555766D01*
X221184321Y-138517213D01*
X221141610Y-138504257D01*
X220985123Y-138420612D01*
X220985121Y-138420611D01*
X220949391Y-138391288D01*
X220847956Y-138308044D01*
X220764712Y-138206609D01*
X220735389Y-138170879D01*
X220725822Y-138152980D01*
X220651743Y-138014390D01*
X220615272Y-137894160D01*
X220600234Y-137844588D01*
X220582842Y-137668000D01*
X220600234Y-137491412D01*
X220651743Y-137321611D01*
X220651743Y-137321610D01*
X220735388Y-137165123D01*
X220735389Y-137165121D01*
X220764712Y-137129391D01*
X220847956Y-137027956D01*
X220949391Y-136944712D01*
X220985121Y-136915389D01*
X221098405Y-136854837D01*
X221141610Y-136831743D01*
X221198211Y-136814573D01*
X221311412Y-136780234D01*
X221399638Y-136771545D01*
X221443750Y-136767200D01*
X221532250Y-136767200D01*
X221576362Y-136771545D01*
X221576362Y-136771545D01*
G37*
G36*
X263564787Y-135305510D02*
X263725160Y-135354160D01*
X263725162Y-135354161D01*
X263872966Y-135433163D01*
X264002517Y-135539483D01*
X264108837Y-135669034D01*
X264161758Y-135768044D01*
X264187840Y-135816840D01*
X264236490Y-135977213D01*
X264252916Y-136144000D01*
X264236490Y-136310787D01*
X264187840Y-136471160D01*
X264187839Y-136471162D01*
X264108837Y-136618966D01*
X264002517Y-136748517D01*
X263872966Y-136854837D01*
X263725162Y-136933839D01*
X263725160Y-136933840D01*
X263564787Y-136982490D01*
X263439794Y-136994800D01*
X263356206Y-136994800D01*
X263231213Y-136982490D01*
X263070840Y-136933840D01*
X263070838Y-136933839D01*
X262923034Y-136854837D01*
X262793483Y-136748517D01*
X262687163Y-136618966D01*
X262608161Y-136471162D01*
X262608160Y-136471160D01*
X262559510Y-136310787D01*
X262543084Y-136144000D01*
X262559510Y-135977213D01*
X262608160Y-135816840D01*
X262634242Y-135768044D01*
X262687163Y-135669034D01*
X262793483Y-135539483D01*
X262923034Y-135433163D01*
X263070838Y-135354161D01*
X263070840Y-135354160D01*
X263231213Y-135305510D01*
X263356206Y-135293200D01*
X263439794Y-135293200D01*
X263564787Y-135305510D01*
X263564787Y-135305510D01*
G37*
G36*
X215304787Y-135305510D02*
X215465160Y-135354160D01*
X215465162Y-135354161D01*
X215612966Y-135433163D01*
X215742517Y-135539483D01*
X215848837Y-135669034D01*
X215901758Y-135768044D01*
X215927840Y-135816840D01*
X215976490Y-135977213D01*
X215992916Y-136144000D01*
X215976490Y-136310787D01*
X215927840Y-136471160D01*
X215927839Y-136471162D01*
X215848837Y-136618966D01*
X215742517Y-136748517D01*
X215612966Y-136854837D01*
X215465162Y-136933839D01*
X215465160Y-136933840D01*
X215304787Y-136982490D01*
X215179794Y-136994800D01*
X215096206Y-136994800D01*
X214971213Y-136982490D01*
X214810840Y-136933840D01*
X214810838Y-136933839D01*
X214663034Y-136854837D01*
X214533483Y-136748517D01*
X214427163Y-136618966D01*
X214348161Y-136471162D01*
X214348160Y-136471160D01*
X214299510Y-136310787D01*
X214283084Y-136144000D01*
X214299510Y-135977213D01*
X214348160Y-135816840D01*
X214374242Y-135768044D01*
X214427163Y-135669034D01*
X214533483Y-135539483D01*
X214663034Y-135433163D01*
X214810838Y-135354161D01*
X214810840Y-135354160D01*
X214971213Y-135305510D01*
X215096206Y-135293200D01*
X215179794Y-135293200D01*
X215304787Y-135305510D01*
X215304787Y-135305510D01*
G37*
G36*
X255104362Y-134231545D02*
X255192588Y-134240234D01*
X255305789Y-134274573D01*
X255362390Y-134291743D01*
X255405595Y-134314837D01*
X255518879Y-134375389D01*
X255554609Y-134404712D01*
X255656044Y-134487956D01*
X255739288Y-134589391D01*
X255768611Y-134625121D01*
X255768612Y-134625123D01*
X255852257Y-134781610D01*
X255852257Y-134781611D01*
X255903766Y-134951412D01*
X255921158Y-135128000D01*
X255903766Y-135304588D01*
X255888728Y-135354160D01*
X255852257Y-135474390D01*
X255778178Y-135612980D01*
X255768611Y-135630879D01*
X255739288Y-135666609D01*
X255656044Y-135768044D01*
X255554609Y-135851288D01*
X255518879Y-135880611D01*
X255518877Y-135880612D01*
X255362390Y-135964257D01*
X255319679Y-135977213D01*
X255192588Y-136015766D01*
X255104362Y-136024455D01*
X255060250Y-136028800D01*
X254971750Y-136028800D01*
X254927638Y-136024455D01*
X254839412Y-136015766D01*
X254712321Y-135977213D01*
X254669610Y-135964257D01*
X254513123Y-135880612D01*
X254513121Y-135880611D01*
X254477391Y-135851288D01*
X254375956Y-135768044D01*
X254292712Y-135666609D01*
X254263389Y-135630879D01*
X254253822Y-135612980D01*
X254179743Y-135474390D01*
X254143272Y-135354160D01*
X254128234Y-135304588D01*
X254110842Y-135128000D01*
X254128234Y-134951412D01*
X254179743Y-134781611D01*
X254179743Y-134781610D01*
X254263388Y-134625123D01*
X254263389Y-134625121D01*
X254292712Y-134589391D01*
X254375956Y-134487956D01*
X254477391Y-134404712D01*
X254513121Y-134375389D01*
X254626405Y-134314837D01*
X254669610Y-134291743D01*
X254726211Y-134274573D01*
X254839412Y-134240234D01*
X254927638Y-134231545D01*
X254971750Y-134227200D01*
X255060250Y-134227200D01*
X255104362Y-134231545D01*
X255104362Y-134231545D01*
G37*
G36*
X232752362Y-134231545D02*
X232840588Y-134240234D01*
X232953789Y-134274573D01*
X233010390Y-134291743D01*
X233053595Y-134314837D01*
X233166879Y-134375389D01*
X233202609Y-134404712D01*
X233304044Y-134487956D01*
X233387288Y-134589391D01*
X233416611Y-134625121D01*
X233416612Y-134625123D01*
X233500257Y-134781610D01*
X233500257Y-134781611D01*
X233551766Y-134951412D01*
X233569158Y-135128000D01*
X233551766Y-135304588D01*
X233536728Y-135354160D01*
X233500257Y-135474390D01*
X233426178Y-135612980D01*
X233416611Y-135630879D01*
X233387288Y-135666609D01*
X233304044Y-135768044D01*
X233202609Y-135851288D01*
X233166879Y-135880611D01*
X233166877Y-135880612D01*
X233010390Y-135964257D01*
X232967679Y-135977213D01*
X232840588Y-136015766D01*
X232752362Y-136024455D01*
X232708250Y-136028800D01*
X232619750Y-136028800D01*
X232575638Y-136024455D01*
X232487412Y-136015766D01*
X232360321Y-135977213D01*
X232317610Y-135964257D01*
X232161123Y-135880612D01*
X232161121Y-135880611D01*
X232125391Y-135851288D01*
X232023956Y-135768044D01*
X231940712Y-135666609D01*
X231911389Y-135630879D01*
X231901822Y-135612980D01*
X231827743Y-135474390D01*
X231791272Y-135354160D01*
X231776234Y-135304588D01*
X231758842Y-135128000D01*
X231776234Y-134951412D01*
X231827743Y-134781611D01*
X231827743Y-134781610D01*
X231911388Y-134625123D01*
X231911389Y-134625121D01*
X231940712Y-134589391D01*
X232023956Y-134487956D01*
X232125391Y-134404712D01*
X232161121Y-134375389D01*
X232274405Y-134314837D01*
X232317610Y-134291743D01*
X232374211Y-134274573D01*
X232487412Y-134240234D01*
X232575638Y-134231545D01*
X232619750Y-134227200D01*
X232708250Y-134227200D01*
X232752362Y-134231545D01*
X232752362Y-134231545D01*
G37*
G36*
X221576362Y-134231545D02*
X221664588Y-134240234D01*
X221777789Y-134274573D01*
X221834390Y-134291743D01*
X221877595Y-134314837D01*
X221990879Y-134375389D01*
X222026609Y-134404712D01*
X222128044Y-134487956D01*
X222211288Y-134589391D01*
X222240611Y-134625121D01*
X222240612Y-134625123D01*
X222324257Y-134781610D01*
X222324257Y-134781611D01*
X222375766Y-134951412D01*
X222393158Y-135128000D01*
X222375766Y-135304588D01*
X222360728Y-135354160D01*
X222324257Y-135474390D01*
X222250178Y-135612980D01*
X222240611Y-135630879D01*
X222211288Y-135666609D01*
X222128044Y-135768044D01*
X222026609Y-135851288D01*
X221990879Y-135880611D01*
X221990877Y-135880612D01*
X221834390Y-135964257D01*
X221791679Y-135977213D01*
X221664588Y-136015766D01*
X221576362Y-136024455D01*
X221532250Y-136028800D01*
X221443750Y-136028800D01*
X221399638Y-136024455D01*
X221311412Y-136015766D01*
X221184321Y-135977213D01*
X221141610Y-135964257D01*
X220985123Y-135880612D01*
X220985121Y-135880611D01*
X220949391Y-135851288D01*
X220847956Y-135768044D01*
X220764712Y-135666609D01*
X220735389Y-135630879D01*
X220725822Y-135612980D01*
X220651743Y-135474390D01*
X220615272Y-135354160D01*
X220600234Y-135304588D01*
X220582842Y-135128000D01*
X220600234Y-134951412D01*
X220651743Y-134781611D01*
X220651743Y-134781610D01*
X220735388Y-134625123D01*
X220735389Y-134625121D01*
X220764712Y-134589391D01*
X220847956Y-134487956D01*
X220949391Y-134404712D01*
X220985121Y-134375389D01*
X221098405Y-134314837D01*
X221141610Y-134291743D01*
X221198211Y-134274573D01*
X221311412Y-134240234D01*
X221399638Y-134231545D01*
X221443750Y-134227200D01*
X221532250Y-134227200D01*
X221576362Y-134231545D01*
X221576362Y-134231545D01*
G37*
G36*
X219036362Y-134231545D02*
X219124588Y-134240234D01*
X219237789Y-134274573D01*
X219294390Y-134291743D01*
X219337595Y-134314837D01*
X219450879Y-134375389D01*
X219486609Y-134404712D01*
X219588044Y-134487956D01*
X219671288Y-134589391D01*
X219700611Y-134625121D01*
X219700612Y-134625123D01*
X219784257Y-134781610D01*
X219784257Y-134781611D01*
X219835766Y-134951412D01*
X219853158Y-135128000D01*
X219835766Y-135304588D01*
X219820728Y-135354160D01*
X219784257Y-135474390D01*
X219710178Y-135612980D01*
X219700611Y-135630879D01*
X219671288Y-135666609D01*
X219588044Y-135768044D01*
X219486609Y-135851288D01*
X219450879Y-135880611D01*
X219450877Y-135880612D01*
X219294390Y-135964257D01*
X219251679Y-135977213D01*
X219124588Y-136015766D01*
X219036362Y-136024455D01*
X218992250Y-136028800D01*
X218903750Y-136028800D01*
X218859638Y-136024455D01*
X218771412Y-136015766D01*
X218644321Y-135977213D01*
X218601610Y-135964257D01*
X218445123Y-135880612D01*
X218445121Y-135880611D01*
X218409391Y-135851288D01*
X218307956Y-135768044D01*
X218224712Y-135666609D01*
X218195389Y-135630879D01*
X218185822Y-135612980D01*
X218111743Y-135474390D01*
X218075272Y-135354160D01*
X218060234Y-135304588D01*
X218042842Y-135128000D01*
X218060234Y-134951412D01*
X218111743Y-134781611D01*
X218111743Y-134781610D01*
X218195388Y-134625123D01*
X218195389Y-134625121D01*
X218224712Y-134589391D01*
X218307956Y-134487956D01*
X218409391Y-134404712D01*
X218445121Y-134375389D01*
X218558405Y-134314837D01*
X218601610Y-134291743D01*
X218658211Y-134274573D01*
X218771412Y-134240234D01*
X218859638Y-134231545D01*
X218903750Y-134227200D01*
X218992250Y-134227200D01*
X219036362Y-134231545D01*
X219036362Y-134231545D01*
G37*
G36*
X252564362Y-134231545D02*
X252652588Y-134240234D01*
X252765789Y-134274573D01*
X252822390Y-134291743D01*
X252865595Y-134314837D01*
X252978879Y-134375389D01*
X253014609Y-134404712D01*
X253116044Y-134487956D01*
X253199288Y-134589391D01*
X253228611Y-134625121D01*
X253228612Y-134625123D01*
X253312257Y-134781610D01*
X253312257Y-134781611D01*
X253363766Y-134951412D01*
X253381158Y-135128000D01*
X253363766Y-135304588D01*
X253348728Y-135354160D01*
X253312257Y-135474390D01*
X253238178Y-135612980D01*
X253228611Y-135630879D01*
X253199288Y-135666609D01*
X253116044Y-135768044D01*
X253014609Y-135851288D01*
X252978879Y-135880611D01*
X252978877Y-135880612D01*
X252822390Y-135964257D01*
X252779679Y-135977213D01*
X252652588Y-136015766D01*
X252564362Y-136024455D01*
X252520250Y-136028800D01*
X252431750Y-136028800D01*
X252387638Y-136024455D01*
X252299412Y-136015766D01*
X252172321Y-135977213D01*
X252129610Y-135964257D01*
X251973123Y-135880612D01*
X251973121Y-135880611D01*
X251937391Y-135851288D01*
X251835956Y-135768044D01*
X251752712Y-135666609D01*
X251723389Y-135630879D01*
X251713822Y-135612980D01*
X251639743Y-135474390D01*
X251603272Y-135354160D01*
X251588234Y-135304588D01*
X251570842Y-135128000D01*
X251588234Y-134951412D01*
X251639743Y-134781611D01*
X251639743Y-134781610D01*
X251723388Y-134625123D01*
X251723389Y-134625121D01*
X251752712Y-134589391D01*
X251835956Y-134487956D01*
X251937391Y-134404712D01*
X251973121Y-134375389D01*
X252086405Y-134314837D01*
X252129610Y-134291743D01*
X252186211Y-134274573D01*
X252299412Y-134240234D01*
X252387638Y-134231545D01*
X252431750Y-134227200D01*
X252520250Y-134227200D01*
X252564362Y-134231545D01*
X252564362Y-134231545D01*
G37*
G36*
X243928362Y-134231545D02*
X244016588Y-134240234D01*
X244129789Y-134274573D01*
X244186390Y-134291743D01*
X244229595Y-134314837D01*
X244342879Y-134375389D01*
X244378609Y-134404712D01*
X244480044Y-134487956D01*
X244563288Y-134589391D01*
X244592611Y-134625121D01*
X244592612Y-134625123D01*
X244676257Y-134781610D01*
X244676257Y-134781611D01*
X244727766Y-134951412D01*
X244745158Y-135128000D01*
X244727766Y-135304588D01*
X244712728Y-135354160D01*
X244676257Y-135474390D01*
X244602178Y-135612980D01*
X244592611Y-135630879D01*
X244563288Y-135666609D01*
X244480044Y-135768044D01*
X244378609Y-135851288D01*
X244342879Y-135880611D01*
X244342877Y-135880612D01*
X244186390Y-135964257D01*
X244143679Y-135977213D01*
X244016588Y-136015766D01*
X243928362Y-136024455D01*
X243884250Y-136028800D01*
X243795750Y-136028800D01*
X243751638Y-136024455D01*
X243663412Y-136015766D01*
X243536321Y-135977213D01*
X243493610Y-135964257D01*
X243337123Y-135880612D01*
X243337121Y-135880611D01*
X243301391Y-135851288D01*
X243199956Y-135768044D01*
X243116712Y-135666609D01*
X243087389Y-135630879D01*
X243077822Y-135612980D01*
X243003743Y-135474390D01*
X242967272Y-135354160D01*
X242952234Y-135304588D01*
X242934842Y-135128000D01*
X242952234Y-134951412D01*
X243003743Y-134781611D01*
X243003743Y-134781610D01*
X243087388Y-134625123D01*
X243087389Y-134625121D01*
X243116712Y-134589391D01*
X243199956Y-134487956D01*
X243301391Y-134404712D01*
X243337121Y-134375389D01*
X243450405Y-134314837D01*
X243493610Y-134291743D01*
X243550211Y-134274573D01*
X243663412Y-134240234D01*
X243751638Y-134231545D01*
X243795750Y-134227200D01*
X243884250Y-134227200D01*
X243928362Y-134231545D01*
X243928362Y-134231545D01*
G37*
G36*
X230212362Y-134231545D02*
X230300588Y-134240234D01*
X230413789Y-134274573D01*
X230470390Y-134291743D01*
X230513595Y-134314837D01*
X230626879Y-134375389D01*
X230662609Y-134404712D01*
X230764044Y-134487956D01*
X230847288Y-134589391D01*
X230876611Y-134625121D01*
X230876612Y-134625123D01*
X230960257Y-134781610D01*
X230960257Y-134781611D01*
X231011766Y-134951412D01*
X231029158Y-135128000D01*
X231011766Y-135304588D01*
X230996728Y-135354160D01*
X230960257Y-135474390D01*
X230886178Y-135612980D01*
X230876611Y-135630879D01*
X230847288Y-135666609D01*
X230764044Y-135768044D01*
X230662609Y-135851288D01*
X230626879Y-135880611D01*
X230626877Y-135880612D01*
X230470390Y-135964257D01*
X230427679Y-135977213D01*
X230300588Y-136015766D01*
X230212362Y-136024455D01*
X230168250Y-136028800D01*
X230079750Y-136028800D01*
X230035638Y-136024455D01*
X229947412Y-136015766D01*
X229820321Y-135977213D01*
X229777610Y-135964257D01*
X229621123Y-135880612D01*
X229621121Y-135880611D01*
X229585391Y-135851288D01*
X229483956Y-135768044D01*
X229400712Y-135666609D01*
X229371389Y-135630879D01*
X229361822Y-135612980D01*
X229287743Y-135474390D01*
X229251272Y-135354160D01*
X229236234Y-135304588D01*
X229218842Y-135128000D01*
X229236234Y-134951412D01*
X229287743Y-134781611D01*
X229287743Y-134781610D01*
X229371388Y-134625123D01*
X229371389Y-134625121D01*
X229400712Y-134589391D01*
X229483956Y-134487956D01*
X229585391Y-134404712D01*
X229621121Y-134375389D01*
X229734405Y-134314837D01*
X229777610Y-134291743D01*
X229834211Y-134274573D01*
X229947412Y-134240234D01*
X230035638Y-134231545D01*
X230079750Y-134227200D01*
X230168250Y-134227200D01*
X230212362Y-134231545D01*
X230212362Y-134231545D01*
G37*
G36*
X241388362Y-134231545D02*
X241476588Y-134240234D01*
X241589789Y-134274573D01*
X241646390Y-134291743D01*
X241689595Y-134314837D01*
X241802879Y-134375389D01*
X241838609Y-134404712D01*
X241940044Y-134487956D01*
X242023288Y-134589391D01*
X242052611Y-134625121D01*
X242052612Y-134625123D01*
X242136257Y-134781610D01*
X242136257Y-134781611D01*
X242187766Y-134951412D01*
X242205158Y-135128000D01*
X242187766Y-135304588D01*
X242172728Y-135354160D01*
X242136257Y-135474390D01*
X242062178Y-135612980D01*
X242052611Y-135630879D01*
X242023288Y-135666609D01*
X241940044Y-135768044D01*
X241838609Y-135851288D01*
X241802879Y-135880611D01*
X241802877Y-135880612D01*
X241646390Y-135964257D01*
X241603679Y-135977213D01*
X241476588Y-136015766D01*
X241388362Y-136024455D01*
X241344250Y-136028800D01*
X241255750Y-136028800D01*
X241211638Y-136024455D01*
X241123412Y-136015766D01*
X240996321Y-135977213D01*
X240953610Y-135964257D01*
X240797123Y-135880612D01*
X240797121Y-135880611D01*
X240761391Y-135851288D01*
X240659956Y-135768044D01*
X240576712Y-135666609D01*
X240547389Y-135630879D01*
X240537822Y-135612980D01*
X240463743Y-135474390D01*
X240427272Y-135354160D01*
X240412234Y-135304588D01*
X240394842Y-135128000D01*
X240412234Y-134951412D01*
X240463743Y-134781611D01*
X240463743Y-134781610D01*
X240547388Y-134625123D01*
X240547389Y-134625121D01*
X240576712Y-134589391D01*
X240659956Y-134487956D01*
X240761391Y-134404712D01*
X240797121Y-134375389D01*
X240910405Y-134314837D01*
X240953610Y-134291743D01*
X241010211Y-134274573D01*
X241123412Y-134240234D01*
X241211638Y-134231545D01*
X241255750Y-134227200D01*
X241344250Y-134227200D01*
X241388362Y-134231545D01*
X241388362Y-134231545D01*
G37*
G36*
X263564787Y-132765510D02*
X263725160Y-132814160D01*
X263725162Y-132814161D01*
X263872966Y-132893163D01*
X264002517Y-132999483D01*
X264108837Y-133129034D01*
X264161758Y-133228044D01*
X264187840Y-133276840D01*
X264236490Y-133437213D01*
X264252916Y-133604000D01*
X264236490Y-133770787D01*
X264187840Y-133931160D01*
X264187839Y-133931162D01*
X264108837Y-134078966D01*
X264002517Y-134208517D01*
X263872966Y-134314837D01*
X263725162Y-134393839D01*
X263725160Y-134393840D01*
X263564787Y-134442490D01*
X263439794Y-134454800D01*
X263356206Y-134454800D01*
X263231213Y-134442490D01*
X263070840Y-134393840D01*
X263070838Y-134393839D01*
X262923034Y-134314837D01*
X262793483Y-134208517D01*
X262687163Y-134078966D01*
X262608161Y-133931162D01*
X262608160Y-133931160D01*
X262559510Y-133770787D01*
X262543084Y-133604000D01*
X262559510Y-133437213D01*
X262608160Y-133276840D01*
X262634242Y-133228044D01*
X262687163Y-133129034D01*
X262793483Y-132999483D01*
X262923034Y-132893163D01*
X263070838Y-132814161D01*
X263070840Y-132814160D01*
X263231213Y-132765510D01*
X263356206Y-132753200D01*
X263439794Y-132753200D01*
X263564787Y-132765510D01*
X263564787Y-132765510D01*
G37*
G36*
X215304787Y-132765510D02*
X215465160Y-132814160D01*
X215465162Y-132814161D01*
X215612966Y-132893163D01*
X215742517Y-132999483D01*
X215848837Y-133129034D01*
X215901758Y-133228044D01*
X215927840Y-133276840D01*
X215976490Y-133437213D01*
X215992916Y-133604000D01*
X215976490Y-133770787D01*
X215927840Y-133931160D01*
X215927839Y-133931162D01*
X215848837Y-134078966D01*
X215742517Y-134208517D01*
X215612966Y-134314837D01*
X215465162Y-134393839D01*
X215465160Y-134393840D01*
X215304787Y-134442490D01*
X215179794Y-134454800D01*
X215096206Y-134454800D01*
X214971213Y-134442490D01*
X214810840Y-134393840D01*
X214810838Y-134393839D01*
X214663034Y-134314837D01*
X214533483Y-134208517D01*
X214427163Y-134078966D01*
X214348161Y-133931162D01*
X214348160Y-133931160D01*
X214299510Y-133770787D01*
X214283084Y-133604000D01*
X214299510Y-133437213D01*
X214348160Y-133276840D01*
X214374242Y-133228044D01*
X214427163Y-133129034D01*
X214533483Y-132999483D01*
X214663034Y-132893163D01*
X214810838Y-132814161D01*
X214810840Y-132814160D01*
X214971213Y-132765510D01*
X215096206Y-132753200D01*
X215179794Y-132753200D01*
X215304787Y-132765510D01*
X215304787Y-132765510D01*
G37*
G36*
X219036362Y-131691545D02*
X219124588Y-131700234D01*
X219237789Y-131734573D01*
X219294390Y-131751743D01*
X219337595Y-131774837D01*
X219450879Y-131835389D01*
X219486609Y-131864712D01*
X219588044Y-131947956D01*
X219671288Y-132049391D01*
X219700611Y-132085121D01*
X219700612Y-132085123D01*
X219784257Y-132241610D01*
X219784257Y-132241611D01*
X219835766Y-132411412D01*
X219853158Y-132588000D01*
X219835766Y-132764588D01*
X219820728Y-132814160D01*
X219784257Y-132934390D01*
X219710178Y-133072980D01*
X219700611Y-133090879D01*
X219671288Y-133126609D01*
X219588044Y-133228044D01*
X219486609Y-133311288D01*
X219450879Y-133340611D01*
X219450877Y-133340612D01*
X219294390Y-133424257D01*
X219251679Y-133437213D01*
X219124588Y-133475766D01*
X219036362Y-133484455D01*
X218992250Y-133488800D01*
X218903750Y-133488800D01*
X218859638Y-133484455D01*
X218771412Y-133475766D01*
X218644321Y-133437213D01*
X218601610Y-133424257D01*
X218445123Y-133340612D01*
X218445121Y-133340611D01*
X218409391Y-133311288D01*
X218307956Y-133228044D01*
X218224712Y-133126609D01*
X218195389Y-133090879D01*
X218185822Y-133072980D01*
X218111743Y-132934390D01*
X218075272Y-132814160D01*
X218060234Y-132764588D01*
X218042842Y-132588000D01*
X218060234Y-132411412D01*
X218111743Y-132241611D01*
X218111743Y-132241610D01*
X218195388Y-132085123D01*
X218195389Y-132085121D01*
X218224712Y-132049391D01*
X218307956Y-131947956D01*
X218409391Y-131864712D01*
X218445121Y-131835389D01*
X218558405Y-131774837D01*
X218601610Y-131751743D01*
X218658211Y-131734573D01*
X218771412Y-131700234D01*
X218859638Y-131691545D01*
X218903750Y-131687200D01*
X218992250Y-131687200D01*
X219036362Y-131691545D01*
X219036362Y-131691545D01*
G37*
G36*
X252564362Y-131691545D02*
X252652588Y-131700234D01*
X252765789Y-131734573D01*
X252822390Y-131751743D01*
X252865595Y-131774837D01*
X252978879Y-131835389D01*
X253014609Y-131864712D01*
X253116044Y-131947956D01*
X253199288Y-132049391D01*
X253228611Y-132085121D01*
X253228612Y-132085123D01*
X253312257Y-132241610D01*
X253312257Y-132241611D01*
X253363766Y-132411412D01*
X253381158Y-132588000D01*
X253363766Y-132764588D01*
X253348728Y-132814160D01*
X253312257Y-132934390D01*
X253238178Y-133072980D01*
X253228611Y-133090879D01*
X253199288Y-133126609D01*
X253116044Y-133228044D01*
X253014609Y-133311288D01*
X252978879Y-133340611D01*
X252978877Y-133340612D01*
X252822390Y-133424257D01*
X252779679Y-133437213D01*
X252652588Y-133475766D01*
X252564362Y-133484455D01*
X252520250Y-133488800D01*
X252431750Y-133488800D01*
X252387638Y-133484455D01*
X252299412Y-133475766D01*
X252172321Y-133437213D01*
X252129610Y-133424257D01*
X251973123Y-133340612D01*
X251973121Y-133340611D01*
X251937391Y-133311288D01*
X251835956Y-133228044D01*
X251752712Y-133126609D01*
X251723389Y-133090879D01*
X251713822Y-133072980D01*
X251639743Y-132934390D01*
X251603272Y-132814160D01*
X251588234Y-132764588D01*
X251570842Y-132588000D01*
X251588234Y-132411412D01*
X251639743Y-132241611D01*
X251639743Y-132241610D01*
X251723388Y-132085123D01*
X251723389Y-132085121D01*
X251752712Y-132049391D01*
X251835956Y-131947956D01*
X251937391Y-131864712D01*
X251973121Y-131835389D01*
X252086405Y-131774837D01*
X252129610Y-131751743D01*
X252186211Y-131734573D01*
X252299412Y-131700234D01*
X252387638Y-131691545D01*
X252431750Y-131687200D01*
X252520250Y-131687200D01*
X252564362Y-131691545D01*
X252564362Y-131691545D01*
G37*
G36*
X230212362Y-131691545D02*
X230300588Y-131700234D01*
X230413789Y-131734573D01*
X230470390Y-131751743D01*
X230513595Y-131774837D01*
X230626879Y-131835389D01*
X230662609Y-131864712D01*
X230764044Y-131947956D01*
X230847288Y-132049391D01*
X230876611Y-132085121D01*
X230876612Y-132085123D01*
X230960257Y-132241610D01*
X230960257Y-132241611D01*
X231011766Y-132411412D01*
X231029158Y-132588000D01*
X231011766Y-132764588D01*
X230996728Y-132814160D01*
X230960257Y-132934390D01*
X230886178Y-133072980D01*
X230876611Y-133090879D01*
X230847288Y-133126609D01*
X230764044Y-133228044D01*
X230662609Y-133311288D01*
X230626879Y-133340611D01*
X230626877Y-133340612D01*
X230470390Y-133424257D01*
X230427679Y-133437213D01*
X230300588Y-133475766D01*
X230212362Y-133484455D01*
X230168250Y-133488800D01*
X230079750Y-133488800D01*
X230035638Y-133484455D01*
X229947412Y-133475766D01*
X229820321Y-133437213D01*
X229777610Y-133424257D01*
X229621123Y-133340612D01*
X229621121Y-133340611D01*
X229585391Y-133311288D01*
X229483956Y-133228044D01*
X229400712Y-133126609D01*
X229371389Y-133090879D01*
X229361822Y-133072980D01*
X229287743Y-132934390D01*
X229251272Y-132814160D01*
X229236234Y-132764588D01*
X229218842Y-132588000D01*
X229236234Y-132411412D01*
X229287743Y-132241611D01*
X229287743Y-132241610D01*
X229371388Y-132085123D01*
X229371389Y-132085121D01*
X229400712Y-132049391D01*
X229483956Y-131947956D01*
X229585391Y-131864712D01*
X229621121Y-131835389D01*
X229734405Y-131774837D01*
X229777610Y-131751743D01*
X229834211Y-131734573D01*
X229947412Y-131700234D01*
X230035638Y-131691545D01*
X230079750Y-131687200D01*
X230168250Y-131687200D01*
X230212362Y-131691545D01*
X230212362Y-131691545D01*
G37*
G36*
X232752362Y-131691545D02*
X232840588Y-131700234D01*
X232953789Y-131734573D01*
X233010390Y-131751743D01*
X233053595Y-131774837D01*
X233166879Y-131835389D01*
X233202609Y-131864712D01*
X233304044Y-131947956D01*
X233387288Y-132049391D01*
X233416611Y-132085121D01*
X233416612Y-132085123D01*
X233500257Y-132241610D01*
X233500257Y-132241611D01*
X233551766Y-132411412D01*
X233569158Y-132588000D01*
X233551766Y-132764588D01*
X233536728Y-132814160D01*
X233500257Y-132934390D01*
X233426178Y-133072980D01*
X233416611Y-133090879D01*
X233387288Y-133126609D01*
X233304044Y-133228044D01*
X233202609Y-133311288D01*
X233166879Y-133340611D01*
X233166877Y-133340612D01*
X233010390Y-133424257D01*
X232967679Y-133437213D01*
X232840588Y-133475766D01*
X232752362Y-133484455D01*
X232708250Y-133488800D01*
X232619750Y-133488800D01*
X232575638Y-133484455D01*
X232487412Y-133475766D01*
X232360321Y-133437213D01*
X232317610Y-133424257D01*
X232161123Y-133340612D01*
X232161121Y-133340611D01*
X232125391Y-133311288D01*
X232023956Y-133228044D01*
X231940712Y-133126609D01*
X231911389Y-133090879D01*
X231901822Y-133072980D01*
X231827743Y-132934390D01*
X231791272Y-132814160D01*
X231776234Y-132764588D01*
X231758842Y-132588000D01*
X231776234Y-132411412D01*
X231827743Y-132241611D01*
X231827743Y-132241610D01*
X231911388Y-132085123D01*
X231911389Y-132085121D01*
X231940712Y-132049391D01*
X232023956Y-131947956D01*
X232125391Y-131864712D01*
X232161121Y-131835389D01*
X232274405Y-131774837D01*
X232317610Y-131751743D01*
X232374211Y-131734573D01*
X232487412Y-131700234D01*
X232575638Y-131691545D01*
X232619750Y-131687200D01*
X232708250Y-131687200D01*
X232752362Y-131691545D01*
X232752362Y-131691545D01*
G37*
G36*
X221576362Y-131691545D02*
X221664588Y-131700234D01*
X221777789Y-131734573D01*
X221834390Y-131751743D01*
X221877595Y-131774837D01*
X221990879Y-131835389D01*
X222026609Y-131864712D01*
X222128044Y-131947956D01*
X222211288Y-132049391D01*
X222240611Y-132085121D01*
X222240612Y-132085123D01*
X222324257Y-132241610D01*
X222324257Y-132241611D01*
X222375766Y-132411412D01*
X222393158Y-132588000D01*
X222375766Y-132764588D01*
X222360728Y-132814160D01*
X222324257Y-132934390D01*
X222250178Y-133072980D01*
X222240611Y-133090879D01*
X222211288Y-133126609D01*
X222128044Y-133228044D01*
X222026609Y-133311288D01*
X221990879Y-133340611D01*
X221990877Y-133340612D01*
X221834390Y-133424257D01*
X221791679Y-133437213D01*
X221664588Y-133475766D01*
X221576362Y-133484455D01*
X221532250Y-133488800D01*
X221443750Y-133488800D01*
X221399638Y-133484455D01*
X221311412Y-133475766D01*
X221184321Y-133437213D01*
X221141610Y-133424257D01*
X220985123Y-133340612D01*
X220985121Y-133340611D01*
X220949391Y-133311288D01*
X220847956Y-133228044D01*
X220764712Y-133126609D01*
X220735389Y-133090879D01*
X220725822Y-133072980D01*
X220651743Y-132934390D01*
X220615272Y-132814160D01*
X220600234Y-132764588D01*
X220582842Y-132588000D01*
X220600234Y-132411412D01*
X220651743Y-132241611D01*
X220651743Y-132241610D01*
X220735388Y-132085123D01*
X220735389Y-132085121D01*
X220764712Y-132049391D01*
X220847956Y-131947956D01*
X220949391Y-131864712D01*
X220985121Y-131835389D01*
X221098405Y-131774837D01*
X221141610Y-131751743D01*
X221198211Y-131734573D01*
X221311412Y-131700234D01*
X221399638Y-131691545D01*
X221443750Y-131687200D01*
X221532250Y-131687200D01*
X221576362Y-131691545D01*
X221576362Y-131691545D01*
G37*
G36*
X255104362Y-131691545D02*
X255192588Y-131700234D01*
X255305789Y-131734573D01*
X255362390Y-131751743D01*
X255405595Y-131774837D01*
X255518879Y-131835389D01*
X255554609Y-131864712D01*
X255656044Y-131947956D01*
X255739288Y-132049391D01*
X255768611Y-132085121D01*
X255768612Y-132085123D01*
X255852257Y-132241610D01*
X255852257Y-132241611D01*
X255903766Y-132411412D01*
X255921158Y-132588000D01*
X255903766Y-132764588D01*
X255888728Y-132814160D01*
X255852257Y-132934390D01*
X255778178Y-133072980D01*
X255768611Y-133090879D01*
X255739288Y-133126609D01*
X255656044Y-133228044D01*
X255554609Y-133311288D01*
X255518879Y-133340611D01*
X255518877Y-133340612D01*
X255362390Y-133424257D01*
X255319679Y-133437213D01*
X255192588Y-133475766D01*
X255104362Y-133484455D01*
X255060250Y-133488800D01*
X254971750Y-133488800D01*
X254927638Y-133484455D01*
X254839412Y-133475766D01*
X254712321Y-133437213D01*
X254669610Y-133424257D01*
X254513123Y-133340612D01*
X254513121Y-133340611D01*
X254477391Y-133311288D01*
X254375956Y-133228044D01*
X254292712Y-133126609D01*
X254263389Y-133090879D01*
X254253822Y-133072980D01*
X254179743Y-132934390D01*
X254143272Y-132814160D01*
X254128234Y-132764588D01*
X254110842Y-132588000D01*
X254128234Y-132411412D01*
X254179743Y-132241611D01*
X254179743Y-132241610D01*
X254263388Y-132085123D01*
X254263389Y-132085121D01*
X254292712Y-132049391D01*
X254375956Y-131947956D01*
X254477391Y-131864712D01*
X254513121Y-131835389D01*
X254626405Y-131774837D01*
X254669610Y-131751743D01*
X254726211Y-131734573D01*
X254839412Y-131700234D01*
X254927638Y-131691545D01*
X254971750Y-131687200D01*
X255060250Y-131687200D01*
X255104362Y-131691545D01*
X255104362Y-131691545D01*
G37*
G36*
X243928362Y-131691545D02*
X244016588Y-131700234D01*
X244129789Y-131734573D01*
X244186390Y-131751743D01*
X244229595Y-131774837D01*
X244342879Y-131835389D01*
X244378609Y-131864712D01*
X244480044Y-131947956D01*
X244563288Y-132049391D01*
X244592611Y-132085121D01*
X244592612Y-132085123D01*
X244676257Y-132241610D01*
X244676257Y-132241611D01*
X244727766Y-132411412D01*
X244745158Y-132588000D01*
X244727766Y-132764588D01*
X244712728Y-132814160D01*
X244676257Y-132934390D01*
X244602178Y-133072980D01*
X244592611Y-133090879D01*
X244563288Y-133126609D01*
X244480044Y-133228044D01*
X244378609Y-133311288D01*
X244342879Y-133340611D01*
X244342877Y-133340612D01*
X244186390Y-133424257D01*
X244143679Y-133437213D01*
X244016588Y-133475766D01*
X243928362Y-133484455D01*
X243884250Y-133488800D01*
X243795750Y-133488800D01*
X243751638Y-133484455D01*
X243663412Y-133475766D01*
X243536321Y-133437213D01*
X243493610Y-133424257D01*
X243337123Y-133340612D01*
X243337121Y-133340611D01*
X243301391Y-133311288D01*
X243199956Y-133228044D01*
X243116712Y-133126609D01*
X243087389Y-133090879D01*
X243077822Y-133072980D01*
X243003743Y-132934390D01*
X242967272Y-132814160D01*
X242952234Y-132764588D01*
X242934842Y-132588000D01*
X242952234Y-132411412D01*
X243003743Y-132241611D01*
X243003743Y-132241610D01*
X243087388Y-132085123D01*
X243087389Y-132085121D01*
X243116712Y-132049391D01*
X243199956Y-131947956D01*
X243301391Y-131864712D01*
X243337121Y-131835389D01*
X243450405Y-131774837D01*
X243493610Y-131751743D01*
X243550211Y-131734573D01*
X243663412Y-131700234D01*
X243751638Y-131691545D01*
X243795750Y-131687200D01*
X243884250Y-131687200D01*
X243928362Y-131691545D01*
X243928362Y-131691545D01*
G37*
G36*
X241388362Y-131691545D02*
X241476588Y-131700234D01*
X241589789Y-131734573D01*
X241646390Y-131751743D01*
X241689595Y-131774837D01*
X241802879Y-131835389D01*
X241838609Y-131864712D01*
X241940044Y-131947956D01*
X242023288Y-132049391D01*
X242052611Y-132085121D01*
X242052612Y-132085123D01*
X242136257Y-132241610D01*
X242136257Y-132241611D01*
X242187766Y-132411412D01*
X242205158Y-132588000D01*
X242187766Y-132764588D01*
X242172728Y-132814160D01*
X242136257Y-132934390D01*
X242062178Y-133072980D01*
X242052611Y-133090879D01*
X242023288Y-133126609D01*
X241940044Y-133228044D01*
X241838609Y-133311288D01*
X241802879Y-133340611D01*
X241802877Y-133340612D01*
X241646390Y-133424257D01*
X241603679Y-133437213D01*
X241476588Y-133475766D01*
X241388362Y-133484455D01*
X241344250Y-133488800D01*
X241255750Y-133488800D01*
X241211638Y-133484455D01*
X241123412Y-133475766D01*
X240996321Y-133437213D01*
X240953610Y-133424257D01*
X240797123Y-133340612D01*
X240797121Y-133340611D01*
X240761391Y-133311288D01*
X240659956Y-133228044D01*
X240576712Y-133126609D01*
X240547389Y-133090879D01*
X240537822Y-133072980D01*
X240463743Y-132934390D01*
X240427272Y-132814160D01*
X240412234Y-132764588D01*
X240394842Y-132588000D01*
X240412234Y-132411412D01*
X240463743Y-132241611D01*
X240463743Y-132241610D01*
X240547388Y-132085123D01*
X240547389Y-132085121D01*
X240576712Y-132049391D01*
X240659956Y-131947956D01*
X240761391Y-131864712D01*
X240797121Y-131835389D01*
X240910405Y-131774837D01*
X240953610Y-131751743D01*
X241010211Y-131734573D01*
X241123412Y-131700234D01*
X241211638Y-131691545D01*
X241255750Y-131687200D01*
X241344250Y-131687200D01*
X241388362Y-131691545D01*
X241388362Y-131691545D01*
G37*
G36*
X215304787Y-130225510D02*
X215465160Y-130274160D01*
X215465162Y-130274161D01*
X215612966Y-130353163D01*
X215742517Y-130459483D01*
X215848837Y-130589034D01*
X215901758Y-130688044D01*
X215927840Y-130736840D01*
X215976490Y-130897213D01*
X215992916Y-131064000D01*
X215976490Y-131230787D01*
X215927840Y-131391160D01*
X215927839Y-131391162D01*
X215848837Y-131538966D01*
X215742517Y-131668517D01*
X215612966Y-131774837D01*
X215465162Y-131853839D01*
X215465160Y-131853840D01*
X215304787Y-131902490D01*
X215179794Y-131914800D01*
X215096206Y-131914800D01*
X214971213Y-131902490D01*
X214810840Y-131853840D01*
X214810838Y-131853839D01*
X214663034Y-131774837D01*
X214533483Y-131668517D01*
X214427163Y-131538966D01*
X214348161Y-131391162D01*
X214348160Y-131391160D01*
X214299510Y-131230787D01*
X214283084Y-131064000D01*
X214299510Y-130897213D01*
X214348160Y-130736840D01*
X214374242Y-130688044D01*
X214427163Y-130589034D01*
X214533483Y-130459483D01*
X214663034Y-130353163D01*
X214810838Y-130274161D01*
X214810840Y-130274160D01*
X214971213Y-130225510D01*
X215096206Y-130213200D01*
X215179794Y-130213200D01*
X215304787Y-130225510D01*
X215304787Y-130225510D01*
G37*
G36*
X263564787Y-130225510D02*
X263725160Y-130274160D01*
X263725162Y-130274161D01*
X263872966Y-130353163D01*
X264002517Y-130459483D01*
X264108837Y-130589034D01*
X264161758Y-130688044D01*
X264187840Y-130736840D01*
X264236490Y-130897213D01*
X264252916Y-131064000D01*
X264236490Y-131230787D01*
X264187840Y-131391160D01*
X264187839Y-131391162D01*
X264108837Y-131538966D01*
X264002517Y-131668517D01*
X263872966Y-131774837D01*
X263725162Y-131853839D01*
X263725160Y-131853840D01*
X263564787Y-131902490D01*
X263439794Y-131914800D01*
X263356206Y-131914800D01*
X263231213Y-131902490D01*
X263070840Y-131853840D01*
X263070838Y-131853839D01*
X262923034Y-131774837D01*
X262793483Y-131668517D01*
X262687163Y-131538966D01*
X262608161Y-131391162D01*
X262608160Y-131391160D01*
X262559510Y-131230787D01*
X262543084Y-131064000D01*
X262559510Y-130897213D01*
X262608160Y-130736840D01*
X262634242Y-130688044D01*
X262687163Y-130589034D01*
X262793483Y-130459483D01*
X262923034Y-130353163D01*
X263070838Y-130274161D01*
X263070840Y-130274160D01*
X263231213Y-130225510D01*
X263356206Y-130213200D01*
X263439794Y-130213200D01*
X263564787Y-130225510D01*
X263564787Y-130225510D01*
G37*
G36*
X255104362Y-129151545D02*
X255192588Y-129160234D01*
X255305789Y-129194573D01*
X255362390Y-129211743D01*
X255405595Y-129234837D01*
X255518879Y-129295389D01*
X255554609Y-129324712D01*
X255656044Y-129407956D01*
X255739288Y-129509391D01*
X255768611Y-129545121D01*
X255768612Y-129545123D01*
X255852257Y-129701610D01*
X255852257Y-129701611D01*
X255903766Y-129871412D01*
X255921158Y-130048000D01*
X255903766Y-130224588D01*
X255888728Y-130274160D01*
X255852257Y-130394390D01*
X255778178Y-130532980D01*
X255768611Y-130550879D01*
X255739288Y-130586609D01*
X255656044Y-130688044D01*
X255554609Y-130771288D01*
X255518879Y-130800611D01*
X255518877Y-130800612D01*
X255362390Y-130884257D01*
X255319679Y-130897213D01*
X255192588Y-130935766D01*
X255104362Y-130944455D01*
X255060250Y-130948800D01*
X254971750Y-130948800D01*
X254927638Y-130944455D01*
X254839412Y-130935766D01*
X254712321Y-130897213D01*
X254669610Y-130884257D01*
X254513123Y-130800612D01*
X254513121Y-130800611D01*
X254477391Y-130771288D01*
X254375956Y-130688044D01*
X254292712Y-130586609D01*
X254263389Y-130550879D01*
X254253822Y-130532980D01*
X254179743Y-130394390D01*
X254143272Y-130274160D01*
X254128234Y-130224588D01*
X254110842Y-130048000D01*
X254128234Y-129871412D01*
X254179743Y-129701611D01*
X254179743Y-129701610D01*
X254263388Y-129545123D01*
X254263389Y-129545121D01*
X254292712Y-129509391D01*
X254375956Y-129407956D01*
X254477391Y-129324712D01*
X254513121Y-129295389D01*
X254626405Y-129234837D01*
X254669610Y-129211743D01*
X254726211Y-129194573D01*
X254839412Y-129160234D01*
X254927638Y-129151545D01*
X254971750Y-129147200D01*
X255060250Y-129147200D01*
X255104362Y-129151545D01*
X255104362Y-129151545D01*
G37*
G36*
X252564362Y-129151545D02*
X252652588Y-129160234D01*
X252765789Y-129194573D01*
X252822390Y-129211743D01*
X252865595Y-129234837D01*
X252978879Y-129295389D01*
X253014609Y-129324712D01*
X253116044Y-129407956D01*
X253199288Y-129509391D01*
X253228611Y-129545121D01*
X253228612Y-129545123D01*
X253312257Y-129701610D01*
X253312257Y-129701611D01*
X253363766Y-129871412D01*
X253381158Y-130048000D01*
X253363766Y-130224588D01*
X253348728Y-130274160D01*
X253312257Y-130394390D01*
X253238178Y-130532980D01*
X253228611Y-130550879D01*
X253199288Y-130586609D01*
X253116044Y-130688044D01*
X253014609Y-130771288D01*
X252978879Y-130800611D01*
X252978877Y-130800612D01*
X252822390Y-130884257D01*
X252779679Y-130897213D01*
X252652588Y-130935766D01*
X252564362Y-130944455D01*
X252520250Y-130948800D01*
X252431750Y-130948800D01*
X252387638Y-130944455D01*
X252299412Y-130935766D01*
X252172321Y-130897213D01*
X252129610Y-130884257D01*
X251973123Y-130800612D01*
X251973121Y-130800611D01*
X251937391Y-130771288D01*
X251835956Y-130688044D01*
X251752712Y-130586609D01*
X251723389Y-130550879D01*
X251713822Y-130532980D01*
X251639743Y-130394390D01*
X251603272Y-130274160D01*
X251588234Y-130224588D01*
X251570842Y-130048000D01*
X251588234Y-129871412D01*
X251639743Y-129701611D01*
X251639743Y-129701610D01*
X251723388Y-129545123D01*
X251723389Y-129545121D01*
X251752712Y-129509391D01*
X251835956Y-129407956D01*
X251937391Y-129324712D01*
X251973121Y-129295389D01*
X252086405Y-129234837D01*
X252129610Y-129211743D01*
X252186211Y-129194573D01*
X252299412Y-129160234D01*
X252387638Y-129151545D01*
X252431750Y-129147200D01*
X252520250Y-129147200D01*
X252564362Y-129151545D01*
X252564362Y-129151545D01*
G37*
G36*
X221576362Y-129151545D02*
X221664588Y-129160234D01*
X221777789Y-129194573D01*
X221834390Y-129211743D01*
X221877595Y-129234837D01*
X221990879Y-129295389D01*
X222026609Y-129324712D01*
X222128044Y-129407956D01*
X222211288Y-129509391D01*
X222240611Y-129545121D01*
X222240612Y-129545123D01*
X222324257Y-129701610D01*
X222324257Y-129701611D01*
X222375766Y-129871412D01*
X222393158Y-130048000D01*
X222375766Y-130224588D01*
X222360728Y-130274160D01*
X222324257Y-130394390D01*
X222250178Y-130532980D01*
X222240611Y-130550879D01*
X222211288Y-130586609D01*
X222128044Y-130688044D01*
X222026609Y-130771288D01*
X221990879Y-130800611D01*
X221990877Y-130800612D01*
X221834390Y-130884257D01*
X221791679Y-130897213D01*
X221664588Y-130935766D01*
X221576362Y-130944455D01*
X221532250Y-130948800D01*
X221443750Y-130948800D01*
X221399638Y-130944455D01*
X221311412Y-130935766D01*
X221184321Y-130897213D01*
X221141610Y-130884257D01*
X220985123Y-130800612D01*
X220985121Y-130800611D01*
X220949391Y-130771288D01*
X220847956Y-130688044D01*
X220764712Y-130586609D01*
X220735389Y-130550879D01*
X220725822Y-130532980D01*
X220651743Y-130394390D01*
X220615272Y-130274160D01*
X220600234Y-130224588D01*
X220582842Y-130048000D01*
X220600234Y-129871412D01*
X220651743Y-129701611D01*
X220651743Y-129701610D01*
X220735388Y-129545123D01*
X220735389Y-129545121D01*
X220764712Y-129509391D01*
X220847956Y-129407956D01*
X220949391Y-129324712D01*
X220985121Y-129295389D01*
X221098405Y-129234837D01*
X221141610Y-129211743D01*
X221198211Y-129194573D01*
X221311412Y-129160234D01*
X221399638Y-129151545D01*
X221443750Y-129147200D01*
X221532250Y-129147200D01*
X221576362Y-129151545D01*
X221576362Y-129151545D01*
G37*
G36*
X219036362Y-129151545D02*
X219124588Y-129160234D01*
X219237789Y-129194573D01*
X219294390Y-129211743D01*
X219337595Y-129234837D01*
X219450879Y-129295389D01*
X219486609Y-129324712D01*
X219588044Y-129407956D01*
X219671288Y-129509391D01*
X219700611Y-129545121D01*
X219700612Y-129545123D01*
X219784257Y-129701610D01*
X219784257Y-129701611D01*
X219835766Y-129871412D01*
X219853158Y-130048000D01*
X219835766Y-130224588D01*
X219820728Y-130274160D01*
X219784257Y-130394390D01*
X219710178Y-130532980D01*
X219700611Y-130550879D01*
X219671288Y-130586609D01*
X219588044Y-130688044D01*
X219486609Y-130771288D01*
X219450879Y-130800611D01*
X219450877Y-130800612D01*
X219294390Y-130884257D01*
X219251679Y-130897213D01*
X219124588Y-130935766D01*
X219036362Y-130944455D01*
X218992250Y-130948800D01*
X218903750Y-130948800D01*
X218859638Y-130944455D01*
X218771412Y-130935766D01*
X218644321Y-130897213D01*
X218601610Y-130884257D01*
X218445123Y-130800612D01*
X218445121Y-130800611D01*
X218409391Y-130771288D01*
X218307956Y-130688044D01*
X218224712Y-130586609D01*
X218195389Y-130550879D01*
X218185822Y-130532980D01*
X218111743Y-130394390D01*
X218075272Y-130274160D01*
X218060234Y-130224588D01*
X218042842Y-130048000D01*
X218060234Y-129871412D01*
X218111743Y-129701611D01*
X218111743Y-129701610D01*
X218195388Y-129545123D01*
X218195389Y-129545121D01*
X218224712Y-129509391D01*
X218307956Y-129407956D01*
X218409391Y-129324712D01*
X218445121Y-129295389D01*
X218558405Y-129234837D01*
X218601610Y-129211743D01*
X218658211Y-129194573D01*
X218771412Y-129160234D01*
X218859638Y-129151545D01*
X218903750Y-129147200D01*
X218992250Y-129147200D01*
X219036362Y-129151545D01*
X219036362Y-129151545D01*
G37*
G36*
X241388362Y-129151545D02*
X241476588Y-129160234D01*
X241589789Y-129194573D01*
X241646390Y-129211743D01*
X241689595Y-129234837D01*
X241802879Y-129295389D01*
X241838609Y-129324712D01*
X241940044Y-129407956D01*
X242023288Y-129509391D01*
X242052611Y-129545121D01*
X242052612Y-129545123D01*
X242136257Y-129701610D01*
X242136257Y-129701611D01*
X242187766Y-129871412D01*
X242205158Y-130048000D01*
X242187766Y-130224588D01*
X242172728Y-130274160D01*
X242136257Y-130394390D01*
X242062178Y-130532980D01*
X242052611Y-130550879D01*
X242023288Y-130586609D01*
X241940044Y-130688044D01*
X241838609Y-130771288D01*
X241802879Y-130800611D01*
X241802877Y-130800612D01*
X241646390Y-130884257D01*
X241603679Y-130897213D01*
X241476588Y-130935766D01*
X241388362Y-130944455D01*
X241344250Y-130948800D01*
X241255750Y-130948800D01*
X241211638Y-130944455D01*
X241123412Y-130935766D01*
X240996321Y-130897213D01*
X240953610Y-130884257D01*
X240797123Y-130800612D01*
X240797121Y-130800611D01*
X240761391Y-130771288D01*
X240659956Y-130688044D01*
X240576712Y-130586609D01*
X240547389Y-130550879D01*
X240537822Y-130532980D01*
X240463743Y-130394390D01*
X240427272Y-130274160D01*
X240412234Y-130224588D01*
X240394842Y-130048000D01*
X240412234Y-129871412D01*
X240463743Y-129701611D01*
X240463743Y-129701610D01*
X240547388Y-129545123D01*
X240547389Y-129545121D01*
X240576712Y-129509391D01*
X240659956Y-129407956D01*
X240761391Y-129324712D01*
X240797121Y-129295389D01*
X240910405Y-129234837D01*
X240953610Y-129211743D01*
X241010211Y-129194573D01*
X241123412Y-129160234D01*
X241211638Y-129151545D01*
X241255750Y-129147200D01*
X241344250Y-129147200D01*
X241388362Y-129151545D01*
X241388362Y-129151545D01*
G37*
G36*
X230212362Y-129151545D02*
X230300588Y-129160234D01*
X230413789Y-129194573D01*
X230470390Y-129211743D01*
X230513595Y-129234837D01*
X230626879Y-129295389D01*
X230662609Y-129324712D01*
X230764044Y-129407956D01*
X230847288Y-129509391D01*
X230876611Y-129545121D01*
X230876612Y-129545123D01*
X230960257Y-129701610D01*
X230960257Y-129701611D01*
X231011766Y-129871412D01*
X231029158Y-130048000D01*
X231011766Y-130224588D01*
X230996728Y-130274160D01*
X230960257Y-130394390D01*
X230886178Y-130532980D01*
X230876611Y-130550879D01*
X230847288Y-130586609D01*
X230764044Y-130688044D01*
X230662609Y-130771288D01*
X230626879Y-130800611D01*
X230626877Y-130800612D01*
X230470390Y-130884257D01*
X230427679Y-130897213D01*
X230300588Y-130935766D01*
X230212362Y-130944455D01*
X230168250Y-130948800D01*
X230079750Y-130948800D01*
X230035638Y-130944455D01*
X229947412Y-130935766D01*
X229820321Y-130897213D01*
X229777610Y-130884257D01*
X229621123Y-130800612D01*
X229621121Y-130800611D01*
X229585391Y-130771288D01*
X229483956Y-130688044D01*
X229400712Y-130586609D01*
X229371389Y-130550879D01*
X229361822Y-130532980D01*
X229287743Y-130394390D01*
X229251272Y-130274160D01*
X229236234Y-130224588D01*
X229218842Y-130048000D01*
X229236234Y-129871412D01*
X229287743Y-129701611D01*
X229287743Y-129701610D01*
X229371388Y-129545123D01*
X229371389Y-129545121D01*
X229400712Y-129509391D01*
X229483956Y-129407956D01*
X229585391Y-129324712D01*
X229621121Y-129295389D01*
X229734405Y-129234837D01*
X229777610Y-129211743D01*
X229834211Y-129194573D01*
X229947412Y-129160234D01*
X230035638Y-129151545D01*
X230079750Y-129147200D01*
X230168250Y-129147200D01*
X230212362Y-129151545D01*
X230212362Y-129151545D01*
G37*
G36*
X232752362Y-129151545D02*
X232840588Y-129160234D01*
X232953789Y-129194573D01*
X233010390Y-129211743D01*
X233053595Y-129234837D01*
X233166879Y-129295389D01*
X233202609Y-129324712D01*
X233304044Y-129407956D01*
X233387288Y-129509391D01*
X233416611Y-129545121D01*
X233416612Y-129545123D01*
X233500257Y-129701610D01*
X233500257Y-129701611D01*
X233551766Y-129871412D01*
X233569158Y-130048000D01*
X233551766Y-130224588D01*
X233536728Y-130274160D01*
X233500257Y-130394390D01*
X233426178Y-130532980D01*
X233416611Y-130550879D01*
X233387288Y-130586609D01*
X233304044Y-130688044D01*
X233202609Y-130771288D01*
X233166879Y-130800611D01*
X233166877Y-130800612D01*
X233010390Y-130884257D01*
X232967679Y-130897213D01*
X232840588Y-130935766D01*
X232752362Y-130944455D01*
X232708250Y-130948800D01*
X232619750Y-130948800D01*
X232575638Y-130944455D01*
X232487412Y-130935766D01*
X232360321Y-130897213D01*
X232317610Y-130884257D01*
X232161123Y-130800612D01*
X232161121Y-130800611D01*
X232125391Y-130771288D01*
X232023956Y-130688044D01*
X231940712Y-130586609D01*
X231911389Y-130550879D01*
X231901822Y-130532980D01*
X231827743Y-130394390D01*
X231791272Y-130274160D01*
X231776234Y-130224588D01*
X231758842Y-130048000D01*
X231776234Y-129871412D01*
X231827743Y-129701611D01*
X231827743Y-129701610D01*
X231911388Y-129545123D01*
X231911389Y-129545121D01*
X231940712Y-129509391D01*
X232023956Y-129407956D01*
X232125391Y-129324712D01*
X232161121Y-129295389D01*
X232274405Y-129234837D01*
X232317610Y-129211743D01*
X232374211Y-129194573D01*
X232487412Y-129160234D01*
X232575638Y-129151545D01*
X232619750Y-129147200D01*
X232708250Y-129147200D01*
X232752362Y-129151545D01*
X232752362Y-129151545D01*
G37*
G36*
X243928362Y-129151545D02*
X244016588Y-129160234D01*
X244129789Y-129194573D01*
X244186390Y-129211743D01*
X244229595Y-129234837D01*
X244342879Y-129295389D01*
X244378609Y-129324712D01*
X244480044Y-129407956D01*
X244563288Y-129509391D01*
X244592611Y-129545121D01*
X244592612Y-129545123D01*
X244676257Y-129701610D01*
X244676257Y-129701611D01*
X244727766Y-129871412D01*
X244745158Y-130048000D01*
X244727766Y-130224588D01*
X244712728Y-130274160D01*
X244676257Y-130394390D01*
X244602178Y-130532980D01*
X244592611Y-130550879D01*
X244563288Y-130586609D01*
X244480044Y-130688044D01*
X244378609Y-130771288D01*
X244342879Y-130800611D01*
X244342877Y-130800612D01*
X244186390Y-130884257D01*
X244143679Y-130897213D01*
X244016588Y-130935766D01*
X243928362Y-130944455D01*
X243884250Y-130948800D01*
X243795750Y-130948800D01*
X243751638Y-130944455D01*
X243663412Y-130935766D01*
X243536321Y-130897213D01*
X243493610Y-130884257D01*
X243337123Y-130800612D01*
X243337121Y-130800611D01*
X243301391Y-130771288D01*
X243199956Y-130688044D01*
X243116712Y-130586609D01*
X243087389Y-130550879D01*
X243077822Y-130532980D01*
X243003743Y-130394390D01*
X242967272Y-130274160D01*
X242952234Y-130224588D01*
X242934842Y-130048000D01*
X242952234Y-129871412D01*
X243003743Y-129701611D01*
X243003743Y-129701610D01*
X243087388Y-129545123D01*
X243087389Y-129545121D01*
X243116712Y-129509391D01*
X243199956Y-129407956D01*
X243301391Y-129324712D01*
X243337121Y-129295389D01*
X243450405Y-129234837D01*
X243493610Y-129211743D01*
X243550211Y-129194573D01*
X243663412Y-129160234D01*
X243751638Y-129151545D01*
X243795750Y-129147200D01*
X243884250Y-129147200D01*
X243928362Y-129151545D01*
X243928362Y-129151545D01*
G37*
G36*
X263564787Y-127685510D02*
X263725160Y-127734160D01*
X263725162Y-127734161D01*
X263872966Y-127813163D01*
X264002517Y-127919483D01*
X264108837Y-128049034D01*
X264161758Y-128148044D01*
X264187840Y-128196840D01*
X264236490Y-128357213D01*
X264252916Y-128524000D01*
X264236490Y-128690787D01*
X264187840Y-128851160D01*
X264187839Y-128851162D01*
X264108837Y-128998966D01*
X264002517Y-129128517D01*
X263872966Y-129234837D01*
X263725162Y-129313839D01*
X263725160Y-129313840D01*
X263564787Y-129362490D01*
X263439794Y-129374800D01*
X263356206Y-129374800D01*
X263231213Y-129362490D01*
X263070840Y-129313840D01*
X263070838Y-129313839D01*
X262923034Y-129234837D01*
X262793483Y-129128517D01*
X262687163Y-128998966D01*
X262608161Y-128851162D01*
X262608160Y-128851160D01*
X262559510Y-128690787D01*
X262543084Y-128524000D01*
X262559510Y-128357213D01*
X262608160Y-128196840D01*
X262634242Y-128148044D01*
X262687163Y-128049034D01*
X262793483Y-127919483D01*
X262923034Y-127813163D01*
X263070838Y-127734161D01*
X263070840Y-127734160D01*
X263231213Y-127685510D01*
X263356206Y-127673200D01*
X263439794Y-127673200D01*
X263564787Y-127685510D01*
X263564787Y-127685510D01*
G37*
G36*
X243928362Y-126611545D02*
X244016588Y-126620234D01*
X244129789Y-126654573D01*
X244186390Y-126671743D01*
X244229595Y-126694837D01*
X244342879Y-126755389D01*
X244378609Y-126784712D01*
X244480044Y-126867956D01*
X244563288Y-126969391D01*
X244592611Y-127005121D01*
X244592612Y-127005123D01*
X244676257Y-127161610D01*
X244676257Y-127161611D01*
X244727766Y-127331412D01*
X244745158Y-127508000D01*
X244727766Y-127684588D01*
X244712728Y-127734160D01*
X244676257Y-127854390D01*
X244602178Y-127992980D01*
X244592611Y-128010879D01*
X244563288Y-128046609D01*
X244480044Y-128148044D01*
X244378609Y-128231288D01*
X244342879Y-128260611D01*
X244342877Y-128260612D01*
X244186390Y-128344257D01*
X244143679Y-128357213D01*
X244016588Y-128395766D01*
X243928362Y-128404455D01*
X243884250Y-128408800D01*
X243795750Y-128408800D01*
X243751638Y-128404455D01*
X243663412Y-128395766D01*
X243536321Y-128357213D01*
X243493610Y-128344257D01*
X243337123Y-128260612D01*
X243337121Y-128260611D01*
X243301391Y-128231288D01*
X243199956Y-128148044D01*
X243116712Y-128046609D01*
X243087389Y-128010879D01*
X243077822Y-127992980D01*
X243003743Y-127854390D01*
X242967272Y-127734160D01*
X242952234Y-127684588D01*
X242934842Y-127508000D01*
X242952234Y-127331412D01*
X243003743Y-127161611D01*
X243003743Y-127161610D01*
X243087388Y-127005123D01*
X243087389Y-127005121D01*
X243116712Y-126969391D01*
X243199956Y-126867956D01*
X243301391Y-126784712D01*
X243337121Y-126755389D01*
X243450405Y-126694837D01*
X243493610Y-126671743D01*
X243550211Y-126654573D01*
X243663412Y-126620234D01*
X243751638Y-126611545D01*
X243795750Y-126607200D01*
X243884250Y-126607200D01*
X243928362Y-126611545D01*
X243928362Y-126611545D01*
G37*
G36*
X219036362Y-126611545D02*
X219124588Y-126620234D01*
X219237789Y-126654573D01*
X219294390Y-126671743D01*
X219337595Y-126694837D01*
X219450879Y-126755389D01*
X219486609Y-126784712D01*
X219588044Y-126867956D01*
X219671288Y-126969391D01*
X219700611Y-127005121D01*
X219700612Y-127005123D01*
X219784257Y-127161610D01*
X219784257Y-127161611D01*
X219835766Y-127331412D01*
X219853158Y-127508000D01*
X219835766Y-127684588D01*
X219820728Y-127734160D01*
X219784257Y-127854390D01*
X219710178Y-127992980D01*
X219700611Y-128010879D01*
X219671288Y-128046609D01*
X219588044Y-128148044D01*
X219486609Y-128231288D01*
X219450879Y-128260611D01*
X219450877Y-128260612D01*
X219294390Y-128344257D01*
X219251679Y-128357213D01*
X219124588Y-128395766D01*
X219036362Y-128404455D01*
X218992250Y-128408800D01*
X218903750Y-128408800D01*
X218859638Y-128404455D01*
X218771412Y-128395766D01*
X218644321Y-128357213D01*
X218601610Y-128344257D01*
X218445123Y-128260612D01*
X218445121Y-128260611D01*
X218409391Y-128231288D01*
X218307956Y-128148044D01*
X218224712Y-128046609D01*
X218195389Y-128010879D01*
X218185822Y-127992980D01*
X218111743Y-127854390D01*
X218075272Y-127734160D01*
X218060234Y-127684588D01*
X218042842Y-127508000D01*
X218060234Y-127331412D01*
X218111743Y-127161611D01*
X218111743Y-127161610D01*
X218195388Y-127005123D01*
X218195389Y-127005121D01*
X218224712Y-126969391D01*
X218307956Y-126867956D01*
X218409391Y-126784712D01*
X218445121Y-126755389D01*
X218558405Y-126694837D01*
X218601610Y-126671743D01*
X218658211Y-126654573D01*
X218771412Y-126620234D01*
X218859638Y-126611545D01*
X218903750Y-126607200D01*
X218992250Y-126607200D01*
X219036362Y-126611545D01*
X219036362Y-126611545D01*
G37*
G36*
X221576362Y-126611545D02*
X221664588Y-126620234D01*
X221777789Y-126654573D01*
X221834390Y-126671743D01*
X221877595Y-126694837D01*
X221990879Y-126755389D01*
X222026609Y-126784712D01*
X222128044Y-126867956D01*
X222211288Y-126969391D01*
X222240611Y-127005121D01*
X222240612Y-127005123D01*
X222324257Y-127161610D01*
X222324257Y-127161611D01*
X222375766Y-127331412D01*
X222393158Y-127508000D01*
X222375766Y-127684588D01*
X222360728Y-127734160D01*
X222324257Y-127854390D01*
X222250178Y-127992980D01*
X222240611Y-128010879D01*
X222211288Y-128046609D01*
X222128044Y-128148044D01*
X222026609Y-128231288D01*
X221990879Y-128260611D01*
X221990877Y-128260612D01*
X221834390Y-128344257D01*
X221791679Y-128357213D01*
X221664588Y-128395766D01*
X221576362Y-128404455D01*
X221532250Y-128408800D01*
X221443750Y-128408800D01*
X221399638Y-128404455D01*
X221311412Y-128395766D01*
X221184321Y-128357213D01*
X221141610Y-128344257D01*
X220985123Y-128260612D01*
X220985121Y-128260611D01*
X220949391Y-128231288D01*
X220847956Y-128148044D01*
X220764712Y-128046609D01*
X220735389Y-128010879D01*
X220725822Y-127992980D01*
X220651743Y-127854390D01*
X220615272Y-127734160D01*
X220600234Y-127684588D01*
X220582842Y-127508000D01*
X220600234Y-127331412D01*
X220651743Y-127161611D01*
X220651743Y-127161610D01*
X220735388Y-127005123D01*
X220735389Y-127005121D01*
X220764712Y-126969391D01*
X220847956Y-126867956D01*
X220949391Y-126784712D01*
X220985121Y-126755389D01*
X221098405Y-126694837D01*
X221141610Y-126671743D01*
X221198211Y-126654573D01*
X221311412Y-126620234D01*
X221399638Y-126611545D01*
X221443750Y-126607200D01*
X221532250Y-126607200D01*
X221576362Y-126611545D01*
X221576362Y-126611545D01*
G37*
G36*
X230212362Y-126611545D02*
X230300588Y-126620234D01*
X230413789Y-126654573D01*
X230470390Y-126671743D01*
X230513595Y-126694837D01*
X230626879Y-126755389D01*
X230662609Y-126784712D01*
X230764044Y-126867956D01*
X230847288Y-126969391D01*
X230876611Y-127005121D01*
X230876612Y-127005123D01*
X230960257Y-127161610D01*
X230960257Y-127161611D01*
X231011766Y-127331412D01*
X231029158Y-127508000D01*
X231011766Y-127684588D01*
X230996728Y-127734160D01*
X230960257Y-127854390D01*
X230886178Y-127992980D01*
X230876611Y-128010879D01*
X230847288Y-128046609D01*
X230764044Y-128148044D01*
X230662609Y-128231288D01*
X230626879Y-128260611D01*
X230626877Y-128260612D01*
X230470390Y-128344257D01*
X230427679Y-128357213D01*
X230300588Y-128395766D01*
X230212362Y-128404455D01*
X230168250Y-128408800D01*
X230079750Y-128408800D01*
X230035638Y-128404455D01*
X229947412Y-128395766D01*
X229820321Y-128357213D01*
X229777610Y-128344257D01*
X229621123Y-128260612D01*
X229621121Y-128260611D01*
X229585391Y-128231288D01*
X229483956Y-128148044D01*
X229400712Y-128046609D01*
X229371389Y-128010879D01*
X229361822Y-127992980D01*
X229287743Y-127854390D01*
X229251272Y-127734160D01*
X229236234Y-127684588D01*
X229218842Y-127508000D01*
X229236234Y-127331412D01*
X229287743Y-127161611D01*
X229287743Y-127161610D01*
X229371388Y-127005123D01*
X229371389Y-127005121D01*
X229400712Y-126969391D01*
X229483956Y-126867956D01*
X229585391Y-126784712D01*
X229621121Y-126755389D01*
X229734405Y-126694837D01*
X229777610Y-126671743D01*
X229834211Y-126654573D01*
X229947412Y-126620234D01*
X230035638Y-126611545D01*
X230079750Y-126607200D01*
X230168250Y-126607200D01*
X230212362Y-126611545D01*
X230212362Y-126611545D01*
G37*
G36*
X232752362Y-126611545D02*
X232840588Y-126620234D01*
X232953789Y-126654573D01*
X233010390Y-126671743D01*
X233053595Y-126694837D01*
X233166879Y-126755389D01*
X233202609Y-126784712D01*
X233304044Y-126867956D01*
X233387288Y-126969391D01*
X233416611Y-127005121D01*
X233416612Y-127005123D01*
X233500257Y-127161610D01*
X233500257Y-127161611D01*
X233551766Y-127331412D01*
X233569158Y-127508000D01*
X233551766Y-127684588D01*
X233536728Y-127734160D01*
X233500257Y-127854390D01*
X233426178Y-127992980D01*
X233416611Y-128010879D01*
X233387288Y-128046609D01*
X233304044Y-128148044D01*
X233202609Y-128231288D01*
X233166879Y-128260611D01*
X233166877Y-128260612D01*
X233010390Y-128344257D01*
X232967679Y-128357213D01*
X232840588Y-128395766D01*
X232752362Y-128404455D01*
X232708250Y-128408800D01*
X232619750Y-128408800D01*
X232575638Y-128404455D01*
X232487412Y-128395766D01*
X232360321Y-128357213D01*
X232317610Y-128344257D01*
X232161123Y-128260612D01*
X232161121Y-128260611D01*
X232125391Y-128231288D01*
X232023956Y-128148044D01*
X231940712Y-128046609D01*
X231911389Y-128010879D01*
X231901822Y-127992980D01*
X231827743Y-127854390D01*
X231791272Y-127734160D01*
X231776234Y-127684588D01*
X231758842Y-127508000D01*
X231776234Y-127331412D01*
X231827743Y-127161611D01*
X231827743Y-127161610D01*
X231911388Y-127005123D01*
X231911389Y-127005121D01*
X231940712Y-126969391D01*
X232023956Y-126867956D01*
X232125391Y-126784712D01*
X232161121Y-126755389D01*
X232274405Y-126694837D01*
X232317610Y-126671743D01*
X232374211Y-126654573D01*
X232487412Y-126620234D01*
X232575638Y-126611545D01*
X232619750Y-126607200D01*
X232708250Y-126607200D01*
X232752362Y-126611545D01*
X232752362Y-126611545D01*
G37*
G36*
X241388362Y-126611545D02*
X241476588Y-126620234D01*
X241589789Y-126654573D01*
X241646390Y-126671743D01*
X241689595Y-126694837D01*
X241802879Y-126755389D01*
X241838609Y-126784712D01*
X241940044Y-126867956D01*
X242023288Y-126969391D01*
X242052611Y-127005121D01*
X242052612Y-127005123D01*
X242136257Y-127161610D01*
X242136257Y-127161611D01*
X242187766Y-127331412D01*
X242205158Y-127508000D01*
X242187766Y-127684588D01*
X242172728Y-127734160D01*
X242136257Y-127854390D01*
X242062178Y-127992980D01*
X242052611Y-128010879D01*
X242023288Y-128046609D01*
X241940044Y-128148044D01*
X241838609Y-128231288D01*
X241802879Y-128260611D01*
X241802877Y-128260612D01*
X241646390Y-128344257D01*
X241603679Y-128357213D01*
X241476588Y-128395766D01*
X241388362Y-128404455D01*
X241344250Y-128408800D01*
X241255750Y-128408800D01*
X241211638Y-128404455D01*
X241123412Y-128395766D01*
X240996321Y-128357213D01*
X240953610Y-128344257D01*
X240797123Y-128260612D01*
X240797121Y-128260611D01*
X240761391Y-128231288D01*
X240659956Y-128148044D01*
X240576712Y-128046609D01*
X240547389Y-128010879D01*
X240537822Y-127992980D01*
X240463743Y-127854390D01*
X240427272Y-127734160D01*
X240412234Y-127684588D01*
X240394842Y-127508000D01*
X240412234Y-127331412D01*
X240463743Y-127161611D01*
X240463743Y-127161610D01*
X240547388Y-127005123D01*
X240547389Y-127005121D01*
X240576712Y-126969391D01*
X240659956Y-126867956D01*
X240761391Y-126784712D01*
X240797121Y-126755389D01*
X240910405Y-126694837D01*
X240953610Y-126671743D01*
X241010211Y-126654573D01*
X241123412Y-126620234D01*
X241211638Y-126611545D01*
X241255750Y-126607200D01*
X241344250Y-126607200D01*
X241388362Y-126611545D01*
X241388362Y-126611545D01*
G37*
G36*
X252564362Y-126611545D02*
X252652588Y-126620234D01*
X252765789Y-126654573D01*
X252822390Y-126671743D01*
X252865595Y-126694837D01*
X252978879Y-126755389D01*
X253014609Y-126784712D01*
X253116044Y-126867956D01*
X253199288Y-126969391D01*
X253228611Y-127005121D01*
X253228612Y-127005123D01*
X253312257Y-127161610D01*
X253312257Y-127161611D01*
X253363766Y-127331412D01*
X253381158Y-127508000D01*
X253363766Y-127684588D01*
X253348728Y-127734160D01*
X253312257Y-127854390D01*
X253238178Y-127992980D01*
X253228611Y-128010879D01*
X253199288Y-128046609D01*
X253116044Y-128148044D01*
X253014609Y-128231288D01*
X252978879Y-128260611D01*
X252978877Y-128260612D01*
X252822390Y-128344257D01*
X252779679Y-128357213D01*
X252652588Y-128395766D01*
X252564362Y-128404455D01*
X252520250Y-128408800D01*
X252431750Y-128408800D01*
X252387638Y-128404455D01*
X252299412Y-128395766D01*
X252172321Y-128357213D01*
X252129610Y-128344257D01*
X251973123Y-128260612D01*
X251973121Y-128260611D01*
X251937391Y-128231288D01*
X251835956Y-128148044D01*
X251752712Y-128046609D01*
X251723389Y-128010879D01*
X251713822Y-127992980D01*
X251639743Y-127854390D01*
X251603272Y-127734160D01*
X251588234Y-127684588D01*
X251570842Y-127508000D01*
X251588234Y-127331412D01*
X251639743Y-127161611D01*
X251639743Y-127161610D01*
X251723388Y-127005123D01*
X251723389Y-127005121D01*
X251752712Y-126969391D01*
X251835956Y-126867956D01*
X251937391Y-126784712D01*
X251973121Y-126755389D01*
X252086405Y-126694837D01*
X252129610Y-126671743D01*
X252186211Y-126654573D01*
X252299412Y-126620234D01*
X252387638Y-126611545D01*
X252431750Y-126607200D01*
X252520250Y-126607200D01*
X252564362Y-126611545D01*
X252564362Y-126611545D01*
G37*
G36*
X255104362Y-126611545D02*
X255192588Y-126620234D01*
X255305789Y-126654573D01*
X255362390Y-126671743D01*
X255405595Y-126694837D01*
X255518879Y-126755389D01*
X255554609Y-126784712D01*
X255656044Y-126867956D01*
X255739288Y-126969391D01*
X255768611Y-127005121D01*
X255768612Y-127005123D01*
X255852257Y-127161610D01*
X255852257Y-127161611D01*
X255903766Y-127331412D01*
X255921158Y-127508000D01*
X255903766Y-127684588D01*
X255888728Y-127734160D01*
X255852257Y-127854390D01*
X255778178Y-127992980D01*
X255768611Y-128010879D01*
X255739288Y-128046609D01*
X255656044Y-128148044D01*
X255554609Y-128231288D01*
X255518879Y-128260611D01*
X255518877Y-128260612D01*
X255362390Y-128344257D01*
X255319679Y-128357213D01*
X255192588Y-128395766D01*
X255104362Y-128404455D01*
X255060250Y-128408800D01*
X254971750Y-128408800D01*
X254927638Y-128404455D01*
X254839412Y-128395766D01*
X254712321Y-128357213D01*
X254669610Y-128344257D01*
X254513123Y-128260612D01*
X254513121Y-128260611D01*
X254477391Y-128231288D01*
X254375956Y-128148044D01*
X254292712Y-128046609D01*
X254263389Y-128010879D01*
X254253822Y-127992980D01*
X254179743Y-127854390D01*
X254143272Y-127734160D01*
X254128234Y-127684588D01*
X254110842Y-127508000D01*
X254128234Y-127331412D01*
X254179743Y-127161611D01*
X254179743Y-127161610D01*
X254263388Y-127005123D01*
X254263389Y-127005121D01*
X254292712Y-126969391D01*
X254375956Y-126867956D01*
X254477391Y-126784712D01*
X254513121Y-126755389D01*
X254626405Y-126694837D01*
X254669610Y-126671743D01*
X254726211Y-126654573D01*
X254839412Y-126620234D01*
X254927638Y-126611545D01*
X254971750Y-126607200D01*
X255060250Y-126607200D01*
X255104362Y-126611545D01*
X255104362Y-126611545D01*
G37*
G36*
X215304787Y-125145510D02*
X215465160Y-125194160D01*
X215465162Y-125194161D01*
X215612966Y-125273163D01*
X215742517Y-125379483D01*
X215848837Y-125509034D01*
X215901758Y-125608044D01*
X215927840Y-125656840D01*
X215976490Y-125817213D01*
X215992916Y-125984000D01*
X215976490Y-126150787D01*
X215927840Y-126311160D01*
X215927839Y-126311162D01*
X215848837Y-126458966D01*
X215742517Y-126588517D01*
X215612966Y-126694837D01*
X215465162Y-126773839D01*
X215465160Y-126773840D01*
X215304787Y-126822490D01*
X215179794Y-126834800D01*
X215096206Y-126834800D01*
X214971213Y-126822490D01*
X214810840Y-126773840D01*
X214810838Y-126773839D01*
X214663034Y-126694837D01*
X214533483Y-126588517D01*
X214427163Y-126458966D01*
X214348161Y-126311162D01*
X214348160Y-126311160D01*
X214299510Y-126150787D01*
X214283084Y-125984000D01*
X214299510Y-125817213D01*
X214348160Y-125656840D01*
X214374242Y-125608044D01*
X214427163Y-125509034D01*
X214533483Y-125379483D01*
X214663034Y-125273163D01*
X214810838Y-125194161D01*
X214810840Y-125194160D01*
X214971213Y-125145510D01*
X215096206Y-125133200D01*
X215179794Y-125133200D01*
X215304787Y-125145510D01*
X215304787Y-125145510D01*
G37*
G36*
X263564787Y-125145510D02*
X263725160Y-125194160D01*
X263725162Y-125194161D01*
X263872966Y-125273163D01*
X264002517Y-125379483D01*
X264108837Y-125509034D01*
X264161758Y-125608044D01*
X264187840Y-125656840D01*
X264236490Y-125817213D01*
X264252916Y-125984000D01*
X264236490Y-126150787D01*
X264187840Y-126311160D01*
X264187839Y-126311162D01*
X264108837Y-126458966D01*
X264002517Y-126588517D01*
X263872966Y-126694837D01*
X263725162Y-126773839D01*
X263725160Y-126773840D01*
X263564787Y-126822490D01*
X263439794Y-126834800D01*
X263356206Y-126834800D01*
X263231213Y-126822490D01*
X263070840Y-126773840D01*
X263070838Y-126773839D01*
X262923034Y-126694837D01*
X262793483Y-126588517D01*
X262687163Y-126458966D01*
X262608161Y-126311162D01*
X262608160Y-126311160D01*
X262559510Y-126150787D01*
X262543084Y-125984000D01*
X262559510Y-125817213D01*
X262608160Y-125656840D01*
X262634242Y-125608044D01*
X262687163Y-125509034D01*
X262793483Y-125379483D01*
X262923034Y-125273163D01*
X263070838Y-125194161D01*
X263070840Y-125194160D01*
X263231213Y-125145510D01*
X263356206Y-125133200D01*
X263439794Y-125133200D01*
X263564787Y-125145510D01*
X263564787Y-125145510D01*
G37*
G36*
X253376800Y-125868800D02*
X251575200Y-125868800D01*
X251575200Y-124067200D01*
X253376800Y-124067200D01*
X253376800Y-125868800D01*
X253376800Y-125868800D01*
G37*
G36*
X255104362Y-124071545D02*
X255192588Y-124080234D01*
X255305789Y-124114573D01*
X255362390Y-124131743D01*
X255405595Y-124154837D01*
X255518879Y-124215389D01*
X255554609Y-124244712D01*
X255656044Y-124327956D01*
X255739288Y-124429391D01*
X255768611Y-124465121D01*
X255768612Y-124465123D01*
X255852257Y-124621610D01*
X255852257Y-124621611D01*
X255903766Y-124791412D01*
X255921158Y-124968000D01*
X255903766Y-125144588D01*
X255888728Y-125194160D01*
X255852257Y-125314390D01*
X255778178Y-125452980D01*
X255768611Y-125470879D01*
X255739288Y-125506609D01*
X255656044Y-125608044D01*
X255554609Y-125691288D01*
X255518879Y-125720611D01*
X255518877Y-125720612D01*
X255362390Y-125804257D01*
X255319679Y-125817213D01*
X255192588Y-125855766D01*
X255104362Y-125864455D01*
X255060250Y-125868800D01*
X254971750Y-125868800D01*
X254927638Y-125864455D01*
X254839412Y-125855766D01*
X254712321Y-125817213D01*
X254669610Y-125804257D01*
X254513123Y-125720612D01*
X254513121Y-125720611D01*
X254477391Y-125691288D01*
X254375956Y-125608044D01*
X254292712Y-125506609D01*
X254263389Y-125470879D01*
X254253822Y-125452980D01*
X254179743Y-125314390D01*
X254143272Y-125194160D01*
X254128234Y-125144588D01*
X254110842Y-124968000D01*
X254128234Y-124791412D01*
X254179743Y-124621611D01*
X254179743Y-124621610D01*
X254263388Y-124465123D01*
X254263389Y-124465121D01*
X254292712Y-124429391D01*
X254375956Y-124327956D01*
X254477391Y-124244712D01*
X254513121Y-124215389D01*
X254626405Y-124154837D01*
X254669610Y-124131743D01*
X254726211Y-124114573D01*
X254839412Y-124080234D01*
X254927638Y-124071545D01*
X254971750Y-124067200D01*
X255060250Y-124067200D01*
X255104362Y-124071545D01*
X255104362Y-124071545D01*
G37*
G36*
X219848800Y-125868800D02*
X218047200Y-125868800D01*
X218047200Y-124067200D01*
X219848800Y-124067200D01*
X219848800Y-125868800D01*
X219848800Y-125868800D01*
G37*
G36*
X221576362Y-124071545D02*
X221664588Y-124080234D01*
X221777789Y-124114573D01*
X221834390Y-124131743D01*
X221877595Y-124154837D01*
X221990879Y-124215389D01*
X222026609Y-124244712D01*
X222128044Y-124327956D01*
X222211288Y-124429391D01*
X222240611Y-124465121D01*
X222240612Y-124465123D01*
X222324257Y-124621610D01*
X222324257Y-124621611D01*
X222375766Y-124791412D01*
X222393158Y-124968000D01*
X222375766Y-125144588D01*
X222360728Y-125194160D01*
X222324257Y-125314390D01*
X222250178Y-125452980D01*
X222240611Y-125470879D01*
X222211288Y-125506609D01*
X222128044Y-125608044D01*
X222026609Y-125691288D01*
X221990879Y-125720611D01*
X221990877Y-125720612D01*
X221834390Y-125804257D01*
X221791679Y-125817213D01*
X221664588Y-125855766D01*
X221576362Y-125864455D01*
X221532250Y-125868800D01*
X221443750Y-125868800D01*
X221399638Y-125864455D01*
X221311412Y-125855766D01*
X221184321Y-125817213D01*
X221141610Y-125804257D01*
X220985123Y-125720612D01*
X220985121Y-125720611D01*
X220949391Y-125691288D01*
X220847956Y-125608044D01*
X220764712Y-125506609D01*
X220735389Y-125470879D01*
X220725822Y-125452980D01*
X220651743Y-125314390D01*
X220615272Y-125194160D01*
X220600234Y-125144588D01*
X220582842Y-124968000D01*
X220600234Y-124791412D01*
X220651743Y-124621611D01*
X220651743Y-124621610D01*
X220735388Y-124465123D01*
X220735389Y-124465121D01*
X220764712Y-124429391D01*
X220847956Y-124327956D01*
X220949391Y-124244712D01*
X220985121Y-124215389D01*
X221098405Y-124154837D01*
X221141610Y-124131743D01*
X221198211Y-124114573D01*
X221311412Y-124080234D01*
X221399638Y-124071545D01*
X221443750Y-124067200D01*
X221532250Y-124067200D01*
X221576362Y-124071545D01*
X221576362Y-124071545D01*
G37*
G36*
X242200800Y-125868800D02*
X240399200Y-125868800D01*
X240399200Y-124067200D01*
X242200800Y-124067200D01*
X242200800Y-125868800D01*
X242200800Y-125868800D01*
G37*
G36*
X243928362Y-124071545D02*
X244016588Y-124080234D01*
X244129789Y-124114573D01*
X244186390Y-124131743D01*
X244229595Y-124154837D01*
X244342879Y-124215389D01*
X244378609Y-124244712D01*
X244480044Y-124327956D01*
X244563288Y-124429391D01*
X244592611Y-124465121D01*
X244592612Y-124465123D01*
X244676257Y-124621610D01*
X244676257Y-124621611D01*
X244727766Y-124791412D01*
X244745158Y-124968000D01*
X244727766Y-125144588D01*
X244712728Y-125194160D01*
X244676257Y-125314390D01*
X244602178Y-125452980D01*
X244592611Y-125470879D01*
X244563288Y-125506609D01*
X244480044Y-125608044D01*
X244378609Y-125691288D01*
X244342879Y-125720611D01*
X244342877Y-125720612D01*
X244186390Y-125804257D01*
X244143679Y-125817213D01*
X244016588Y-125855766D01*
X243928362Y-125864455D01*
X243884250Y-125868800D01*
X243795750Y-125868800D01*
X243751638Y-125864455D01*
X243663412Y-125855766D01*
X243536321Y-125817213D01*
X243493610Y-125804257D01*
X243337123Y-125720612D01*
X243337121Y-125720611D01*
X243301391Y-125691288D01*
X243199956Y-125608044D01*
X243116712Y-125506609D01*
X243087389Y-125470879D01*
X243077822Y-125452980D01*
X243003743Y-125314390D01*
X242967272Y-125194160D01*
X242952234Y-125144588D01*
X242934842Y-124968000D01*
X242952234Y-124791412D01*
X243003743Y-124621611D01*
X243003743Y-124621610D01*
X243087388Y-124465123D01*
X243087389Y-124465121D01*
X243116712Y-124429391D01*
X243199956Y-124327956D01*
X243301391Y-124244712D01*
X243337121Y-124215389D01*
X243450405Y-124154837D01*
X243493610Y-124131743D01*
X243550211Y-124114573D01*
X243663412Y-124080234D01*
X243751638Y-124071545D01*
X243795750Y-124067200D01*
X243884250Y-124067200D01*
X243928362Y-124071545D01*
X243928362Y-124071545D01*
G37*
G36*
X232752362Y-124071545D02*
X232840588Y-124080234D01*
X232953789Y-124114573D01*
X233010390Y-124131743D01*
X233053595Y-124154837D01*
X233166879Y-124215389D01*
X233202609Y-124244712D01*
X233304044Y-124327956D01*
X233387288Y-124429391D01*
X233416611Y-124465121D01*
X233416612Y-124465123D01*
X233500257Y-124621610D01*
X233500257Y-124621611D01*
X233551766Y-124791412D01*
X233569158Y-124968000D01*
X233551766Y-125144588D01*
X233536728Y-125194160D01*
X233500257Y-125314390D01*
X233426178Y-125452980D01*
X233416611Y-125470879D01*
X233387288Y-125506609D01*
X233304044Y-125608044D01*
X233202609Y-125691288D01*
X233166879Y-125720611D01*
X233166877Y-125720612D01*
X233010390Y-125804257D01*
X232967679Y-125817213D01*
X232840588Y-125855766D01*
X232752362Y-125864455D01*
X232708250Y-125868800D01*
X232619750Y-125868800D01*
X232575638Y-125864455D01*
X232487412Y-125855766D01*
X232360321Y-125817213D01*
X232317610Y-125804257D01*
X232161123Y-125720612D01*
X232161121Y-125720611D01*
X232125391Y-125691288D01*
X232023956Y-125608044D01*
X231940712Y-125506609D01*
X231911389Y-125470879D01*
X231901822Y-125452980D01*
X231827743Y-125314390D01*
X231791272Y-125194160D01*
X231776234Y-125144588D01*
X231758842Y-124968000D01*
X231776234Y-124791412D01*
X231827743Y-124621611D01*
X231827743Y-124621610D01*
X231911388Y-124465123D01*
X231911389Y-124465121D01*
X231940712Y-124429391D01*
X232023956Y-124327956D01*
X232125391Y-124244712D01*
X232161121Y-124215389D01*
X232274405Y-124154837D01*
X232317610Y-124131743D01*
X232374211Y-124114573D01*
X232487412Y-124080234D01*
X232575638Y-124071545D01*
X232619750Y-124067200D01*
X232708250Y-124067200D01*
X232752362Y-124071545D01*
X232752362Y-124071545D01*
G37*
G36*
X231024800Y-125868800D02*
X229223200Y-125868800D01*
X229223200Y-124067200D01*
X231024800Y-124067200D01*
X231024800Y-125868800D01*
X231024800Y-125868800D01*
G37*
G36*
X215304787Y-122605510D02*
X215465160Y-122654160D01*
X215465162Y-122654161D01*
X215612966Y-122733163D01*
X215742517Y-122839483D01*
X215848837Y-122969034D01*
X215927839Y-123116838D01*
X215927840Y-123116840D01*
X215976490Y-123277213D01*
X215992916Y-123444000D01*
X215976490Y-123610787D01*
X215927840Y-123771160D01*
X215927839Y-123771162D01*
X215848837Y-123918966D01*
X215742517Y-124048517D01*
X215612966Y-124154837D01*
X215465162Y-124233839D01*
X215465160Y-124233840D01*
X215304787Y-124282490D01*
X215179794Y-124294800D01*
X215096206Y-124294800D01*
X214971213Y-124282490D01*
X214810840Y-124233840D01*
X214810838Y-124233839D01*
X214663034Y-124154837D01*
X214533483Y-124048517D01*
X214427163Y-123918966D01*
X214348161Y-123771162D01*
X214348160Y-123771160D01*
X214299510Y-123610787D01*
X214283084Y-123444000D01*
X214299510Y-123277213D01*
X214348160Y-123116840D01*
X214348161Y-123116838D01*
X214427163Y-122969034D01*
X214533483Y-122839483D01*
X214663034Y-122733163D01*
X214810838Y-122654161D01*
X214810840Y-122654160D01*
X214971213Y-122605510D01*
X215096206Y-122593200D01*
X215179794Y-122593200D01*
X215304787Y-122605510D01*
X215304787Y-122605510D01*
G37*
G36*
X263564787Y-121085510D02*
X263725160Y-121134160D01*
X263725162Y-121134161D01*
X263872966Y-121213163D01*
X264002517Y-121319483D01*
X264108837Y-121449034D01*
X264187839Y-121596838D01*
X264187840Y-121596840D01*
X264236490Y-121757213D01*
X264252916Y-121924000D01*
X264236490Y-122090787D01*
X264187840Y-122251160D01*
X264187839Y-122251162D01*
X264108837Y-122398966D01*
X264002517Y-122528517D01*
X263872966Y-122634837D01*
X263725162Y-122713839D01*
X263725160Y-122713840D01*
X263564787Y-122762490D01*
X263439794Y-122774800D01*
X263356206Y-122774800D01*
X263231213Y-122762490D01*
X263070840Y-122713840D01*
X263070838Y-122713839D01*
X262923034Y-122634837D01*
X262793483Y-122528517D01*
X262687163Y-122398966D01*
X262608161Y-122251162D01*
X262608160Y-122251160D01*
X262559510Y-122090787D01*
X262543084Y-121924000D01*
X262559510Y-121757213D01*
X262608160Y-121596840D01*
X262608161Y-121596838D01*
X262687163Y-121449034D01*
X262793483Y-121319483D01*
X262923034Y-121213163D01*
X263070838Y-121134161D01*
X263070840Y-121134160D01*
X263231213Y-121085510D01*
X263356206Y-121073200D01*
X263439794Y-121073200D01*
X263564787Y-121085510D01*
X263564787Y-121085510D01*
G37*
G36*
X251988543Y-121228663D02*
X252026222Y-121240093D01*
X252060939Y-121258650D01*
X252091374Y-121283626D01*
X252116350Y-121314061D01*
X252134907Y-121348778D01*
X252146337Y-121386457D01*
X252150800Y-121431773D01*
X252150800Y-122268227D01*
X252146337Y-122313543D01*
X252134907Y-122351222D01*
X252116350Y-122385939D01*
X252091374Y-122416374D01*
X252060939Y-122441350D01*
X252026222Y-122459907D01*
X251988543Y-122471337D01*
X251943227Y-122475800D01*
X250856773Y-122475800D01*
X250811457Y-122471337D01*
X250773778Y-122459907D01*
X250739061Y-122441350D01*
X250708626Y-122416374D01*
X250683650Y-122385939D01*
X250665093Y-122351222D01*
X250653663Y-122313543D01*
X250649200Y-122268227D01*
X250649200Y-121431773D01*
X250653663Y-121386457D01*
X250665093Y-121348778D01*
X250683650Y-121314061D01*
X250708626Y-121283626D01*
X250739061Y-121258650D01*
X250773778Y-121240093D01*
X250811457Y-121228663D01*
X250856773Y-121224200D01*
X251943227Y-121224200D01*
X251988543Y-121228663D01*
X251988543Y-121228663D01*
G37*
G36*
X229188543Y-121028663D02*
X229226222Y-121040093D01*
X229260939Y-121058650D01*
X229291374Y-121083626D01*
X229316350Y-121114061D01*
X229334907Y-121148778D01*
X229346337Y-121186457D01*
X229350800Y-121231773D01*
X229350800Y-122068227D01*
X229346337Y-122113543D01*
X229334907Y-122151222D01*
X229316350Y-122185939D01*
X229291374Y-122216374D01*
X229260939Y-122241350D01*
X229226222Y-122259907D01*
X229188543Y-122271337D01*
X229143227Y-122275800D01*
X228056773Y-122275800D01*
X228011457Y-122271337D01*
X227973778Y-122259907D01*
X227939061Y-122241350D01*
X227908626Y-122216374D01*
X227883650Y-122185939D01*
X227865093Y-122151222D01*
X227853663Y-122113543D01*
X227849200Y-122068227D01*
X227849200Y-121231773D01*
X227853663Y-121186457D01*
X227865093Y-121148778D01*
X227883650Y-121114061D01*
X227908626Y-121083626D01*
X227939061Y-121058650D01*
X227973778Y-121040093D01*
X228011457Y-121028663D01*
X228056773Y-121024200D01*
X229143227Y-121024200D01*
X229188543Y-121028663D01*
X229188543Y-121028663D01*
G37*
G36*
X215304787Y-120065510D02*
X215465160Y-120114160D01*
X215465162Y-120114161D01*
X215612966Y-120193163D01*
X215742517Y-120299483D01*
X215848837Y-120429034D01*
X215927839Y-120576838D01*
X215927840Y-120576840D01*
X215976490Y-120737213D01*
X215992916Y-120904000D01*
X215976490Y-121070787D01*
X215929951Y-121224200D01*
X215927839Y-121231162D01*
X215848837Y-121378966D01*
X215742517Y-121508517D01*
X215612966Y-121614837D01*
X215465162Y-121693839D01*
X215465160Y-121693840D01*
X215304787Y-121742490D01*
X215179794Y-121754800D01*
X215096206Y-121754800D01*
X214971213Y-121742490D01*
X214810840Y-121693840D01*
X214810838Y-121693839D01*
X214663034Y-121614837D01*
X214533483Y-121508517D01*
X214427163Y-121378966D01*
X214348161Y-121231162D01*
X214346049Y-121224200D01*
X214299510Y-121070787D01*
X214283084Y-120904000D01*
X214299510Y-120737213D01*
X214348160Y-120576840D01*
X214348161Y-120576838D01*
X214427163Y-120429034D01*
X214533483Y-120299483D01*
X214663034Y-120193163D01*
X214810838Y-120114161D01*
X214810840Y-120114160D01*
X214971213Y-120065510D01*
X215096206Y-120053200D01*
X215179794Y-120053200D01*
X215304787Y-120065510D01*
X215304787Y-120065510D01*
G37*
G36*
X251988543Y-119178663D02*
X252026222Y-119190093D01*
X252060939Y-119208650D01*
X252091374Y-119233626D01*
X252116350Y-119264061D01*
X252134907Y-119298778D01*
X252146337Y-119336457D01*
X252150800Y-119381773D01*
X252150800Y-120218227D01*
X252146337Y-120263543D01*
X252134907Y-120301222D01*
X252116350Y-120335939D01*
X252091374Y-120366374D01*
X252060939Y-120391350D01*
X252026222Y-120409907D01*
X251988543Y-120421337D01*
X251943227Y-120425800D01*
X250856773Y-120425800D01*
X250811457Y-120421337D01*
X250773778Y-120409907D01*
X250739061Y-120391350D01*
X250708626Y-120366374D01*
X250683650Y-120335939D01*
X250665093Y-120301222D01*
X250653663Y-120263543D01*
X250649200Y-120218227D01*
X250649200Y-119381773D01*
X250653663Y-119336457D01*
X250665093Y-119298778D01*
X250683650Y-119264061D01*
X250708626Y-119233626D01*
X250739061Y-119208650D01*
X250773778Y-119190093D01*
X250811457Y-119178663D01*
X250856773Y-119174200D01*
X251943227Y-119174200D01*
X251988543Y-119178663D01*
X251988543Y-119178663D01*
G37*
G36*
X263564787Y-118545510D02*
X263725160Y-118594160D01*
X263725162Y-118594161D01*
X263872966Y-118673163D01*
X264002517Y-118779483D01*
X264108837Y-118909034D01*
X264162082Y-119008650D01*
X264187840Y-119056840D01*
X264236490Y-119217213D01*
X264252916Y-119384000D01*
X264236490Y-119550787D01*
X264187840Y-119711160D01*
X264187839Y-119711162D01*
X264108837Y-119858966D01*
X264002517Y-119988517D01*
X263872966Y-120094837D01*
X263739128Y-120166374D01*
X263725160Y-120173840D01*
X263564787Y-120222490D01*
X263439794Y-120234800D01*
X263356206Y-120234800D01*
X263231213Y-120222490D01*
X263070840Y-120173840D01*
X263056872Y-120166374D01*
X262923034Y-120094837D01*
X262793483Y-119988517D01*
X262687163Y-119858966D01*
X262608161Y-119711162D01*
X262608160Y-119711160D01*
X262559510Y-119550787D01*
X262543084Y-119384000D01*
X262559510Y-119217213D01*
X262608160Y-119056840D01*
X262633918Y-119008650D01*
X262687163Y-118909034D01*
X262793483Y-118779483D01*
X262923034Y-118673163D01*
X263070838Y-118594161D01*
X263070840Y-118594160D01*
X263231213Y-118545510D01*
X263356206Y-118533200D01*
X263439794Y-118533200D01*
X263564787Y-118545510D01*
X263564787Y-118545510D01*
G37*
G36*
X229188543Y-118978663D02*
X229226222Y-118990093D01*
X229260939Y-119008650D01*
X229291374Y-119033626D01*
X229316350Y-119064061D01*
X229334907Y-119098778D01*
X229346337Y-119136457D01*
X229350800Y-119181773D01*
X229350800Y-120018227D01*
X229346337Y-120063543D01*
X229334907Y-120101222D01*
X229316350Y-120135939D01*
X229291374Y-120166374D01*
X229260939Y-120191350D01*
X229226222Y-120209907D01*
X229188543Y-120221337D01*
X229143227Y-120225800D01*
X228056773Y-120225800D01*
X228011457Y-120221337D01*
X227973778Y-120209907D01*
X227939061Y-120191350D01*
X227908626Y-120166374D01*
X227883650Y-120135939D01*
X227865093Y-120101222D01*
X227853663Y-120063543D01*
X227849200Y-120018227D01*
X227849200Y-119181773D01*
X227853663Y-119136457D01*
X227865093Y-119098778D01*
X227883650Y-119064061D01*
X227908626Y-119033626D01*
X227939061Y-119008650D01*
X227973778Y-118990093D01*
X228011457Y-118978663D01*
X228056773Y-118974200D01*
X229143227Y-118974200D01*
X229188543Y-118978663D01*
X229188543Y-118978663D01*
G37*
G36*
X215304787Y-117525510D02*
X215465160Y-117574160D01*
X215465162Y-117574161D01*
X215612966Y-117653163D01*
X215742517Y-117759483D01*
X215848837Y-117889034D01*
X215922471Y-118026795D01*
X215927840Y-118036840D01*
X215976490Y-118197213D01*
X215992916Y-118364000D01*
X215976490Y-118530787D01*
X215927840Y-118691160D01*
X215927839Y-118691162D01*
X215848837Y-118838966D01*
X215742517Y-118968517D01*
X215612966Y-119074837D01*
X215465162Y-119153839D01*
X215465160Y-119153840D01*
X215304787Y-119202490D01*
X215179794Y-119214800D01*
X215096206Y-119214800D01*
X214971213Y-119202490D01*
X214810840Y-119153840D01*
X214810838Y-119153839D01*
X214663034Y-119074837D01*
X214533483Y-118968517D01*
X214427163Y-118838966D01*
X214348161Y-118691162D01*
X214348160Y-118691160D01*
X214299510Y-118530787D01*
X214283084Y-118364000D01*
X214299510Y-118197213D01*
X214348160Y-118036840D01*
X214353529Y-118026795D01*
X214427163Y-117889034D01*
X214533483Y-117759483D01*
X214663034Y-117653163D01*
X214810838Y-117574161D01*
X214810840Y-117574160D01*
X214971213Y-117525510D01*
X215096206Y-117513200D01*
X215179794Y-117513200D01*
X215304787Y-117525510D01*
X215304787Y-117525510D01*
G37*
G36*
X239188543Y-117578663D02*
X239226222Y-117590093D01*
X239260939Y-117608650D01*
X239291374Y-117633626D01*
X239316350Y-117664061D01*
X239334907Y-117698778D01*
X239346337Y-117736457D01*
X239350800Y-117781773D01*
X239350800Y-118618227D01*
X239346337Y-118663543D01*
X239334907Y-118701222D01*
X239316350Y-118735939D01*
X239291374Y-118766374D01*
X239260939Y-118791350D01*
X239226222Y-118809907D01*
X239188543Y-118821337D01*
X239143227Y-118825800D01*
X238056773Y-118825800D01*
X238011457Y-118821337D01*
X237973778Y-118809907D01*
X237939061Y-118791350D01*
X237908626Y-118766374D01*
X237883650Y-118735939D01*
X237865093Y-118701222D01*
X237853663Y-118663543D01*
X237849200Y-118618227D01*
X237849200Y-117781773D01*
X237853663Y-117736457D01*
X237865093Y-117698778D01*
X237883650Y-117664061D01*
X237908626Y-117633626D01*
X237939061Y-117608650D01*
X237973778Y-117590093D01*
X238011457Y-117578663D01*
X238056773Y-117574200D01*
X239143227Y-117574200D01*
X239188543Y-117578663D01*
X239188543Y-117578663D01*
G37*
G36*
X261446543Y-116998663D02*
X261484222Y-117010093D01*
X261518939Y-117028650D01*
X261549374Y-117053626D01*
X261574350Y-117084061D01*
X261592907Y-117118778D01*
X261604337Y-117156457D01*
X261608800Y-117201773D01*
X261608800Y-118038227D01*
X261604337Y-118083543D01*
X261592907Y-118121222D01*
X261574350Y-118155939D01*
X261549374Y-118186374D01*
X261518939Y-118211350D01*
X261484222Y-118229907D01*
X261446543Y-118241337D01*
X261401227Y-118245800D01*
X260314773Y-118245800D01*
X260269457Y-118241337D01*
X260231778Y-118229907D01*
X260197061Y-118211350D01*
X260166626Y-118186374D01*
X260141650Y-118155939D01*
X260123093Y-118121222D01*
X260111663Y-118083543D01*
X260107200Y-118038227D01*
X260107200Y-117201773D01*
X260111663Y-117156457D01*
X260123093Y-117118778D01*
X260141650Y-117084061D01*
X260166626Y-117053626D01*
X260197061Y-117028650D01*
X260231778Y-117010093D01*
X260269457Y-116998663D01*
X260314773Y-116994200D01*
X261401227Y-116994200D01*
X261446543Y-116998663D01*
X261446543Y-116998663D01*
G37*
G36*
X229188543Y-116578663D02*
X229226222Y-116590093D01*
X229260939Y-116608650D01*
X229291374Y-116633626D01*
X229316350Y-116664061D01*
X229334907Y-116698778D01*
X229346337Y-116736457D01*
X229350800Y-116781773D01*
X229350800Y-117618227D01*
X229346337Y-117663543D01*
X229334907Y-117701222D01*
X229316350Y-117735939D01*
X229291374Y-117766374D01*
X229260939Y-117791350D01*
X229226222Y-117809907D01*
X229188543Y-117821337D01*
X229143227Y-117825800D01*
X228056773Y-117825800D01*
X228011457Y-117821337D01*
X227973778Y-117809907D01*
X227939061Y-117791350D01*
X227908626Y-117766374D01*
X227883650Y-117735939D01*
X227865093Y-117701222D01*
X227853663Y-117663543D01*
X227849200Y-117618227D01*
X227849200Y-116781773D01*
X227853663Y-116736457D01*
X227865093Y-116698778D01*
X227883650Y-116664061D01*
X227908626Y-116633626D01*
X227939061Y-116608650D01*
X227973778Y-116590093D01*
X228011457Y-116578663D01*
X228056773Y-116574200D01*
X229143227Y-116574200D01*
X229188543Y-116578663D01*
X229188543Y-116578663D01*
G37*
G36*
X247660800Y-117796800D02*
X242559200Y-117796800D01*
X242559200Y-116195200D01*
X247660800Y-116195200D01*
X247660800Y-117796800D01*
X247660800Y-117796800D01*
G37*
G36*
X258582800Y-117796800D02*
X253481200Y-117796800D01*
X253481200Y-116195200D01*
X258582800Y-116195200D01*
X258582800Y-117796800D01*
X258582800Y-117796800D01*
G37*
G36*
X236738800Y-117796800D02*
X231637200Y-117796800D01*
X231637200Y-116195200D01*
X236738800Y-116195200D01*
X236738800Y-117796800D01*
X236738800Y-117796800D01*
G37*
G36*
X225308800Y-117796800D02*
X220207200Y-117796800D01*
X220207200Y-116195200D01*
X225308800Y-116195200D01*
X225308800Y-117796800D01*
X225308800Y-117796800D01*
G37*
G36*
X263564787Y-116005510D02*
X263725160Y-116054160D01*
X263725162Y-116054161D01*
X263872966Y-116133163D01*
X264002517Y-116239483D01*
X264108837Y-116369034D01*
X264155263Y-116455892D01*
X264187840Y-116516840D01*
X264236490Y-116677213D01*
X264252916Y-116844000D01*
X264236490Y-117010787D01*
X264203730Y-117118778D01*
X264187839Y-117171162D01*
X264108837Y-117318966D01*
X264002517Y-117448517D01*
X263872966Y-117554837D01*
X263766194Y-117611907D01*
X263725160Y-117633840D01*
X263564787Y-117682490D01*
X263439794Y-117694800D01*
X263356206Y-117694800D01*
X263231213Y-117682490D01*
X263070840Y-117633840D01*
X263029806Y-117611907D01*
X262923034Y-117554837D01*
X262793483Y-117448517D01*
X262687163Y-117318966D01*
X262608161Y-117171162D01*
X262592270Y-117118778D01*
X262559510Y-117010787D01*
X262543084Y-116844000D01*
X262559510Y-116677213D01*
X262608160Y-116516840D01*
X262640737Y-116455892D01*
X262687163Y-116369034D01*
X262793483Y-116239483D01*
X262923034Y-116133163D01*
X263070838Y-116054161D01*
X263070840Y-116054160D01*
X263231213Y-116005510D01*
X263356206Y-115993200D01*
X263439794Y-115993200D01*
X263564787Y-116005510D01*
X263564787Y-116005510D01*
G37*
G36*
X251852543Y-116380663D02*
X251890222Y-116392093D01*
X251924939Y-116410650D01*
X251955374Y-116435626D01*
X251980350Y-116466061D01*
X251998907Y-116500778D01*
X252010337Y-116538457D01*
X252014800Y-116583773D01*
X252014800Y-117420227D01*
X252010337Y-117465543D01*
X251998907Y-117503222D01*
X251980350Y-117537939D01*
X251955374Y-117568374D01*
X251924939Y-117593350D01*
X251890222Y-117611907D01*
X251852543Y-117623337D01*
X251807227Y-117627800D01*
X250720773Y-117627800D01*
X250675457Y-117623337D01*
X250637778Y-117611907D01*
X250603061Y-117593350D01*
X250572626Y-117568374D01*
X250547650Y-117537939D01*
X250529093Y-117503222D01*
X250517663Y-117465543D01*
X250513200Y-117420227D01*
X250513200Y-116583773D01*
X250517663Y-116538457D01*
X250529093Y-116500778D01*
X250547650Y-116466061D01*
X250572626Y-116435626D01*
X250603061Y-116410650D01*
X250637778Y-116392093D01*
X250675457Y-116380663D01*
X250720773Y-116376200D01*
X251807227Y-116376200D01*
X251852543Y-116380663D01*
X251852543Y-116380663D01*
G37*
G36*
X239188543Y-115528663D02*
X239226222Y-115540093D01*
X239260939Y-115558650D01*
X239291374Y-115583626D01*
X239316350Y-115614061D01*
X239334907Y-115648778D01*
X239346337Y-115686457D01*
X239350800Y-115731773D01*
X239350800Y-116568227D01*
X239346337Y-116613543D01*
X239334907Y-116651222D01*
X239316350Y-116685939D01*
X239291374Y-116716374D01*
X239260939Y-116741350D01*
X239226222Y-116759907D01*
X239188543Y-116771337D01*
X239143227Y-116775800D01*
X238056773Y-116775800D01*
X238011457Y-116771337D01*
X237973778Y-116759907D01*
X237939061Y-116741350D01*
X237908626Y-116716374D01*
X237883650Y-116685939D01*
X237865093Y-116651222D01*
X237853663Y-116613543D01*
X237849200Y-116568227D01*
X237849200Y-115731773D01*
X237853663Y-115686457D01*
X237865093Y-115648778D01*
X237883650Y-115614061D01*
X237908626Y-115583626D01*
X237939061Y-115558650D01*
X237973778Y-115540093D01*
X238011457Y-115528663D01*
X238056773Y-115524200D01*
X239143227Y-115524200D01*
X239188543Y-115528663D01*
X239188543Y-115528663D01*
G37*
G36*
X215304787Y-114985510D02*
X215465160Y-115034160D01*
X215465162Y-115034161D01*
X215612966Y-115113163D01*
X215742517Y-115219483D01*
X215848837Y-115349034D01*
X215923082Y-115487939D01*
X215927840Y-115496840D01*
X215976490Y-115657213D01*
X215992916Y-115824000D01*
X215976490Y-115990787D01*
X215927840Y-116151160D01*
X215927839Y-116151162D01*
X215848837Y-116298966D01*
X215742517Y-116428517D01*
X215612966Y-116534837D01*
X215509588Y-116590093D01*
X215465160Y-116613840D01*
X215304787Y-116662490D01*
X215179794Y-116674800D01*
X215096206Y-116674800D01*
X214971213Y-116662490D01*
X214810840Y-116613840D01*
X214766412Y-116590093D01*
X214663034Y-116534837D01*
X214533483Y-116428517D01*
X214427163Y-116298966D01*
X214348161Y-116151162D01*
X214348160Y-116151160D01*
X214299510Y-115990787D01*
X214283084Y-115824000D01*
X214299510Y-115657213D01*
X214348160Y-115496840D01*
X214352918Y-115487939D01*
X214427163Y-115349034D01*
X214533483Y-115219483D01*
X214663034Y-115113163D01*
X214810838Y-115034161D01*
X214810840Y-115034160D01*
X214971213Y-114985510D01*
X215096206Y-114973200D01*
X215179794Y-114973200D01*
X215304787Y-114985510D01*
X215304787Y-114985510D01*
G37*
G36*
X261446543Y-114948663D02*
X261484222Y-114960093D01*
X261518939Y-114978650D01*
X261549374Y-115003626D01*
X261574350Y-115034061D01*
X261592907Y-115068778D01*
X261604337Y-115106457D01*
X261608800Y-115151773D01*
X261608800Y-115988227D01*
X261604337Y-116033543D01*
X261592907Y-116071222D01*
X261574350Y-116105939D01*
X261549374Y-116136374D01*
X261518939Y-116161350D01*
X261484222Y-116179907D01*
X261446543Y-116191337D01*
X261401227Y-116195800D01*
X260314773Y-116195800D01*
X260269457Y-116191337D01*
X260231778Y-116179907D01*
X260197061Y-116161350D01*
X260166626Y-116136374D01*
X260141650Y-116105939D01*
X260123093Y-116071222D01*
X260111663Y-116033543D01*
X260107200Y-115988227D01*
X260107200Y-115151773D01*
X260111663Y-115106457D01*
X260123093Y-115068778D01*
X260141650Y-115034061D01*
X260166626Y-115003626D01*
X260197061Y-114978650D01*
X260231778Y-114960093D01*
X260269457Y-114948663D01*
X260314773Y-114944200D01*
X261401227Y-114944200D01*
X261446543Y-114948663D01*
X261446543Y-114948663D01*
G37*
G36*
X229188543Y-114528663D02*
X229226222Y-114540093D01*
X229260939Y-114558650D01*
X229291374Y-114583626D01*
X229316350Y-114614061D01*
X229334907Y-114648778D01*
X229346337Y-114686457D01*
X229350800Y-114731773D01*
X229350800Y-115568227D01*
X229346337Y-115613543D01*
X229334907Y-115651222D01*
X229316350Y-115685939D01*
X229291374Y-115716374D01*
X229260939Y-115741350D01*
X229226222Y-115759907D01*
X229188543Y-115771337D01*
X229143227Y-115775800D01*
X228056773Y-115775800D01*
X228011457Y-115771337D01*
X227973778Y-115759907D01*
X227939061Y-115741350D01*
X227908626Y-115716374D01*
X227883650Y-115685939D01*
X227865093Y-115651222D01*
X227853663Y-115613543D01*
X227849200Y-115568227D01*
X227849200Y-114731773D01*
X227853663Y-114686457D01*
X227865093Y-114648778D01*
X227883650Y-114614061D01*
X227908626Y-114583626D01*
X227939061Y-114558650D01*
X227973778Y-114540093D01*
X228011457Y-114528663D01*
X228056773Y-114524200D01*
X229143227Y-114524200D01*
X229188543Y-114528663D01*
X229188543Y-114528663D01*
G37*
G36*
X251852543Y-114330663D02*
X251890222Y-114342093D01*
X251924939Y-114360650D01*
X251955374Y-114385626D01*
X251980350Y-114416061D01*
X251998907Y-114450778D01*
X252010337Y-114488457D01*
X252014800Y-114533773D01*
X252014800Y-115370227D01*
X252010337Y-115415543D01*
X251998907Y-115453222D01*
X251980350Y-115487939D01*
X251955374Y-115518374D01*
X251924939Y-115543350D01*
X251890222Y-115561907D01*
X251852543Y-115573337D01*
X251807227Y-115577800D01*
X250720773Y-115577800D01*
X250675457Y-115573337D01*
X250637778Y-115561907D01*
X250603061Y-115543350D01*
X250572626Y-115518374D01*
X250547650Y-115487939D01*
X250529093Y-115453222D01*
X250517663Y-115415543D01*
X250513200Y-115370227D01*
X250513200Y-114533773D01*
X250517663Y-114488457D01*
X250529093Y-114450778D01*
X250547650Y-114416061D01*
X250572626Y-114385626D01*
X250603061Y-114360650D01*
X250637778Y-114342093D01*
X250675457Y-114330663D01*
X250720773Y-114326200D01*
X251807227Y-114326200D01*
X251852543Y-114330663D01*
X251852543Y-114330663D01*
G37*
G36*
X263564787Y-113465510D02*
X263725160Y-113514160D01*
X263725162Y-113514161D01*
X263872966Y-113593163D01*
X264002517Y-113699483D01*
X264108837Y-113829034D01*
X264175479Y-113953714D01*
X264187840Y-113976840D01*
X264236490Y-114137213D01*
X264252916Y-114304000D01*
X264236490Y-114470787D01*
X264193027Y-114614061D01*
X264187839Y-114631162D01*
X264108837Y-114778966D01*
X264002517Y-114908517D01*
X263872966Y-115014837D01*
X263778886Y-115065123D01*
X263725160Y-115093840D01*
X263564787Y-115142490D01*
X263439794Y-115154800D01*
X263356206Y-115154800D01*
X263231213Y-115142490D01*
X263070840Y-115093840D01*
X263017114Y-115065123D01*
X262923034Y-115014837D01*
X262793483Y-114908517D01*
X262687163Y-114778966D01*
X262608161Y-114631162D01*
X262602973Y-114614061D01*
X262559510Y-114470787D01*
X262543084Y-114304000D01*
X262559510Y-114137213D01*
X262608160Y-113976840D01*
X262620521Y-113953714D01*
X262687163Y-113829034D01*
X262793483Y-113699483D01*
X262923034Y-113593163D01*
X263070838Y-113514161D01*
X263070840Y-113514160D01*
X263231213Y-113465510D01*
X263356206Y-113453200D01*
X263439794Y-113453200D01*
X263564787Y-113465510D01*
X263564787Y-113465510D01*
G37*
G36*
X239188543Y-112978663D02*
X239226222Y-112990093D01*
X239260939Y-113008650D01*
X239291374Y-113033626D01*
X239316350Y-113064061D01*
X239334907Y-113098778D01*
X239346337Y-113136457D01*
X239350800Y-113181773D01*
X239350800Y-114018227D01*
X239346337Y-114063543D01*
X239334907Y-114101222D01*
X239316350Y-114135939D01*
X239291374Y-114166374D01*
X239260939Y-114191350D01*
X239226222Y-114209907D01*
X239188543Y-114221337D01*
X239143227Y-114225800D01*
X238056773Y-114225800D01*
X238011457Y-114221337D01*
X237973778Y-114209907D01*
X237939061Y-114191350D01*
X237908626Y-114166374D01*
X237883650Y-114135939D01*
X237865093Y-114101222D01*
X237853663Y-114063543D01*
X237849200Y-114018227D01*
X237849200Y-113181773D01*
X237853663Y-113136457D01*
X237865093Y-113098778D01*
X237883650Y-113064061D01*
X237908626Y-113033626D01*
X237939061Y-113008650D01*
X237973778Y-112990093D01*
X238011457Y-112978663D01*
X238056773Y-112974200D01*
X239143227Y-112974200D01*
X239188543Y-112978663D01*
X239188543Y-112978663D01*
G37*
G36*
X215304787Y-112445510D02*
X215465160Y-112494160D01*
X215465162Y-112494161D01*
X215612966Y-112573163D01*
X215742517Y-112679483D01*
X215848837Y-112809034D01*
X215868748Y-112846286D01*
X215927840Y-112956840D01*
X215976490Y-113117213D01*
X215992916Y-113284000D01*
X215976490Y-113450787D01*
X215927840Y-113611160D01*
X215927839Y-113611162D01*
X215848837Y-113758966D01*
X215742517Y-113888517D01*
X215612966Y-113994837D01*
X215465162Y-114073839D01*
X215465160Y-114073840D01*
X215304787Y-114122490D01*
X215179794Y-114134800D01*
X215096206Y-114134800D01*
X214971213Y-114122490D01*
X214810840Y-114073840D01*
X214810838Y-114073839D01*
X214663034Y-113994837D01*
X214533483Y-113888517D01*
X214427163Y-113758966D01*
X214348161Y-113611162D01*
X214348160Y-113611160D01*
X214299510Y-113450787D01*
X214283084Y-113284000D01*
X214299510Y-113117213D01*
X214348160Y-112956840D01*
X214407252Y-112846286D01*
X214427163Y-112809034D01*
X214533483Y-112679483D01*
X214663034Y-112573163D01*
X214810838Y-112494161D01*
X214810840Y-112494160D01*
X214971213Y-112445510D01*
X215096206Y-112433200D01*
X215179794Y-112433200D01*
X215304787Y-112445510D01*
X215304787Y-112445510D01*
G37*
G36*
X229188543Y-112578663D02*
X229226222Y-112590093D01*
X229260939Y-112608650D01*
X229291374Y-112633626D01*
X229316350Y-112664061D01*
X229334907Y-112698778D01*
X229346337Y-112736457D01*
X229350800Y-112781773D01*
X229350800Y-113618227D01*
X229346337Y-113663543D01*
X229334907Y-113701222D01*
X229316350Y-113735939D01*
X229291374Y-113766374D01*
X229260939Y-113791350D01*
X229226222Y-113809907D01*
X229188543Y-113821337D01*
X229143227Y-113825800D01*
X228056773Y-113825800D01*
X228011457Y-113821337D01*
X227973778Y-113809907D01*
X227939061Y-113791350D01*
X227908626Y-113766374D01*
X227883650Y-113735939D01*
X227865093Y-113701222D01*
X227853663Y-113663543D01*
X227849200Y-113618227D01*
X227849200Y-112781773D01*
X227853663Y-112736457D01*
X227865093Y-112698778D01*
X227883650Y-112664061D01*
X227908626Y-112633626D01*
X227939061Y-112608650D01*
X227973778Y-112590093D01*
X228011457Y-112578663D01*
X228056773Y-112574200D01*
X229143227Y-112574200D01*
X229188543Y-112578663D01*
X229188543Y-112578663D01*
G37*
G36*
X261446543Y-112408663D02*
X261484222Y-112420093D01*
X261518939Y-112438650D01*
X261549374Y-112463626D01*
X261574350Y-112494061D01*
X261592907Y-112528778D01*
X261604337Y-112566457D01*
X261608800Y-112611773D01*
X261608800Y-113448227D01*
X261604337Y-113493543D01*
X261592907Y-113531222D01*
X261574350Y-113565939D01*
X261549374Y-113596374D01*
X261518939Y-113621350D01*
X261484222Y-113639907D01*
X261446543Y-113651337D01*
X261401227Y-113655800D01*
X260314773Y-113655800D01*
X260269457Y-113651337D01*
X260231778Y-113639907D01*
X260197061Y-113621350D01*
X260166626Y-113596374D01*
X260141650Y-113565939D01*
X260123093Y-113531222D01*
X260111663Y-113493543D01*
X260107200Y-113448227D01*
X260107200Y-112611773D01*
X260111663Y-112566457D01*
X260123093Y-112528778D01*
X260141650Y-112494061D01*
X260166626Y-112463626D01*
X260197061Y-112438650D01*
X260231778Y-112420093D01*
X260269457Y-112408663D01*
X260314773Y-112404200D01*
X261401227Y-112404200D01*
X261446543Y-112408663D01*
X261446543Y-112408663D01*
G37*
G36*
X251852543Y-112080663D02*
X251890222Y-112092093D01*
X251924939Y-112110650D01*
X251955374Y-112135626D01*
X251980350Y-112166061D01*
X251998907Y-112200778D01*
X252010337Y-112238457D01*
X252014800Y-112283773D01*
X252014800Y-113120227D01*
X252010337Y-113165543D01*
X251998907Y-113203222D01*
X251980350Y-113237939D01*
X251955374Y-113268374D01*
X251924939Y-113293350D01*
X251890222Y-113311907D01*
X251852543Y-113323337D01*
X251807227Y-113327800D01*
X250720773Y-113327800D01*
X250675457Y-113323337D01*
X250637778Y-113311907D01*
X250603061Y-113293350D01*
X250572626Y-113268374D01*
X250547650Y-113237939D01*
X250529093Y-113203222D01*
X250517663Y-113165543D01*
X250513200Y-113120227D01*
X250513200Y-112283773D01*
X250517663Y-112238457D01*
X250529093Y-112200778D01*
X250547650Y-112166061D01*
X250572626Y-112135626D01*
X250603061Y-112110650D01*
X250637778Y-112092093D01*
X250675457Y-112080663D01*
X250720773Y-112076200D01*
X251807227Y-112076200D01*
X251852543Y-112080663D01*
X251852543Y-112080663D01*
G37*
G36*
X263564787Y-110925510D02*
X263725160Y-110974160D01*
X263725162Y-110974161D01*
X263872966Y-111053163D01*
X264002517Y-111159483D01*
X264108837Y-111289034D01*
X264167201Y-111398227D01*
X264187840Y-111436840D01*
X264236490Y-111597213D01*
X264252916Y-111764000D01*
X264236490Y-111930787D01*
X264187840Y-112091160D01*
X264187839Y-112091162D01*
X264108837Y-112238966D01*
X264002517Y-112368517D01*
X263872966Y-112474837D01*
X263778886Y-112525123D01*
X263725160Y-112553840D01*
X263564787Y-112602490D01*
X263439794Y-112614800D01*
X263356206Y-112614800D01*
X263231213Y-112602490D01*
X263070840Y-112553840D01*
X263017114Y-112525123D01*
X262923034Y-112474837D01*
X262793483Y-112368517D01*
X262687163Y-112238966D01*
X262608161Y-112091162D01*
X262608160Y-112091160D01*
X262559510Y-111930787D01*
X262543084Y-111764000D01*
X262559510Y-111597213D01*
X262608160Y-111436840D01*
X262628799Y-111398227D01*
X262687163Y-111289034D01*
X262793483Y-111159483D01*
X262923034Y-111053163D01*
X263070838Y-110974161D01*
X263070840Y-110974160D01*
X263231213Y-110925510D01*
X263356206Y-110913200D01*
X263439794Y-110913200D01*
X263564787Y-110925510D01*
X263564787Y-110925510D01*
G37*
G36*
X239188543Y-110928663D02*
X239226222Y-110940093D01*
X239260939Y-110958650D01*
X239291374Y-110983626D01*
X239316350Y-111014061D01*
X239334907Y-111048778D01*
X239346337Y-111086457D01*
X239350800Y-111131773D01*
X239350800Y-111968227D01*
X239346337Y-112013543D01*
X239334907Y-112051222D01*
X239316350Y-112085939D01*
X239291374Y-112116374D01*
X239260939Y-112141350D01*
X239226222Y-112159907D01*
X239188543Y-112171337D01*
X239143227Y-112175800D01*
X238056773Y-112175800D01*
X238011457Y-112171337D01*
X237973778Y-112159907D01*
X237939061Y-112141350D01*
X237908626Y-112116374D01*
X237883650Y-112085939D01*
X237865093Y-112051222D01*
X237853663Y-112013543D01*
X237849200Y-111968227D01*
X237849200Y-111131773D01*
X237853663Y-111086457D01*
X237865093Y-111048778D01*
X237883650Y-111014061D01*
X237908626Y-110983626D01*
X237939061Y-110958650D01*
X237973778Y-110940093D01*
X238011457Y-110928663D01*
X238056773Y-110924200D01*
X239143227Y-110924200D01*
X239188543Y-110928663D01*
X239188543Y-110928663D01*
G37*
G36*
X236738800Y-111896800D02*
X231637200Y-111896800D01*
X231637200Y-110295200D01*
X236738800Y-110295200D01*
X236738800Y-111896800D01*
X236738800Y-111896800D01*
G37*
G36*
X225308800Y-111896800D02*
X220207200Y-111896800D01*
X220207200Y-110295200D01*
X225308800Y-110295200D01*
X225308800Y-111896800D01*
X225308800Y-111896800D01*
G37*
G36*
X247660800Y-111896800D02*
X242559200Y-111896800D01*
X242559200Y-110295200D01*
X247660800Y-110295200D01*
X247660800Y-111896800D01*
X247660800Y-111896800D01*
G37*
G36*
X258582800Y-111896800D02*
X253481200Y-111896800D01*
X253481200Y-110295200D01*
X258582800Y-110295200D01*
X258582800Y-111896800D01*
X258582800Y-111896800D01*
G37*
G36*
X229188543Y-110528663D02*
X229226222Y-110540093D01*
X229260939Y-110558650D01*
X229291374Y-110583626D01*
X229316350Y-110614061D01*
X229334907Y-110648778D01*
X229346337Y-110686457D01*
X229350800Y-110731773D01*
X229350800Y-111568227D01*
X229346337Y-111613543D01*
X229334907Y-111651222D01*
X229316350Y-111685939D01*
X229291374Y-111716374D01*
X229260939Y-111741350D01*
X229226222Y-111759907D01*
X229188543Y-111771337D01*
X229143227Y-111775800D01*
X228056773Y-111775800D01*
X228011457Y-111771337D01*
X227973778Y-111759907D01*
X227939061Y-111741350D01*
X227908626Y-111716374D01*
X227883650Y-111685939D01*
X227865093Y-111651222D01*
X227853663Y-111613543D01*
X227849200Y-111568227D01*
X227849200Y-110731773D01*
X227853663Y-110686457D01*
X227865093Y-110648778D01*
X227883650Y-110614061D01*
X227908626Y-110583626D01*
X227939061Y-110558650D01*
X227973778Y-110540093D01*
X228011457Y-110528663D01*
X228056773Y-110524200D01*
X229143227Y-110524200D01*
X229188543Y-110528663D01*
X229188543Y-110528663D01*
G37*
G36*
X261446543Y-110358663D02*
X261484222Y-110370093D01*
X261518939Y-110388650D01*
X261549374Y-110413626D01*
X261574350Y-110444061D01*
X261592907Y-110478778D01*
X261604337Y-110516457D01*
X261608800Y-110561773D01*
X261608800Y-111398227D01*
X261604337Y-111443543D01*
X261592907Y-111481222D01*
X261574350Y-111515939D01*
X261549374Y-111546374D01*
X261518939Y-111571350D01*
X261484222Y-111589907D01*
X261446543Y-111601337D01*
X261401227Y-111605800D01*
X260314773Y-111605800D01*
X260269457Y-111601337D01*
X260231778Y-111589907D01*
X260197061Y-111571350D01*
X260166626Y-111546374D01*
X260141650Y-111515939D01*
X260123093Y-111481222D01*
X260111663Y-111443543D01*
X260107200Y-111398227D01*
X260107200Y-110561773D01*
X260111663Y-110516457D01*
X260123093Y-110478778D01*
X260141650Y-110444061D01*
X260166626Y-110413626D01*
X260197061Y-110388650D01*
X260231778Y-110370093D01*
X260269457Y-110358663D01*
X260314773Y-110354200D01*
X261401227Y-110354200D01*
X261446543Y-110358663D01*
X261446543Y-110358663D01*
G37*
G36*
X215304787Y-109905510D02*
X215465160Y-109954160D01*
X215465162Y-109954161D01*
X215612966Y-110033163D01*
X215742517Y-110139483D01*
X215848837Y-110269034D01*
X215912772Y-110388650D01*
X215927840Y-110416840D01*
X215976490Y-110577213D01*
X215992916Y-110744000D01*
X215976490Y-110910787D01*
X215931591Y-111058795D01*
X215927839Y-111071162D01*
X215848837Y-111218966D01*
X215742517Y-111348517D01*
X215612966Y-111454837D01*
X215479626Y-111526108D01*
X215465160Y-111533840D01*
X215304787Y-111582490D01*
X215179794Y-111594800D01*
X215096206Y-111594800D01*
X214971213Y-111582490D01*
X214810840Y-111533840D01*
X214796374Y-111526108D01*
X214663034Y-111454837D01*
X214533483Y-111348517D01*
X214427163Y-111218966D01*
X214348161Y-111071162D01*
X214344409Y-111058795D01*
X214299510Y-110910787D01*
X214283084Y-110744000D01*
X214299510Y-110577213D01*
X214348160Y-110416840D01*
X214363228Y-110388650D01*
X214427163Y-110269034D01*
X214533483Y-110139483D01*
X214663034Y-110033163D01*
X214810838Y-109954161D01*
X214810840Y-109954160D01*
X214971213Y-109905510D01*
X215096206Y-109893200D01*
X215179794Y-109893200D01*
X215304787Y-109905510D01*
X215304787Y-109905510D01*
G37*
G36*
X251852543Y-110030663D02*
X251890222Y-110042093D01*
X251924939Y-110060650D01*
X251955374Y-110085626D01*
X251980350Y-110116061D01*
X251998907Y-110150778D01*
X252010337Y-110188457D01*
X252014800Y-110233773D01*
X252014800Y-111070227D01*
X252010337Y-111115543D01*
X251998907Y-111153222D01*
X251980350Y-111187939D01*
X251955374Y-111218374D01*
X251924939Y-111243350D01*
X251890222Y-111261907D01*
X251852543Y-111273337D01*
X251807227Y-111277800D01*
X250720773Y-111277800D01*
X250675457Y-111273337D01*
X250637778Y-111261907D01*
X250603061Y-111243350D01*
X250572626Y-111218374D01*
X250547650Y-111187939D01*
X250529093Y-111153222D01*
X250517663Y-111115543D01*
X250513200Y-111070227D01*
X250513200Y-110233773D01*
X250517663Y-110188457D01*
X250529093Y-110150778D01*
X250547650Y-110116061D01*
X250572626Y-110085626D01*
X250603061Y-110060650D01*
X250637778Y-110042093D01*
X250675457Y-110030663D01*
X250720773Y-110026200D01*
X251807227Y-110026200D01*
X251852543Y-110030663D01*
X251852543Y-110030663D01*
G37*
G36*
X263564787Y-108385510D02*
X263725160Y-108434160D01*
X263725162Y-108434161D01*
X263872966Y-108513163D01*
X264002517Y-108619483D01*
X264108837Y-108749034D01*
X264187839Y-108896838D01*
X264187840Y-108896840D01*
X264236490Y-109057213D01*
X264252916Y-109224000D01*
X264236490Y-109390787D01*
X264187840Y-109551160D01*
X264187839Y-109551162D01*
X264108837Y-109698966D01*
X264002517Y-109828517D01*
X263872966Y-109934837D01*
X263725162Y-110013839D01*
X263725160Y-110013840D01*
X263564787Y-110062490D01*
X263439794Y-110074800D01*
X263356206Y-110074800D01*
X263231213Y-110062490D01*
X263070840Y-110013840D01*
X263070838Y-110013839D01*
X262923034Y-109934837D01*
X262793483Y-109828517D01*
X262687163Y-109698966D01*
X262608161Y-109551162D01*
X262608160Y-109551160D01*
X262559510Y-109390787D01*
X262543084Y-109224000D01*
X262559510Y-109057213D01*
X262608160Y-108896840D01*
X262608161Y-108896838D01*
X262687163Y-108749034D01*
X262793483Y-108619483D01*
X262923034Y-108513163D01*
X263070838Y-108434161D01*
X263070840Y-108434160D01*
X263231213Y-108385510D01*
X263356206Y-108373200D01*
X263439794Y-108373200D01*
X263564787Y-108385510D01*
X263564787Y-108385510D01*
G37*
G36*
X215988800Y-109054800D02*
X214287200Y-109054800D01*
X214287200Y-107353200D01*
X215988800Y-107353200D01*
X215988800Y-109054800D01*
X215988800Y-109054800D01*
G37*
G36*
X263564787Y-105845510D02*
X263725160Y-105894160D01*
X263725162Y-105894161D01*
X263872966Y-105973163D01*
X264002517Y-106079483D01*
X264108837Y-106209034D01*
X264187839Y-106356838D01*
X264187840Y-106356840D01*
X264236490Y-106517213D01*
X264252916Y-106684000D01*
X264236490Y-106850787D01*
X264187840Y-107011160D01*
X264187839Y-107011162D01*
X264108837Y-107158966D01*
X264002517Y-107288517D01*
X263872966Y-107394837D01*
X263725162Y-107473839D01*
X263725160Y-107473840D01*
X263564787Y-107522490D01*
X263439794Y-107534800D01*
X263356206Y-107534800D01*
X263231213Y-107522490D01*
X263070840Y-107473840D01*
X263070838Y-107473839D01*
X262923034Y-107394837D01*
X262793483Y-107288517D01*
X262687163Y-107158966D01*
X262608161Y-107011162D01*
X262608160Y-107011160D01*
X262559510Y-106850787D01*
X262543084Y-106684000D01*
X262559510Y-106517213D01*
X262608160Y-106356840D01*
X262608161Y-106356838D01*
X262687163Y-106209034D01*
X262793483Y-106079483D01*
X262923034Y-105973163D01*
X263070838Y-105894161D01*
X263070840Y-105894160D01*
X263231213Y-105845510D01*
X263356206Y-105833200D01*
X263439794Y-105833200D01*
X263564787Y-105845510D01*
X263564787Y-105845510D01*
G37*
G36*
X243666543Y-104298663D02*
X243704222Y-104310093D01*
X243738939Y-104328650D01*
X243769374Y-104353626D01*
X243794350Y-104384061D01*
X243812907Y-104418778D01*
X243824337Y-104456457D01*
X243828800Y-104501773D01*
X243828800Y-105338227D01*
X243824337Y-105383543D01*
X243812907Y-105421222D01*
X243794350Y-105455939D01*
X243769374Y-105486374D01*
X243738939Y-105511350D01*
X243704222Y-105529907D01*
X243666543Y-105541337D01*
X243621227Y-105545800D01*
X242534773Y-105545800D01*
X242489457Y-105541337D01*
X242451778Y-105529907D01*
X242417061Y-105511350D01*
X242386626Y-105486374D01*
X242361650Y-105455939D01*
X242343093Y-105421222D01*
X242331663Y-105383543D01*
X242327200Y-105338227D01*
X242327200Y-104501773D01*
X242331663Y-104456457D01*
X242343093Y-104418778D01*
X242361650Y-104384061D01*
X242386626Y-104353626D01*
X242417061Y-104328650D01*
X242451778Y-104310093D01*
X242489457Y-104298663D01*
X242534773Y-104294200D01*
X243621227Y-104294200D01*
X243666543Y-104298663D01*
X243666543Y-104298663D01*
G37*
G36*
X235030543Y-104280663D02*
X235068222Y-104292093D01*
X235102939Y-104310650D01*
X235133374Y-104335626D01*
X235158350Y-104366061D01*
X235176907Y-104400778D01*
X235188337Y-104438457D01*
X235192800Y-104483773D01*
X235192800Y-105320227D01*
X235188337Y-105365543D01*
X235176907Y-105403222D01*
X235158350Y-105437939D01*
X235133374Y-105468374D01*
X235102939Y-105493350D01*
X235068222Y-105511907D01*
X235030543Y-105523337D01*
X234985227Y-105527800D01*
X233898773Y-105527800D01*
X233853457Y-105523337D01*
X233815778Y-105511907D01*
X233781061Y-105493350D01*
X233750626Y-105468374D01*
X233725650Y-105437939D01*
X233707093Y-105403222D01*
X233695663Y-105365543D01*
X233691200Y-105320227D01*
X233691200Y-104483773D01*
X233695663Y-104438457D01*
X233707093Y-104400778D01*
X233725650Y-104366061D01*
X233750626Y-104335626D01*
X233781061Y-104310650D01*
X233815778Y-104292093D01*
X233853457Y-104280663D01*
X233898773Y-104276200D01*
X234985227Y-104276200D01*
X235030543Y-104280663D01*
X235030543Y-104280663D01*
G37*
G36*
X241310800Y-105252800D02*
X236209200Y-105252800D01*
X236209200Y-103651200D01*
X241310800Y-103651200D01*
X241310800Y-105252800D01*
X241310800Y-105252800D01*
G37*
G36*
X263564787Y-103305510D02*
X263725160Y-103354160D01*
X263725162Y-103354161D01*
X263872966Y-103433163D01*
X264002517Y-103539483D01*
X264108837Y-103669034D01*
X264187839Y-103816838D01*
X264187840Y-103816840D01*
X264236490Y-103977213D01*
X264252916Y-104144000D01*
X264236490Y-104310787D01*
X264192300Y-104456457D01*
X264187839Y-104471162D01*
X264108837Y-104618966D01*
X264002517Y-104748517D01*
X263872966Y-104854837D01*
X263725162Y-104933839D01*
X263725160Y-104933840D01*
X263564787Y-104982490D01*
X263439794Y-104994800D01*
X263356206Y-104994800D01*
X263231213Y-104982490D01*
X263070840Y-104933840D01*
X263070838Y-104933839D01*
X262923034Y-104854837D01*
X262793483Y-104748517D01*
X262687163Y-104618966D01*
X262608161Y-104471162D01*
X262603700Y-104456457D01*
X262559510Y-104310787D01*
X262543084Y-104144000D01*
X262559510Y-103977213D01*
X262608160Y-103816840D01*
X262608161Y-103816838D01*
X262687163Y-103669034D01*
X262793483Y-103539483D01*
X262923034Y-103433163D01*
X263070838Y-103354161D01*
X263070840Y-103354160D01*
X263231213Y-103305510D01*
X263356206Y-103293200D01*
X263439794Y-103293200D01*
X263564787Y-103305510D01*
X263564787Y-103305510D01*
G37*
G36*
X243666543Y-102248663D02*
X243704222Y-102260093D01*
X243738939Y-102278650D01*
X243769374Y-102303626D01*
X243794350Y-102334061D01*
X243812907Y-102368778D01*
X243824337Y-102406457D01*
X243828800Y-102451773D01*
X243828800Y-103288227D01*
X243824337Y-103333543D01*
X243812907Y-103371222D01*
X243794350Y-103405939D01*
X243769374Y-103436374D01*
X243738939Y-103461350D01*
X243704222Y-103479907D01*
X243666543Y-103491337D01*
X243621227Y-103495800D01*
X242534773Y-103495800D01*
X242489457Y-103491337D01*
X242451778Y-103479907D01*
X242417061Y-103461350D01*
X242386626Y-103436374D01*
X242361650Y-103405939D01*
X242343093Y-103371222D01*
X242331663Y-103333543D01*
X242327200Y-103288227D01*
X242327200Y-102451773D01*
X242331663Y-102406457D01*
X242343093Y-102368778D01*
X242361650Y-102334061D01*
X242386626Y-102303626D01*
X242417061Y-102278650D01*
X242451778Y-102260093D01*
X242489457Y-102248663D01*
X242534773Y-102244200D01*
X243621227Y-102244200D01*
X243666543Y-102248663D01*
X243666543Y-102248663D01*
G37*
G36*
X235030543Y-102230663D02*
X235068222Y-102242093D01*
X235102939Y-102260650D01*
X235133374Y-102285626D01*
X235158350Y-102316061D01*
X235176907Y-102350778D01*
X235188337Y-102388457D01*
X235192800Y-102433773D01*
X235192800Y-103270227D01*
X235188337Y-103315543D01*
X235176907Y-103353222D01*
X235158350Y-103387939D01*
X235133374Y-103418374D01*
X235102939Y-103443350D01*
X235068222Y-103461907D01*
X235030543Y-103473337D01*
X234985227Y-103477800D01*
X233898773Y-103477800D01*
X233853457Y-103473337D01*
X233815778Y-103461907D01*
X233781061Y-103443350D01*
X233750626Y-103418374D01*
X233725650Y-103387939D01*
X233707093Y-103353222D01*
X233695663Y-103315543D01*
X233691200Y-103270227D01*
X233691200Y-102433773D01*
X233695663Y-102388457D01*
X233707093Y-102350778D01*
X233725650Y-102316061D01*
X233750626Y-102285626D01*
X233781061Y-102260650D01*
X233815778Y-102242093D01*
X233853457Y-102230663D01*
X233898773Y-102226200D01*
X234985227Y-102226200D01*
X235030543Y-102230663D01*
X235030543Y-102230663D01*
G37*
G36*
X263564787Y-100765510D02*
X263725160Y-100814160D01*
X263725162Y-100814161D01*
X263872966Y-100893163D01*
X264002517Y-100999483D01*
X264108837Y-101129034D01*
X264170712Y-101244795D01*
X264187840Y-101276840D01*
X264236490Y-101437213D01*
X264252916Y-101604000D01*
X264236490Y-101770787D01*
X264187840Y-101931160D01*
X264187839Y-101931162D01*
X264108837Y-102078966D01*
X264002517Y-102208517D01*
X263872966Y-102314837D01*
X263778886Y-102365123D01*
X263725160Y-102393840D01*
X263564787Y-102442490D01*
X263439794Y-102454800D01*
X263356206Y-102454800D01*
X263231213Y-102442490D01*
X263070840Y-102393840D01*
X263017114Y-102365123D01*
X262923034Y-102314837D01*
X262793483Y-102208517D01*
X262687163Y-102078966D01*
X262608161Y-101931162D01*
X262608160Y-101931160D01*
X262559510Y-101770787D01*
X262543084Y-101604000D01*
X262559510Y-101437213D01*
X262608160Y-101276840D01*
X262625288Y-101244795D01*
X262687163Y-101129034D01*
X262793483Y-100999483D01*
X262923034Y-100893163D01*
X263070838Y-100814161D01*
X263070840Y-100814160D01*
X263231213Y-100765510D01*
X263356206Y-100753200D01*
X263439794Y-100753200D01*
X263564787Y-100765510D01*
X263564787Y-100765510D01*
G37*
G36*
X235030543Y-100216663D02*
X235068222Y-100228093D01*
X235102939Y-100246650D01*
X235133374Y-100271626D01*
X235158350Y-100302061D01*
X235176907Y-100336778D01*
X235188337Y-100374457D01*
X235192800Y-100419773D01*
X235192800Y-101256227D01*
X235188337Y-101301543D01*
X235176907Y-101339222D01*
X235158350Y-101373939D01*
X235133374Y-101404374D01*
X235102939Y-101429350D01*
X235068222Y-101447907D01*
X235030543Y-101459337D01*
X234985227Y-101463800D01*
X233898773Y-101463800D01*
X233853457Y-101459337D01*
X233815778Y-101447907D01*
X233781061Y-101429350D01*
X233750626Y-101404374D01*
X233725650Y-101373939D01*
X233707093Y-101339222D01*
X233695663Y-101301543D01*
X233691200Y-101256227D01*
X233691200Y-100419773D01*
X233695663Y-100374457D01*
X233707093Y-100336778D01*
X233725650Y-100302061D01*
X233750626Y-100271626D01*
X233781061Y-100246650D01*
X233815778Y-100228093D01*
X233853457Y-100216663D01*
X233898773Y-100212200D01*
X234985227Y-100212200D01*
X235030543Y-100216663D01*
X235030543Y-100216663D01*
G37*
G36*
X243666543Y-100216663D02*
X243704222Y-100228093D01*
X243738939Y-100246650D01*
X243769374Y-100271626D01*
X243794350Y-100302061D01*
X243812907Y-100336778D01*
X243824337Y-100374457D01*
X243828800Y-100419773D01*
X243828800Y-101256227D01*
X243824337Y-101301543D01*
X243812907Y-101339222D01*
X243794350Y-101373939D01*
X243769374Y-101404374D01*
X243738939Y-101429350D01*
X243704222Y-101447907D01*
X243666543Y-101459337D01*
X243621227Y-101463800D01*
X242534773Y-101463800D01*
X242489457Y-101459337D01*
X242451778Y-101447907D01*
X242417061Y-101429350D01*
X242386626Y-101404374D01*
X242361650Y-101373939D01*
X242343093Y-101339222D01*
X242331663Y-101301543D01*
X242327200Y-101256227D01*
X242327200Y-100419773D01*
X242331663Y-100374457D01*
X242343093Y-100336778D01*
X242361650Y-100302061D01*
X242386626Y-100271626D01*
X242417061Y-100246650D01*
X242451778Y-100228093D01*
X242489457Y-100216663D01*
X242534773Y-100212200D01*
X243621227Y-100212200D01*
X243666543Y-100216663D01*
X243666543Y-100216663D01*
G37*
G36*
X263564787Y-98225510D02*
X263725160Y-98274160D01*
X263725162Y-98274161D01*
X263872966Y-98353163D01*
X264002517Y-98459483D01*
X264108837Y-98589034D01*
X264187839Y-98736838D01*
X264187840Y-98736840D01*
X264236490Y-98897213D01*
X264252916Y-99064000D01*
X264236490Y-99230787D01*
X264187840Y-99391160D01*
X264187839Y-99391162D01*
X264108837Y-99538966D01*
X264002517Y-99668517D01*
X263872966Y-99774837D01*
X263725162Y-99853839D01*
X263725160Y-99853840D01*
X263564787Y-99902490D01*
X263439794Y-99914800D01*
X263356206Y-99914800D01*
X263231213Y-99902490D01*
X263070840Y-99853840D01*
X263070838Y-99853839D01*
X262923034Y-99774837D01*
X262793483Y-99668517D01*
X262687163Y-99538966D01*
X262608161Y-99391162D01*
X262608160Y-99391160D01*
X262559510Y-99230787D01*
X262543084Y-99064000D01*
X262559510Y-98897213D01*
X262608160Y-98736840D01*
X262608161Y-98736838D01*
X262687163Y-98589034D01*
X262793483Y-98459483D01*
X262923034Y-98353163D01*
X263070838Y-98274161D01*
X263070840Y-98274160D01*
X263231213Y-98225510D01*
X263356206Y-98213200D01*
X263439794Y-98213200D01*
X263564787Y-98225510D01*
X263564787Y-98225510D01*
G37*
G36*
X235030543Y-98166663D02*
X235068222Y-98178093D01*
X235102939Y-98196650D01*
X235133374Y-98221626D01*
X235158350Y-98252061D01*
X235176907Y-98286778D01*
X235188337Y-98324457D01*
X235192800Y-98369773D01*
X235192800Y-99206227D01*
X235188337Y-99251543D01*
X235176907Y-99289222D01*
X235158350Y-99323939D01*
X235133374Y-99354374D01*
X235102939Y-99379350D01*
X235068222Y-99397907D01*
X235030543Y-99409337D01*
X234985227Y-99413800D01*
X233898773Y-99413800D01*
X233853457Y-99409337D01*
X233815778Y-99397907D01*
X233781061Y-99379350D01*
X233750626Y-99354374D01*
X233725650Y-99323939D01*
X233707093Y-99289222D01*
X233695663Y-99251543D01*
X233691200Y-99206227D01*
X233691200Y-98369773D01*
X233695663Y-98324457D01*
X233707093Y-98286778D01*
X233725650Y-98252061D01*
X233750626Y-98221626D01*
X233781061Y-98196650D01*
X233815778Y-98178093D01*
X233853457Y-98166663D01*
X233898773Y-98162200D01*
X234985227Y-98162200D01*
X235030543Y-98166663D01*
X235030543Y-98166663D01*
G37*
G36*
X243666543Y-98166663D02*
X243704222Y-98178093D01*
X243738939Y-98196650D01*
X243769374Y-98221626D01*
X243794350Y-98252061D01*
X243812907Y-98286778D01*
X243824337Y-98324457D01*
X243828800Y-98369773D01*
X243828800Y-99206227D01*
X243824337Y-99251543D01*
X243812907Y-99289222D01*
X243794350Y-99323939D01*
X243769374Y-99354374D01*
X243738939Y-99379350D01*
X243704222Y-99397907D01*
X243666543Y-99409337D01*
X243621227Y-99413800D01*
X242534773Y-99413800D01*
X242489457Y-99409337D01*
X242451778Y-99397907D01*
X242417061Y-99379350D01*
X242386626Y-99354374D01*
X242361650Y-99323939D01*
X242343093Y-99289222D01*
X242331663Y-99251543D01*
X242327200Y-99206227D01*
X242327200Y-98369773D01*
X242331663Y-98324457D01*
X242343093Y-98286778D01*
X242361650Y-98252061D01*
X242386626Y-98221626D01*
X242417061Y-98196650D01*
X242451778Y-98178093D01*
X242489457Y-98166663D01*
X242534773Y-98162200D01*
X243621227Y-98162200D01*
X243666543Y-98166663D01*
X243666543Y-98166663D01*
G37*
G36*
X241310800Y-99352800D02*
X236209200Y-99352800D01*
X236209200Y-97751200D01*
X241310800Y-97751200D01*
X241310800Y-99352800D01*
X241310800Y-99352800D01*
G37*
G36*
X264298800Y-96658800D02*
X262497200Y-96658800D01*
X262497200Y-94857200D01*
X264298800Y-94857200D01*
X264298800Y-96658800D01*
X264298800Y-96658800D01*
G37*
G36*
X263486362Y-92321545D02*
X263574588Y-92330234D01*
X263687789Y-92364573D01*
X263744390Y-92381743D01*
X263858762Y-92442877D01*
X263900879Y-92465389D01*
X263936609Y-92494712D01*
X264038044Y-92577956D01*
X264121288Y-92679391D01*
X264150611Y-92715121D01*
X264150612Y-92715123D01*
X264234257Y-92871610D01*
X264234257Y-92871611D01*
X264285766Y-93041412D01*
X264303158Y-93218000D01*
X264285766Y-93394588D01*
X264251427Y-93507789D01*
X264234257Y-93564390D01*
X264160178Y-93702980D01*
X264150611Y-93720879D01*
X264121288Y-93756609D01*
X264038044Y-93858044D01*
X263936609Y-93941288D01*
X263900879Y-93970611D01*
X263900877Y-93970612D01*
X263744390Y-94054257D01*
X263687789Y-94071427D01*
X263574588Y-94105766D01*
X263486362Y-94114455D01*
X263442250Y-94118800D01*
X263353750Y-94118800D01*
X263309638Y-94114455D01*
X263221412Y-94105766D01*
X263108211Y-94071427D01*
X263051610Y-94054257D01*
X262895123Y-93970612D01*
X262895121Y-93970611D01*
X262859391Y-93941288D01*
X262757956Y-93858044D01*
X262674712Y-93756609D01*
X262645389Y-93720879D01*
X262635822Y-93702980D01*
X262561743Y-93564390D01*
X262544573Y-93507789D01*
X262510234Y-93394588D01*
X262492842Y-93218000D01*
X262510234Y-93041412D01*
X262561743Y-92871611D01*
X262561743Y-92871610D01*
X262645388Y-92715123D01*
X262645389Y-92715121D01*
X262674712Y-92679391D01*
X262757956Y-92577956D01*
X262859391Y-92494712D01*
X262895121Y-92465389D01*
X262937238Y-92442877D01*
X263051610Y-92381743D01*
X263108211Y-92364573D01*
X263221412Y-92330234D01*
X263309638Y-92321545D01*
X263353750Y-92317200D01*
X263442250Y-92317200D01*
X263486362Y-92321545D01*
X263486362Y-92321545D01*
G37*
G36*
X229908362Y-91043545D02*
X229996588Y-91052234D01*
X230109789Y-91086573D01*
X230166390Y-91103743D01*
X230304980Y-91177822D01*
X230322879Y-91187389D01*
X230358609Y-91216712D01*
X230460044Y-91299956D01*
X230543288Y-91401391D01*
X230572611Y-91437121D01*
X230572612Y-91437123D01*
X230656257Y-91593610D01*
X230656257Y-91593611D01*
X230707766Y-91763412D01*
X230725158Y-91940000D01*
X230707766Y-92116588D01*
X230673427Y-92229789D01*
X230656257Y-92286390D01*
X230605289Y-92381743D01*
X230572611Y-92442879D01*
X230554138Y-92465388D01*
X230460044Y-92580044D01*
X230358609Y-92663288D01*
X230322879Y-92692611D01*
X230322877Y-92692612D01*
X230166390Y-92776257D01*
X230109789Y-92793427D01*
X229996588Y-92827766D01*
X229908362Y-92836455D01*
X229864250Y-92840800D01*
X229775750Y-92840800D01*
X229731638Y-92836455D01*
X229643412Y-92827766D01*
X229530211Y-92793427D01*
X229473610Y-92776257D01*
X229317123Y-92692612D01*
X229317121Y-92692611D01*
X229281391Y-92663288D01*
X229179956Y-92580044D01*
X229085862Y-92465388D01*
X229067389Y-92442879D01*
X229034711Y-92381743D01*
X228983743Y-92286390D01*
X228966573Y-92229789D01*
X228932234Y-92116588D01*
X228914842Y-91940000D01*
X228932234Y-91763412D01*
X228983743Y-91593611D01*
X228983743Y-91593610D01*
X229067388Y-91437123D01*
X229067389Y-91437121D01*
X229096712Y-91401391D01*
X229179956Y-91299956D01*
X229281391Y-91216712D01*
X229317121Y-91187389D01*
X229335020Y-91177822D01*
X229473610Y-91103743D01*
X229530211Y-91086573D01*
X229643412Y-91052234D01*
X229731638Y-91043545D01*
X229775750Y-91039200D01*
X229864250Y-91039200D01*
X229908362Y-91043545D01*
X229908362Y-91043545D01*
G37*
G36*
X234988362Y-91043545D02*
X235076588Y-91052234D01*
X235189789Y-91086573D01*
X235246390Y-91103743D01*
X235384980Y-91177822D01*
X235402879Y-91187389D01*
X235438609Y-91216712D01*
X235540044Y-91299956D01*
X235623288Y-91401391D01*
X235652611Y-91437121D01*
X235652612Y-91437123D01*
X235736257Y-91593610D01*
X235736257Y-91593611D01*
X235787766Y-91763412D01*
X235805158Y-91940000D01*
X235787766Y-92116588D01*
X235753427Y-92229789D01*
X235736257Y-92286390D01*
X235685289Y-92381743D01*
X235652611Y-92442879D01*
X235634138Y-92465388D01*
X235540044Y-92580044D01*
X235438609Y-92663288D01*
X235402879Y-92692611D01*
X235402877Y-92692612D01*
X235246390Y-92776257D01*
X235189789Y-92793427D01*
X235076588Y-92827766D01*
X234988362Y-92836455D01*
X234944250Y-92840800D01*
X234855750Y-92840800D01*
X234811638Y-92836455D01*
X234723412Y-92827766D01*
X234610211Y-92793427D01*
X234553610Y-92776257D01*
X234397123Y-92692612D01*
X234397121Y-92692611D01*
X234361391Y-92663288D01*
X234259956Y-92580044D01*
X234165862Y-92465388D01*
X234147389Y-92442879D01*
X234114711Y-92381743D01*
X234063743Y-92286390D01*
X234046573Y-92229789D01*
X234012234Y-92116588D01*
X233994842Y-91940000D01*
X234012234Y-91763412D01*
X234063743Y-91593611D01*
X234063743Y-91593610D01*
X234147388Y-91437123D01*
X234147389Y-91437121D01*
X234176712Y-91401391D01*
X234259956Y-91299956D01*
X234361391Y-91216712D01*
X234397121Y-91187389D01*
X234415020Y-91177822D01*
X234553610Y-91103743D01*
X234610211Y-91086573D01*
X234723412Y-91052234D01*
X234811638Y-91043545D01*
X234855750Y-91039200D01*
X234944250Y-91039200D01*
X234988362Y-91043545D01*
X234988362Y-91043545D01*
G37*
G36*
X237528362Y-91043545D02*
X237616588Y-91052234D01*
X237729789Y-91086573D01*
X237786390Y-91103743D01*
X237924980Y-91177822D01*
X237942879Y-91187389D01*
X237978609Y-91216712D01*
X238080044Y-91299956D01*
X238163288Y-91401391D01*
X238192611Y-91437121D01*
X238192612Y-91437123D01*
X238276257Y-91593610D01*
X238276257Y-91593611D01*
X238327766Y-91763412D01*
X238345158Y-91940000D01*
X238327766Y-92116588D01*
X238293427Y-92229789D01*
X238276257Y-92286390D01*
X238225289Y-92381743D01*
X238192611Y-92442879D01*
X238174138Y-92465388D01*
X238080044Y-92580044D01*
X237978609Y-92663288D01*
X237942879Y-92692611D01*
X237942877Y-92692612D01*
X237786390Y-92776257D01*
X237729789Y-92793427D01*
X237616588Y-92827766D01*
X237528362Y-92836455D01*
X237484250Y-92840800D01*
X237395750Y-92840800D01*
X237351638Y-92836455D01*
X237263412Y-92827766D01*
X237150211Y-92793427D01*
X237093610Y-92776257D01*
X236937123Y-92692612D01*
X236937121Y-92692611D01*
X236901391Y-92663288D01*
X236799956Y-92580044D01*
X236705862Y-92465388D01*
X236687389Y-92442879D01*
X236654711Y-92381743D01*
X236603743Y-92286390D01*
X236586573Y-92229789D01*
X236552234Y-92116588D01*
X236534842Y-91940000D01*
X236552234Y-91763412D01*
X236603743Y-91593611D01*
X236603743Y-91593610D01*
X236687388Y-91437123D01*
X236687389Y-91437121D01*
X236716712Y-91401391D01*
X236799956Y-91299956D01*
X236901391Y-91216712D01*
X236937121Y-91187389D01*
X236955020Y-91177822D01*
X237093610Y-91103743D01*
X237150211Y-91086573D01*
X237263412Y-91052234D01*
X237351638Y-91043545D01*
X237395750Y-91039200D01*
X237484250Y-91039200D01*
X237528362Y-91043545D01*
X237528362Y-91043545D01*
G37*
G36*
X240068362Y-91043545D02*
X240156588Y-91052234D01*
X240269789Y-91086573D01*
X240326390Y-91103743D01*
X240464980Y-91177822D01*
X240482879Y-91187389D01*
X240518609Y-91216712D01*
X240620044Y-91299956D01*
X240703288Y-91401391D01*
X240732611Y-91437121D01*
X240732612Y-91437123D01*
X240816257Y-91593610D01*
X240816257Y-91593611D01*
X240867766Y-91763412D01*
X240885158Y-91940000D01*
X240867766Y-92116588D01*
X240833427Y-92229789D01*
X240816257Y-92286390D01*
X240765289Y-92381743D01*
X240732611Y-92442879D01*
X240714138Y-92465388D01*
X240620044Y-92580044D01*
X240518609Y-92663288D01*
X240482879Y-92692611D01*
X240482877Y-92692612D01*
X240326390Y-92776257D01*
X240269789Y-92793427D01*
X240156588Y-92827766D01*
X240068362Y-92836455D01*
X240024250Y-92840800D01*
X239935750Y-92840800D01*
X239891638Y-92836455D01*
X239803412Y-92827766D01*
X239690211Y-92793427D01*
X239633610Y-92776257D01*
X239477123Y-92692612D01*
X239477121Y-92692611D01*
X239441391Y-92663288D01*
X239339956Y-92580044D01*
X239245862Y-92465388D01*
X239227389Y-92442879D01*
X239194711Y-92381743D01*
X239143743Y-92286390D01*
X239126573Y-92229789D01*
X239092234Y-92116588D01*
X239074842Y-91940000D01*
X239092234Y-91763412D01*
X239143743Y-91593611D01*
X239143743Y-91593610D01*
X239227388Y-91437123D01*
X239227389Y-91437121D01*
X239256712Y-91401391D01*
X239339956Y-91299956D01*
X239441391Y-91216712D01*
X239477121Y-91187389D01*
X239495020Y-91177822D01*
X239633610Y-91103743D01*
X239690211Y-91086573D01*
X239803412Y-91052234D01*
X239891638Y-91043545D01*
X239935750Y-91039200D01*
X240024250Y-91039200D01*
X240068362Y-91043545D01*
X240068362Y-91043545D01*
G37*
G36*
X242608362Y-91043545D02*
X242696588Y-91052234D01*
X242809789Y-91086573D01*
X242866390Y-91103743D01*
X243004980Y-91177822D01*
X243022879Y-91187389D01*
X243058609Y-91216712D01*
X243160044Y-91299956D01*
X243243288Y-91401391D01*
X243272611Y-91437121D01*
X243272612Y-91437123D01*
X243356257Y-91593610D01*
X243356257Y-91593611D01*
X243407766Y-91763412D01*
X243425158Y-91940000D01*
X243407766Y-92116588D01*
X243373427Y-92229789D01*
X243356257Y-92286390D01*
X243305289Y-92381743D01*
X243272611Y-92442879D01*
X243254138Y-92465388D01*
X243160044Y-92580044D01*
X243058609Y-92663288D01*
X243022879Y-92692611D01*
X243022877Y-92692612D01*
X242866390Y-92776257D01*
X242809789Y-92793427D01*
X242696588Y-92827766D01*
X242608362Y-92836455D01*
X242564250Y-92840800D01*
X242475750Y-92840800D01*
X242431638Y-92836455D01*
X242343412Y-92827766D01*
X242230211Y-92793427D01*
X242173610Y-92776257D01*
X242017123Y-92692612D01*
X242017121Y-92692611D01*
X241981391Y-92663288D01*
X241879956Y-92580044D01*
X241785862Y-92465388D01*
X241767389Y-92442879D01*
X241734711Y-92381743D01*
X241683743Y-92286390D01*
X241666573Y-92229789D01*
X241632234Y-92116588D01*
X241614842Y-91940000D01*
X241632234Y-91763412D01*
X241683743Y-91593611D01*
X241683743Y-91593610D01*
X241767388Y-91437123D01*
X241767389Y-91437121D01*
X241796712Y-91401391D01*
X241879956Y-91299956D01*
X241981391Y-91216712D01*
X242017121Y-91187389D01*
X242035020Y-91177822D01*
X242173610Y-91103743D01*
X242230211Y-91086573D01*
X242343412Y-91052234D01*
X242431638Y-91043545D01*
X242475750Y-91039200D01*
X242564250Y-91039200D01*
X242608362Y-91043545D01*
X242608362Y-91043545D01*
G37*
G36*
X245148362Y-91043545D02*
X245236588Y-91052234D01*
X245349789Y-91086573D01*
X245406390Y-91103743D01*
X245544980Y-91177822D01*
X245562879Y-91187389D01*
X245598609Y-91216712D01*
X245700044Y-91299956D01*
X245783288Y-91401391D01*
X245812611Y-91437121D01*
X245812612Y-91437123D01*
X245896257Y-91593610D01*
X245896257Y-91593611D01*
X245947766Y-91763412D01*
X245965158Y-91940000D01*
X245947766Y-92116588D01*
X245913427Y-92229789D01*
X245896257Y-92286390D01*
X245845289Y-92381743D01*
X245812611Y-92442879D01*
X245794138Y-92465388D01*
X245700044Y-92580044D01*
X245598609Y-92663288D01*
X245562879Y-92692611D01*
X245562877Y-92692612D01*
X245406390Y-92776257D01*
X245349789Y-92793427D01*
X245236588Y-92827766D01*
X245148362Y-92836455D01*
X245104250Y-92840800D01*
X245015750Y-92840800D01*
X244971638Y-92836455D01*
X244883412Y-92827766D01*
X244770211Y-92793427D01*
X244713610Y-92776257D01*
X244557123Y-92692612D01*
X244557121Y-92692611D01*
X244521391Y-92663288D01*
X244419956Y-92580044D01*
X244325862Y-92465388D01*
X244307389Y-92442879D01*
X244274711Y-92381743D01*
X244223743Y-92286390D01*
X244206573Y-92229789D01*
X244172234Y-92116588D01*
X244154842Y-91940000D01*
X244172234Y-91763412D01*
X244223743Y-91593611D01*
X244223743Y-91593610D01*
X244307388Y-91437123D01*
X244307389Y-91437121D01*
X244336712Y-91401391D01*
X244419956Y-91299956D01*
X244521391Y-91216712D01*
X244557121Y-91187389D01*
X244575020Y-91177822D01*
X244713610Y-91103743D01*
X244770211Y-91086573D01*
X244883412Y-91052234D01*
X244971638Y-91043545D01*
X245015750Y-91039200D01*
X245104250Y-91039200D01*
X245148362Y-91043545D01*
X245148362Y-91043545D01*
G37*
G36*
X247688362Y-91043545D02*
X247776588Y-91052234D01*
X247889789Y-91086573D01*
X247946390Y-91103743D01*
X248084980Y-91177822D01*
X248102879Y-91187389D01*
X248138609Y-91216712D01*
X248240044Y-91299956D01*
X248323288Y-91401391D01*
X248352611Y-91437121D01*
X248352612Y-91437123D01*
X248436257Y-91593610D01*
X248436257Y-91593611D01*
X248487766Y-91763412D01*
X248505158Y-91940000D01*
X248487766Y-92116588D01*
X248453427Y-92229789D01*
X248436257Y-92286390D01*
X248385289Y-92381743D01*
X248352611Y-92442879D01*
X248334138Y-92465388D01*
X248240044Y-92580044D01*
X248138609Y-92663288D01*
X248102879Y-92692611D01*
X248102877Y-92692612D01*
X247946390Y-92776257D01*
X247889789Y-92793427D01*
X247776588Y-92827766D01*
X247688362Y-92836455D01*
X247644250Y-92840800D01*
X247555750Y-92840800D01*
X247511638Y-92836455D01*
X247423412Y-92827766D01*
X247310211Y-92793427D01*
X247253610Y-92776257D01*
X247097123Y-92692612D01*
X247097121Y-92692611D01*
X247061391Y-92663288D01*
X246959956Y-92580044D01*
X246865862Y-92465388D01*
X246847389Y-92442879D01*
X246814711Y-92381743D01*
X246763743Y-92286390D01*
X246746573Y-92229789D01*
X246712234Y-92116588D01*
X246694842Y-91940000D01*
X246712234Y-91763412D01*
X246763743Y-91593611D01*
X246763743Y-91593610D01*
X246847388Y-91437123D01*
X246847389Y-91437121D01*
X246876712Y-91401391D01*
X246959956Y-91299956D01*
X247061391Y-91216712D01*
X247097121Y-91187389D01*
X247115020Y-91177822D01*
X247253610Y-91103743D01*
X247310211Y-91086573D01*
X247423412Y-91052234D01*
X247511638Y-91043545D01*
X247555750Y-91039200D01*
X247644250Y-91039200D01*
X247688362Y-91043545D01*
X247688362Y-91043545D01*
G37*
G36*
X232448362Y-91043545D02*
X232536588Y-91052234D01*
X232649789Y-91086573D01*
X232706390Y-91103743D01*
X232844980Y-91177822D01*
X232862879Y-91187389D01*
X232898609Y-91216712D01*
X233000044Y-91299956D01*
X233083288Y-91401391D01*
X233112611Y-91437121D01*
X233112612Y-91437123D01*
X233196257Y-91593610D01*
X233196257Y-91593611D01*
X233247766Y-91763412D01*
X233265158Y-91940000D01*
X233247766Y-92116588D01*
X233213427Y-92229789D01*
X233196257Y-92286390D01*
X233145289Y-92381743D01*
X233112611Y-92442879D01*
X233094138Y-92465388D01*
X233000044Y-92580044D01*
X232898609Y-92663288D01*
X232862879Y-92692611D01*
X232862877Y-92692612D01*
X232706390Y-92776257D01*
X232649789Y-92793427D01*
X232536588Y-92827766D01*
X232448362Y-92836455D01*
X232404250Y-92840800D01*
X232315750Y-92840800D01*
X232271638Y-92836455D01*
X232183412Y-92827766D01*
X232070211Y-92793427D01*
X232013610Y-92776257D01*
X231857123Y-92692612D01*
X231857121Y-92692611D01*
X231821391Y-92663288D01*
X231719956Y-92580044D01*
X231625862Y-92465388D01*
X231607389Y-92442879D01*
X231574711Y-92381743D01*
X231523743Y-92286390D01*
X231506573Y-92229789D01*
X231472234Y-92116588D01*
X231454842Y-91940000D01*
X231472234Y-91763412D01*
X231523743Y-91593611D01*
X231523743Y-91593610D01*
X231607388Y-91437123D01*
X231607389Y-91437121D01*
X231636712Y-91401391D01*
X231719956Y-91299956D01*
X231821391Y-91216712D01*
X231857121Y-91187389D01*
X231875020Y-91177822D01*
X232013610Y-91103743D01*
X232070211Y-91086573D01*
X232183412Y-91052234D01*
X232271638Y-91043545D01*
X232315750Y-91039200D01*
X232404250Y-91039200D01*
X232448362Y-91043545D01*
X232448362Y-91043545D01*
G37*
G36*
X263486362Y-89781545D02*
X263574588Y-89790234D01*
X263687789Y-89824573D01*
X263744390Y-89841743D01*
X263858762Y-89902877D01*
X263900879Y-89925389D01*
X263936609Y-89954712D01*
X264038044Y-90037956D01*
X264121288Y-90139391D01*
X264150611Y-90175121D01*
X264150612Y-90175123D01*
X264234257Y-90331610D01*
X264234257Y-90331611D01*
X264285766Y-90501412D01*
X264303158Y-90678000D01*
X264285766Y-90854588D01*
X264251427Y-90967789D01*
X264234257Y-91024390D01*
X264191841Y-91103743D01*
X264150611Y-91180879D01*
X264145269Y-91187388D01*
X264038044Y-91318044D01*
X263936609Y-91401288D01*
X263900879Y-91430611D01*
X263900877Y-91430612D01*
X263744390Y-91514257D01*
X263687789Y-91531427D01*
X263574588Y-91565766D01*
X263486362Y-91574455D01*
X263442250Y-91578800D01*
X263353750Y-91578800D01*
X263309638Y-91574455D01*
X263221412Y-91565766D01*
X263108211Y-91531427D01*
X263051610Y-91514257D01*
X262895123Y-91430612D01*
X262895121Y-91430611D01*
X262859391Y-91401288D01*
X262757956Y-91318044D01*
X262650731Y-91187388D01*
X262645389Y-91180879D01*
X262604159Y-91103743D01*
X262561743Y-91024390D01*
X262544573Y-90967789D01*
X262510234Y-90854588D01*
X262492842Y-90678000D01*
X262510234Y-90501412D01*
X262561743Y-90331611D01*
X262561743Y-90331610D01*
X262645388Y-90175123D01*
X262645389Y-90175121D01*
X262674712Y-90139391D01*
X262757956Y-90037956D01*
X262859391Y-89954712D01*
X262895121Y-89925389D01*
X262937238Y-89902877D01*
X263051610Y-89841743D01*
X263108211Y-89824573D01*
X263221412Y-89790234D01*
X263309638Y-89781545D01*
X263353750Y-89777200D01*
X263442250Y-89777200D01*
X263486362Y-89781545D01*
X263486362Y-89781545D01*
G37*
G36*
X248500800Y-90300800D02*
X246699200Y-90300800D01*
X246699200Y-88499200D01*
X248500800Y-88499200D01*
X248500800Y-90300800D01*
X248500800Y-90300800D01*
G37*
G36*
X229908362Y-88503545D02*
X229996588Y-88512234D01*
X230109789Y-88546573D01*
X230166390Y-88563743D01*
X230304980Y-88637822D01*
X230322879Y-88647389D01*
X230358609Y-88676712D01*
X230460044Y-88759956D01*
X230543288Y-88861391D01*
X230572611Y-88897121D01*
X230572612Y-88897123D01*
X230656257Y-89053610D01*
X230656257Y-89053611D01*
X230707766Y-89223412D01*
X230725158Y-89400000D01*
X230707766Y-89576588D01*
X230673427Y-89689789D01*
X230656257Y-89746390D01*
X230605289Y-89841743D01*
X230572611Y-89902879D01*
X230554138Y-89925388D01*
X230460044Y-90040044D01*
X230358609Y-90123288D01*
X230322879Y-90152611D01*
X230322877Y-90152612D01*
X230166390Y-90236257D01*
X230109789Y-90253427D01*
X229996588Y-90287766D01*
X229908362Y-90296455D01*
X229864250Y-90300800D01*
X229775750Y-90300800D01*
X229731638Y-90296455D01*
X229643412Y-90287766D01*
X229530211Y-90253427D01*
X229473610Y-90236257D01*
X229317123Y-90152612D01*
X229317121Y-90152611D01*
X229281391Y-90123288D01*
X229179956Y-90040044D01*
X229085862Y-89925388D01*
X229067389Y-89902879D01*
X229034711Y-89841743D01*
X228983743Y-89746390D01*
X228966573Y-89689789D01*
X228932234Y-89576588D01*
X228914842Y-89400000D01*
X228932234Y-89223412D01*
X228983743Y-89053611D01*
X228983743Y-89053610D01*
X229067388Y-88897123D01*
X229067389Y-88897121D01*
X229096712Y-88861391D01*
X229179956Y-88759956D01*
X229281391Y-88676712D01*
X229317121Y-88647389D01*
X229335020Y-88637822D01*
X229473610Y-88563743D01*
X229530211Y-88546573D01*
X229643412Y-88512234D01*
X229731638Y-88503545D01*
X229775750Y-88499200D01*
X229864250Y-88499200D01*
X229908362Y-88503545D01*
X229908362Y-88503545D01*
G37*
G36*
X245148362Y-88503545D02*
X245236588Y-88512234D01*
X245349789Y-88546573D01*
X245406390Y-88563743D01*
X245544980Y-88637822D01*
X245562879Y-88647389D01*
X245598609Y-88676712D01*
X245700044Y-88759956D01*
X245783288Y-88861391D01*
X245812611Y-88897121D01*
X245812612Y-88897123D01*
X245896257Y-89053610D01*
X245896257Y-89053611D01*
X245947766Y-89223412D01*
X245965158Y-89400000D01*
X245947766Y-89576588D01*
X245913427Y-89689789D01*
X245896257Y-89746390D01*
X245845289Y-89841743D01*
X245812611Y-89902879D01*
X245794138Y-89925388D01*
X245700044Y-90040044D01*
X245598609Y-90123288D01*
X245562879Y-90152611D01*
X245562877Y-90152612D01*
X245406390Y-90236257D01*
X245349789Y-90253427D01*
X245236588Y-90287766D01*
X245148362Y-90296455D01*
X245104250Y-90300800D01*
X245015750Y-90300800D01*
X244971638Y-90296455D01*
X244883412Y-90287766D01*
X244770211Y-90253427D01*
X244713610Y-90236257D01*
X244557123Y-90152612D01*
X244557121Y-90152611D01*
X244521391Y-90123288D01*
X244419956Y-90040044D01*
X244325862Y-89925388D01*
X244307389Y-89902879D01*
X244274711Y-89841743D01*
X244223743Y-89746390D01*
X244206573Y-89689789D01*
X244172234Y-89576588D01*
X244154842Y-89400000D01*
X244172234Y-89223412D01*
X244223743Y-89053611D01*
X244223743Y-89053610D01*
X244307388Y-88897123D01*
X244307389Y-88897121D01*
X244336712Y-88861391D01*
X244419956Y-88759956D01*
X244521391Y-88676712D01*
X244557121Y-88647389D01*
X244575020Y-88637822D01*
X244713610Y-88563743D01*
X244770211Y-88546573D01*
X244883412Y-88512234D01*
X244971638Y-88503545D01*
X245015750Y-88499200D01*
X245104250Y-88499200D01*
X245148362Y-88503545D01*
X245148362Y-88503545D01*
G37*
G36*
X242608362Y-88503545D02*
X242696588Y-88512234D01*
X242809789Y-88546573D01*
X242866390Y-88563743D01*
X243004980Y-88637822D01*
X243022879Y-88647389D01*
X243058609Y-88676712D01*
X243160044Y-88759956D01*
X243243288Y-88861391D01*
X243272611Y-88897121D01*
X243272612Y-88897123D01*
X243356257Y-89053610D01*
X243356257Y-89053611D01*
X243407766Y-89223412D01*
X243425158Y-89400000D01*
X243407766Y-89576588D01*
X243373427Y-89689789D01*
X243356257Y-89746390D01*
X243305289Y-89841743D01*
X243272611Y-89902879D01*
X243254138Y-89925388D01*
X243160044Y-90040044D01*
X243058609Y-90123288D01*
X243022879Y-90152611D01*
X243022877Y-90152612D01*
X242866390Y-90236257D01*
X242809789Y-90253427D01*
X242696588Y-90287766D01*
X242608362Y-90296455D01*
X242564250Y-90300800D01*
X242475750Y-90300800D01*
X242431638Y-90296455D01*
X242343412Y-90287766D01*
X242230211Y-90253427D01*
X242173610Y-90236257D01*
X242017123Y-90152612D01*
X242017121Y-90152611D01*
X241981391Y-90123288D01*
X241879956Y-90040044D01*
X241785862Y-89925388D01*
X241767389Y-89902879D01*
X241734711Y-89841743D01*
X241683743Y-89746390D01*
X241666573Y-89689789D01*
X241632234Y-89576588D01*
X241614842Y-89400000D01*
X241632234Y-89223412D01*
X241683743Y-89053611D01*
X241683743Y-89053610D01*
X241767388Y-88897123D01*
X241767389Y-88897121D01*
X241796712Y-88861391D01*
X241879956Y-88759956D01*
X241981391Y-88676712D01*
X242017121Y-88647389D01*
X242035020Y-88637822D01*
X242173610Y-88563743D01*
X242230211Y-88546573D01*
X242343412Y-88512234D01*
X242431638Y-88503545D01*
X242475750Y-88499200D01*
X242564250Y-88499200D01*
X242608362Y-88503545D01*
X242608362Y-88503545D01*
G37*
G36*
X240068362Y-88503545D02*
X240156588Y-88512234D01*
X240269789Y-88546573D01*
X240326390Y-88563743D01*
X240464980Y-88637822D01*
X240482879Y-88647389D01*
X240518609Y-88676712D01*
X240620044Y-88759956D01*
X240703288Y-88861391D01*
X240732611Y-88897121D01*
X240732612Y-88897123D01*
X240816257Y-89053610D01*
X240816257Y-89053611D01*
X240867766Y-89223412D01*
X240885158Y-89400000D01*
X240867766Y-89576588D01*
X240833427Y-89689789D01*
X240816257Y-89746390D01*
X240765289Y-89841743D01*
X240732611Y-89902879D01*
X240714138Y-89925388D01*
X240620044Y-90040044D01*
X240518609Y-90123288D01*
X240482879Y-90152611D01*
X240482877Y-90152612D01*
X240326390Y-90236257D01*
X240269789Y-90253427D01*
X240156588Y-90287766D01*
X240068362Y-90296455D01*
X240024250Y-90300800D01*
X239935750Y-90300800D01*
X239891638Y-90296455D01*
X239803412Y-90287766D01*
X239690211Y-90253427D01*
X239633610Y-90236257D01*
X239477123Y-90152612D01*
X239477121Y-90152611D01*
X239441391Y-90123288D01*
X239339956Y-90040044D01*
X239245862Y-89925388D01*
X239227389Y-89902879D01*
X239194711Y-89841743D01*
X239143743Y-89746390D01*
X239126573Y-89689789D01*
X239092234Y-89576588D01*
X239074842Y-89400000D01*
X239092234Y-89223412D01*
X239143743Y-89053611D01*
X239143743Y-89053610D01*
X239227388Y-88897123D01*
X239227389Y-88897121D01*
X239256712Y-88861391D01*
X239339956Y-88759956D01*
X239441391Y-88676712D01*
X239477121Y-88647389D01*
X239495020Y-88637822D01*
X239633610Y-88563743D01*
X239690211Y-88546573D01*
X239803412Y-88512234D01*
X239891638Y-88503545D01*
X239935750Y-88499200D01*
X240024250Y-88499200D01*
X240068362Y-88503545D01*
X240068362Y-88503545D01*
G37*
G36*
X237528362Y-88503545D02*
X237616588Y-88512234D01*
X237729789Y-88546573D01*
X237786390Y-88563743D01*
X237924980Y-88637822D01*
X237942879Y-88647389D01*
X237978609Y-88676712D01*
X238080044Y-88759956D01*
X238163288Y-88861391D01*
X238192611Y-88897121D01*
X238192612Y-88897123D01*
X238276257Y-89053610D01*
X238276257Y-89053611D01*
X238327766Y-89223412D01*
X238345158Y-89400000D01*
X238327766Y-89576588D01*
X238293427Y-89689789D01*
X238276257Y-89746390D01*
X238225289Y-89841743D01*
X238192611Y-89902879D01*
X238174138Y-89925388D01*
X238080044Y-90040044D01*
X237978609Y-90123288D01*
X237942879Y-90152611D01*
X237942877Y-90152612D01*
X237786390Y-90236257D01*
X237729789Y-90253427D01*
X237616588Y-90287766D01*
X237528362Y-90296455D01*
X237484250Y-90300800D01*
X237395750Y-90300800D01*
X237351638Y-90296455D01*
X237263412Y-90287766D01*
X237150211Y-90253427D01*
X237093610Y-90236257D01*
X236937123Y-90152612D01*
X236937121Y-90152611D01*
X236901391Y-90123288D01*
X236799956Y-90040044D01*
X236705862Y-89925388D01*
X236687389Y-89902879D01*
X236654711Y-89841743D01*
X236603743Y-89746390D01*
X236586573Y-89689789D01*
X236552234Y-89576588D01*
X236534842Y-89400000D01*
X236552234Y-89223412D01*
X236603743Y-89053611D01*
X236603743Y-89053610D01*
X236687388Y-88897123D01*
X236687389Y-88897121D01*
X236716712Y-88861391D01*
X236799956Y-88759956D01*
X236901391Y-88676712D01*
X236937121Y-88647389D01*
X236955020Y-88637822D01*
X237093610Y-88563743D01*
X237150211Y-88546573D01*
X237263412Y-88512234D01*
X237351638Y-88503545D01*
X237395750Y-88499200D01*
X237484250Y-88499200D01*
X237528362Y-88503545D01*
X237528362Y-88503545D01*
G37*
G36*
X234988362Y-88503545D02*
X235076588Y-88512234D01*
X235189789Y-88546573D01*
X235246390Y-88563743D01*
X235384980Y-88637822D01*
X235402879Y-88647389D01*
X235438609Y-88676712D01*
X235540044Y-88759956D01*
X235623288Y-88861391D01*
X235652611Y-88897121D01*
X235652612Y-88897123D01*
X235736257Y-89053610D01*
X235736257Y-89053611D01*
X235787766Y-89223412D01*
X235805158Y-89400000D01*
X235787766Y-89576588D01*
X235753427Y-89689789D01*
X235736257Y-89746390D01*
X235685289Y-89841743D01*
X235652611Y-89902879D01*
X235634138Y-89925388D01*
X235540044Y-90040044D01*
X235438609Y-90123288D01*
X235402879Y-90152611D01*
X235402877Y-90152612D01*
X235246390Y-90236257D01*
X235189789Y-90253427D01*
X235076588Y-90287766D01*
X234988362Y-90296455D01*
X234944250Y-90300800D01*
X234855750Y-90300800D01*
X234811638Y-90296455D01*
X234723412Y-90287766D01*
X234610211Y-90253427D01*
X234553610Y-90236257D01*
X234397123Y-90152612D01*
X234397121Y-90152611D01*
X234361391Y-90123288D01*
X234259956Y-90040044D01*
X234165862Y-89925388D01*
X234147389Y-89902879D01*
X234114711Y-89841743D01*
X234063743Y-89746390D01*
X234046573Y-89689789D01*
X234012234Y-89576588D01*
X233994842Y-89400000D01*
X234012234Y-89223412D01*
X234063743Y-89053611D01*
X234063743Y-89053610D01*
X234147388Y-88897123D01*
X234147389Y-88897121D01*
X234176712Y-88861391D01*
X234259956Y-88759956D01*
X234361391Y-88676712D01*
X234397121Y-88647389D01*
X234415020Y-88637822D01*
X234553610Y-88563743D01*
X234610211Y-88546573D01*
X234723412Y-88512234D01*
X234811638Y-88503545D01*
X234855750Y-88499200D01*
X234944250Y-88499200D01*
X234988362Y-88503545D01*
X234988362Y-88503545D01*
G37*
G36*
X232448362Y-88503545D02*
X232536588Y-88512234D01*
X232649789Y-88546573D01*
X232706390Y-88563743D01*
X232844980Y-88637822D01*
X232862879Y-88647389D01*
X232898609Y-88676712D01*
X233000044Y-88759956D01*
X233083288Y-88861391D01*
X233112611Y-88897121D01*
X233112612Y-88897123D01*
X233196257Y-89053610D01*
X233196257Y-89053611D01*
X233247766Y-89223412D01*
X233265158Y-89400000D01*
X233247766Y-89576588D01*
X233213427Y-89689789D01*
X233196257Y-89746390D01*
X233145289Y-89841743D01*
X233112611Y-89902879D01*
X233094138Y-89925388D01*
X233000044Y-90040044D01*
X232898609Y-90123288D01*
X232862879Y-90152611D01*
X232862877Y-90152612D01*
X232706390Y-90236257D01*
X232649789Y-90253427D01*
X232536588Y-90287766D01*
X232448362Y-90296455D01*
X232404250Y-90300800D01*
X232315750Y-90300800D01*
X232271638Y-90296455D01*
X232183412Y-90287766D01*
X232070211Y-90253427D01*
X232013610Y-90236257D01*
X231857123Y-90152612D01*
X231857121Y-90152611D01*
X231821391Y-90123288D01*
X231719956Y-90040044D01*
X231625862Y-89925388D01*
X231607389Y-89902879D01*
X231574711Y-89841743D01*
X231523743Y-89746390D01*
X231506573Y-89689789D01*
X231472234Y-89576588D01*
X231454842Y-89400000D01*
X231472234Y-89223412D01*
X231523743Y-89053611D01*
X231523743Y-89053610D01*
X231607388Y-88897123D01*
X231607389Y-88897121D01*
X231636712Y-88861391D01*
X231719956Y-88759956D01*
X231821391Y-88676712D01*
X231857121Y-88647389D01*
X231875020Y-88637822D01*
X232013610Y-88563743D01*
X232070211Y-88546573D01*
X232183412Y-88512234D01*
X232271638Y-88503545D01*
X232315750Y-88499200D01*
X232404250Y-88499200D01*
X232448362Y-88503545D01*
X232448362Y-88503545D01*
G37*
G36*
X263486362Y-87241545D02*
X263574588Y-87250234D01*
X263687789Y-87284573D01*
X263744390Y-87301743D01*
X263882980Y-87375822D01*
X263900879Y-87385389D01*
X263936609Y-87414712D01*
X264038044Y-87497956D01*
X264121288Y-87599391D01*
X264150611Y-87635121D01*
X264150612Y-87635123D01*
X264234257Y-87791610D01*
X264234257Y-87791611D01*
X264285766Y-87961412D01*
X264303158Y-88138000D01*
X264285766Y-88314588D01*
X264251427Y-88427789D01*
X264234257Y-88484390D01*
X264191841Y-88563743D01*
X264150611Y-88640879D01*
X264145269Y-88647388D01*
X264038044Y-88778044D01*
X263936609Y-88861288D01*
X263900879Y-88890611D01*
X263900877Y-88890612D01*
X263744390Y-88974257D01*
X263687789Y-88991427D01*
X263574588Y-89025766D01*
X263486362Y-89034455D01*
X263442250Y-89038800D01*
X263353750Y-89038800D01*
X263309638Y-89034455D01*
X263221412Y-89025766D01*
X263108211Y-88991427D01*
X263051610Y-88974257D01*
X262895123Y-88890612D01*
X262895121Y-88890611D01*
X262859391Y-88861288D01*
X262757956Y-88778044D01*
X262650731Y-88647388D01*
X262645389Y-88640879D01*
X262604159Y-88563743D01*
X262561743Y-88484390D01*
X262544573Y-88427789D01*
X262510234Y-88314588D01*
X262492842Y-88138000D01*
X262510234Y-87961412D01*
X262561743Y-87791611D01*
X262561743Y-87791610D01*
X262645388Y-87635123D01*
X262645389Y-87635121D01*
X262674712Y-87599391D01*
X262757956Y-87497956D01*
X262859391Y-87414712D01*
X262895121Y-87385389D01*
X262913020Y-87375822D01*
X263051610Y-87301743D01*
X263108211Y-87284573D01*
X263221412Y-87250234D01*
X263309638Y-87241545D01*
X263353750Y-87237200D01*
X263442250Y-87237200D01*
X263486362Y-87241545D01*
X263486362Y-87241545D01*
G37*
M02*
