G04 #@! TF.GenerationSoftware,KiCad,Pcbnew,5.0.2-bee76a0~70~ubuntu18.04.1*
G04 #@! TF.CreationDate,2019-01-28T20:05:27-07:00*
G04 #@! TF.ProjectId,adc,6164632e-6b69-4636-9164-5f7063625858,rev?*
G04 #@! TF.SameCoordinates,Original*
G04 #@! TF.FileFunction,Soldermask,Bot*
G04 #@! TF.FilePolarity,Negative*
%FSLAX46Y46*%
G04 Gerber Fmt 4.6, Leading zero omitted, Abs format (unit mm)*
G04 Created by KiCad (PCBNEW 5.0.2-bee76a0~70~ubuntu18.04.1) date Mon 28 Jan 2019 08:05:27 PM MST*
%MOMM*%
%LPD*%
G01*
G04 APERTURE LIST*
%ADD10C,0.100000*%
G04 APERTURE END LIST*
D10*
G36*
X263564787Y-142925510D02*
X263725160Y-142974160D01*
X263725162Y-142974161D01*
X263872966Y-143053163D01*
X264002517Y-143159483D01*
X264108837Y-143289034D01*
X264161758Y-143388044D01*
X264187840Y-143436840D01*
X264236490Y-143597213D01*
X264252916Y-143764000D01*
X264236490Y-143930787D01*
X264187840Y-144091160D01*
X264187839Y-144091162D01*
X264108837Y-144238966D01*
X264002517Y-144368517D01*
X263872966Y-144474837D01*
X263725162Y-144553839D01*
X263725160Y-144553840D01*
X263564787Y-144602490D01*
X263439794Y-144614800D01*
X263356206Y-144614800D01*
X263231213Y-144602490D01*
X263070840Y-144553840D01*
X263070838Y-144553839D01*
X262923034Y-144474837D01*
X262793483Y-144368517D01*
X262687163Y-144238966D01*
X262608161Y-144091162D01*
X262608160Y-144091160D01*
X262559510Y-143930787D01*
X262543084Y-143764000D01*
X262559510Y-143597213D01*
X262608160Y-143436840D01*
X262634242Y-143388044D01*
X262687163Y-143289034D01*
X262793483Y-143159483D01*
X262923034Y-143053163D01*
X263070838Y-142974161D01*
X263070840Y-142974160D01*
X263231213Y-142925510D01*
X263356206Y-142913200D01*
X263439794Y-142913200D01*
X263564787Y-142925510D01*
X263564787Y-142925510D01*
G37*
G36*
X215304787Y-142925510D02*
X215465160Y-142974160D01*
X215465162Y-142974161D01*
X215612966Y-143053163D01*
X215742517Y-143159483D01*
X215848837Y-143289034D01*
X215901758Y-143388044D01*
X215927840Y-143436840D01*
X215976490Y-143597213D01*
X215992916Y-143764000D01*
X215976490Y-143930787D01*
X215927840Y-144091160D01*
X215927839Y-144091162D01*
X215848837Y-144238966D01*
X215742517Y-144368517D01*
X215612966Y-144474837D01*
X215465162Y-144553839D01*
X215465160Y-144553840D01*
X215304787Y-144602490D01*
X215179794Y-144614800D01*
X215096206Y-144614800D01*
X214971213Y-144602490D01*
X214810840Y-144553840D01*
X214810838Y-144553839D01*
X214663034Y-144474837D01*
X214533483Y-144368517D01*
X214427163Y-144238966D01*
X214348161Y-144091162D01*
X214348160Y-144091160D01*
X214299510Y-143930787D01*
X214283084Y-143764000D01*
X214299510Y-143597213D01*
X214348160Y-143436840D01*
X214374242Y-143388044D01*
X214427163Y-143289034D01*
X214533483Y-143159483D01*
X214663034Y-143053163D01*
X214810838Y-142974161D01*
X214810840Y-142974160D01*
X214971213Y-142925510D01*
X215096206Y-142913200D01*
X215179794Y-142913200D01*
X215304787Y-142925510D01*
X215304787Y-142925510D01*
G37*
G36*
X221576362Y-141851545D02*
X221664588Y-141860234D01*
X221777789Y-141894573D01*
X221834390Y-141911743D01*
X221877595Y-141934837D01*
X221990879Y-141995389D01*
X222026609Y-142024712D01*
X222128044Y-142107956D01*
X222211288Y-142209391D01*
X222240611Y-142245121D01*
X222240612Y-142245123D01*
X222324257Y-142401610D01*
X222324257Y-142401611D01*
X222375766Y-142571412D01*
X222393158Y-142748000D01*
X222375766Y-142924588D01*
X222360728Y-142974160D01*
X222324257Y-143094390D01*
X222250178Y-143232980D01*
X222240611Y-143250879D01*
X222211288Y-143286609D01*
X222128044Y-143388044D01*
X222026609Y-143471288D01*
X221990879Y-143500611D01*
X221990877Y-143500612D01*
X221834390Y-143584257D01*
X221791679Y-143597213D01*
X221664588Y-143635766D01*
X221576362Y-143644455D01*
X221532250Y-143648800D01*
X221443750Y-143648800D01*
X221399638Y-143644455D01*
X221311412Y-143635766D01*
X221184321Y-143597213D01*
X221141610Y-143584257D01*
X220985123Y-143500612D01*
X220985121Y-143500611D01*
X220949391Y-143471288D01*
X220847956Y-143388044D01*
X220764712Y-143286609D01*
X220735389Y-143250879D01*
X220725822Y-143232980D01*
X220651743Y-143094390D01*
X220615272Y-142974160D01*
X220600234Y-142924588D01*
X220582842Y-142748000D01*
X220600234Y-142571412D01*
X220651743Y-142401611D01*
X220651743Y-142401610D01*
X220735388Y-142245123D01*
X220735389Y-142245121D01*
X220764712Y-142209391D01*
X220847956Y-142107956D01*
X220949391Y-142024712D01*
X220985121Y-141995389D01*
X221098405Y-141934837D01*
X221141610Y-141911743D01*
X221198211Y-141894573D01*
X221311412Y-141860234D01*
X221399638Y-141851545D01*
X221443750Y-141847200D01*
X221532250Y-141847200D01*
X221576362Y-141851545D01*
X221576362Y-141851545D01*
G37*
G36*
X252564362Y-141851545D02*
X252652588Y-141860234D01*
X252765789Y-141894573D01*
X252822390Y-141911743D01*
X252865595Y-141934837D01*
X252978879Y-141995389D01*
X253014609Y-142024712D01*
X253116044Y-142107956D01*
X253199288Y-142209391D01*
X253228611Y-142245121D01*
X253228612Y-142245123D01*
X253312257Y-142401610D01*
X253312257Y-142401611D01*
X253363766Y-142571412D01*
X253381158Y-142748000D01*
X253363766Y-142924588D01*
X253348728Y-142974160D01*
X253312257Y-143094390D01*
X253238178Y-143232980D01*
X253228611Y-143250879D01*
X253199288Y-143286609D01*
X253116044Y-143388044D01*
X253014609Y-143471288D01*
X252978879Y-143500611D01*
X252978877Y-143500612D01*
X252822390Y-143584257D01*
X252779679Y-143597213D01*
X252652588Y-143635766D01*
X252564362Y-143644455D01*
X252520250Y-143648800D01*
X252431750Y-143648800D01*
X252387638Y-143644455D01*
X252299412Y-143635766D01*
X252172321Y-143597213D01*
X252129610Y-143584257D01*
X251973123Y-143500612D01*
X251973121Y-143500611D01*
X251937391Y-143471288D01*
X251835956Y-143388044D01*
X251752712Y-143286609D01*
X251723389Y-143250879D01*
X251713822Y-143232980D01*
X251639743Y-143094390D01*
X251603272Y-142974160D01*
X251588234Y-142924588D01*
X251570842Y-142748000D01*
X251588234Y-142571412D01*
X251639743Y-142401611D01*
X251639743Y-142401610D01*
X251723388Y-142245123D01*
X251723389Y-142245121D01*
X251752712Y-142209391D01*
X251835956Y-142107956D01*
X251937391Y-142024712D01*
X251973121Y-141995389D01*
X252086405Y-141934837D01*
X252129610Y-141911743D01*
X252186211Y-141894573D01*
X252299412Y-141860234D01*
X252387638Y-141851545D01*
X252431750Y-141847200D01*
X252520250Y-141847200D01*
X252564362Y-141851545D01*
X252564362Y-141851545D01*
G37*
G36*
X255104362Y-141851545D02*
X255192588Y-141860234D01*
X255305789Y-141894573D01*
X255362390Y-141911743D01*
X255405595Y-141934837D01*
X255518879Y-141995389D01*
X255554609Y-142024712D01*
X255656044Y-142107956D01*
X255739288Y-142209391D01*
X255768611Y-142245121D01*
X255768612Y-142245123D01*
X255852257Y-142401610D01*
X255852257Y-142401611D01*
X255903766Y-142571412D01*
X255921158Y-142748000D01*
X255903766Y-142924588D01*
X255888728Y-142974160D01*
X255852257Y-143094390D01*
X255778178Y-143232980D01*
X255768611Y-143250879D01*
X255739288Y-143286609D01*
X255656044Y-143388044D01*
X255554609Y-143471288D01*
X255518879Y-143500611D01*
X255518877Y-143500612D01*
X255362390Y-143584257D01*
X255319679Y-143597213D01*
X255192588Y-143635766D01*
X255104362Y-143644455D01*
X255060250Y-143648800D01*
X254971750Y-143648800D01*
X254927638Y-143644455D01*
X254839412Y-143635766D01*
X254712321Y-143597213D01*
X254669610Y-143584257D01*
X254513123Y-143500612D01*
X254513121Y-143500611D01*
X254477391Y-143471288D01*
X254375956Y-143388044D01*
X254292712Y-143286609D01*
X254263389Y-143250879D01*
X254253822Y-143232980D01*
X254179743Y-143094390D01*
X254143272Y-142974160D01*
X254128234Y-142924588D01*
X254110842Y-142748000D01*
X254128234Y-142571412D01*
X254179743Y-142401611D01*
X254179743Y-142401610D01*
X254263388Y-142245123D01*
X254263389Y-142245121D01*
X254292712Y-142209391D01*
X254375956Y-142107956D01*
X254477391Y-142024712D01*
X254513121Y-141995389D01*
X254626405Y-141934837D01*
X254669610Y-141911743D01*
X254726211Y-141894573D01*
X254839412Y-141860234D01*
X254927638Y-141851545D01*
X254971750Y-141847200D01*
X255060250Y-141847200D01*
X255104362Y-141851545D01*
X255104362Y-141851545D01*
G37*
G36*
X243928362Y-141851545D02*
X244016588Y-141860234D01*
X244129789Y-141894573D01*
X244186390Y-141911743D01*
X244229595Y-141934837D01*
X244342879Y-141995389D01*
X244378609Y-142024712D01*
X244480044Y-142107956D01*
X244563288Y-142209391D01*
X244592611Y-142245121D01*
X244592612Y-142245123D01*
X244676257Y-142401610D01*
X244676257Y-142401611D01*
X244727766Y-142571412D01*
X244745158Y-142748000D01*
X244727766Y-142924588D01*
X244712728Y-142974160D01*
X244676257Y-143094390D01*
X244602178Y-143232980D01*
X244592611Y-143250879D01*
X244563288Y-143286609D01*
X244480044Y-143388044D01*
X244378609Y-143471288D01*
X244342879Y-143500611D01*
X244342877Y-143500612D01*
X244186390Y-143584257D01*
X244143679Y-143597213D01*
X244016588Y-143635766D01*
X243928362Y-143644455D01*
X243884250Y-143648800D01*
X243795750Y-143648800D01*
X243751638Y-143644455D01*
X243663412Y-143635766D01*
X243536321Y-143597213D01*
X243493610Y-143584257D01*
X243337123Y-143500612D01*
X243337121Y-143500611D01*
X243301391Y-143471288D01*
X243199956Y-143388044D01*
X243116712Y-143286609D01*
X243087389Y-143250879D01*
X243077822Y-143232980D01*
X243003743Y-143094390D01*
X242967272Y-142974160D01*
X242952234Y-142924588D01*
X242934842Y-142748000D01*
X242952234Y-142571412D01*
X243003743Y-142401611D01*
X243003743Y-142401610D01*
X243087388Y-142245123D01*
X243087389Y-142245121D01*
X243116712Y-142209391D01*
X243199956Y-142107956D01*
X243301391Y-142024712D01*
X243337121Y-141995389D01*
X243450405Y-141934837D01*
X243493610Y-141911743D01*
X243550211Y-141894573D01*
X243663412Y-141860234D01*
X243751638Y-141851545D01*
X243795750Y-141847200D01*
X243884250Y-141847200D01*
X243928362Y-141851545D01*
X243928362Y-141851545D01*
G37*
G36*
X241388362Y-141851545D02*
X241476588Y-141860234D01*
X241589789Y-141894573D01*
X241646390Y-141911743D01*
X241689595Y-141934837D01*
X241802879Y-141995389D01*
X241838609Y-142024712D01*
X241940044Y-142107956D01*
X242023288Y-142209391D01*
X242052611Y-142245121D01*
X242052612Y-142245123D01*
X242136257Y-142401610D01*
X242136257Y-142401611D01*
X242187766Y-142571412D01*
X242205158Y-142748000D01*
X242187766Y-142924588D01*
X242172728Y-142974160D01*
X242136257Y-143094390D01*
X242062178Y-143232980D01*
X242052611Y-143250879D01*
X242023288Y-143286609D01*
X241940044Y-143388044D01*
X241838609Y-143471288D01*
X241802879Y-143500611D01*
X241802877Y-143500612D01*
X241646390Y-143584257D01*
X241603679Y-143597213D01*
X241476588Y-143635766D01*
X241388362Y-143644455D01*
X241344250Y-143648800D01*
X241255750Y-143648800D01*
X241211638Y-143644455D01*
X241123412Y-143635766D01*
X240996321Y-143597213D01*
X240953610Y-143584257D01*
X240797123Y-143500612D01*
X240797121Y-143500611D01*
X240761391Y-143471288D01*
X240659956Y-143388044D01*
X240576712Y-143286609D01*
X240547389Y-143250879D01*
X240537822Y-143232980D01*
X240463743Y-143094390D01*
X240427272Y-142974160D01*
X240412234Y-142924588D01*
X240394842Y-142748000D01*
X240412234Y-142571412D01*
X240463743Y-142401611D01*
X240463743Y-142401610D01*
X240547388Y-142245123D01*
X240547389Y-142245121D01*
X240576712Y-142209391D01*
X240659956Y-142107956D01*
X240761391Y-142024712D01*
X240797121Y-141995389D01*
X240910405Y-141934837D01*
X240953610Y-141911743D01*
X241010211Y-141894573D01*
X241123412Y-141860234D01*
X241211638Y-141851545D01*
X241255750Y-141847200D01*
X241344250Y-141847200D01*
X241388362Y-141851545D01*
X241388362Y-141851545D01*
G37*
G36*
X230212362Y-141851545D02*
X230300588Y-141860234D01*
X230413789Y-141894573D01*
X230470390Y-141911743D01*
X230513595Y-141934837D01*
X230626879Y-141995389D01*
X230662609Y-142024712D01*
X230764044Y-142107956D01*
X230847288Y-142209391D01*
X230876611Y-142245121D01*
X230876612Y-142245123D01*
X230960257Y-142401610D01*
X230960257Y-142401611D01*
X231011766Y-142571412D01*
X231029158Y-142748000D01*
X231011766Y-142924588D01*
X230996728Y-142974160D01*
X230960257Y-143094390D01*
X230886178Y-143232980D01*
X230876611Y-143250879D01*
X230847288Y-143286609D01*
X230764044Y-143388044D01*
X230662609Y-143471288D01*
X230626879Y-143500611D01*
X230626877Y-143500612D01*
X230470390Y-143584257D01*
X230427679Y-143597213D01*
X230300588Y-143635766D01*
X230212362Y-143644455D01*
X230168250Y-143648800D01*
X230079750Y-143648800D01*
X230035638Y-143644455D01*
X229947412Y-143635766D01*
X229820321Y-143597213D01*
X229777610Y-143584257D01*
X229621123Y-143500612D01*
X229621121Y-143500611D01*
X229585391Y-143471288D01*
X229483956Y-143388044D01*
X229400712Y-143286609D01*
X229371389Y-143250879D01*
X229361822Y-143232980D01*
X229287743Y-143094390D01*
X229251272Y-142974160D01*
X229236234Y-142924588D01*
X229218842Y-142748000D01*
X229236234Y-142571412D01*
X229287743Y-142401611D01*
X229287743Y-142401610D01*
X229371388Y-142245123D01*
X229371389Y-142245121D01*
X229400712Y-142209391D01*
X229483956Y-142107956D01*
X229585391Y-142024712D01*
X229621121Y-141995389D01*
X229734405Y-141934837D01*
X229777610Y-141911743D01*
X229834211Y-141894573D01*
X229947412Y-141860234D01*
X230035638Y-141851545D01*
X230079750Y-141847200D01*
X230168250Y-141847200D01*
X230212362Y-141851545D01*
X230212362Y-141851545D01*
G37*
G36*
X232752362Y-141851545D02*
X232840588Y-141860234D01*
X232953789Y-141894573D01*
X233010390Y-141911743D01*
X233053595Y-141934837D01*
X233166879Y-141995389D01*
X233202609Y-142024712D01*
X233304044Y-142107956D01*
X233387288Y-142209391D01*
X233416611Y-142245121D01*
X233416612Y-142245123D01*
X233500257Y-142401610D01*
X233500257Y-142401611D01*
X233551766Y-142571412D01*
X233569158Y-142748000D01*
X233551766Y-142924588D01*
X233536728Y-142974160D01*
X233500257Y-143094390D01*
X233426178Y-143232980D01*
X233416611Y-143250879D01*
X233387288Y-143286609D01*
X233304044Y-143388044D01*
X233202609Y-143471288D01*
X233166879Y-143500611D01*
X233166877Y-143500612D01*
X233010390Y-143584257D01*
X232967679Y-143597213D01*
X232840588Y-143635766D01*
X232752362Y-143644455D01*
X232708250Y-143648800D01*
X232619750Y-143648800D01*
X232575638Y-143644455D01*
X232487412Y-143635766D01*
X232360321Y-143597213D01*
X232317610Y-143584257D01*
X232161123Y-143500612D01*
X232161121Y-143500611D01*
X232125391Y-143471288D01*
X232023956Y-143388044D01*
X231940712Y-143286609D01*
X231911389Y-143250879D01*
X231901822Y-143232980D01*
X231827743Y-143094390D01*
X231791272Y-142974160D01*
X231776234Y-142924588D01*
X231758842Y-142748000D01*
X231776234Y-142571412D01*
X231827743Y-142401611D01*
X231827743Y-142401610D01*
X231911388Y-142245123D01*
X231911389Y-142245121D01*
X231940712Y-142209391D01*
X232023956Y-142107956D01*
X232125391Y-142024712D01*
X232161121Y-141995389D01*
X232274405Y-141934837D01*
X232317610Y-141911743D01*
X232374211Y-141894573D01*
X232487412Y-141860234D01*
X232575638Y-141851545D01*
X232619750Y-141847200D01*
X232708250Y-141847200D01*
X232752362Y-141851545D01*
X232752362Y-141851545D01*
G37*
G36*
X219036362Y-141851545D02*
X219124588Y-141860234D01*
X219237789Y-141894573D01*
X219294390Y-141911743D01*
X219337595Y-141934837D01*
X219450879Y-141995389D01*
X219486609Y-142024712D01*
X219588044Y-142107956D01*
X219671288Y-142209391D01*
X219700611Y-142245121D01*
X219700612Y-142245123D01*
X219784257Y-142401610D01*
X219784257Y-142401611D01*
X219835766Y-142571412D01*
X219853158Y-142748000D01*
X219835766Y-142924588D01*
X219820728Y-142974160D01*
X219784257Y-143094390D01*
X219710178Y-143232980D01*
X219700611Y-143250879D01*
X219671288Y-143286609D01*
X219588044Y-143388044D01*
X219486609Y-143471288D01*
X219450879Y-143500611D01*
X219450877Y-143500612D01*
X219294390Y-143584257D01*
X219251679Y-143597213D01*
X219124588Y-143635766D01*
X219036362Y-143644455D01*
X218992250Y-143648800D01*
X218903750Y-143648800D01*
X218859638Y-143644455D01*
X218771412Y-143635766D01*
X218644321Y-143597213D01*
X218601610Y-143584257D01*
X218445123Y-143500612D01*
X218445121Y-143500611D01*
X218409391Y-143471288D01*
X218307956Y-143388044D01*
X218224712Y-143286609D01*
X218195389Y-143250879D01*
X218185822Y-143232980D01*
X218111743Y-143094390D01*
X218075272Y-142974160D01*
X218060234Y-142924588D01*
X218042842Y-142748000D01*
X218060234Y-142571412D01*
X218111743Y-142401611D01*
X218111743Y-142401610D01*
X218195388Y-142245123D01*
X218195389Y-142245121D01*
X218224712Y-142209391D01*
X218307956Y-142107956D01*
X218409391Y-142024712D01*
X218445121Y-141995389D01*
X218558405Y-141934837D01*
X218601610Y-141911743D01*
X218658211Y-141894573D01*
X218771412Y-141860234D01*
X218859638Y-141851545D01*
X218903750Y-141847200D01*
X218992250Y-141847200D01*
X219036362Y-141851545D01*
X219036362Y-141851545D01*
G37*
G36*
X215304787Y-140385510D02*
X215465160Y-140434160D01*
X215465162Y-140434161D01*
X215612966Y-140513163D01*
X215742517Y-140619483D01*
X215848837Y-140749034D01*
X215901758Y-140848044D01*
X215927840Y-140896840D01*
X215976490Y-141057213D01*
X215992916Y-141224000D01*
X215976490Y-141390787D01*
X215927840Y-141551160D01*
X215927839Y-141551162D01*
X215848837Y-141698966D01*
X215742517Y-141828517D01*
X215612966Y-141934837D01*
X215465162Y-142013839D01*
X215465160Y-142013840D01*
X215304787Y-142062490D01*
X215179794Y-142074800D01*
X215096206Y-142074800D01*
X214971213Y-142062490D01*
X214810840Y-142013840D01*
X214810838Y-142013839D01*
X214663034Y-141934837D01*
X214533483Y-141828517D01*
X214427163Y-141698966D01*
X214348161Y-141551162D01*
X214348160Y-141551160D01*
X214299510Y-141390787D01*
X214283084Y-141224000D01*
X214299510Y-141057213D01*
X214348160Y-140896840D01*
X214374242Y-140848044D01*
X214427163Y-140749034D01*
X214533483Y-140619483D01*
X214663034Y-140513163D01*
X214810838Y-140434161D01*
X214810840Y-140434160D01*
X214971213Y-140385510D01*
X215096206Y-140373200D01*
X215179794Y-140373200D01*
X215304787Y-140385510D01*
X215304787Y-140385510D01*
G37*
G36*
X263564787Y-140385510D02*
X263725160Y-140434160D01*
X263725162Y-140434161D01*
X263872966Y-140513163D01*
X264002517Y-140619483D01*
X264108837Y-140749034D01*
X264161758Y-140848044D01*
X264187840Y-140896840D01*
X264236490Y-141057213D01*
X264252916Y-141224000D01*
X264236490Y-141390787D01*
X264187840Y-141551160D01*
X264187839Y-141551162D01*
X264108837Y-141698966D01*
X264002517Y-141828517D01*
X263872966Y-141934837D01*
X263725162Y-142013839D01*
X263725160Y-142013840D01*
X263564787Y-142062490D01*
X263439794Y-142074800D01*
X263356206Y-142074800D01*
X263231213Y-142062490D01*
X263070840Y-142013840D01*
X263070838Y-142013839D01*
X262923034Y-141934837D01*
X262793483Y-141828517D01*
X262687163Y-141698966D01*
X262608161Y-141551162D01*
X262608160Y-141551160D01*
X262559510Y-141390787D01*
X262543084Y-141224000D01*
X262559510Y-141057213D01*
X262608160Y-140896840D01*
X262634242Y-140848044D01*
X262687163Y-140749034D01*
X262793483Y-140619483D01*
X262923034Y-140513163D01*
X263070838Y-140434161D01*
X263070840Y-140434160D01*
X263231213Y-140385510D01*
X263356206Y-140373200D01*
X263439794Y-140373200D01*
X263564787Y-140385510D01*
X263564787Y-140385510D01*
G37*
G36*
X219036362Y-139311545D02*
X219124588Y-139320234D01*
X219237789Y-139354573D01*
X219294390Y-139371743D01*
X219337595Y-139394837D01*
X219450879Y-139455389D01*
X219486609Y-139484712D01*
X219588044Y-139567956D01*
X219671288Y-139669391D01*
X219700611Y-139705121D01*
X219700612Y-139705123D01*
X219784257Y-139861610D01*
X219784257Y-139861611D01*
X219835766Y-140031412D01*
X219853158Y-140208000D01*
X219835766Y-140384588D01*
X219820728Y-140434160D01*
X219784257Y-140554390D01*
X219710178Y-140692980D01*
X219700611Y-140710879D01*
X219671288Y-140746609D01*
X219588044Y-140848044D01*
X219486609Y-140931288D01*
X219450879Y-140960611D01*
X219450877Y-140960612D01*
X219294390Y-141044257D01*
X219251679Y-141057213D01*
X219124588Y-141095766D01*
X219036362Y-141104455D01*
X218992250Y-141108800D01*
X218903750Y-141108800D01*
X218859638Y-141104455D01*
X218771412Y-141095766D01*
X218644321Y-141057213D01*
X218601610Y-141044257D01*
X218445123Y-140960612D01*
X218445121Y-140960611D01*
X218409391Y-140931288D01*
X218307956Y-140848044D01*
X218224712Y-140746609D01*
X218195389Y-140710879D01*
X218185822Y-140692980D01*
X218111743Y-140554390D01*
X218075272Y-140434160D01*
X218060234Y-140384588D01*
X218042842Y-140208000D01*
X218060234Y-140031412D01*
X218111743Y-139861611D01*
X218111743Y-139861610D01*
X218195388Y-139705123D01*
X218195389Y-139705121D01*
X218224712Y-139669391D01*
X218307956Y-139567956D01*
X218409391Y-139484712D01*
X218445121Y-139455389D01*
X218558405Y-139394837D01*
X218601610Y-139371743D01*
X218658211Y-139354573D01*
X218771412Y-139320234D01*
X218859638Y-139311545D01*
X218903750Y-139307200D01*
X218992250Y-139307200D01*
X219036362Y-139311545D01*
X219036362Y-139311545D01*
G37*
G36*
X221576362Y-139311545D02*
X221664588Y-139320234D01*
X221777789Y-139354573D01*
X221834390Y-139371743D01*
X221877595Y-139394837D01*
X221990879Y-139455389D01*
X222026609Y-139484712D01*
X222128044Y-139567956D01*
X222211288Y-139669391D01*
X222240611Y-139705121D01*
X222240612Y-139705123D01*
X222324257Y-139861610D01*
X222324257Y-139861611D01*
X222375766Y-140031412D01*
X222393158Y-140208000D01*
X222375766Y-140384588D01*
X222360728Y-140434160D01*
X222324257Y-140554390D01*
X222250178Y-140692980D01*
X222240611Y-140710879D01*
X222211288Y-140746609D01*
X222128044Y-140848044D01*
X222026609Y-140931288D01*
X221990879Y-140960611D01*
X221990877Y-140960612D01*
X221834390Y-141044257D01*
X221791679Y-141057213D01*
X221664588Y-141095766D01*
X221576362Y-141104455D01*
X221532250Y-141108800D01*
X221443750Y-141108800D01*
X221399638Y-141104455D01*
X221311412Y-141095766D01*
X221184321Y-141057213D01*
X221141610Y-141044257D01*
X220985123Y-140960612D01*
X220985121Y-140960611D01*
X220949391Y-140931288D01*
X220847956Y-140848044D01*
X220764712Y-140746609D01*
X220735389Y-140710879D01*
X220725822Y-140692980D01*
X220651743Y-140554390D01*
X220615272Y-140434160D01*
X220600234Y-140384588D01*
X220582842Y-140208000D01*
X220600234Y-140031412D01*
X220651743Y-139861611D01*
X220651743Y-139861610D01*
X220735388Y-139705123D01*
X220735389Y-139705121D01*
X220764712Y-139669391D01*
X220847956Y-139567956D01*
X220949391Y-139484712D01*
X220985121Y-139455389D01*
X221098405Y-139394837D01*
X221141610Y-139371743D01*
X221198211Y-139354573D01*
X221311412Y-139320234D01*
X221399638Y-139311545D01*
X221443750Y-139307200D01*
X221532250Y-139307200D01*
X221576362Y-139311545D01*
X221576362Y-139311545D01*
G37*
G36*
X252564362Y-139311545D02*
X252652588Y-139320234D01*
X252765789Y-139354573D01*
X252822390Y-139371743D01*
X252865595Y-139394837D01*
X252978879Y-139455389D01*
X253014609Y-139484712D01*
X253116044Y-139567956D01*
X253199288Y-139669391D01*
X253228611Y-139705121D01*
X253228612Y-139705123D01*
X253312257Y-139861610D01*
X253312257Y-139861611D01*
X253363766Y-140031412D01*
X253381158Y-140208000D01*
X253363766Y-140384588D01*
X253348728Y-140434160D01*
X253312257Y-140554390D01*
X253238178Y-140692980D01*
X253228611Y-140710879D01*
X253199288Y-140746609D01*
X253116044Y-140848044D01*
X253014609Y-140931288D01*
X252978879Y-140960611D01*
X252978877Y-140960612D01*
X252822390Y-141044257D01*
X252779679Y-141057213D01*
X252652588Y-141095766D01*
X252564362Y-141104455D01*
X252520250Y-141108800D01*
X252431750Y-141108800D01*
X252387638Y-141104455D01*
X252299412Y-141095766D01*
X252172321Y-141057213D01*
X252129610Y-141044257D01*
X251973123Y-140960612D01*
X251973121Y-140960611D01*
X251937391Y-140931288D01*
X251835956Y-140848044D01*
X251752712Y-140746609D01*
X251723389Y-140710879D01*
X251713822Y-140692980D01*
X251639743Y-140554390D01*
X251603272Y-140434160D01*
X251588234Y-140384588D01*
X251570842Y-140208000D01*
X251588234Y-140031412D01*
X251639743Y-139861611D01*
X251639743Y-139861610D01*
X251723388Y-139705123D01*
X251723389Y-139705121D01*
X251752712Y-139669391D01*
X251835956Y-139567956D01*
X251937391Y-139484712D01*
X251973121Y-139455389D01*
X252086405Y-139394837D01*
X252129610Y-139371743D01*
X252186211Y-139354573D01*
X252299412Y-139320234D01*
X252387638Y-139311545D01*
X252431750Y-139307200D01*
X252520250Y-139307200D01*
X252564362Y-139311545D01*
X252564362Y-139311545D01*
G37*
G36*
X255104362Y-139311545D02*
X255192588Y-139320234D01*
X255305789Y-139354573D01*
X255362390Y-139371743D01*
X255405595Y-139394837D01*
X255518879Y-139455389D01*
X255554609Y-139484712D01*
X255656044Y-139567956D01*
X255739288Y-139669391D01*
X255768611Y-139705121D01*
X255768612Y-139705123D01*
X255852257Y-139861610D01*
X255852257Y-139861611D01*
X255903766Y-140031412D01*
X255921158Y-140208000D01*
X255903766Y-140384588D01*
X255888728Y-140434160D01*
X255852257Y-140554390D01*
X255778178Y-140692980D01*
X255768611Y-140710879D01*
X255739288Y-140746609D01*
X255656044Y-140848044D01*
X255554609Y-140931288D01*
X255518879Y-140960611D01*
X255518877Y-140960612D01*
X255362390Y-141044257D01*
X255319679Y-141057213D01*
X255192588Y-141095766D01*
X255104362Y-141104455D01*
X255060250Y-141108800D01*
X254971750Y-141108800D01*
X254927638Y-141104455D01*
X254839412Y-141095766D01*
X254712321Y-141057213D01*
X254669610Y-141044257D01*
X254513123Y-140960612D01*
X254513121Y-140960611D01*
X254477391Y-140931288D01*
X254375956Y-140848044D01*
X254292712Y-140746609D01*
X254263389Y-140710879D01*
X254253822Y-140692980D01*
X254179743Y-140554390D01*
X254143272Y-140434160D01*
X254128234Y-140384588D01*
X254110842Y-140208000D01*
X254128234Y-140031412D01*
X254179743Y-139861611D01*
X254179743Y-139861610D01*
X254263388Y-139705123D01*
X254263389Y-139705121D01*
X254292712Y-139669391D01*
X254375956Y-139567956D01*
X254477391Y-139484712D01*
X254513121Y-139455389D01*
X254626405Y-139394837D01*
X254669610Y-139371743D01*
X254726211Y-139354573D01*
X254839412Y-139320234D01*
X254927638Y-139311545D01*
X254971750Y-139307200D01*
X255060250Y-139307200D01*
X255104362Y-139311545D01*
X255104362Y-139311545D01*
G37*
G36*
X230212362Y-139311545D02*
X230300588Y-139320234D01*
X230413789Y-139354573D01*
X230470390Y-139371743D01*
X230513595Y-139394837D01*
X230626879Y-139455389D01*
X230662609Y-139484712D01*
X230764044Y-139567956D01*
X230847288Y-139669391D01*
X230876611Y-139705121D01*
X230876612Y-139705123D01*
X230960257Y-139861610D01*
X230960257Y-139861611D01*
X231011766Y-140031412D01*
X231029158Y-140208000D01*
X231011766Y-140384588D01*
X230996728Y-140434160D01*
X230960257Y-140554390D01*
X230886178Y-140692980D01*
X230876611Y-140710879D01*
X230847288Y-140746609D01*
X230764044Y-140848044D01*
X230662609Y-140931288D01*
X230626879Y-140960611D01*
X230626877Y-140960612D01*
X230470390Y-141044257D01*
X230427679Y-141057213D01*
X230300588Y-141095766D01*
X230212362Y-141104455D01*
X230168250Y-141108800D01*
X230079750Y-141108800D01*
X230035638Y-141104455D01*
X229947412Y-141095766D01*
X229820321Y-141057213D01*
X229777610Y-141044257D01*
X229621123Y-140960612D01*
X229621121Y-140960611D01*
X229585391Y-140931288D01*
X229483956Y-140848044D01*
X229400712Y-140746609D01*
X229371389Y-140710879D01*
X229361822Y-140692980D01*
X229287743Y-140554390D01*
X229251272Y-140434160D01*
X229236234Y-140384588D01*
X229218842Y-140208000D01*
X229236234Y-140031412D01*
X229287743Y-139861611D01*
X229287743Y-139861610D01*
X229371388Y-139705123D01*
X229371389Y-139705121D01*
X229400712Y-139669391D01*
X229483956Y-139567956D01*
X229585391Y-139484712D01*
X229621121Y-139455389D01*
X229734405Y-139394837D01*
X229777610Y-139371743D01*
X229834211Y-139354573D01*
X229947412Y-139320234D01*
X230035638Y-139311545D01*
X230079750Y-139307200D01*
X230168250Y-139307200D01*
X230212362Y-139311545D01*
X230212362Y-139311545D01*
G37*
G36*
X243928362Y-139311545D02*
X244016588Y-139320234D01*
X244129789Y-139354573D01*
X244186390Y-139371743D01*
X244229595Y-139394837D01*
X244342879Y-139455389D01*
X244378609Y-139484712D01*
X244480044Y-139567956D01*
X244563288Y-139669391D01*
X244592611Y-139705121D01*
X244592612Y-139705123D01*
X244676257Y-139861610D01*
X244676257Y-139861611D01*
X244727766Y-140031412D01*
X244745158Y-140208000D01*
X244727766Y-140384588D01*
X244712728Y-140434160D01*
X244676257Y-140554390D01*
X244602178Y-140692980D01*
X244592611Y-140710879D01*
X244563288Y-140746609D01*
X244480044Y-140848044D01*
X244378609Y-140931288D01*
X244342879Y-140960611D01*
X244342877Y-140960612D01*
X244186390Y-141044257D01*
X244143679Y-141057213D01*
X244016588Y-141095766D01*
X243928362Y-141104455D01*
X243884250Y-141108800D01*
X243795750Y-141108800D01*
X243751638Y-141104455D01*
X243663412Y-141095766D01*
X243536321Y-141057213D01*
X243493610Y-141044257D01*
X243337123Y-140960612D01*
X243337121Y-140960611D01*
X243301391Y-140931288D01*
X243199956Y-140848044D01*
X243116712Y-140746609D01*
X243087389Y-140710879D01*
X243077822Y-140692980D01*
X243003743Y-140554390D01*
X242967272Y-140434160D01*
X242952234Y-140384588D01*
X242934842Y-140208000D01*
X242952234Y-140031412D01*
X243003743Y-139861611D01*
X243003743Y-139861610D01*
X243087388Y-139705123D01*
X243087389Y-139705121D01*
X243116712Y-139669391D01*
X243199956Y-139567956D01*
X243301391Y-139484712D01*
X243337121Y-139455389D01*
X243450405Y-139394837D01*
X243493610Y-139371743D01*
X243550211Y-139354573D01*
X243663412Y-139320234D01*
X243751638Y-139311545D01*
X243795750Y-139307200D01*
X243884250Y-139307200D01*
X243928362Y-139311545D01*
X243928362Y-139311545D01*
G37*
G36*
X241388362Y-139311545D02*
X241476588Y-139320234D01*
X241589789Y-139354573D01*
X241646390Y-139371743D01*
X241689595Y-139394837D01*
X241802879Y-139455389D01*
X241838609Y-139484712D01*
X241940044Y-139567956D01*
X242023288Y-139669391D01*
X242052611Y-139705121D01*
X242052612Y-139705123D01*
X242136257Y-139861610D01*
X242136257Y-139861611D01*
X242187766Y-140031412D01*
X242205158Y-140208000D01*
X242187766Y-140384588D01*
X242172728Y-140434160D01*
X242136257Y-140554390D01*
X242062178Y-140692980D01*
X242052611Y-140710879D01*
X242023288Y-140746609D01*
X241940044Y-140848044D01*
X241838609Y-140931288D01*
X241802879Y-140960611D01*
X241802877Y-140960612D01*
X241646390Y-141044257D01*
X241603679Y-141057213D01*
X241476588Y-141095766D01*
X241388362Y-141104455D01*
X241344250Y-141108800D01*
X241255750Y-141108800D01*
X241211638Y-141104455D01*
X241123412Y-141095766D01*
X240996321Y-141057213D01*
X240953610Y-141044257D01*
X240797123Y-140960612D01*
X240797121Y-140960611D01*
X240761391Y-140931288D01*
X240659956Y-140848044D01*
X240576712Y-140746609D01*
X240547389Y-140710879D01*
X240537822Y-140692980D01*
X240463743Y-140554390D01*
X240427272Y-140434160D01*
X240412234Y-140384588D01*
X240394842Y-140208000D01*
X240412234Y-140031412D01*
X240463743Y-139861611D01*
X240463743Y-139861610D01*
X240547388Y-139705123D01*
X240547389Y-139705121D01*
X240576712Y-139669391D01*
X240659956Y-139567956D01*
X240761391Y-139484712D01*
X240797121Y-139455389D01*
X240910405Y-139394837D01*
X240953610Y-139371743D01*
X241010211Y-139354573D01*
X241123412Y-139320234D01*
X241211638Y-139311545D01*
X241255750Y-139307200D01*
X241344250Y-139307200D01*
X241388362Y-139311545D01*
X241388362Y-139311545D01*
G37*
G36*
X232752362Y-139311545D02*
X232840588Y-139320234D01*
X232953789Y-139354573D01*
X233010390Y-139371743D01*
X233053595Y-139394837D01*
X233166879Y-139455389D01*
X233202609Y-139484712D01*
X233304044Y-139567956D01*
X233387288Y-139669391D01*
X233416611Y-139705121D01*
X233416612Y-139705123D01*
X233500257Y-139861610D01*
X233500257Y-139861611D01*
X233551766Y-140031412D01*
X233569158Y-140208000D01*
X233551766Y-140384588D01*
X233536728Y-140434160D01*
X233500257Y-140554390D01*
X233426178Y-140692980D01*
X233416611Y-140710879D01*
X233387288Y-140746609D01*
X233304044Y-140848044D01*
X233202609Y-140931288D01*
X233166879Y-140960611D01*
X233166877Y-140960612D01*
X233010390Y-141044257D01*
X232967679Y-141057213D01*
X232840588Y-141095766D01*
X232752362Y-141104455D01*
X232708250Y-141108800D01*
X232619750Y-141108800D01*
X232575638Y-141104455D01*
X232487412Y-141095766D01*
X232360321Y-141057213D01*
X232317610Y-141044257D01*
X232161123Y-140960612D01*
X232161121Y-140960611D01*
X232125391Y-140931288D01*
X232023956Y-140848044D01*
X231940712Y-140746609D01*
X231911389Y-140710879D01*
X231901822Y-140692980D01*
X231827743Y-140554390D01*
X231791272Y-140434160D01*
X231776234Y-140384588D01*
X231758842Y-140208000D01*
X231776234Y-140031412D01*
X231827743Y-139861611D01*
X231827743Y-139861610D01*
X231911388Y-139705123D01*
X231911389Y-139705121D01*
X231940712Y-139669391D01*
X232023956Y-139567956D01*
X232125391Y-139484712D01*
X232161121Y-139455389D01*
X232274405Y-139394837D01*
X232317610Y-139371743D01*
X232374211Y-139354573D01*
X232487412Y-139320234D01*
X232575638Y-139311545D01*
X232619750Y-139307200D01*
X232708250Y-139307200D01*
X232752362Y-139311545D01*
X232752362Y-139311545D01*
G37*
G36*
X215304787Y-137845510D02*
X215465160Y-137894160D01*
X215465162Y-137894161D01*
X215612966Y-137973163D01*
X215742517Y-138079483D01*
X215848837Y-138209034D01*
X215901758Y-138308044D01*
X215927840Y-138356840D01*
X215976490Y-138517213D01*
X215992916Y-138684000D01*
X215976490Y-138850787D01*
X215927840Y-139011160D01*
X215927839Y-139011162D01*
X215848837Y-139158966D01*
X215742517Y-139288517D01*
X215612966Y-139394837D01*
X215465162Y-139473839D01*
X215465160Y-139473840D01*
X215304787Y-139522490D01*
X215179794Y-139534800D01*
X215096206Y-139534800D01*
X214971213Y-139522490D01*
X214810840Y-139473840D01*
X214810838Y-139473839D01*
X214663034Y-139394837D01*
X214533483Y-139288517D01*
X214427163Y-139158966D01*
X214348161Y-139011162D01*
X214348160Y-139011160D01*
X214299510Y-138850787D01*
X214283084Y-138684000D01*
X214299510Y-138517213D01*
X214348160Y-138356840D01*
X214374242Y-138308044D01*
X214427163Y-138209034D01*
X214533483Y-138079483D01*
X214663034Y-137973163D01*
X214810838Y-137894161D01*
X214810840Y-137894160D01*
X214971213Y-137845510D01*
X215096206Y-137833200D01*
X215179794Y-137833200D01*
X215304787Y-137845510D01*
X215304787Y-137845510D01*
G37*
G36*
X263564787Y-137845510D02*
X263725160Y-137894160D01*
X263725162Y-137894161D01*
X263872966Y-137973163D01*
X264002517Y-138079483D01*
X264108837Y-138209034D01*
X264161758Y-138308044D01*
X264187840Y-138356840D01*
X264236490Y-138517213D01*
X264252916Y-138684000D01*
X264236490Y-138850787D01*
X264187840Y-139011160D01*
X264187839Y-139011162D01*
X264108837Y-139158966D01*
X264002517Y-139288517D01*
X263872966Y-139394837D01*
X263725162Y-139473839D01*
X263725160Y-139473840D01*
X263564787Y-139522490D01*
X263439794Y-139534800D01*
X263356206Y-139534800D01*
X263231213Y-139522490D01*
X263070840Y-139473840D01*
X263070838Y-139473839D01*
X262923034Y-139394837D01*
X262793483Y-139288517D01*
X262687163Y-139158966D01*
X262608161Y-139011162D01*
X262608160Y-139011160D01*
X262559510Y-138850787D01*
X262543084Y-138684000D01*
X262559510Y-138517213D01*
X262608160Y-138356840D01*
X262634242Y-138308044D01*
X262687163Y-138209034D01*
X262793483Y-138079483D01*
X262923034Y-137973163D01*
X263070838Y-137894161D01*
X263070840Y-137894160D01*
X263231213Y-137845510D01*
X263356206Y-137833200D01*
X263439794Y-137833200D01*
X263564787Y-137845510D01*
X263564787Y-137845510D01*
G37*
G36*
X255104362Y-136771545D02*
X255192588Y-136780234D01*
X255305789Y-136814573D01*
X255362390Y-136831743D01*
X255405595Y-136854837D01*
X255518879Y-136915389D01*
X255554609Y-136944712D01*
X255656044Y-137027956D01*
X255739288Y-137129391D01*
X255768611Y-137165121D01*
X255768612Y-137165123D01*
X255852257Y-137321610D01*
X255852257Y-137321611D01*
X255903766Y-137491412D01*
X255921158Y-137668000D01*
X255903766Y-137844588D01*
X255888728Y-137894160D01*
X255852257Y-138014390D01*
X255778178Y-138152980D01*
X255768611Y-138170879D01*
X255739288Y-138206609D01*
X255656044Y-138308044D01*
X255554609Y-138391288D01*
X255518879Y-138420611D01*
X255518877Y-138420612D01*
X255362390Y-138504257D01*
X255319679Y-138517213D01*
X255192588Y-138555766D01*
X255104362Y-138564455D01*
X255060250Y-138568800D01*
X254971750Y-138568800D01*
X254927638Y-138564455D01*
X254839412Y-138555766D01*
X254712321Y-138517213D01*
X254669610Y-138504257D01*
X254513123Y-138420612D01*
X254513121Y-138420611D01*
X254477391Y-138391288D01*
X254375956Y-138308044D01*
X254292712Y-138206609D01*
X254263389Y-138170879D01*
X254253822Y-138152980D01*
X254179743Y-138014390D01*
X254143272Y-137894160D01*
X254128234Y-137844588D01*
X254110842Y-137668000D01*
X254128234Y-137491412D01*
X254179743Y-137321611D01*
X254179743Y-137321610D01*
X254263388Y-137165123D01*
X254263389Y-137165121D01*
X254292712Y-137129391D01*
X254375956Y-137027956D01*
X254477391Y-136944712D01*
X254513121Y-136915389D01*
X254626405Y-136854837D01*
X254669610Y-136831743D01*
X254726211Y-136814573D01*
X254839412Y-136780234D01*
X254927638Y-136771545D01*
X254971750Y-136767200D01*
X255060250Y-136767200D01*
X255104362Y-136771545D01*
X255104362Y-136771545D01*
G37*
G36*
X241388362Y-136771545D02*
X241476588Y-136780234D01*
X241589789Y-136814573D01*
X241646390Y-136831743D01*
X241689595Y-136854837D01*
X241802879Y-136915389D01*
X241838609Y-136944712D01*
X241940044Y-137027956D01*
X242023288Y-137129391D01*
X242052611Y-137165121D01*
X242052612Y-137165123D01*
X242136257Y-137321610D01*
X242136257Y-137321611D01*
X242187766Y-137491412D01*
X242205158Y-137668000D01*
X242187766Y-137844588D01*
X242172728Y-137894160D01*
X242136257Y-138014390D01*
X242062178Y-138152980D01*
X242052611Y-138170879D01*
X242023288Y-138206609D01*
X241940044Y-138308044D01*
X241838609Y-138391288D01*
X241802879Y-138420611D01*
X241802877Y-138420612D01*
X241646390Y-138504257D01*
X241603679Y-138517213D01*
X241476588Y-138555766D01*
X241388362Y-138564455D01*
X241344250Y-138568800D01*
X241255750Y-138568800D01*
X241211638Y-138564455D01*
X241123412Y-138555766D01*
X240996321Y-138517213D01*
X240953610Y-138504257D01*
X240797123Y-138420612D01*
X240797121Y-138420611D01*
X240761391Y-138391288D01*
X240659956Y-138308044D01*
X240576712Y-138206609D01*
X240547389Y-138170879D01*
X240537822Y-138152980D01*
X240463743Y-138014390D01*
X240427272Y-137894160D01*
X240412234Y-137844588D01*
X240394842Y-137668000D01*
X240412234Y-137491412D01*
X240463743Y-137321611D01*
X240463743Y-137321610D01*
X240547388Y-137165123D01*
X240547389Y-137165121D01*
X240576712Y-137129391D01*
X240659956Y-137027956D01*
X240761391Y-136944712D01*
X240797121Y-136915389D01*
X240910405Y-136854837D01*
X240953610Y-136831743D01*
X241010211Y-136814573D01*
X241123412Y-136780234D01*
X241211638Y-136771545D01*
X241255750Y-136767200D01*
X241344250Y-136767200D01*
X241388362Y-136771545D01*
X241388362Y-136771545D01*
G37*
G36*
X230212362Y-136771545D02*
X230300588Y-136780234D01*
X230413789Y-136814573D01*
X230470390Y-136831743D01*
X230513595Y-136854837D01*
X230626879Y-136915389D01*
X230662609Y-136944712D01*
X230764044Y-137027956D01*
X230847288Y-137129391D01*
X230876611Y-137165121D01*
X230876612Y-137165123D01*
X230960257Y-137321610D01*
X230960257Y-137321611D01*
X231011766Y-137491412D01*
X231029158Y-137668000D01*
X231011766Y-137844588D01*
X230996728Y-137894160D01*
X230960257Y-138014390D01*
X230886178Y-138152980D01*
X230876611Y-138170879D01*
X230847288Y-138206609D01*
X230764044Y-138308044D01*
X230662609Y-138391288D01*
X230626879Y-138420611D01*
X230626877Y-138420612D01*
X230470390Y-138504257D01*
X230427679Y-138517213D01*
X230300588Y-138555766D01*
X230212362Y-138564455D01*
X230168250Y-138568800D01*
X230079750Y-138568800D01*
X230035638Y-138564455D01*
X229947412Y-138555766D01*
X229820321Y-138517213D01*
X229777610Y-138504257D01*
X229621123Y-138420612D01*
X229621121Y-138420611D01*
X229585391Y-138391288D01*
X229483956Y-138308044D01*
X229400712Y-138206609D01*
X229371389Y-138170879D01*
X229361822Y-138152980D01*
X229287743Y-138014390D01*
X229251272Y-137894160D01*
X229236234Y-137844588D01*
X229218842Y-137668000D01*
X229236234Y-137491412D01*
X229287743Y-137321611D01*
X229287743Y-137321610D01*
X229371388Y-137165123D01*
X229371389Y-137165121D01*
X229400712Y-137129391D01*
X229483956Y-137027956D01*
X229585391Y-136944712D01*
X229621121Y-136915389D01*
X229734405Y-136854837D01*
X229777610Y-136831743D01*
X229834211Y-136814573D01*
X229947412Y-136780234D01*
X230035638Y-136771545D01*
X230079750Y-136767200D01*
X230168250Y-136767200D01*
X230212362Y-136771545D01*
X230212362Y-136771545D01*
G37*
G36*
X232752362Y-136771545D02*
X232840588Y-136780234D01*
X232953789Y-136814573D01*
X233010390Y-136831743D01*
X233053595Y-136854837D01*
X233166879Y-136915389D01*
X233202609Y-136944712D01*
X233304044Y-137027956D01*
X233387288Y-137129391D01*
X233416611Y-137165121D01*
X233416612Y-137165123D01*
X233500257Y-137321610D01*
X233500257Y-137321611D01*
X233551766Y-137491412D01*
X233569158Y-137668000D01*
X233551766Y-137844588D01*
X233536728Y-137894160D01*
X233500257Y-138014390D01*
X233426178Y-138152980D01*
X233416611Y-138170879D01*
X233387288Y-138206609D01*
X233304044Y-138308044D01*
X233202609Y-138391288D01*
X233166879Y-138420611D01*
X233166877Y-138420612D01*
X233010390Y-138504257D01*
X232967679Y-138517213D01*
X232840588Y-138555766D01*
X232752362Y-138564455D01*
X232708250Y-138568800D01*
X232619750Y-138568800D01*
X232575638Y-138564455D01*
X232487412Y-138555766D01*
X232360321Y-138517213D01*
X232317610Y-138504257D01*
X232161123Y-138420612D01*
X232161121Y-138420611D01*
X232125391Y-138391288D01*
X232023956Y-138308044D01*
X231940712Y-138206609D01*
X231911389Y-138170879D01*
X231901822Y-138152980D01*
X231827743Y-138014390D01*
X231791272Y-137894160D01*
X231776234Y-137844588D01*
X231758842Y-137668000D01*
X231776234Y-137491412D01*
X231827743Y-137321611D01*
X231827743Y-137321610D01*
X231911388Y-137165123D01*
X231911389Y-137165121D01*
X231940712Y-137129391D01*
X232023956Y-137027956D01*
X232125391Y-136944712D01*
X232161121Y-136915389D01*
X232274405Y-136854837D01*
X232317610Y-136831743D01*
X232374211Y-136814573D01*
X232487412Y-136780234D01*
X232575638Y-136771545D01*
X232619750Y-136767200D01*
X232708250Y-136767200D01*
X232752362Y-136771545D01*
X232752362Y-136771545D01*
G37*
G36*
X252564362Y-136771545D02*
X252652588Y-136780234D01*
X252765789Y-136814573D01*
X252822390Y-136831743D01*
X252865595Y-136854837D01*
X252978879Y-136915389D01*
X253014609Y-136944712D01*
X253116044Y-137027956D01*
X253199288Y-137129391D01*
X253228611Y-137165121D01*
X253228612Y-137165123D01*
X253312257Y-137321610D01*
X253312257Y-137321611D01*
X253363766Y-137491412D01*
X253381158Y-137668000D01*
X253363766Y-137844588D01*
X253348728Y-137894160D01*
X253312257Y-138014390D01*
X253238178Y-138152980D01*
X253228611Y-138170879D01*
X253199288Y-138206609D01*
X253116044Y-138308044D01*
X253014609Y-138391288D01*
X252978879Y-138420611D01*
X252978877Y-138420612D01*
X252822390Y-138504257D01*
X252779679Y-138517213D01*
X252652588Y-138555766D01*
X252564362Y-138564455D01*
X252520250Y-138568800D01*
X252431750Y-138568800D01*
X252387638Y-138564455D01*
X252299412Y-138555766D01*
X252172321Y-138517213D01*
X252129610Y-138504257D01*
X251973123Y-138420612D01*
X251973121Y-138420611D01*
X251937391Y-138391288D01*
X251835956Y-138308044D01*
X251752712Y-138206609D01*
X251723389Y-138170879D01*
X251713822Y-138152980D01*
X251639743Y-138014390D01*
X251603272Y-137894160D01*
X251588234Y-137844588D01*
X251570842Y-137668000D01*
X251588234Y-137491412D01*
X251639743Y-137321611D01*
X251639743Y-137321610D01*
X251723388Y-137165123D01*
X251723389Y-137165121D01*
X251752712Y-137129391D01*
X251835956Y-137027956D01*
X251937391Y-136944712D01*
X251973121Y-136915389D01*
X252086405Y-136854837D01*
X252129610Y-136831743D01*
X252186211Y-136814573D01*
X252299412Y-136780234D01*
X252387638Y-136771545D01*
X252431750Y-136767200D01*
X252520250Y-136767200D01*
X252564362Y-136771545D01*
X252564362Y-136771545D01*
G37*
G36*
X221576362Y-136771545D02*
X221664588Y-136780234D01*
X221777789Y-136814573D01*
X221834390Y-136831743D01*
X221877595Y-136854837D01*
X221990879Y-136915389D01*
X222026609Y-136944712D01*
X222128044Y-137027956D01*
X222211288Y-137129391D01*
X222240611Y-137165121D01*
X222240612Y-137165123D01*
X222324257Y-137321610D01*
X222324257Y-137321611D01*
X222375766Y-137491412D01*
X222393158Y-137668000D01*
X222375766Y-137844588D01*
X222360728Y-137894160D01*
X222324257Y-138014390D01*
X222250178Y-138152980D01*
X222240611Y-138170879D01*
X222211288Y-138206609D01*
X222128044Y-138308044D01*
X222026609Y-138391288D01*
X221990879Y-138420611D01*
X221990877Y-138420612D01*
X221834390Y-138504257D01*
X221791679Y-138517213D01*
X221664588Y-138555766D01*
X221576362Y-138564455D01*
X221532250Y-138568800D01*
X221443750Y-138568800D01*
X221399638Y-138564455D01*
X221311412Y-138555766D01*
X221184321Y-138517213D01*
X221141610Y-138504257D01*
X220985123Y-138420612D01*
X220985121Y-138420611D01*
X220949391Y-138391288D01*
X220847956Y-138308044D01*
X220764712Y-138206609D01*
X220735389Y-138170879D01*
X220725822Y-138152980D01*
X220651743Y-138014390D01*
X220615272Y-137894160D01*
X220600234Y-137844588D01*
X220582842Y-137668000D01*
X220600234Y-137491412D01*
X220651743Y-137321611D01*
X220651743Y-137321610D01*
X220735388Y-137165123D01*
X220735389Y-137165121D01*
X220764712Y-137129391D01*
X220847956Y-137027956D01*
X220949391Y-136944712D01*
X220985121Y-136915389D01*
X221098405Y-136854837D01*
X221141610Y-136831743D01*
X221198211Y-136814573D01*
X221311412Y-136780234D01*
X221399638Y-136771545D01*
X221443750Y-136767200D01*
X221532250Y-136767200D01*
X221576362Y-136771545D01*
X221576362Y-136771545D01*
G37*
G36*
X219036362Y-136771545D02*
X219124588Y-136780234D01*
X219237789Y-136814573D01*
X219294390Y-136831743D01*
X219337595Y-136854837D01*
X219450879Y-136915389D01*
X219486609Y-136944712D01*
X219588044Y-137027956D01*
X219671288Y-137129391D01*
X219700611Y-137165121D01*
X219700612Y-137165123D01*
X219784257Y-137321610D01*
X219784257Y-137321611D01*
X219835766Y-137491412D01*
X219853158Y-137668000D01*
X219835766Y-137844588D01*
X219820728Y-137894160D01*
X219784257Y-138014390D01*
X219710178Y-138152980D01*
X219700611Y-138170879D01*
X219671288Y-138206609D01*
X219588044Y-138308044D01*
X219486609Y-138391288D01*
X219450879Y-138420611D01*
X219450877Y-138420612D01*
X219294390Y-138504257D01*
X219251679Y-138517213D01*
X219124588Y-138555766D01*
X219036362Y-138564455D01*
X218992250Y-138568800D01*
X218903750Y-138568800D01*
X218859638Y-138564455D01*
X218771412Y-138555766D01*
X218644321Y-138517213D01*
X218601610Y-138504257D01*
X218445123Y-138420612D01*
X218445121Y-138420611D01*
X218409391Y-138391288D01*
X218307956Y-138308044D01*
X218224712Y-138206609D01*
X218195389Y-138170879D01*
X218185822Y-138152980D01*
X218111743Y-138014390D01*
X218075272Y-137894160D01*
X218060234Y-137844588D01*
X218042842Y-137668000D01*
X218060234Y-137491412D01*
X218111743Y-137321611D01*
X218111743Y-137321610D01*
X218195388Y-137165123D01*
X218195389Y-137165121D01*
X218224712Y-137129391D01*
X218307956Y-137027956D01*
X218409391Y-136944712D01*
X218445121Y-136915389D01*
X218558405Y-136854837D01*
X218601610Y-136831743D01*
X218658211Y-136814573D01*
X218771412Y-136780234D01*
X218859638Y-136771545D01*
X218903750Y-136767200D01*
X218992250Y-136767200D01*
X219036362Y-136771545D01*
X219036362Y-136771545D01*
G37*
G36*
X243928362Y-136771545D02*
X244016588Y-136780234D01*
X244129789Y-136814573D01*
X244186390Y-136831743D01*
X244229595Y-136854837D01*
X244342879Y-136915389D01*
X244378609Y-136944712D01*
X244480044Y-137027956D01*
X244563288Y-137129391D01*
X244592611Y-137165121D01*
X244592612Y-137165123D01*
X244676257Y-137321610D01*
X244676257Y-137321611D01*
X244727766Y-137491412D01*
X244745158Y-137668000D01*
X244727766Y-137844588D01*
X244712728Y-137894160D01*
X244676257Y-138014390D01*
X244602178Y-138152980D01*
X244592611Y-138170879D01*
X244563288Y-138206609D01*
X244480044Y-138308044D01*
X244378609Y-138391288D01*
X244342879Y-138420611D01*
X244342877Y-138420612D01*
X244186390Y-138504257D01*
X244143679Y-138517213D01*
X244016588Y-138555766D01*
X243928362Y-138564455D01*
X243884250Y-138568800D01*
X243795750Y-138568800D01*
X243751638Y-138564455D01*
X243663412Y-138555766D01*
X243536321Y-138517213D01*
X243493610Y-138504257D01*
X243337123Y-138420612D01*
X243337121Y-138420611D01*
X243301391Y-138391288D01*
X243199956Y-138308044D01*
X243116712Y-138206609D01*
X243087389Y-138170879D01*
X243077822Y-138152980D01*
X243003743Y-138014390D01*
X242967272Y-137894160D01*
X242952234Y-137844588D01*
X242934842Y-137668000D01*
X242952234Y-137491412D01*
X243003743Y-137321611D01*
X243003743Y-137321610D01*
X243087388Y-137165123D01*
X243087389Y-137165121D01*
X243116712Y-137129391D01*
X243199956Y-137027956D01*
X243301391Y-136944712D01*
X243337121Y-136915389D01*
X243450405Y-136854837D01*
X243493610Y-136831743D01*
X243550211Y-136814573D01*
X243663412Y-136780234D01*
X243751638Y-136771545D01*
X243795750Y-136767200D01*
X243884250Y-136767200D01*
X243928362Y-136771545D01*
X243928362Y-136771545D01*
G37*
G36*
X263564787Y-135305510D02*
X263725160Y-135354160D01*
X263725162Y-135354161D01*
X263872966Y-135433163D01*
X264002517Y-135539483D01*
X264108837Y-135669034D01*
X264161758Y-135768044D01*
X264187840Y-135816840D01*
X264236490Y-135977213D01*
X264252916Y-136144000D01*
X264236490Y-136310787D01*
X264187840Y-136471160D01*
X264187839Y-136471162D01*
X264108837Y-136618966D01*
X264002517Y-136748517D01*
X263872966Y-136854837D01*
X263725162Y-136933839D01*
X263725160Y-136933840D01*
X263564787Y-136982490D01*
X263439794Y-136994800D01*
X263356206Y-136994800D01*
X263231213Y-136982490D01*
X263070840Y-136933840D01*
X263070838Y-136933839D01*
X262923034Y-136854837D01*
X262793483Y-136748517D01*
X262687163Y-136618966D01*
X262608161Y-136471162D01*
X262608160Y-136471160D01*
X262559510Y-136310787D01*
X262543084Y-136144000D01*
X262559510Y-135977213D01*
X262608160Y-135816840D01*
X262634242Y-135768044D01*
X262687163Y-135669034D01*
X262793483Y-135539483D01*
X262923034Y-135433163D01*
X263070838Y-135354161D01*
X263070840Y-135354160D01*
X263231213Y-135305510D01*
X263356206Y-135293200D01*
X263439794Y-135293200D01*
X263564787Y-135305510D01*
X263564787Y-135305510D01*
G37*
G36*
X215304787Y-135305510D02*
X215465160Y-135354160D01*
X215465162Y-135354161D01*
X215612966Y-135433163D01*
X215742517Y-135539483D01*
X215848837Y-135669034D01*
X215901758Y-135768044D01*
X215927840Y-135816840D01*
X215976490Y-135977213D01*
X215992916Y-136144000D01*
X215976490Y-136310787D01*
X215927840Y-136471160D01*
X215927839Y-136471162D01*
X215848837Y-136618966D01*
X215742517Y-136748517D01*
X215612966Y-136854837D01*
X215465162Y-136933839D01*
X215465160Y-136933840D01*
X215304787Y-136982490D01*
X215179794Y-136994800D01*
X215096206Y-136994800D01*
X214971213Y-136982490D01*
X214810840Y-136933840D01*
X214810838Y-136933839D01*
X214663034Y-136854837D01*
X214533483Y-136748517D01*
X214427163Y-136618966D01*
X214348161Y-136471162D01*
X214348160Y-136471160D01*
X214299510Y-136310787D01*
X214283084Y-136144000D01*
X214299510Y-135977213D01*
X214348160Y-135816840D01*
X214374242Y-135768044D01*
X214427163Y-135669034D01*
X214533483Y-135539483D01*
X214663034Y-135433163D01*
X214810838Y-135354161D01*
X214810840Y-135354160D01*
X214971213Y-135305510D01*
X215096206Y-135293200D01*
X215179794Y-135293200D01*
X215304787Y-135305510D01*
X215304787Y-135305510D01*
G37*
G36*
X252564362Y-134231545D02*
X252652588Y-134240234D01*
X252765789Y-134274573D01*
X252822390Y-134291743D01*
X252865595Y-134314837D01*
X252978879Y-134375389D01*
X253014609Y-134404712D01*
X253116044Y-134487956D01*
X253199288Y-134589391D01*
X253228611Y-134625121D01*
X253228612Y-134625123D01*
X253312257Y-134781610D01*
X253312257Y-134781611D01*
X253363766Y-134951412D01*
X253381158Y-135128000D01*
X253363766Y-135304588D01*
X253348728Y-135354160D01*
X253312257Y-135474390D01*
X253238178Y-135612980D01*
X253228611Y-135630879D01*
X253199288Y-135666609D01*
X253116044Y-135768044D01*
X253014609Y-135851288D01*
X252978879Y-135880611D01*
X252978877Y-135880612D01*
X252822390Y-135964257D01*
X252779679Y-135977213D01*
X252652588Y-136015766D01*
X252564362Y-136024455D01*
X252520250Y-136028800D01*
X252431750Y-136028800D01*
X252387638Y-136024455D01*
X252299412Y-136015766D01*
X252172321Y-135977213D01*
X252129610Y-135964257D01*
X251973123Y-135880612D01*
X251973121Y-135880611D01*
X251937391Y-135851288D01*
X251835956Y-135768044D01*
X251752712Y-135666609D01*
X251723389Y-135630879D01*
X251713822Y-135612980D01*
X251639743Y-135474390D01*
X251603272Y-135354160D01*
X251588234Y-135304588D01*
X251570842Y-135128000D01*
X251588234Y-134951412D01*
X251639743Y-134781611D01*
X251639743Y-134781610D01*
X251723388Y-134625123D01*
X251723389Y-134625121D01*
X251752712Y-134589391D01*
X251835956Y-134487956D01*
X251937391Y-134404712D01*
X251973121Y-134375389D01*
X252086405Y-134314837D01*
X252129610Y-134291743D01*
X252186211Y-134274573D01*
X252299412Y-134240234D01*
X252387638Y-134231545D01*
X252431750Y-134227200D01*
X252520250Y-134227200D01*
X252564362Y-134231545D01*
X252564362Y-134231545D01*
G37*
G36*
X241388362Y-134231545D02*
X241476588Y-134240234D01*
X241589789Y-134274573D01*
X241646390Y-134291743D01*
X241689595Y-134314837D01*
X241802879Y-134375389D01*
X241838609Y-134404712D01*
X241940044Y-134487956D01*
X242023288Y-134589391D01*
X242052611Y-134625121D01*
X242052612Y-134625123D01*
X242136257Y-134781610D01*
X242136257Y-134781611D01*
X242187766Y-134951412D01*
X242205158Y-135128000D01*
X242187766Y-135304588D01*
X242172728Y-135354160D01*
X242136257Y-135474390D01*
X242062178Y-135612980D01*
X242052611Y-135630879D01*
X242023288Y-135666609D01*
X241940044Y-135768044D01*
X241838609Y-135851288D01*
X241802879Y-135880611D01*
X241802877Y-135880612D01*
X241646390Y-135964257D01*
X241603679Y-135977213D01*
X241476588Y-136015766D01*
X241388362Y-136024455D01*
X241344250Y-136028800D01*
X241255750Y-136028800D01*
X241211638Y-136024455D01*
X241123412Y-136015766D01*
X240996321Y-135977213D01*
X240953610Y-135964257D01*
X240797123Y-135880612D01*
X240797121Y-135880611D01*
X240761391Y-135851288D01*
X240659956Y-135768044D01*
X240576712Y-135666609D01*
X240547389Y-135630879D01*
X240537822Y-135612980D01*
X240463743Y-135474390D01*
X240427272Y-135354160D01*
X240412234Y-135304588D01*
X240394842Y-135128000D01*
X240412234Y-134951412D01*
X240463743Y-134781611D01*
X240463743Y-134781610D01*
X240547388Y-134625123D01*
X240547389Y-134625121D01*
X240576712Y-134589391D01*
X240659956Y-134487956D01*
X240761391Y-134404712D01*
X240797121Y-134375389D01*
X240910405Y-134314837D01*
X240953610Y-134291743D01*
X241010211Y-134274573D01*
X241123412Y-134240234D01*
X241211638Y-134231545D01*
X241255750Y-134227200D01*
X241344250Y-134227200D01*
X241388362Y-134231545D01*
X241388362Y-134231545D01*
G37*
G36*
X243928362Y-134231545D02*
X244016588Y-134240234D01*
X244129789Y-134274573D01*
X244186390Y-134291743D01*
X244229595Y-134314837D01*
X244342879Y-134375389D01*
X244378609Y-134404712D01*
X244480044Y-134487956D01*
X244563288Y-134589391D01*
X244592611Y-134625121D01*
X244592612Y-134625123D01*
X244676257Y-134781610D01*
X244676257Y-134781611D01*
X244727766Y-134951412D01*
X244745158Y-135128000D01*
X244727766Y-135304588D01*
X244712728Y-135354160D01*
X244676257Y-135474390D01*
X244602178Y-135612980D01*
X244592611Y-135630879D01*
X244563288Y-135666609D01*
X244480044Y-135768044D01*
X244378609Y-135851288D01*
X244342879Y-135880611D01*
X244342877Y-135880612D01*
X244186390Y-135964257D01*
X244143679Y-135977213D01*
X244016588Y-136015766D01*
X243928362Y-136024455D01*
X243884250Y-136028800D01*
X243795750Y-136028800D01*
X243751638Y-136024455D01*
X243663412Y-136015766D01*
X243536321Y-135977213D01*
X243493610Y-135964257D01*
X243337123Y-135880612D01*
X243337121Y-135880611D01*
X243301391Y-135851288D01*
X243199956Y-135768044D01*
X243116712Y-135666609D01*
X243087389Y-135630879D01*
X243077822Y-135612980D01*
X243003743Y-135474390D01*
X242967272Y-135354160D01*
X242952234Y-135304588D01*
X242934842Y-135128000D01*
X242952234Y-134951412D01*
X243003743Y-134781611D01*
X243003743Y-134781610D01*
X243087388Y-134625123D01*
X243087389Y-134625121D01*
X243116712Y-134589391D01*
X243199956Y-134487956D01*
X243301391Y-134404712D01*
X243337121Y-134375389D01*
X243450405Y-134314837D01*
X243493610Y-134291743D01*
X243550211Y-134274573D01*
X243663412Y-134240234D01*
X243751638Y-134231545D01*
X243795750Y-134227200D01*
X243884250Y-134227200D01*
X243928362Y-134231545D01*
X243928362Y-134231545D01*
G37*
G36*
X255104362Y-134231545D02*
X255192588Y-134240234D01*
X255305789Y-134274573D01*
X255362390Y-134291743D01*
X255405595Y-134314837D01*
X255518879Y-134375389D01*
X255554609Y-134404712D01*
X255656044Y-134487956D01*
X255739288Y-134589391D01*
X255768611Y-134625121D01*
X255768612Y-134625123D01*
X255852257Y-134781610D01*
X255852257Y-134781611D01*
X255903766Y-134951412D01*
X255921158Y-135128000D01*
X255903766Y-135304588D01*
X255888728Y-135354160D01*
X255852257Y-135474390D01*
X255778178Y-135612980D01*
X255768611Y-135630879D01*
X255739288Y-135666609D01*
X255656044Y-135768044D01*
X255554609Y-135851288D01*
X255518879Y-135880611D01*
X255518877Y-135880612D01*
X255362390Y-135964257D01*
X255319679Y-135977213D01*
X255192588Y-136015766D01*
X255104362Y-136024455D01*
X255060250Y-136028800D01*
X254971750Y-136028800D01*
X254927638Y-136024455D01*
X254839412Y-136015766D01*
X254712321Y-135977213D01*
X254669610Y-135964257D01*
X254513123Y-135880612D01*
X254513121Y-135880611D01*
X254477391Y-135851288D01*
X254375956Y-135768044D01*
X254292712Y-135666609D01*
X254263389Y-135630879D01*
X254253822Y-135612980D01*
X254179743Y-135474390D01*
X254143272Y-135354160D01*
X254128234Y-135304588D01*
X254110842Y-135128000D01*
X254128234Y-134951412D01*
X254179743Y-134781611D01*
X254179743Y-134781610D01*
X254263388Y-134625123D01*
X254263389Y-134625121D01*
X254292712Y-134589391D01*
X254375956Y-134487956D01*
X254477391Y-134404712D01*
X254513121Y-134375389D01*
X254626405Y-134314837D01*
X254669610Y-134291743D01*
X254726211Y-134274573D01*
X254839412Y-134240234D01*
X254927638Y-134231545D01*
X254971750Y-134227200D01*
X255060250Y-134227200D01*
X255104362Y-134231545D01*
X255104362Y-134231545D01*
G37*
G36*
X221576362Y-134231545D02*
X221664588Y-134240234D01*
X221777789Y-134274573D01*
X221834390Y-134291743D01*
X221877595Y-134314837D01*
X221990879Y-134375389D01*
X222026609Y-134404712D01*
X222128044Y-134487956D01*
X222211288Y-134589391D01*
X222240611Y-134625121D01*
X222240612Y-134625123D01*
X222324257Y-134781610D01*
X222324257Y-134781611D01*
X222375766Y-134951412D01*
X222393158Y-135128000D01*
X222375766Y-135304588D01*
X222360728Y-135354160D01*
X222324257Y-135474390D01*
X222250178Y-135612980D01*
X222240611Y-135630879D01*
X222211288Y-135666609D01*
X222128044Y-135768044D01*
X222026609Y-135851288D01*
X221990879Y-135880611D01*
X221990877Y-135880612D01*
X221834390Y-135964257D01*
X221791679Y-135977213D01*
X221664588Y-136015766D01*
X221576362Y-136024455D01*
X221532250Y-136028800D01*
X221443750Y-136028800D01*
X221399638Y-136024455D01*
X221311412Y-136015766D01*
X221184321Y-135977213D01*
X221141610Y-135964257D01*
X220985123Y-135880612D01*
X220985121Y-135880611D01*
X220949391Y-135851288D01*
X220847956Y-135768044D01*
X220764712Y-135666609D01*
X220735389Y-135630879D01*
X220725822Y-135612980D01*
X220651743Y-135474390D01*
X220615272Y-135354160D01*
X220600234Y-135304588D01*
X220582842Y-135128000D01*
X220600234Y-134951412D01*
X220651743Y-134781611D01*
X220651743Y-134781610D01*
X220735388Y-134625123D01*
X220735389Y-134625121D01*
X220764712Y-134589391D01*
X220847956Y-134487956D01*
X220949391Y-134404712D01*
X220985121Y-134375389D01*
X221098405Y-134314837D01*
X221141610Y-134291743D01*
X221198211Y-134274573D01*
X221311412Y-134240234D01*
X221399638Y-134231545D01*
X221443750Y-134227200D01*
X221532250Y-134227200D01*
X221576362Y-134231545D01*
X221576362Y-134231545D01*
G37*
G36*
X219036362Y-134231545D02*
X219124588Y-134240234D01*
X219237789Y-134274573D01*
X219294390Y-134291743D01*
X219337595Y-134314837D01*
X219450879Y-134375389D01*
X219486609Y-134404712D01*
X219588044Y-134487956D01*
X219671288Y-134589391D01*
X219700611Y-134625121D01*
X219700612Y-134625123D01*
X219784257Y-134781610D01*
X219784257Y-134781611D01*
X219835766Y-134951412D01*
X219853158Y-135128000D01*
X219835766Y-135304588D01*
X219820728Y-135354160D01*
X219784257Y-135474390D01*
X219710178Y-135612980D01*
X219700611Y-135630879D01*
X219671288Y-135666609D01*
X219588044Y-135768044D01*
X219486609Y-135851288D01*
X219450879Y-135880611D01*
X219450877Y-135880612D01*
X219294390Y-135964257D01*
X219251679Y-135977213D01*
X219124588Y-136015766D01*
X219036362Y-136024455D01*
X218992250Y-136028800D01*
X218903750Y-136028800D01*
X218859638Y-136024455D01*
X218771412Y-136015766D01*
X218644321Y-135977213D01*
X218601610Y-135964257D01*
X218445123Y-135880612D01*
X218445121Y-135880611D01*
X218409391Y-135851288D01*
X218307956Y-135768044D01*
X218224712Y-135666609D01*
X218195389Y-135630879D01*
X218185822Y-135612980D01*
X218111743Y-135474390D01*
X218075272Y-135354160D01*
X218060234Y-135304588D01*
X218042842Y-135128000D01*
X218060234Y-134951412D01*
X218111743Y-134781611D01*
X218111743Y-134781610D01*
X218195388Y-134625123D01*
X218195389Y-134625121D01*
X218224712Y-134589391D01*
X218307956Y-134487956D01*
X218409391Y-134404712D01*
X218445121Y-134375389D01*
X218558405Y-134314837D01*
X218601610Y-134291743D01*
X218658211Y-134274573D01*
X218771412Y-134240234D01*
X218859638Y-134231545D01*
X218903750Y-134227200D01*
X218992250Y-134227200D01*
X219036362Y-134231545D01*
X219036362Y-134231545D01*
G37*
G36*
X232752362Y-134231545D02*
X232840588Y-134240234D01*
X232953789Y-134274573D01*
X233010390Y-134291743D01*
X233053595Y-134314837D01*
X233166879Y-134375389D01*
X233202609Y-134404712D01*
X233304044Y-134487956D01*
X233387288Y-134589391D01*
X233416611Y-134625121D01*
X233416612Y-134625123D01*
X233500257Y-134781610D01*
X233500257Y-134781611D01*
X233551766Y-134951412D01*
X233569158Y-135128000D01*
X233551766Y-135304588D01*
X233536728Y-135354160D01*
X233500257Y-135474390D01*
X233426178Y-135612980D01*
X233416611Y-135630879D01*
X233387288Y-135666609D01*
X233304044Y-135768044D01*
X233202609Y-135851288D01*
X233166879Y-135880611D01*
X233166877Y-135880612D01*
X233010390Y-135964257D01*
X232967679Y-135977213D01*
X232840588Y-136015766D01*
X232752362Y-136024455D01*
X232708250Y-136028800D01*
X232619750Y-136028800D01*
X232575638Y-136024455D01*
X232487412Y-136015766D01*
X232360321Y-135977213D01*
X232317610Y-135964257D01*
X232161123Y-135880612D01*
X232161121Y-135880611D01*
X232125391Y-135851288D01*
X232023956Y-135768044D01*
X231940712Y-135666609D01*
X231911389Y-135630879D01*
X231901822Y-135612980D01*
X231827743Y-135474390D01*
X231791272Y-135354160D01*
X231776234Y-135304588D01*
X231758842Y-135128000D01*
X231776234Y-134951412D01*
X231827743Y-134781611D01*
X231827743Y-134781610D01*
X231911388Y-134625123D01*
X231911389Y-134625121D01*
X231940712Y-134589391D01*
X232023956Y-134487956D01*
X232125391Y-134404712D01*
X232161121Y-134375389D01*
X232274405Y-134314837D01*
X232317610Y-134291743D01*
X232374211Y-134274573D01*
X232487412Y-134240234D01*
X232575638Y-134231545D01*
X232619750Y-134227200D01*
X232708250Y-134227200D01*
X232752362Y-134231545D01*
X232752362Y-134231545D01*
G37*
G36*
X230212362Y-134231545D02*
X230300588Y-134240234D01*
X230413789Y-134274573D01*
X230470390Y-134291743D01*
X230513595Y-134314837D01*
X230626879Y-134375389D01*
X230662609Y-134404712D01*
X230764044Y-134487956D01*
X230847288Y-134589391D01*
X230876611Y-134625121D01*
X230876612Y-134625123D01*
X230960257Y-134781610D01*
X230960257Y-134781611D01*
X231011766Y-134951412D01*
X231029158Y-135128000D01*
X231011766Y-135304588D01*
X230996728Y-135354160D01*
X230960257Y-135474390D01*
X230886178Y-135612980D01*
X230876611Y-135630879D01*
X230847288Y-135666609D01*
X230764044Y-135768044D01*
X230662609Y-135851288D01*
X230626879Y-135880611D01*
X230626877Y-135880612D01*
X230470390Y-135964257D01*
X230427679Y-135977213D01*
X230300588Y-136015766D01*
X230212362Y-136024455D01*
X230168250Y-136028800D01*
X230079750Y-136028800D01*
X230035638Y-136024455D01*
X229947412Y-136015766D01*
X229820321Y-135977213D01*
X229777610Y-135964257D01*
X229621123Y-135880612D01*
X229621121Y-135880611D01*
X229585391Y-135851288D01*
X229483956Y-135768044D01*
X229400712Y-135666609D01*
X229371389Y-135630879D01*
X229361822Y-135612980D01*
X229287743Y-135474390D01*
X229251272Y-135354160D01*
X229236234Y-135304588D01*
X229218842Y-135128000D01*
X229236234Y-134951412D01*
X229287743Y-134781611D01*
X229287743Y-134781610D01*
X229371388Y-134625123D01*
X229371389Y-134625121D01*
X229400712Y-134589391D01*
X229483956Y-134487956D01*
X229585391Y-134404712D01*
X229621121Y-134375389D01*
X229734405Y-134314837D01*
X229777610Y-134291743D01*
X229834211Y-134274573D01*
X229947412Y-134240234D01*
X230035638Y-134231545D01*
X230079750Y-134227200D01*
X230168250Y-134227200D01*
X230212362Y-134231545D01*
X230212362Y-134231545D01*
G37*
G36*
X215304787Y-132765510D02*
X215465160Y-132814160D01*
X215465162Y-132814161D01*
X215612966Y-132893163D01*
X215742517Y-132999483D01*
X215848837Y-133129034D01*
X215901758Y-133228044D01*
X215927840Y-133276840D01*
X215976490Y-133437213D01*
X215992916Y-133604000D01*
X215976490Y-133770787D01*
X215927840Y-133931160D01*
X215927839Y-133931162D01*
X215848837Y-134078966D01*
X215742517Y-134208517D01*
X215612966Y-134314837D01*
X215465162Y-134393839D01*
X215465160Y-134393840D01*
X215304787Y-134442490D01*
X215179794Y-134454800D01*
X215096206Y-134454800D01*
X214971213Y-134442490D01*
X214810840Y-134393840D01*
X214810838Y-134393839D01*
X214663034Y-134314837D01*
X214533483Y-134208517D01*
X214427163Y-134078966D01*
X214348161Y-133931162D01*
X214348160Y-133931160D01*
X214299510Y-133770787D01*
X214283084Y-133604000D01*
X214299510Y-133437213D01*
X214348160Y-133276840D01*
X214374242Y-133228044D01*
X214427163Y-133129034D01*
X214533483Y-132999483D01*
X214663034Y-132893163D01*
X214810838Y-132814161D01*
X214810840Y-132814160D01*
X214971213Y-132765510D01*
X215096206Y-132753200D01*
X215179794Y-132753200D01*
X215304787Y-132765510D01*
X215304787Y-132765510D01*
G37*
G36*
X263564787Y-132765510D02*
X263725160Y-132814160D01*
X263725162Y-132814161D01*
X263872966Y-132893163D01*
X264002517Y-132999483D01*
X264108837Y-133129034D01*
X264161758Y-133228044D01*
X264187840Y-133276840D01*
X264236490Y-133437213D01*
X264252916Y-133604000D01*
X264236490Y-133770787D01*
X264187840Y-133931160D01*
X264187839Y-133931162D01*
X264108837Y-134078966D01*
X264002517Y-134208517D01*
X263872966Y-134314837D01*
X263725162Y-134393839D01*
X263725160Y-134393840D01*
X263564787Y-134442490D01*
X263439794Y-134454800D01*
X263356206Y-134454800D01*
X263231213Y-134442490D01*
X263070840Y-134393840D01*
X263070838Y-134393839D01*
X262923034Y-134314837D01*
X262793483Y-134208517D01*
X262687163Y-134078966D01*
X262608161Y-133931162D01*
X262608160Y-133931160D01*
X262559510Y-133770787D01*
X262543084Y-133604000D01*
X262559510Y-133437213D01*
X262608160Y-133276840D01*
X262634242Y-133228044D01*
X262687163Y-133129034D01*
X262793483Y-132999483D01*
X262923034Y-132893163D01*
X263070838Y-132814161D01*
X263070840Y-132814160D01*
X263231213Y-132765510D01*
X263356206Y-132753200D01*
X263439794Y-132753200D01*
X263564787Y-132765510D01*
X263564787Y-132765510D01*
G37*
G36*
X221576362Y-131691545D02*
X221664588Y-131700234D01*
X221777789Y-131734573D01*
X221834390Y-131751743D01*
X221877595Y-131774837D01*
X221990879Y-131835389D01*
X222026609Y-131864712D01*
X222128044Y-131947956D01*
X222211288Y-132049391D01*
X222240611Y-132085121D01*
X222240612Y-132085123D01*
X222324257Y-132241610D01*
X222324257Y-132241611D01*
X222375766Y-132411412D01*
X222393158Y-132588000D01*
X222375766Y-132764588D01*
X222360728Y-132814160D01*
X222324257Y-132934390D01*
X222250178Y-133072980D01*
X222240611Y-133090879D01*
X222211288Y-133126609D01*
X222128044Y-133228044D01*
X222026609Y-133311288D01*
X221990879Y-133340611D01*
X221990877Y-133340612D01*
X221834390Y-133424257D01*
X221791679Y-133437213D01*
X221664588Y-133475766D01*
X221576362Y-133484455D01*
X221532250Y-133488800D01*
X221443750Y-133488800D01*
X221399638Y-133484455D01*
X221311412Y-133475766D01*
X221184321Y-133437213D01*
X221141610Y-133424257D01*
X220985123Y-133340612D01*
X220985121Y-133340611D01*
X220949391Y-133311288D01*
X220847956Y-133228044D01*
X220764712Y-133126609D01*
X220735389Y-133090879D01*
X220725822Y-133072980D01*
X220651743Y-132934390D01*
X220615272Y-132814160D01*
X220600234Y-132764588D01*
X220582842Y-132588000D01*
X220600234Y-132411412D01*
X220651743Y-132241611D01*
X220651743Y-132241610D01*
X220735388Y-132085123D01*
X220735389Y-132085121D01*
X220764712Y-132049391D01*
X220847956Y-131947956D01*
X220949391Y-131864712D01*
X220985121Y-131835389D01*
X221098405Y-131774837D01*
X221141610Y-131751743D01*
X221198211Y-131734573D01*
X221311412Y-131700234D01*
X221399638Y-131691545D01*
X221443750Y-131687200D01*
X221532250Y-131687200D01*
X221576362Y-131691545D01*
X221576362Y-131691545D01*
G37*
G36*
X219036362Y-131691545D02*
X219124588Y-131700234D01*
X219237789Y-131734573D01*
X219294390Y-131751743D01*
X219337595Y-131774837D01*
X219450879Y-131835389D01*
X219486609Y-131864712D01*
X219588044Y-131947956D01*
X219671288Y-132049391D01*
X219700611Y-132085121D01*
X219700612Y-132085123D01*
X219784257Y-132241610D01*
X219784257Y-132241611D01*
X219835766Y-132411412D01*
X219853158Y-132588000D01*
X219835766Y-132764588D01*
X219820728Y-132814160D01*
X219784257Y-132934390D01*
X219710178Y-133072980D01*
X219700611Y-133090879D01*
X219671288Y-133126609D01*
X219588044Y-133228044D01*
X219486609Y-133311288D01*
X219450879Y-133340611D01*
X219450877Y-133340612D01*
X219294390Y-133424257D01*
X219251679Y-133437213D01*
X219124588Y-133475766D01*
X219036362Y-133484455D01*
X218992250Y-133488800D01*
X218903750Y-133488800D01*
X218859638Y-133484455D01*
X218771412Y-133475766D01*
X218644321Y-133437213D01*
X218601610Y-133424257D01*
X218445123Y-133340612D01*
X218445121Y-133340611D01*
X218409391Y-133311288D01*
X218307956Y-133228044D01*
X218224712Y-133126609D01*
X218195389Y-133090879D01*
X218185822Y-133072980D01*
X218111743Y-132934390D01*
X218075272Y-132814160D01*
X218060234Y-132764588D01*
X218042842Y-132588000D01*
X218060234Y-132411412D01*
X218111743Y-132241611D01*
X218111743Y-132241610D01*
X218195388Y-132085123D01*
X218195389Y-132085121D01*
X218224712Y-132049391D01*
X218307956Y-131947956D01*
X218409391Y-131864712D01*
X218445121Y-131835389D01*
X218558405Y-131774837D01*
X218601610Y-131751743D01*
X218658211Y-131734573D01*
X218771412Y-131700234D01*
X218859638Y-131691545D01*
X218903750Y-131687200D01*
X218992250Y-131687200D01*
X219036362Y-131691545D01*
X219036362Y-131691545D01*
G37*
G36*
X230212362Y-131691545D02*
X230300588Y-131700234D01*
X230413789Y-131734573D01*
X230470390Y-131751743D01*
X230513595Y-131774837D01*
X230626879Y-131835389D01*
X230662609Y-131864712D01*
X230764044Y-131947956D01*
X230847288Y-132049391D01*
X230876611Y-132085121D01*
X230876612Y-132085123D01*
X230960257Y-132241610D01*
X230960257Y-132241611D01*
X231011766Y-132411412D01*
X231029158Y-132588000D01*
X231011766Y-132764588D01*
X230996728Y-132814160D01*
X230960257Y-132934390D01*
X230886178Y-133072980D01*
X230876611Y-133090879D01*
X230847288Y-133126609D01*
X230764044Y-133228044D01*
X230662609Y-133311288D01*
X230626879Y-133340611D01*
X230626877Y-133340612D01*
X230470390Y-133424257D01*
X230427679Y-133437213D01*
X230300588Y-133475766D01*
X230212362Y-133484455D01*
X230168250Y-133488800D01*
X230079750Y-133488800D01*
X230035638Y-133484455D01*
X229947412Y-133475766D01*
X229820321Y-133437213D01*
X229777610Y-133424257D01*
X229621123Y-133340612D01*
X229621121Y-133340611D01*
X229585391Y-133311288D01*
X229483956Y-133228044D01*
X229400712Y-133126609D01*
X229371389Y-133090879D01*
X229361822Y-133072980D01*
X229287743Y-132934390D01*
X229251272Y-132814160D01*
X229236234Y-132764588D01*
X229218842Y-132588000D01*
X229236234Y-132411412D01*
X229287743Y-132241611D01*
X229287743Y-132241610D01*
X229371388Y-132085123D01*
X229371389Y-132085121D01*
X229400712Y-132049391D01*
X229483956Y-131947956D01*
X229585391Y-131864712D01*
X229621121Y-131835389D01*
X229734405Y-131774837D01*
X229777610Y-131751743D01*
X229834211Y-131734573D01*
X229947412Y-131700234D01*
X230035638Y-131691545D01*
X230079750Y-131687200D01*
X230168250Y-131687200D01*
X230212362Y-131691545D01*
X230212362Y-131691545D01*
G37*
G36*
X243928362Y-131691545D02*
X244016588Y-131700234D01*
X244129789Y-131734573D01*
X244186390Y-131751743D01*
X244229595Y-131774837D01*
X244342879Y-131835389D01*
X244378609Y-131864712D01*
X244480044Y-131947956D01*
X244563288Y-132049391D01*
X244592611Y-132085121D01*
X244592612Y-132085123D01*
X244676257Y-132241610D01*
X244676257Y-132241611D01*
X244727766Y-132411412D01*
X244745158Y-132588000D01*
X244727766Y-132764588D01*
X244712728Y-132814160D01*
X244676257Y-132934390D01*
X244602178Y-133072980D01*
X244592611Y-133090879D01*
X244563288Y-133126609D01*
X244480044Y-133228044D01*
X244378609Y-133311288D01*
X244342879Y-133340611D01*
X244342877Y-133340612D01*
X244186390Y-133424257D01*
X244143679Y-133437213D01*
X244016588Y-133475766D01*
X243928362Y-133484455D01*
X243884250Y-133488800D01*
X243795750Y-133488800D01*
X243751638Y-133484455D01*
X243663412Y-133475766D01*
X243536321Y-133437213D01*
X243493610Y-133424257D01*
X243337123Y-133340612D01*
X243337121Y-133340611D01*
X243301391Y-133311288D01*
X243199956Y-133228044D01*
X243116712Y-133126609D01*
X243087389Y-133090879D01*
X243077822Y-133072980D01*
X243003743Y-132934390D01*
X242967272Y-132814160D01*
X242952234Y-132764588D01*
X242934842Y-132588000D01*
X242952234Y-132411412D01*
X243003743Y-132241611D01*
X243003743Y-132241610D01*
X243087388Y-132085123D01*
X243087389Y-132085121D01*
X243116712Y-132049391D01*
X243199956Y-131947956D01*
X243301391Y-131864712D01*
X243337121Y-131835389D01*
X243450405Y-131774837D01*
X243493610Y-131751743D01*
X243550211Y-131734573D01*
X243663412Y-131700234D01*
X243751638Y-131691545D01*
X243795750Y-131687200D01*
X243884250Y-131687200D01*
X243928362Y-131691545D01*
X243928362Y-131691545D01*
G37*
G36*
X241388362Y-131691545D02*
X241476588Y-131700234D01*
X241589789Y-131734573D01*
X241646390Y-131751743D01*
X241689595Y-131774837D01*
X241802879Y-131835389D01*
X241838609Y-131864712D01*
X241940044Y-131947956D01*
X242023288Y-132049391D01*
X242052611Y-132085121D01*
X242052612Y-132085123D01*
X242136257Y-132241610D01*
X242136257Y-132241611D01*
X242187766Y-132411412D01*
X242205158Y-132588000D01*
X242187766Y-132764588D01*
X242172728Y-132814160D01*
X242136257Y-132934390D01*
X242062178Y-133072980D01*
X242052611Y-133090879D01*
X242023288Y-133126609D01*
X241940044Y-133228044D01*
X241838609Y-133311288D01*
X241802879Y-133340611D01*
X241802877Y-133340612D01*
X241646390Y-133424257D01*
X241603679Y-133437213D01*
X241476588Y-133475766D01*
X241388362Y-133484455D01*
X241344250Y-133488800D01*
X241255750Y-133488800D01*
X241211638Y-133484455D01*
X241123412Y-133475766D01*
X240996321Y-133437213D01*
X240953610Y-133424257D01*
X240797123Y-133340612D01*
X240797121Y-133340611D01*
X240761391Y-133311288D01*
X240659956Y-133228044D01*
X240576712Y-133126609D01*
X240547389Y-133090879D01*
X240537822Y-133072980D01*
X240463743Y-132934390D01*
X240427272Y-132814160D01*
X240412234Y-132764588D01*
X240394842Y-132588000D01*
X240412234Y-132411412D01*
X240463743Y-132241611D01*
X240463743Y-132241610D01*
X240547388Y-132085123D01*
X240547389Y-132085121D01*
X240576712Y-132049391D01*
X240659956Y-131947956D01*
X240761391Y-131864712D01*
X240797121Y-131835389D01*
X240910405Y-131774837D01*
X240953610Y-131751743D01*
X241010211Y-131734573D01*
X241123412Y-131700234D01*
X241211638Y-131691545D01*
X241255750Y-131687200D01*
X241344250Y-131687200D01*
X241388362Y-131691545D01*
X241388362Y-131691545D01*
G37*
G36*
X232752362Y-131691545D02*
X232840588Y-131700234D01*
X232953789Y-131734573D01*
X233010390Y-131751743D01*
X233053595Y-131774837D01*
X233166879Y-131835389D01*
X233202609Y-131864712D01*
X233304044Y-131947956D01*
X233387288Y-132049391D01*
X233416611Y-132085121D01*
X233416612Y-132085123D01*
X233500257Y-132241610D01*
X233500257Y-132241611D01*
X233551766Y-132411412D01*
X233569158Y-132588000D01*
X233551766Y-132764588D01*
X233536728Y-132814160D01*
X233500257Y-132934390D01*
X233426178Y-133072980D01*
X233416611Y-133090879D01*
X233387288Y-133126609D01*
X233304044Y-133228044D01*
X233202609Y-133311288D01*
X233166879Y-133340611D01*
X233166877Y-133340612D01*
X233010390Y-133424257D01*
X232967679Y-133437213D01*
X232840588Y-133475766D01*
X232752362Y-133484455D01*
X232708250Y-133488800D01*
X232619750Y-133488800D01*
X232575638Y-133484455D01*
X232487412Y-133475766D01*
X232360321Y-133437213D01*
X232317610Y-133424257D01*
X232161123Y-133340612D01*
X232161121Y-133340611D01*
X232125391Y-133311288D01*
X232023956Y-133228044D01*
X231940712Y-133126609D01*
X231911389Y-133090879D01*
X231901822Y-133072980D01*
X231827743Y-132934390D01*
X231791272Y-132814160D01*
X231776234Y-132764588D01*
X231758842Y-132588000D01*
X231776234Y-132411412D01*
X231827743Y-132241611D01*
X231827743Y-132241610D01*
X231911388Y-132085123D01*
X231911389Y-132085121D01*
X231940712Y-132049391D01*
X232023956Y-131947956D01*
X232125391Y-131864712D01*
X232161121Y-131835389D01*
X232274405Y-131774837D01*
X232317610Y-131751743D01*
X232374211Y-131734573D01*
X232487412Y-131700234D01*
X232575638Y-131691545D01*
X232619750Y-131687200D01*
X232708250Y-131687200D01*
X232752362Y-131691545D01*
X232752362Y-131691545D01*
G37*
G36*
X252564362Y-131691545D02*
X252652588Y-131700234D01*
X252765789Y-131734573D01*
X252822390Y-131751743D01*
X252865595Y-131774837D01*
X252978879Y-131835389D01*
X253014609Y-131864712D01*
X253116044Y-131947956D01*
X253199288Y-132049391D01*
X253228611Y-132085121D01*
X253228612Y-132085123D01*
X253312257Y-132241610D01*
X253312257Y-132241611D01*
X253363766Y-132411412D01*
X253381158Y-132588000D01*
X253363766Y-132764588D01*
X253348728Y-132814160D01*
X253312257Y-132934390D01*
X253238178Y-133072980D01*
X253228611Y-133090879D01*
X253199288Y-133126609D01*
X253116044Y-133228044D01*
X253014609Y-133311288D01*
X252978879Y-133340611D01*
X252978877Y-133340612D01*
X252822390Y-133424257D01*
X252779679Y-133437213D01*
X252652588Y-133475766D01*
X252564362Y-133484455D01*
X252520250Y-133488800D01*
X252431750Y-133488800D01*
X252387638Y-133484455D01*
X252299412Y-133475766D01*
X252172321Y-133437213D01*
X252129610Y-133424257D01*
X251973123Y-133340612D01*
X251973121Y-133340611D01*
X251937391Y-133311288D01*
X251835956Y-133228044D01*
X251752712Y-133126609D01*
X251723389Y-133090879D01*
X251713822Y-133072980D01*
X251639743Y-132934390D01*
X251603272Y-132814160D01*
X251588234Y-132764588D01*
X251570842Y-132588000D01*
X251588234Y-132411412D01*
X251639743Y-132241611D01*
X251639743Y-132241610D01*
X251723388Y-132085123D01*
X251723389Y-132085121D01*
X251752712Y-132049391D01*
X251835956Y-131947956D01*
X251937391Y-131864712D01*
X251973121Y-131835389D01*
X252086405Y-131774837D01*
X252129610Y-131751743D01*
X252186211Y-131734573D01*
X252299412Y-131700234D01*
X252387638Y-131691545D01*
X252431750Y-131687200D01*
X252520250Y-131687200D01*
X252564362Y-131691545D01*
X252564362Y-131691545D01*
G37*
G36*
X255104362Y-131691545D02*
X255192588Y-131700234D01*
X255305789Y-131734573D01*
X255362390Y-131751743D01*
X255405595Y-131774837D01*
X255518879Y-131835389D01*
X255554609Y-131864712D01*
X255656044Y-131947956D01*
X255739288Y-132049391D01*
X255768611Y-132085121D01*
X255768612Y-132085123D01*
X255852257Y-132241610D01*
X255852257Y-132241611D01*
X255903766Y-132411412D01*
X255921158Y-132588000D01*
X255903766Y-132764588D01*
X255888728Y-132814160D01*
X255852257Y-132934390D01*
X255778178Y-133072980D01*
X255768611Y-133090879D01*
X255739288Y-133126609D01*
X255656044Y-133228044D01*
X255554609Y-133311288D01*
X255518879Y-133340611D01*
X255518877Y-133340612D01*
X255362390Y-133424257D01*
X255319679Y-133437213D01*
X255192588Y-133475766D01*
X255104362Y-133484455D01*
X255060250Y-133488800D01*
X254971750Y-133488800D01*
X254927638Y-133484455D01*
X254839412Y-133475766D01*
X254712321Y-133437213D01*
X254669610Y-133424257D01*
X254513123Y-133340612D01*
X254513121Y-133340611D01*
X254477391Y-133311288D01*
X254375956Y-133228044D01*
X254292712Y-133126609D01*
X254263389Y-133090879D01*
X254253822Y-133072980D01*
X254179743Y-132934390D01*
X254143272Y-132814160D01*
X254128234Y-132764588D01*
X254110842Y-132588000D01*
X254128234Y-132411412D01*
X254179743Y-132241611D01*
X254179743Y-132241610D01*
X254263388Y-132085123D01*
X254263389Y-132085121D01*
X254292712Y-132049391D01*
X254375956Y-131947956D01*
X254477391Y-131864712D01*
X254513121Y-131835389D01*
X254626405Y-131774837D01*
X254669610Y-131751743D01*
X254726211Y-131734573D01*
X254839412Y-131700234D01*
X254927638Y-131691545D01*
X254971750Y-131687200D01*
X255060250Y-131687200D01*
X255104362Y-131691545D01*
X255104362Y-131691545D01*
G37*
G36*
X215304787Y-130225510D02*
X215465160Y-130274160D01*
X215465162Y-130274161D01*
X215612966Y-130353163D01*
X215742517Y-130459483D01*
X215848837Y-130589034D01*
X215901758Y-130688044D01*
X215927840Y-130736840D01*
X215976490Y-130897213D01*
X215992916Y-131064000D01*
X215976490Y-131230787D01*
X215927840Y-131391160D01*
X215927839Y-131391162D01*
X215848837Y-131538966D01*
X215742517Y-131668517D01*
X215612966Y-131774837D01*
X215465162Y-131853839D01*
X215465160Y-131853840D01*
X215304787Y-131902490D01*
X215179794Y-131914800D01*
X215096206Y-131914800D01*
X214971213Y-131902490D01*
X214810840Y-131853840D01*
X214810838Y-131853839D01*
X214663034Y-131774837D01*
X214533483Y-131668517D01*
X214427163Y-131538966D01*
X214348161Y-131391162D01*
X214348160Y-131391160D01*
X214299510Y-131230787D01*
X214283084Y-131064000D01*
X214299510Y-130897213D01*
X214348160Y-130736840D01*
X214374242Y-130688044D01*
X214427163Y-130589034D01*
X214533483Y-130459483D01*
X214663034Y-130353163D01*
X214810838Y-130274161D01*
X214810840Y-130274160D01*
X214971213Y-130225510D01*
X215096206Y-130213200D01*
X215179794Y-130213200D01*
X215304787Y-130225510D01*
X215304787Y-130225510D01*
G37*
G36*
X263564787Y-130225510D02*
X263725160Y-130274160D01*
X263725162Y-130274161D01*
X263872966Y-130353163D01*
X264002517Y-130459483D01*
X264108837Y-130589034D01*
X264161758Y-130688044D01*
X264187840Y-130736840D01*
X264236490Y-130897213D01*
X264252916Y-131064000D01*
X264236490Y-131230787D01*
X264187840Y-131391160D01*
X264187839Y-131391162D01*
X264108837Y-131538966D01*
X264002517Y-131668517D01*
X263872966Y-131774837D01*
X263725162Y-131853839D01*
X263725160Y-131853840D01*
X263564787Y-131902490D01*
X263439794Y-131914800D01*
X263356206Y-131914800D01*
X263231213Y-131902490D01*
X263070840Y-131853840D01*
X263070838Y-131853839D01*
X262923034Y-131774837D01*
X262793483Y-131668517D01*
X262687163Y-131538966D01*
X262608161Y-131391162D01*
X262608160Y-131391160D01*
X262559510Y-131230787D01*
X262543084Y-131064000D01*
X262559510Y-130897213D01*
X262608160Y-130736840D01*
X262634242Y-130688044D01*
X262687163Y-130589034D01*
X262793483Y-130459483D01*
X262923034Y-130353163D01*
X263070838Y-130274161D01*
X263070840Y-130274160D01*
X263231213Y-130225510D01*
X263356206Y-130213200D01*
X263439794Y-130213200D01*
X263564787Y-130225510D01*
X263564787Y-130225510D01*
G37*
G36*
X221576362Y-129151545D02*
X221664588Y-129160234D01*
X221777789Y-129194573D01*
X221834390Y-129211743D01*
X221877595Y-129234837D01*
X221990879Y-129295389D01*
X222026609Y-129324712D01*
X222128044Y-129407956D01*
X222211288Y-129509391D01*
X222240611Y-129545121D01*
X222240612Y-129545123D01*
X222324257Y-129701610D01*
X222324257Y-129701611D01*
X222375766Y-129871412D01*
X222393158Y-130048000D01*
X222375766Y-130224588D01*
X222360728Y-130274160D01*
X222324257Y-130394390D01*
X222250178Y-130532980D01*
X222240611Y-130550879D01*
X222211288Y-130586609D01*
X222128044Y-130688044D01*
X222026609Y-130771288D01*
X221990879Y-130800611D01*
X221990877Y-130800612D01*
X221834390Y-130884257D01*
X221791679Y-130897213D01*
X221664588Y-130935766D01*
X221576362Y-130944455D01*
X221532250Y-130948800D01*
X221443750Y-130948800D01*
X221399638Y-130944455D01*
X221311412Y-130935766D01*
X221184321Y-130897213D01*
X221141610Y-130884257D01*
X220985123Y-130800612D01*
X220985121Y-130800611D01*
X220949391Y-130771288D01*
X220847956Y-130688044D01*
X220764712Y-130586609D01*
X220735389Y-130550879D01*
X220725822Y-130532980D01*
X220651743Y-130394390D01*
X220615272Y-130274160D01*
X220600234Y-130224588D01*
X220582842Y-130048000D01*
X220600234Y-129871412D01*
X220651743Y-129701611D01*
X220651743Y-129701610D01*
X220735388Y-129545123D01*
X220735389Y-129545121D01*
X220764712Y-129509391D01*
X220847956Y-129407956D01*
X220949391Y-129324712D01*
X220985121Y-129295389D01*
X221098405Y-129234837D01*
X221141610Y-129211743D01*
X221198211Y-129194573D01*
X221311412Y-129160234D01*
X221399638Y-129151545D01*
X221443750Y-129147200D01*
X221532250Y-129147200D01*
X221576362Y-129151545D01*
X221576362Y-129151545D01*
G37*
G36*
X219036362Y-129151545D02*
X219124588Y-129160234D01*
X219237789Y-129194573D01*
X219294390Y-129211743D01*
X219337595Y-129234837D01*
X219450879Y-129295389D01*
X219486609Y-129324712D01*
X219588044Y-129407956D01*
X219671288Y-129509391D01*
X219700611Y-129545121D01*
X219700612Y-129545123D01*
X219784257Y-129701610D01*
X219784257Y-129701611D01*
X219835766Y-129871412D01*
X219853158Y-130048000D01*
X219835766Y-130224588D01*
X219820728Y-130274160D01*
X219784257Y-130394390D01*
X219710178Y-130532980D01*
X219700611Y-130550879D01*
X219671288Y-130586609D01*
X219588044Y-130688044D01*
X219486609Y-130771288D01*
X219450879Y-130800611D01*
X219450877Y-130800612D01*
X219294390Y-130884257D01*
X219251679Y-130897213D01*
X219124588Y-130935766D01*
X219036362Y-130944455D01*
X218992250Y-130948800D01*
X218903750Y-130948800D01*
X218859638Y-130944455D01*
X218771412Y-130935766D01*
X218644321Y-130897213D01*
X218601610Y-130884257D01*
X218445123Y-130800612D01*
X218445121Y-130800611D01*
X218409391Y-130771288D01*
X218307956Y-130688044D01*
X218224712Y-130586609D01*
X218195389Y-130550879D01*
X218185822Y-130532980D01*
X218111743Y-130394390D01*
X218075272Y-130274160D01*
X218060234Y-130224588D01*
X218042842Y-130048000D01*
X218060234Y-129871412D01*
X218111743Y-129701611D01*
X218111743Y-129701610D01*
X218195388Y-129545123D01*
X218195389Y-129545121D01*
X218224712Y-129509391D01*
X218307956Y-129407956D01*
X218409391Y-129324712D01*
X218445121Y-129295389D01*
X218558405Y-129234837D01*
X218601610Y-129211743D01*
X218658211Y-129194573D01*
X218771412Y-129160234D01*
X218859638Y-129151545D01*
X218903750Y-129147200D01*
X218992250Y-129147200D01*
X219036362Y-129151545D01*
X219036362Y-129151545D01*
G37*
G36*
X255104362Y-129151545D02*
X255192588Y-129160234D01*
X255305789Y-129194573D01*
X255362390Y-129211743D01*
X255405595Y-129234837D01*
X255518879Y-129295389D01*
X255554609Y-129324712D01*
X255656044Y-129407956D01*
X255739288Y-129509391D01*
X255768611Y-129545121D01*
X255768612Y-129545123D01*
X255852257Y-129701610D01*
X255852257Y-129701611D01*
X255903766Y-129871412D01*
X255921158Y-130048000D01*
X255903766Y-130224588D01*
X255888728Y-130274160D01*
X255852257Y-130394390D01*
X255778178Y-130532980D01*
X255768611Y-130550879D01*
X255739288Y-130586609D01*
X255656044Y-130688044D01*
X255554609Y-130771288D01*
X255518879Y-130800611D01*
X255518877Y-130800612D01*
X255362390Y-130884257D01*
X255319679Y-130897213D01*
X255192588Y-130935766D01*
X255104362Y-130944455D01*
X255060250Y-130948800D01*
X254971750Y-130948800D01*
X254927638Y-130944455D01*
X254839412Y-130935766D01*
X254712321Y-130897213D01*
X254669610Y-130884257D01*
X254513123Y-130800612D01*
X254513121Y-130800611D01*
X254477391Y-130771288D01*
X254375956Y-130688044D01*
X254292712Y-130586609D01*
X254263389Y-130550879D01*
X254253822Y-130532980D01*
X254179743Y-130394390D01*
X254143272Y-130274160D01*
X254128234Y-130224588D01*
X254110842Y-130048000D01*
X254128234Y-129871412D01*
X254179743Y-129701611D01*
X254179743Y-129701610D01*
X254263388Y-129545123D01*
X254263389Y-129545121D01*
X254292712Y-129509391D01*
X254375956Y-129407956D01*
X254477391Y-129324712D01*
X254513121Y-129295389D01*
X254626405Y-129234837D01*
X254669610Y-129211743D01*
X254726211Y-129194573D01*
X254839412Y-129160234D01*
X254927638Y-129151545D01*
X254971750Y-129147200D01*
X255060250Y-129147200D01*
X255104362Y-129151545D01*
X255104362Y-129151545D01*
G37*
G36*
X252564362Y-129151545D02*
X252652588Y-129160234D01*
X252765789Y-129194573D01*
X252822390Y-129211743D01*
X252865595Y-129234837D01*
X252978879Y-129295389D01*
X253014609Y-129324712D01*
X253116044Y-129407956D01*
X253199288Y-129509391D01*
X253228611Y-129545121D01*
X253228612Y-129545123D01*
X253312257Y-129701610D01*
X253312257Y-129701611D01*
X253363766Y-129871412D01*
X253381158Y-130048000D01*
X253363766Y-130224588D01*
X253348728Y-130274160D01*
X253312257Y-130394390D01*
X253238178Y-130532980D01*
X253228611Y-130550879D01*
X253199288Y-130586609D01*
X253116044Y-130688044D01*
X253014609Y-130771288D01*
X252978879Y-130800611D01*
X252978877Y-130800612D01*
X252822390Y-130884257D01*
X252779679Y-130897213D01*
X252652588Y-130935766D01*
X252564362Y-130944455D01*
X252520250Y-130948800D01*
X252431750Y-130948800D01*
X252387638Y-130944455D01*
X252299412Y-130935766D01*
X252172321Y-130897213D01*
X252129610Y-130884257D01*
X251973123Y-130800612D01*
X251973121Y-130800611D01*
X251937391Y-130771288D01*
X251835956Y-130688044D01*
X251752712Y-130586609D01*
X251723389Y-130550879D01*
X251713822Y-130532980D01*
X251639743Y-130394390D01*
X251603272Y-130274160D01*
X251588234Y-130224588D01*
X251570842Y-130048000D01*
X251588234Y-129871412D01*
X251639743Y-129701611D01*
X251639743Y-129701610D01*
X251723388Y-129545123D01*
X251723389Y-129545121D01*
X251752712Y-129509391D01*
X251835956Y-129407956D01*
X251937391Y-129324712D01*
X251973121Y-129295389D01*
X252086405Y-129234837D01*
X252129610Y-129211743D01*
X252186211Y-129194573D01*
X252299412Y-129160234D01*
X252387638Y-129151545D01*
X252431750Y-129147200D01*
X252520250Y-129147200D01*
X252564362Y-129151545D01*
X252564362Y-129151545D01*
G37*
G36*
X232752362Y-129151545D02*
X232840588Y-129160234D01*
X232953789Y-129194573D01*
X233010390Y-129211743D01*
X233053595Y-129234837D01*
X233166879Y-129295389D01*
X233202609Y-129324712D01*
X233304044Y-129407956D01*
X233387288Y-129509391D01*
X233416611Y-129545121D01*
X233416612Y-129545123D01*
X233500257Y-129701610D01*
X233500257Y-129701611D01*
X233551766Y-129871412D01*
X233569158Y-130048000D01*
X233551766Y-130224588D01*
X233536728Y-130274160D01*
X233500257Y-130394390D01*
X233426178Y-130532980D01*
X233416611Y-130550879D01*
X233387288Y-130586609D01*
X233304044Y-130688044D01*
X233202609Y-130771288D01*
X233166879Y-130800611D01*
X233166877Y-130800612D01*
X233010390Y-130884257D01*
X232967679Y-130897213D01*
X232840588Y-130935766D01*
X232752362Y-130944455D01*
X232708250Y-130948800D01*
X232619750Y-130948800D01*
X232575638Y-130944455D01*
X232487412Y-130935766D01*
X232360321Y-130897213D01*
X232317610Y-130884257D01*
X232161123Y-130800612D01*
X232161121Y-130800611D01*
X232125391Y-130771288D01*
X232023956Y-130688044D01*
X231940712Y-130586609D01*
X231911389Y-130550879D01*
X231901822Y-130532980D01*
X231827743Y-130394390D01*
X231791272Y-130274160D01*
X231776234Y-130224588D01*
X231758842Y-130048000D01*
X231776234Y-129871412D01*
X231827743Y-129701611D01*
X231827743Y-129701610D01*
X231911388Y-129545123D01*
X231911389Y-129545121D01*
X231940712Y-129509391D01*
X232023956Y-129407956D01*
X232125391Y-129324712D01*
X232161121Y-129295389D01*
X232274405Y-129234837D01*
X232317610Y-129211743D01*
X232374211Y-129194573D01*
X232487412Y-129160234D01*
X232575638Y-129151545D01*
X232619750Y-129147200D01*
X232708250Y-129147200D01*
X232752362Y-129151545D01*
X232752362Y-129151545D01*
G37*
G36*
X243928362Y-129151545D02*
X244016588Y-129160234D01*
X244129789Y-129194573D01*
X244186390Y-129211743D01*
X244229595Y-129234837D01*
X244342879Y-129295389D01*
X244378609Y-129324712D01*
X244480044Y-129407956D01*
X244563288Y-129509391D01*
X244592611Y-129545121D01*
X244592612Y-129545123D01*
X244676257Y-129701610D01*
X244676257Y-129701611D01*
X244727766Y-129871412D01*
X244745158Y-130048000D01*
X244727766Y-130224588D01*
X244712728Y-130274160D01*
X244676257Y-130394390D01*
X244602178Y-130532980D01*
X244592611Y-130550879D01*
X244563288Y-130586609D01*
X244480044Y-130688044D01*
X244378609Y-130771288D01*
X244342879Y-130800611D01*
X244342877Y-130800612D01*
X244186390Y-130884257D01*
X244143679Y-130897213D01*
X244016588Y-130935766D01*
X243928362Y-130944455D01*
X243884250Y-130948800D01*
X243795750Y-130948800D01*
X243751638Y-130944455D01*
X243663412Y-130935766D01*
X243536321Y-130897213D01*
X243493610Y-130884257D01*
X243337123Y-130800612D01*
X243337121Y-130800611D01*
X243301391Y-130771288D01*
X243199956Y-130688044D01*
X243116712Y-130586609D01*
X243087389Y-130550879D01*
X243077822Y-130532980D01*
X243003743Y-130394390D01*
X242967272Y-130274160D01*
X242952234Y-130224588D01*
X242934842Y-130048000D01*
X242952234Y-129871412D01*
X243003743Y-129701611D01*
X243003743Y-129701610D01*
X243087388Y-129545123D01*
X243087389Y-129545121D01*
X243116712Y-129509391D01*
X243199956Y-129407956D01*
X243301391Y-129324712D01*
X243337121Y-129295389D01*
X243450405Y-129234837D01*
X243493610Y-129211743D01*
X243550211Y-129194573D01*
X243663412Y-129160234D01*
X243751638Y-129151545D01*
X243795750Y-129147200D01*
X243884250Y-129147200D01*
X243928362Y-129151545D01*
X243928362Y-129151545D01*
G37*
G36*
X230212362Y-129151545D02*
X230300588Y-129160234D01*
X230413789Y-129194573D01*
X230470390Y-129211743D01*
X230513595Y-129234837D01*
X230626879Y-129295389D01*
X230662609Y-129324712D01*
X230764044Y-129407956D01*
X230847288Y-129509391D01*
X230876611Y-129545121D01*
X230876612Y-129545123D01*
X230960257Y-129701610D01*
X230960257Y-129701611D01*
X231011766Y-129871412D01*
X231029158Y-130048000D01*
X231011766Y-130224588D01*
X230996728Y-130274160D01*
X230960257Y-130394390D01*
X230886178Y-130532980D01*
X230876611Y-130550879D01*
X230847288Y-130586609D01*
X230764044Y-130688044D01*
X230662609Y-130771288D01*
X230626879Y-130800611D01*
X230626877Y-130800612D01*
X230470390Y-130884257D01*
X230427679Y-130897213D01*
X230300588Y-130935766D01*
X230212362Y-130944455D01*
X230168250Y-130948800D01*
X230079750Y-130948800D01*
X230035638Y-130944455D01*
X229947412Y-130935766D01*
X229820321Y-130897213D01*
X229777610Y-130884257D01*
X229621123Y-130800612D01*
X229621121Y-130800611D01*
X229585391Y-130771288D01*
X229483956Y-130688044D01*
X229400712Y-130586609D01*
X229371389Y-130550879D01*
X229361822Y-130532980D01*
X229287743Y-130394390D01*
X229251272Y-130274160D01*
X229236234Y-130224588D01*
X229218842Y-130048000D01*
X229236234Y-129871412D01*
X229287743Y-129701611D01*
X229287743Y-129701610D01*
X229371388Y-129545123D01*
X229371389Y-129545121D01*
X229400712Y-129509391D01*
X229483956Y-129407956D01*
X229585391Y-129324712D01*
X229621121Y-129295389D01*
X229734405Y-129234837D01*
X229777610Y-129211743D01*
X229834211Y-129194573D01*
X229947412Y-129160234D01*
X230035638Y-129151545D01*
X230079750Y-129147200D01*
X230168250Y-129147200D01*
X230212362Y-129151545D01*
X230212362Y-129151545D01*
G37*
G36*
X241388362Y-129151545D02*
X241476588Y-129160234D01*
X241589789Y-129194573D01*
X241646390Y-129211743D01*
X241689595Y-129234837D01*
X241802879Y-129295389D01*
X241838609Y-129324712D01*
X241940044Y-129407956D01*
X242023288Y-129509391D01*
X242052611Y-129545121D01*
X242052612Y-129545123D01*
X242136257Y-129701610D01*
X242136257Y-129701611D01*
X242187766Y-129871412D01*
X242205158Y-130048000D01*
X242187766Y-130224588D01*
X242172728Y-130274160D01*
X242136257Y-130394390D01*
X242062178Y-130532980D01*
X242052611Y-130550879D01*
X242023288Y-130586609D01*
X241940044Y-130688044D01*
X241838609Y-130771288D01*
X241802879Y-130800611D01*
X241802877Y-130800612D01*
X241646390Y-130884257D01*
X241603679Y-130897213D01*
X241476588Y-130935766D01*
X241388362Y-130944455D01*
X241344250Y-130948800D01*
X241255750Y-130948800D01*
X241211638Y-130944455D01*
X241123412Y-130935766D01*
X240996321Y-130897213D01*
X240953610Y-130884257D01*
X240797123Y-130800612D01*
X240797121Y-130800611D01*
X240761391Y-130771288D01*
X240659956Y-130688044D01*
X240576712Y-130586609D01*
X240547389Y-130550879D01*
X240537822Y-130532980D01*
X240463743Y-130394390D01*
X240427272Y-130274160D01*
X240412234Y-130224588D01*
X240394842Y-130048000D01*
X240412234Y-129871412D01*
X240463743Y-129701611D01*
X240463743Y-129701610D01*
X240547388Y-129545123D01*
X240547389Y-129545121D01*
X240576712Y-129509391D01*
X240659956Y-129407956D01*
X240761391Y-129324712D01*
X240797121Y-129295389D01*
X240910405Y-129234837D01*
X240953610Y-129211743D01*
X241010211Y-129194573D01*
X241123412Y-129160234D01*
X241211638Y-129151545D01*
X241255750Y-129147200D01*
X241344250Y-129147200D01*
X241388362Y-129151545D01*
X241388362Y-129151545D01*
G37*
G36*
X263564787Y-127685510D02*
X263725160Y-127734160D01*
X263725162Y-127734161D01*
X263872966Y-127813163D01*
X264002517Y-127919483D01*
X264108837Y-128049034D01*
X264161758Y-128148044D01*
X264187840Y-128196840D01*
X264236490Y-128357213D01*
X264252916Y-128524000D01*
X264236490Y-128690787D01*
X264187840Y-128851160D01*
X264187839Y-128851162D01*
X264108837Y-128998966D01*
X264002517Y-129128517D01*
X263872966Y-129234837D01*
X263725162Y-129313839D01*
X263725160Y-129313840D01*
X263564787Y-129362490D01*
X263439794Y-129374800D01*
X263356206Y-129374800D01*
X263231213Y-129362490D01*
X263070840Y-129313840D01*
X263070838Y-129313839D01*
X262923034Y-129234837D01*
X262793483Y-129128517D01*
X262687163Y-128998966D01*
X262608161Y-128851162D01*
X262608160Y-128851160D01*
X262559510Y-128690787D01*
X262543084Y-128524000D01*
X262559510Y-128357213D01*
X262608160Y-128196840D01*
X262634242Y-128148044D01*
X262687163Y-128049034D01*
X262793483Y-127919483D01*
X262923034Y-127813163D01*
X263070838Y-127734161D01*
X263070840Y-127734160D01*
X263231213Y-127685510D01*
X263356206Y-127673200D01*
X263439794Y-127673200D01*
X263564787Y-127685510D01*
X263564787Y-127685510D01*
G37*
G36*
X241388362Y-126611545D02*
X241476588Y-126620234D01*
X241589789Y-126654573D01*
X241646390Y-126671743D01*
X241689595Y-126694837D01*
X241802879Y-126755389D01*
X241838609Y-126784712D01*
X241940044Y-126867956D01*
X242023288Y-126969391D01*
X242052611Y-127005121D01*
X242052612Y-127005123D01*
X242136257Y-127161610D01*
X242136257Y-127161611D01*
X242187766Y-127331412D01*
X242205158Y-127508000D01*
X242187766Y-127684588D01*
X242172728Y-127734160D01*
X242136257Y-127854390D01*
X242062178Y-127992980D01*
X242052611Y-128010879D01*
X242023288Y-128046609D01*
X241940044Y-128148044D01*
X241838609Y-128231288D01*
X241802879Y-128260611D01*
X241802877Y-128260612D01*
X241646390Y-128344257D01*
X241603679Y-128357213D01*
X241476588Y-128395766D01*
X241388362Y-128404455D01*
X241344250Y-128408800D01*
X241255750Y-128408800D01*
X241211638Y-128404455D01*
X241123412Y-128395766D01*
X240996321Y-128357213D01*
X240953610Y-128344257D01*
X240797123Y-128260612D01*
X240797121Y-128260611D01*
X240761391Y-128231288D01*
X240659956Y-128148044D01*
X240576712Y-128046609D01*
X240547389Y-128010879D01*
X240537822Y-127992980D01*
X240463743Y-127854390D01*
X240427272Y-127734160D01*
X240412234Y-127684588D01*
X240394842Y-127508000D01*
X240412234Y-127331412D01*
X240463743Y-127161611D01*
X240463743Y-127161610D01*
X240547388Y-127005123D01*
X240547389Y-127005121D01*
X240576712Y-126969391D01*
X240659956Y-126867956D01*
X240761391Y-126784712D01*
X240797121Y-126755389D01*
X240910405Y-126694837D01*
X240953610Y-126671743D01*
X241010211Y-126654573D01*
X241123412Y-126620234D01*
X241211638Y-126611545D01*
X241255750Y-126607200D01*
X241344250Y-126607200D01*
X241388362Y-126611545D01*
X241388362Y-126611545D01*
G37*
G36*
X219036362Y-126611545D02*
X219124588Y-126620234D01*
X219237789Y-126654573D01*
X219294390Y-126671743D01*
X219337595Y-126694837D01*
X219450879Y-126755389D01*
X219486609Y-126784712D01*
X219588044Y-126867956D01*
X219671288Y-126969391D01*
X219700611Y-127005121D01*
X219700612Y-127005123D01*
X219784257Y-127161610D01*
X219784257Y-127161611D01*
X219835766Y-127331412D01*
X219853158Y-127508000D01*
X219835766Y-127684588D01*
X219820728Y-127734160D01*
X219784257Y-127854390D01*
X219710178Y-127992980D01*
X219700611Y-128010879D01*
X219671288Y-128046609D01*
X219588044Y-128148044D01*
X219486609Y-128231288D01*
X219450879Y-128260611D01*
X219450877Y-128260612D01*
X219294390Y-128344257D01*
X219251679Y-128357213D01*
X219124588Y-128395766D01*
X219036362Y-128404455D01*
X218992250Y-128408800D01*
X218903750Y-128408800D01*
X218859638Y-128404455D01*
X218771412Y-128395766D01*
X218644321Y-128357213D01*
X218601610Y-128344257D01*
X218445123Y-128260612D01*
X218445121Y-128260611D01*
X218409391Y-128231288D01*
X218307956Y-128148044D01*
X218224712Y-128046609D01*
X218195389Y-128010879D01*
X218185822Y-127992980D01*
X218111743Y-127854390D01*
X218075272Y-127734160D01*
X218060234Y-127684588D01*
X218042842Y-127508000D01*
X218060234Y-127331412D01*
X218111743Y-127161611D01*
X218111743Y-127161610D01*
X218195388Y-127005123D01*
X218195389Y-127005121D01*
X218224712Y-126969391D01*
X218307956Y-126867956D01*
X218409391Y-126784712D01*
X218445121Y-126755389D01*
X218558405Y-126694837D01*
X218601610Y-126671743D01*
X218658211Y-126654573D01*
X218771412Y-126620234D01*
X218859638Y-126611545D01*
X218903750Y-126607200D01*
X218992250Y-126607200D01*
X219036362Y-126611545D01*
X219036362Y-126611545D01*
G37*
G36*
X221576362Y-126611545D02*
X221664588Y-126620234D01*
X221777789Y-126654573D01*
X221834390Y-126671743D01*
X221877595Y-126694837D01*
X221990879Y-126755389D01*
X222026609Y-126784712D01*
X222128044Y-126867956D01*
X222211288Y-126969391D01*
X222240611Y-127005121D01*
X222240612Y-127005123D01*
X222324257Y-127161610D01*
X222324257Y-127161611D01*
X222375766Y-127331412D01*
X222393158Y-127508000D01*
X222375766Y-127684588D01*
X222360728Y-127734160D01*
X222324257Y-127854390D01*
X222250178Y-127992980D01*
X222240611Y-128010879D01*
X222211288Y-128046609D01*
X222128044Y-128148044D01*
X222026609Y-128231288D01*
X221990879Y-128260611D01*
X221990877Y-128260612D01*
X221834390Y-128344257D01*
X221791679Y-128357213D01*
X221664588Y-128395766D01*
X221576362Y-128404455D01*
X221532250Y-128408800D01*
X221443750Y-128408800D01*
X221399638Y-128404455D01*
X221311412Y-128395766D01*
X221184321Y-128357213D01*
X221141610Y-128344257D01*
X220985123Y-128260612D01*
X220985121Y-128260611D01*
X220949391Y-128231288D01*
X220847956Y-128148044D01*
X220764712Y-128046609D01*
X220735389Y-128010879D01*
X220725822Y-127992980D01*
X220651743Y-127854390D01*
X220615272Y-127734160D01*
X220600234Y-127684588D01*
X220582842Y-127508000D01*
X220600234Y-127331412D01*
X220651743Y-127161611D01*
X220651743Y-127161610D01*
X220735388Y-127005123D01*
X220735389Y-127005121D01*
X220764712Y-126969391D01*
X220847956Y-126867956D01*
X220949391Y-126784712D01*
X220985121Y-126755389D01*
X221098405Y-126694837D01*
X221141610Y-126671743D01*
X221198211Y-126654573D01*
X221311412Y-126620234D01*
X221399638Y-126611545D01*
X221443750Y-126607200D01*
X221532250Y-126607200D01*
X221576362Y-126611545D01*
X221576362Y-126611545D01*
G37*
G36*
X230212362Y-126611545D02*
X230300588Y-126620234D01*
X230413789Y-126654573D01*
X230470390Y-126671743D01*
X230513595Y-126694837D01*
X230626879Y-126755389D01*
X230662609Y-126784712D01*
X230764044Y-126867956D01*
X230847288Y-126969391D01*
X230876611Y-127005121D01*
X230876612Y-127005123D01*
X230960257Y-127161610D01*
X230960257Y-127161611D01*
X231011766Y-127331412D01*
X231029158Y-127508000D01*
X231011766Y-127684588D01*
X230996728Y-127734160D01*
X230960257Y-127854390D01*
X230886178Y-127992980D01*
X230876611Y-128010879D01*
X230847288Y-128046609D01*
X230764044Y-128148044D01*
X230662609Y-128231288D01*
X230626879Y-128260611D01*
X230626877Y-128260612D01*
X230470390Y-128344257D01*
X230427679Y-128357213D01*
X230300588Y-128395766D01*
X230212362Y-128404455D01*
X230168250Y-128408800D01*
X230079750Y-128408800D01*
X230035638Y-128404455D01*
X229947412Y-128395766D01*
X229820321Y-128357213D01*
X229777610Y-128344257D01*
X229621123Y-128260612D01*
X229621121Y-128260611D01*
X229585391Y-128231288D01*
X229483956Y-128148044D01*
X229400712Y-128046609D01*
X229371389Y-128010879D01*
X229361822Y-127992980D01*
X229287743Y-127854390D01*
X229251272Y-127734160D01*
X229236234Y-127684588D01*
X229218842Y-127508000D01*
X229236234Y-127331412D01*
X229287743Y-127161611D01*
X229287743Y-127161610D01*
X229371388Y-127005123D01*
X229371389Y-127005121D01*
X229400712Y-126969391D01*
X229483956Y-126867956D01*
X229585391Y-126784712D01*
X229621121Y-126755389D01*
X229734405Y-126694837D01*
X229777610Y-126671743D01*
X229834211Y-126654573D01*
X229947412Y-126620234D01*
X230035638Y-126611545D01*
X230079750Y-126607200D01*
X230168250Y-126607200D01*
X230212362Y-126611545D01*
X230212362Y-126611545D01*
G37*
G36*
X232752362Y-126611545D02*
X232840588Y-126620234D01*
X232953789Y-126654573D01*
X233010390Y-126671743D01*
X233053595Y-126694837D01*
X233166879Y-126755389D01*
X233202609Y-126784712D01*
X233304044Y-126867956D01*
X233387288Y-126969391D01*
X233416611Y-127005121D01*
X233416612Y-127005123D01*
X233500257Y-127161610D01*
X233500257Y-127161611D01*
X233551766Y-127331412D01*
X233569158Y-127508000D01*
X233551766Y-127684588D01*
X233536728Y-127734160D01*
X233500257Y-127854390D01*
X233426178Y-127992980D01*
X233416611Y-128010879D01*
X233387288Y-128046609D01*
X233304044Y-128148044D01*
X233202609Y-128231288D01*
X233166879Y-128260611D01*
X233166877Y-128260612D01*
X233010390Y-128344257D01*
X232967679Y-128357213D01*
X232840588Y-128395766D01*
X232752362Y-128404455D01*
X232708250Y-128408800D01*
X232619750Y-128408800D01*
X232575638Y-128404455D01*
X232487412Y-128395766D01*
X232360321Y-128357213D01*
X232317610Y-128344257D01*
X232161123Y-128260612D01*
X232161121Y-128260611D01*
X232125391Y-128231288D01*
X232023956Y-128148044D01*
X231940712Y-128046609D01*
X231911389Y-128010879D01*
X231901822Y-127992980D01*
X231827743Y-127854390D01*
X231791272Y-127734160D01*
X231776234Y-127684588D01*
X231758842Y-127508000D01*
X231776234Y-127331412D01*
X231827743Y-127161611D01*
X231827743Y-127161610D01*
X231911388Y-127005123D01*
X231911389Y-127005121D01*
X231940712Y-126969391D01*
X232023956Y-126867956D01*
X232125391Y-126784712D01*
X232161121Y-126755389D01*
X232274405Y-126694837D01*
X232317610Y-126671743D01*
X232374211Y-126654573D01*
X232487412Y-126620234D01*
X232575638Y-126611545D01*
X232619750Y-126607200D01*
X232708250Y-126607200D01*
X232752362Y-126611545D01*
X232752362Y-126611545D01*
G37*
G36*
X243928362Y-126611545D02*
X244016588Y-126620234D01*
X244129789Y-126654573D01*
X244186390Y-126671743D01*
X244229595Y-126694837D01*
X244342879Y-126755389D01*
X244378609Y-126784712D01*
X244480044Y-126867956D01*
X244563288Y-126969391D01*
X244592611Y-127005121D01*
X244592612Y-127005123D01*
X244676257Y-127161610D01*
X244676257Y-127161611D01*
X244727766Y-127331412D01*
X244745158Y-127508000D01*
X244727766Y-127684588D01*
X244712728Y-127734160D01*
X244676257Y-127854390D01*
X244602178Y-127992980D01*
X244592611Y-128010879D01*
X244563288Y-128046609D01*
X244480044Y-128148044D01*
X244378609Y-128231288D01*
X244342879Y-128260611D01*
X244342877Y-128260612D01*
X244186390Y-128344257D01*
X244143679Y-128357213D01*
X244016588Y-128395766D01*
X243928362Y-128404455D01*
X243884250Y-128408800D01*
X243795750Y-128408800D01*
X243751638Y-128404455D01*
X243663412Y-128395766D01*
X243536321Y-128357213D01*
X243493610Y-128344257D01*
X243337123Y-128260612D01*
X243337121Y-128260611D01*
X243301391Y-128231288D01*
X243199956Y-128148044D01*
X243116712Y-128046609D01*
X243087389Y-128010879D01*
X243077822Y-127992980D01*
X243003743Y-127854390D01*
X242967272Y-127734160D01*
X242952234Y-127684588D01*
X242934842Y-127508000D01*
X242952234Y-127331412D01*
X243003743Y-127161611D01*
X243003743Y-127161610D01*
X243087388Y-127005123D01*
X243087389Y-127005121D01*
X243116712Y-126969391D01*
X243199956Y-126867956D01*
X243301391Y-126784712D01*
X243337121Y-126755389D01*
X243450405Y-126694837D01*
X243493610Y-126671743D01*
X243550211Y-126654573D01*
X243663412Y-126620234D01*
X243751638Y-126611545D01*
X243795750Y-126607200D01*
X243884250Y-126607200D01*
X243928362Y-126611545D01*
X243928362Y-126611545D01*
G37*
G36*
X252564362Y-126611545D02*
X252652588Y-126620234D01*
X252765789Y-126654573D01*
X252822390Y-126671743D01*
X252865595Y-126694837D01*
X252978879Y-126755389D01*
X253014609Y-126784712D01*
X253116044Y-126867956D01*
X253199288Y-126969391D01*
X253228611Y-127005121D01*
X253228612Y-127005123D01*
X253312257Y-127161610D01*
X253312257Y-127161611D01*
X253363766Y-127331412D01*
X253381158Y-127508000D01*
X253363766Y-127684588D01*
X253348728Y-127734160D01*
X253312257Y-127854390D01*
X253238178Y-127992980D01*
X253228611Y-128010879D01*
X253199288Y-128046609D01*
X253116044Y-128148044D01*
X253014609Y-128231288D01*
X252978879Y-128260611D01*
X252978877Y-128260612D01*
X252822390Y-128344257D01*
X252779679Y-128357213D01*
X252652588Y-128395766D01*
X252564362Y-128404455D01*
X252520250Y-128408800D01*
X252431750Y-128408800D01*
X252387638Y-128404455D01*
X252299412Y-128395766D01*
X252172321Y-128357213D01*
X252129610Y-128344257D01*
X251973123Y-128260612D01*
X251973121Y-128260611D01*
X251937391Y-128231288D01*
X251835956Y-128148044D01*
X251752712Y-128046609D01*
X251723389Y-128010879D01*
X251713822Y-127992980D01*
X251639743Y-127854390D01*
X251603272Y-127734160D01*
X251588234Y-127684588D01*
X251570842Y-127508000D01*
X251588234Y-127331412D01*
X251639743Y-127161611D01*
X251639743Y-127161610D01*
X251723388Y-127005123D01*
X251723389Y-127005121D01*
X251752712Y-126969391D01*
X251835956Y-126867956D01*
X251937391Y-126784712D01*
X251973121Y-126755389D01*
X252086405Y-126694837D01*
X252129610Y-126671743D01*
X252186211Y-126654573D01*
X252299412Y-126620234D01*
X252387638Y-126611545D01*
X252431750Y-126607200D01*
X252520250Y-126607200D01*
X252564362Y-126611545D01*
X252564362Y-126611545D01*
G37*
G36*
X255104362Y-126611545D02*
X255192588Y-126620234D01*
X255305789Y-126654573D01*
X255362390Y-126671743D01*
X255405595Y-126694837D01*
X255518879Y-126755389D01*
X255554609Y-126784712D01*
X255656044Y-126867956D01*
X255739288Y-126969391D01*
X255768611Y-127005121D01*
X255768612Y-127005123D01*
X255852257Y-127161610D01*
X255852257Y-127161611D01*
X255903766Y-127331412D01*
X255921158Y-127508000D01*
X255903766Y-127684588D01*
X255888728Y-127734160D01*
X255852257Y-127854390D01*
X255778178Y-127992980D01*
X255768611Y-128010879D01*
X255739288Y-128046609D01*
X255656044Y-128148044D01*
X255554609Y-128231288D01*
X255518879Y-128260611D01*
X255518877Y-128260612D01*
X255362390Y-128344257D01*
X255319679Y-128357213D01*
X255192588Y-128395766D01*
X255104362Y-128404455D01*
X255060250Y-128408800D01*
X254971750Y-128408800D01*
X254927638Y-128404455D01*
X254839412Y-128395766D01*
X254712321Y-128357213D01*
X254669610Y-128344257D01*
X254513123Y-128260612D01*
X254513121Y-128260611D01*
X254477391Y-128231288D01*
X254375956Y-128148044D01*
X254292712Y-128046609D01*
X254263389Y-128010879D01*
X254253822Y-127992980D01*
X254179743Y-127854390D01*
X254143272Y-127734160D01*
X254128234Y-127684588D01*
X254110842Y-127508000D01*
X254128234Y-127331412D01*
X254179743Y-127161611D01*
X254179743Y-127161610D01*
X254263388Y-127005123D01*
X254263389Y-127005121D01*
X254292712Y-126969391D01*
X254375956Y-126867956D01*
X254477391Y-126784712D01*
X254513121Y-126755389D01*
X254626405Y-126694837D01*
X254669610Y-126671743D01*
X254726211Y-126654573D01*
X254839412Y-126620234D01*
X254927638Y-126611545D01*
X254971750Y-126607200D01*
X255060250Y-126607200D01*
X255104362Y-126611545D01*
X255104362Y-126611545D01*
G37*
G36*
X215304787Y-125145510D02*
X215465160Y-125194160D01*
X215465162Y-125194161D01*
X215612966Y-125273163D01*
X215742517Y-125379483D01*
X215848837Y-125509034D01*
X215901758Y-125608044D01*
X215927840Y-125656840D01*
X215976490Y-125817213D01*
X215992916Y-125984000D01*
X215976490Y-126150787D01*
X215927840Y-126311160D01*
X215927839Y-126311162D01*
X215848837Y-126458966D01*
X215742517Y-126588517D01*
X215612966Y-126694837D01*
X215465162Y-126773839D01*
X215465160Y-126773840D01*
X215304787Y-126822490D01*
X215179794Y-126834800D01*
X215096206Y-126834800D01*
X214971213Y-126822490D01*
X214810840Y-126773840D01*
X214810838Y-126773839D01*
X214663034Y-126694837D01*
X214533483Y-126588517D01*
X214427163Y-126458966D01*
X214348161Y-126311162D01*
X214348160Y-126311160D01*
X214299510Y-126150787D01*
X214283084Y-125984000D01*
X214299510Y-125817213D01*
X214348160Y-125656840D01*
X214374242Y-125608044D01*
X214427163Y-125509034D01*
X214533483Y-125379483D01*
X214663034Y-125273163D01*
X214810838Y-125194161D01*
X214810840Y-125194160D01*
X214971213Y-125145510D01*
X215096206Y-125133200D01*
X215179794Y-125133200D01*
X215304787Y-125145510D01*
X215304787Y-125145510D01*
G37*
G36*
X263564787Y-125145510D02*
X263725160Y-125194160D01*
X263725162Y-125194161D01*
X263872966Y-125273163D01*
X264002517Y-125379483D01*
X264108837Y-125509034D01*
X264161758Y-125608044D01*
X264187840Y-125656840D01*
X264236490Y-125817213D01*
X264252916Y-125984000D01*
X264236490Y-126150787D01*
X264187840Y-126311160D01*
X264187839Y-126311162D01*
X264108837Y-126458966D01*
X264002517Y-126588517D01*
X263872966Y-126694837D01*
X263725162Y-126773839D01*
X263725160Y-126773840D01*
X263564787Y-126822490D01*
X263439794Y-126834800D01*
X263356206Y-126834800D01*
X263231213Y-126822490D01*
X263070840Y-126773840D01*
X263070838Y-126773839D01*
X262923034Y-126694837D01*
X262793483Y-126588517D01*
X262687163Y-126458966D01*
X262608161Y-126311162D01*
X262608160Y-126311160D01*
X262559510Y-126150787D01*
X262543084Y-125984000D01*
X262559510Y-125817213D01*
X262608160Y-125656840D01*
X262634242Y-125608044D01*
X262687163Y-125509034D01*
X262793483Y-125379483D01*
X262923034Y-125273163D01*
X263070838Y-125194161D01*
X263070840Y-125194160D01*
X263231213Y-125145510D01*
X263356206Y-125133200D01*
X263439794Y-125133200D01*
X263564787Y-125145510D01*
X263564787Y-125145510D01*
G37*
G36*
X253376800Y-125868800D02*
X251575200Y-125868800D01*
X251575200Y-124067200D01*
X253376800Y-124067200D01*
X253376800Y-125868800D01*
X253376800Y-125868800D01*
G37*
G36*
X255104362Y-124071545D02*
X255192588Y-124080234D01*
X255305789Y-124114573D01*
X255362390Y-124131743D01*
X255405595Y-124154837D01*
X255518879Y-124215389D01*
X255554609Y-124244712D01*
X255656044Y-124327956D01*
X255739288Y-124429391D01*
X255768611Y-124465121D01*
X255768612Y-124465123D01*
X255852257Y-124621610D01*
X255852257Y-124621611D01*
X255903766Y-124791412D01*
X255921158Y-124968000D01*
X255903766Y-125144588D01*
X255888728Y-125194160D01*
X255852257Y-125314390D01*
X255778178Y-125452980D01*
X255768611Y-125470879D01*
X255739288Y-125506609D01*
X255656044Y-125608044D01*
X255554609Y-125691288D01*
X255518879Y-125720611D01*
X255518877Y-125720612D01*
X255362390Y-125804257D01*
X255319679Y-125817213D01*
X255192588Y-125855766D01*
X255104362Y-125864455D01*
X255060250Y-125868800D01*
X254971750Y-125868800D01*
X254927638Y-125864455D01*
X254839412Y-125855766D01*
X254712321Y-125817213D01*
X254669610Y-125804257D01*
X254513123Y-125720612D01*
X254513121Y-125720611D01*
X254477391Y-125691288D01*
X254375956Y-125608044D01*
X254292712Y-125506609D01*
X254263389Y-125470879D01*
X254253822Y-125452980D01*
X254179743Y-125314390D01*
X254143272Y-125194160D01*
X254128234Y-125144588D01*
X254110842Y-124968000D01*
X254128234Y-124791412D01*
X254179743Y-124621611D01*
X254179743Y-124621610D01*
X254263388Y-124465123D01*
X254263389Y-124465121D01*
X254292712Y-124429391D01*
X254375956Y-124327956D01*
X254477391Y-124244712D01*
X254513121Y-124215389D01*
X254626405Y-124154837D01*
X254669610Y-124131743D01*
X254726211Y-124114573D01*
X254839412Y-124080234D01*
X254927638Y-124071545D01*
X254971750Y-124067200D01*
X255060250Y-124067200D01*
X255104362Y-124071545D01*
X255104362Y-124071545D01*
G37*
G36*
X219848800Y-125868800D02*
X218047200Y-125868800D01*
X218047200Y-124067200D01*
X219848800Y-124067200D01*
X219848800Y-125868800D01*
X219848800Y-125868800D01*
G37*
G36*
X221576362Y-124071545D02*
X221664588Y-124080234D01*
X221777789Y-124114573D01*
X221834390Y-124131743D01*
X221877595Y-124154837D01*
X221990879Y-124215389D01*
X222026609Y-124244712D01*
X222128044Y-124327956D01*
X222211288Y-124429391D01*
X222240611Y-124465121D01*
X222240612Y-124465123D01*
X222324257Y-124621610D01*
X222324257Y-124621611D01*
X222375766Y-124791412D01*
X222393158Y-124968000D01*
X222375766Y-125144588D01*
X222360728Y-125194160D01*
X222324257Y-125314390D01*
X222250178Y-125452980D01*
X222240611Y-125470879D01*
X222211288Y-125506609D01*
X222128044Y-125608044D01*
X222026609Y-125691288D01*
X221990879Y-125720611D01*
X221990877Y-125720612D01*
X221834390Y-125804257D01*
X221791679Y-125817213D01*
X221664588Y-125855766D01*
X221576362Y-125864455D01*
X221532250Y-125868800D01*
X221443750Y-125868800D01*
X221399638Y-125864455D01*
X221311412Y-125855766D01*
X221184321Y-125817213D01*
X221141610Y-125804257D01*
X220985123Y-125720612D01*
X220985121Y-125720611D01*
X220949391Y-125691288D01*
X220847956Y-125608044D01*
X220764712Y-125506609D01*
X220735389Y-125470879D01*
X220725822Y-125452980D01*
X220651743Y-125314390D01*
X220615272Y-125194160D01*
X220600234Y-125144588D01*
X220582842Y-124968000D01*
X220600234Y-124791412D01*
X220651743Y-124621611D01*
X220651743Y-124621610D01*
X220735388Y-124465123D01*
X220735389Y-124465121D01*
X220764712Y-124429391D01*
X220847956Y-124327956D01*
X220949391Y-124244712D01*
X220985121Y-124215389D01*
X221098405Y-124154837D01*
X221141610Y-124131743D01*
X221198211Y-124114573D01*
X221311412Y-124080234D01*
X221399638Y-124071545D01*
X221443750Y-124067200D01*
X221532250Y-124067200D01*
X221576362Y-124071545D01*
X221576362Y-124071545D01*
G37*
G36*
X231024800Y-125868800D02*
X229223200Y-125868800D01*
X229223200Y-124067200D01*
X231024800Y-124067200D01*
X231024800Y-125868800D01*
X231024800Y-125868800D01*
G37*
G36*
X242200800Y-125868800D02*
X240399200Y-125868800D01*
X240399200Y-124067200D01*
X242200800Y-124067200D01*
X242200800Y-125868800D01*
X242200800Y-125868800D01*
G37*
G36*
X243928362Y-124071545D02*
X244016588Y-124080234D01*
X244129789Y-124114573D01*
X244186390Y-124131743D01*
X244229595Y-124154837D01*
X244342879Y-124215389D01*
X244378609Y-124244712D01*
X244480044Y-124327956D01*
X244563288Y-124429391D01*
X244592611Y-124465121D01*
X244592612Y-124465123D01*
X244676257Y-124621610D01*
X244676257Y-124621611D01*
X244727766Y-124791412D01*
X244745158Y-124968000D01*
X244727766Y-125144588D01*
X244712728Y-125194160D01*
X244676257Y-125314390D01*
X244602178Y-125452980D01*
X244592611Y-125470879D01*
X244563288Y-125506609D01*
X244480044Y-125608044D01*
X244378609Y-125691288D01*
X244342879Y-125720611D01*
X244342877Y-125720612D01*
X244186390Y-125804257D01*
X244143679Y-125817213D01*
X244016588Y-125855766D01*
X243928362Y-125864455D01*
X243884250Y-125868800D01*
X243795750Y-125868800D01*
X243751638Y-125864455D01*
X243663412Y-125855766D01*
X243536321Y-125817213D01*
X243493610Y-125804257D01*
X243337123Y-125720612D01*
X243337121Y-125720611D01*
X243301391Y-125691288D01*
X243199956Y-125608044D01*
X243116712Y-125506609D01*
X243087389Y-125470879D01*
X243077822Y-125452980D01*
X243003743Y-125314390D01*
X242967272Y-125194160D01*
X242952234Y-125144588D01*
X242934842Y-124968000D01*
X242952234Y-124791412D01*
X243003743Y-124621611D01*
X243003743Y-124621610D01*
X243087388Y-124465123D01*
X243087389Y-124465121D01*
X243116712Y-124429391D01*
X243199956Y-124327956D01*
X243301391Y-124244712D01*
X243337121Y-124215389D01*
X243450405Y-124154837D01*
X243493610Y-124131743D01*
X243550211Y-124114573D01*
X243663412Y-124080234D01*
X243751638Y-124071545D01*
X243795750Y-124067200D01*
X243884250Y-124067200D01*
X243928362Y-124071545D01*
X243928362Y-124071545D01*
G37*
G36*
X232752362Y-124071545D02*
X232840588Y-124080234D01*
X232953789Y-124114573D01*
X233010390Y-124131743D01*
X233053595Y-124154837D01*
X233166879Y-124215389D01*
X233202609Y-124244712D01*
X233304044Y-124327956D01*
X233387288Y-124429391D01*
X233416611Y-124465121D01*
X233416612Y-124465123D01*
X233500257Y-124621610D01*
X233500257Y-124621611D01*
X233551766Y-124791412D01*
X233569158Y-124968000D01*
X233551766Y-125144588D01*
X233536728Y-125194160D01*
X233500257Y-125314390D01*
X233426178Y-125452980D01*
X233416611Y-125470879D01*
X233387288Y-125506609D01*
X233304044Y-125608044D01*
X233202609Y-125691288D01*
X233166879Y-125720611D01*
X233166877Y-125720612D01*
X233010390Y-125804257D01*
X232967679Y-125817213D01*
X232840588Y-125855766D01*
X232752362Y-125864455D01*
X232708250Y-125868800D01*
X232619750Y-125868800D01*
X232575638Y-125864455D01*
X232487412Y-125855766D01*
X232360321Y-125817213D01*
X232317610Y-125804257D01*
X232161123Y-125720612D01*
X232161121Y-125720611D01*
X232125391Y-125691288D01*
X232023956Y-125608044D01*
X231940712Y-125506609D01*
X231911389Y-125470879D01*
X231901822Y-125452980D01*
X231827743Y-125314390D01*
X231791272Y-125194160D01*
X231776234Y-125144588D01*
X231758842Y-124968000D01*
X231776234Y-124791412D01*
X231827743Y-124621611D01*
X231827743Y-124621610D01*
X231911388Y-124465123D01*
X231911389Y-124465121D01*
X231940712Y-124429391D01*
X232023956Y-124327956D01*
X232125391Y-124244712D01*
X232161121Y-124215389D01*
X232274405Y-124154837D01*
X232317610Y-124131743D01*
X232374211Y-124114573D01*
X232487412Y-124080234D01*
X232575638Y-124071545D01*
X232619750Y-124067200D01*
X232708250Y-124067200D01*
X232752362Y-124071545D01*
X232752362Y-124071545D01*
G37*
G36*
X215304787Y-122605510D02*
X215465160Y-122654160D01*
X215465162Y-122654161D01*
X215612966Y-122733163D01*
X215742517Y-122839483D01*
X215848837Y-122969034D01*
X215927839Y-123116838D01*
X215927840Y-123116840D01*
X215976490Y-123277213D01*
X215992916Y-123444000D01*
X215976490Y-123610787D01*
X215927840Y-123771160D01*
X215927839Y-123771162D01*
X215848837Y-123918966D01*
X215742517Y-124048517D01*
X215612966Y-124154837D01*
X215465162Y-124233839D01*
X215465160Y-124233840D01*
X215304787Y-124282490D01*
X215179794Y-124294800D01*
X215096206Y-124294800D01*
X214971213Y-124282490D01*
X214810840Y-124233840D01*
X214810838Y-124233839D01*
X214663034Y-124154837D01*
X214533483Y-124048517D01*
X214427163Y-123918966D01*
X214348161Y-123771162D01*
X214348160Y-123771160D01*
X214299510Y-123610787D01*
X214283084Y-123444000D01*
X214299510Y-123277213D01*
X214348160Y-123116840D01*
X214348161Y-123116838D01*
X214427163Y-122969034D01*
X214533483Y-122839483D01*
X214663034Y-122733163D01*
X214810838Y-122654161D01*
X214810840Y-122654160D01*
X214971213Y-122605510D01*
X215096206Y-122593200D01*
X215179794Y-122593200D01*
X215304787Y-122605510D01*
X215304787Y-122605510D01*
G37*
G36*
X263564787Y-121085510D02*
X263725160Y-121134160D01*
X263725162Y-121134161D01*
X263872966Y-121213163D01*
X264002517Y-121319483D01*
X264108837Y-121449034D01*
X264187839Y-121596838D01*
X264187840Y-121596840D01*
X264236490Y-121757213D01*
X264252916Y-121924000D01*
X264236490Y-122090787D01*
X264187840Y-122251160D01*
X264187839Y-122251162D01*
X264108837Y-122398966D01*
X264002517Y-122528517D01*
X263872966Y-122634837D01*
X263725162Y-122713839D01*
X263725160Y-122713840D01*
X263564787Y-122762490D01*
X263439794Y-122774800D01*
X263356206Y-122774800D01*
X263231213Y-122762490D01*
X263070840Y-122713840D01*
X263070838Y-122713839D01*
X262923034Y-122634837D01*
X262793483Y-122528517D01*
X262687163Y-122398966D01*
X262608161Y-122251162D01*
X262608160Y-122251160D01*
X262559510Y-122090787D01*
X262543084Y-121924000D01*
X262559510Y-121757213D01*
X262608160Y-121596840D01*
X262608161Y-121596838D01*
X262687163Y-121449034D01*
X262793483Y-121319483D01*
X262923034Y-121213163D01*
X263070838Y-121134161D01*
X263070840Y-121134160D01*
X263231213Y-121085510D01*
X263356206Y-121073200D01*
X263439794Y-121073200D01*
X263564787Y-121085510D01*
X263564787Y-121085510D01*
G37*
G36*
X215304787Y-120065510D02*
X215465160Y-120114160D01*
X215465162Y-120114161D01*
X215612966Y-120193163D01*
X215742517Y-120299483D01*
X215848837Y-120429034D01*
X215927839Y-120576838D01*
X215927840Y-120576840D01*
X215976490Y-120737213D01*
X215992916Y-120904000D01*
X215976490Y-121070787D01*
X215927840Y-121231160D01*
X215927839Y-121231162D01*
X215848837Y-121378966D01*
X215742517Y-121508517D01*
X215612966Y-121614837D01*
X215465162Y-121693839D01*
X215465160Y-121693840D01*
X215304787Y-121742490D01*
X215179794Y-121754800D01*
X215096206Y-121754800D01*
X214971213Y-121742490D01*
X214810840Y-121693840D01*
X214810838Y-121693839D01*
X214663034Y-121614837D01*
X214533483Y-121508517D01*
X214427163Y-121378966D01*
X214348161Y-121231162D01*
X214348160Y-121231160D01*
X214299510Y-121070787D01*
X214283084Y-120904000D01*
X214299510Y-120737213D01*
X214348160Y-120576840D01*
X214348161Y-120576838D01*
X214427163Y-120429034D01*
X214533483Y-120299483D01*
X214663034Y-120193163D01*
X214810838Y-120114161D01*
X214810840Y-120114160D01*
X214971213Y-120065510D01*
X215096206Y-120053200D01*
X215179794Y-120053200D01*
X215304787Y-120065510D01*
X215304787Y-120065510D01*
G37*
G36*
X229081543Y-119649663D02*
X229119222Y-119661093D01*
X229153939Y-119679650D01*
X229184374Y-119704626D01*
X229209350Y-119735061D01*
X229227907Y-119769778D01*
X229239337Y-119807457D01*
X229243800Y-119852773D01*
X229243800Y-120939227D01*
X229239337Y-120984543D01*
X229227907Y-121022222D01*
X229209350Y-121056939D01*
X229184374Y-121087374D01*
X229153939Y-121112350D01*
X229119222Y-121130907D01*
X229081543Y-121142337D01*
X229036227Y-121146800D01*
X228199773Y-121146800D01*
X228154457Y-121142337D01*
X228116778Y-121130907D01*
X228082061Y-121112350D01*
X228051626Y-121087374D01*
X228026650Y-121056939D01*
X228008093Y-121022222D01*
X227996663Y-120984543D01*
X227992200Y-120939227D01*
X227992200Y-119852773D01*
X227996663Y-119807457D01*
X228008093Y-119769778D01*
X228026650Y-119735061D01*
X228051626Y-119704626D01*
X228082061Y-119679650D01*
X228116778Y-119661093D01*
X228154457Y-119649663D01*
X228199773Y-119645200D01*
X229036227Y-119645200D01*
X229081543Y-119649663D01*
X229081543Y-119649663D01*
G37*
G36*
X227031543Y-119649663D02*
X227069222Y-119661093D01*
X227103939Y-119679650D01*
X227134374Y-119704626D01*
X227159350Y-119735061D01*
X227177907Y-119769778D01*
X227189337Y-119807457D01*
X227193800Y-119852773D01*
X227193800Y-120939227D01*
X227189337Y-120984543D01*
X227177907Y-121022222D01*
X227159350Y-121056939D01*
X227134374Y-121087374D01*
X227103939Y-121112350D01*
X227069222Y-121130907D01*
X227031543Y-121142337D01*
X226986227Y-121146800D01*
X226149773Y-121146800D01*
X226104457Y-121142337D01*
X226066778Y-121130907D01*
X226032061Y-121112350D01*
X226001626Y-121087374D01*
X225976650Y-121056939D01*
X225958093Y-121022222D01*
X225946663Y-120984543D01*
X225942200Y-120939227D01*
X225942200Y-119852773D01*
X225946663Y-119807457D01*
X225958093Y-119769778D01*
X225976650Y-119735061D01*
X226001626Y-119704626D01*
X226032061Y-119679650D01*
X226066778Y-119661093D01*
X226104457Y-119649663D01*
X226149773Y-119645200D01*
X226986227Y-119645200D01*
X227031543Y-119649663D01*
X227031543Y-119649663D01*
G37*
G36*
X251170543Y-118887663D02*
X251208222Y-118899093D01*
X251242939Y-118917650D01*
X251273374Y-118942626D01*
X251298350Y-118973061D01*
X251316907Y-119007778D01*
X251328337Y-119045457D01*
X251332800Y-119090773D01*
X251332800Y-120177227D01*
X251328337Y-120222543D01*
X251316907Y-120260222D01*
X251298350Y-120294939D01*
X251273374Y-120325374D01*
X251242939Y-120350350D01*
X251208222Y-120368907D01*
X251170543Y-120380337D01*
X251125227Y-120384800D01*
X250288773Y-120384800D01*
X250243457Y-120380337D01*
X250205778Y-120368907D01*
X250171061Y-120350350D01*
X250140626Y-120325374D01*
X250115650Y-120294939D01*
X250097093Y-120260222D01*
X250085663Y-120222543D01*
X250081200Y-120177227D01*
X250081200Y-119090773D01*
X250085663Y-119045457D01*
X250097093Y-119007778D01*
X250115650Y-118973061D01*
X250140626Y-118942626D01*
X250171061Y-118917650D01*
X250205778Y-118899093D01*
X250243457Y-118887663D01*
X250288773Y-118883200D01*
X251125227Y-118883200D01*
X251170543Y-118887663D01*
X251170543Y-118887663D01*
G37*
G36*
X249120543Y-118887663D02*
X249158222Y-118899093D01*
X249192939Y-118917650D01*
X249223374Y-118942626D01*
X249248350Y-118973061D01*
X249266907Y-119007778D01*
X249278337Y-119045457D01*
X249282800Y-119090773D01*
X249282800Y-120177227D01*
X249278337Y-120222543D01*
X249266907Y-120260222D01*
X249248350Y-120294939D01*
X249223374Y-120325374D01*
X249192939Y-120350350D01*
X249158222Y-120368907D01*
X249120543Y-120380337D01*
X249075227Y-120384800D01*
X248238773Y-120384800D01*
X248193457Y-120380337D01*
X248155778Y-120368907D01*
X248121061Y-120350350D01*
X248090626Y-120325374D01*
X248065650Y-120294939D01*
X248047093Y-120260222D01*
X248035663Y-120222543D01*
X248031200Y-120177227D01*
X248031200Y-119090773D01*
X248035663Y-119045457D01*
X248047093Y-119007778D01*
X248065650Y-118973061D01*
X248090626Y-118942626D01*
X248121061Y-118917650D01*
X248155778Y-118899093D01*
X248193457Y-118887663D01*
X248238773Y-118883200D01*
X249075227Y-118883200D01*
X249120543Y-118887663D01*
X249120543Y-118887663D01*
G37*
G36*
X263564787Y-118545510D02*
X263725160Y-118594160D01*
X263725162Y-118594161D01*
X263872966Y-118673163D01*
X264002517Y-118779483D01*
X264108837Y-118909034D01*
X264161616Y-119007778D01*
X264187840Y-119056840D01*
X264236490Y-119217213D01*
X264252916Y-119384000D01*
X264236490Y-119550787D01*
X264189822Y-119704626D01*
X264187839Y-119711162D01*
X264108837Y-119858966D01*
X264002517Y-119988517D01*
X263872966Y-120094837D01*
X263740211Y-120165795D01*
X263725160Y-120173840D01*
X263564787Y-120222490D01*
X263439794Y-120234800D01*
X263356206Y-120234800D01*
X263231213Y-120222490D01*
X263070840Y-120173840D01*
X263055789Y-120165795D01*
X262923034Y-120094837D01*
X262793483Y-119988517D01*
X262687163Y-119858966D01*
X262608161Y-119711162D01*
X262606178Y-119704626D01*
X262559510Y-119550787D01*
X262543084Y-119384000D01*
X262559510Y-119217213D01*
X262608160Y-119056840D01*
X262634384Y-119007778D01*
X262687163Y-118909034D01*
X262793483Y-118779483D01*
X262923034Y-118673163D01*
X263070838Y-118594161D01*
X263070840Y-118594160D01*
X263231213Y-118545510D01*
X263356206Y-118533200D01*
X263439794Y-118533200D01*
X263564787Y-118545510D01*
X263564787Y-118545510D01*
G37*
G36*
X215304787Y-117525510D02*
X215465160Y-117574160D01*
X215465162Y-117574161D01*
X215612966Y-117653163D01*
X215742517Y-117759483D01*
X215848837Y-117889034D01*
X215901380Y-117987337D01*
X215927840Y-118036840D01*
X215976490Y-118197213D01*
X215992916Y-118364000D01*
X215976490Y-118530787D01*
X215927840Y-118691160D01*
X215927839Y-118691162D01*
X215848837Y-118838966D01*
X215742517Y-118968517D01*
X215612966Y-119074837D01*
X215465162Y-119153839D01*
X215465160Y-119153840D01*
X215304787Y-119202490D01*
X215179794Y-119214800D01*
X215096206Y-119214800D01*
X214971213Y-119202490D01*
X214810840Y-119153840D01*
X214810838Y-119153839D01*
X214663034Y-119074837D01*
X214533483Y-118968517D01*
X214427163Y-118838966D01*
X214348161Y-118691162D01*
X214348160Y-118691160D01*
X214299510Y-118530787D01*
X214283084Y-118364000D01*
X214299510Y-118197213D01*
X214348160Y-118036840D01*
X214374620Y-117987337D01*
X214427163Y-117889034D01*
X214533483Y-117759483D01*
X214663034Y-117653163D01*
X214810838Y-117574161D01*
X214810840Y-117574160D01*
X214971213Y-117525510D01*
X215096206Y-117513200D01*
X215179794Y-117513200D01*
X215304787Y-117525510D01*
X215304787Y-117525510D01*
G37*
G36*
X261446543Y-116998663D02*
X261484222Y-117010093D01*
X261518939Y-117028650D01*
X261549374Y-117053626D01*
X261574350Y-117084061D01*
X261592907Y-117118778D01*
X261604337Y-117156457D01*
X261608800Y-117201773D01*
X261608800Y-118038227D01*
X261604337Y-118083543D01*
X261592907Y-118121222D01*
X261574350Y-118155939D01*
X261549374Y-118186374D01*
X261518939Y-118211350D01*
X261484222Y-118229907D01*
X261446543Y-118241337D01*
X261401227Y-118245800D01*
X260314773Y-118245800D01*
X260269457Y-118241337D01*
X260231778Y-118229907D01*
X260197061Y-118211350D01*
X260166626Y-118186374D01*
X260141650Y-118155939D01*
X260123093Y-118121222D01*
X260111663Y-118083543D01*
X260107200Y-118038227D01*
X260107200Y-117201773D01*
X260111663Y-117156457D01*
X260123093Y-117118778D01*
X260141650Y-117084061D01*
X260166626Y-117053626D01*
X260197061Y-117028650D01*
X260231778Y-117010093D01*
X260269457Y-116998663D01*
X260314773Y-116994200D01*
X261401227Y-116994200D01*
X261446543Y-116998663D01*
X261446543Y-116998663D01*
G37*
G36*
X239348543Y-116744663D02*
X239386222Y-116756093D01*
X239420939Y-116774650D01*
X239451374Y-116799626D01*
X239476350Y-116830061D01*
X239494907Y-116864778D01*
X239506337Y-116902457D01*
X239510800Y-116947773D01*
X239510800Y-117784227D01*
X239506337Y-117829543D01*
X239494907Y-117867222D01*
X239476350Y-117901939D01*
X239451374Y-117932374D01*
X239420939Y-117957350D01*
X239386222Y-117975907D01*
X239348543Y-117987337D01*
X239303227Y-117991800D01*
X238216773Y-117991800D01*
X238171457Y-117987337D01*
X238133778Y-117975907D01*
X238099061Y-117957350D01*
X238068626Y-117932374D01*
X238043650Y-117901939D01*
X238025093Y-117867222D01*
X238013663Y-117829543D01*
X238009200Y-117784227D01*
X238009200Y-116947773D01*
X238013663Y-116902457D01*
X238025093Y-116864778D01*
X238043650Y-116830061D01*
X238068626Y-116799626D01*
X238099061Y-116774650D01*
X238133778Y-116756093D01*
X238171457Y-116744663D01*
X238216773Y-116740200D01*
X239303227Y-116740200D01*
X239348543Y-116744663D01*
X239348543Y-116744663D01*
G37*
G36*
X228172543Y-116744663D02*
X228210222Y-116756093D01*
X228244939Y-116774650D01*
X228275374Y-116799626D01*
X228300350Y-116830061D01*
X228318907Y-116864778D01*
X228330337Y-116902457D01*
X228334800Y-116947773D01*
X228334800Y-117784227D01*
X228330337Y-117829543D01*
X228318907Y-117867222D01*
X228300350Y-117901939D01*
X228275374Y-117932374D01*
X228244939Y-117957350D01*
X228210222Y-117975907D01*
X228172543Y-117987337D01*
X228127227Y-117991800D01*
X227040773Y-117991800D01*
X226995457Y-117987337D01*
X226957778Y-117975907D01*
X226923061Y-117957350D01*
X226892626Y-117932374D01*
X226867650Y-117901939D01*
X226849093Y-117867222D01*
X226837663Y-117829543D01*
X226833200Y-117784227D01*
X226833200Y-116947773D01*
X226837663Y-116902457D01*
X226849093Y-116864778D01*
X226867650Y-116830061D01*
X226892626Y-116799626D01*
X226923061Y-116774650D01*
X226957778Y-116756093D01*
X226995457Y-116744663D01*
X227040773Y-116740200D01*
X228127227Y-116740200D01*
X228172543Y-116744663D01*
X228172543Y-116744663D01*
G37*
G36*
X250524543Y-116726663D02*
X250562222Y-116738093D01*
X250596939Y-116756650D01*
X250627374Y-116781626D01*
X250652350Y-116812061D01*
X250670907Y-116846778D01*
X250682337Y-116884457D01*
X250686800Y-116929773D01*
X250686800Y-117766227D01*
X250682337Y-117811543D01*
X250670907Y-117849222D01*
X250652350Y-117883939D01*
X250627374Y-117914374D01*
X250596939Y-117939350D01*
X250562222Y-117957907D01*
X250524543Y-117969337D01*
X250479227Y-117973800D01*
X249392773Y-117973800D01*
X249347457Y-117969337D01*
X249309778Y-117957907D01*
X249275061Y-117939350D01*
X249244626Y-117914374D01*
X249219650Y-117883939D01*
X249201093Y-117849222D01*
X249189663Y-117811543D01*
X249185200Y-117766227D01*
X249185200Y-116929773D01*
X249189663Y-116884457D01*
X249201093Y-116846778D01*
X249219650Y-116812061D01*
X249244626Y-116781626D01*
X249275061Y-116756650D01*
X249309778Y-116738093D01*
X249347457Y-116726663D01*
X249392773Y-116722200D01*
X250479227Y-116722200D01*
X250524543Y-116726663D01*
X250524543Y-116726663D01*
G37*
G36*
X236738800Y-117796800D02*
X231637200Y-117796800D01*
X231637200Y-116195200D01*
X236738800Y-116195200D01*
X236738800Y-117796800D01*
X236738800Y-117796800D01*
G37*
G36*
X225308800Y-117796800D02*
X220207200Y-117796800D01*
X220207200Y-116195200D01*
X225308800Y-116195200D01*
X225308800Y-117796800D01*
X225308800Y-117796800D01*
G37*
G36*
X258582800Y-117796800D02*
X253481200Y-117796800D01*
X253481200Y-116195200D01*
X258582800Y-116195200D01*
X258582800Y-117796800D01*
X258582800Y-117796800D01*
G37*
G36*
X247660800Y-117796800D02*
X242559200Y-117796800D01*
X242559200Y-116195200D01*
X247660800Y-116195200D01*
X247660800Y-117796800D01*
X247660800Y-117796800D01*
G37*
G36*
X263564787Y-116005510D02*
X263725160Y-116054160D01*
X263725162Y-116054161D01*
X263872966Y-116133163D01*
X264002517Y-116239483D01*
X264108837Y-116369034D01*
X264187839Y-116516838D01*
X264187840Y-116516840D01*
X264236490Y-116677213D01*
X264252916Y-116844000D01*
X264236490Y-117010787D01*
X264203730Y-117118778D01*
X264187839Y-117171162D01*
X264108837Y-117318966D01*
X264002517Y-117448517D01*
X263872966Y-117554837D01*
X263725162Y-117633839D01*
X263725160Y-117633840D01*
X263564787Y-117682490D01*
X263439794Y-117694800D01*
X263356206Y-117694800D01*
X263231213Y-117682490D01*
X263070840Y-117633840D01*
X263070838Y-117633839D01*
X262923034Y-117554837D01*
X262793483Y-117448517D01*
X262687163Y-117318966D01*
X262608161Y-117171162D01*
X262592270Y-117118778D01*
X262559510Y-117010787D01*
X262543084Y-116844000D01*
X262559510Y-116677213D01*
X262608160Y-116516840D01*
X262608161Y-116516838D01*
X262687163Y-116369034D01*
X262793483Y-116239483D01*
X262923034Y-116133163D01*
X263070838Y-116054161D01*
X263070840Y-116054160D01*
X263231213Y-116005510D01*
X263356206Y-115993200D01*
X263439794Y-115993200D01*
X263564787Y-116005510D01*
X263564787Y-116005510D01*
G37*
G36*
X215304787Y-114985510D02*
X215465160Y-115034160D01*
X215465162Y-115034161D01*
X215612966Y-115113163D01*
X215742517Y-115219483D01*
X215848837Y-115349034D01*
X215927839Y-115496838D01*
X215927840Y-115496840D01*
X215976490Y-115657213D01*
X215992916Y-115824000D01*
X215976490Y-115990787D01*
X215927840Y-116151160D01*
X215927839Y-116151162D01*
X215848837Y-116298966D01*
X215742517Y-116428517D01*
X215612966Y-116534837D01*
X215465162Y-116613839D01*
X215465160Y-116613840D01*
X215304787Y-116662490D01*
X215179794Y-116674800D01*
X215096206Y-116674800D01*
X214971213Y-116662490D01*
X214810840Y-116613840D01*
X214810838Y-116613839D01*
X214663034Y-116534837D01*
X214533483Y-116428517D01*
X214427163Y-116298966D01*
X214348161Y-116151162D01*
X214348160Y-116151160D01*
X214299510Y-115990787D01*
X214283084Y-115824000D01*
X214299510Y-115657213D01*
X214348160Y-115496840D01*
X214348161Y-115496838D01*
X214427163Y-115349034D01*
X214533483Y-115219483D01*
X214663034Y-115113163D01*
X214810838Y-115034161D01*
X214810840Y-115034160D01*
X214971213Y-114985510D01*
X215096206Y-114973200D01*
X215179794Y-114973200D01*
X215304787Y-114985510D01*
X215304787Y-114985510D01*
G37*
G36*
X261446543Y-114948663D02*
X261484222Y-114960093D01*
X261518939Y-114978650D01*
X261549374Y-115003626D01*
X261574350Y-115034061D01*
X261592907Y-115068778D01*
X261604337Y-115106457D01*
X261608800Y-115151773D01*
X261608800Y-115988227D01*
X261604337Y-116033543D01*
X261592907Y-116071222D01*
X261574350Y-116105939D01*
X261549374Y-116136374D01*
X261518939Y-116161350D01*
X261484222Y-116179907D01*
X261446543Y-116191337D01*
X261401227Y-116195800D01*
X260314773Y-116195800D01*
X260269457Y-116191337D01*
X260231778Y-116179907D01*
X260197061Y-116161350D01*
X260166626Y-116136374D01*
X260141650Y-116105939D01*
X260123093Y-116071222D01*
X260111663Y-116033543D01*
X260107200Y-115988227D01*
X260107200Y-115151773D01*
X260111663Y-115106457D01*
X260123093Y-115068778D01*
X260141650Y-115034061D01*
X260166626Y-115003626D01*
X260197061Y-114978650D01*
X260231778Y-114960093D01*
X260269457Y-114948663D01*
X260314773Y-114944200D01*
X261401227Y-114944200D01*
X261446543Y-114948663D01*
X261446543Y-114948663D01*
G37*
G36*
X239348543Y-114694663D02*
X239386222Y-114706093D01*
X239420939Y-114724650D01*
X239451374Y-114749626D01*
X239476350Y-114780061D01*
X239494907Y-114814778D01*
X239506337Y-114852457D01*
X239510800Y-114897773D01*
X239510800Y-115734227D01*
X239506337Y-115779543D01*
X239494907Y-115817222D01*
X239476350Y-115851939D01*
X239451374Y-115882374D01*
X239420939Y-115907350D01*
X239386222Y-115925907D01*
X239348543Y-115937337D01*
X239303227Y-115941800D01*
X238216773Y-115941800D01*
X238171457Y-115937337D01*
X238133778Y-115925907D01*
X238099061Y-115907350D01*
X238068626Y-115882374D01*
X238043650Y-115851939D01*
X238025093Y-115817222D01*
X238013663Y-115779543D01*
X238009200Y-115734227D01*
X238009200Y-114897773D01*
X238013663Y-114852457D01*
X238025093Y-114814778D01*
X238043650Y-114780061D01*
X238068626Y-114749626D01*
X238099061Y-114724650D01*
X238133778Y-114706093D01*
X238171457Y-114694663D01*
X238216773Y-114690200D01*
X239303227Y-114690200D01*
X239348543Y-114694663D01*
X239348543Y-114694663D01*
G37*
G36*
X228172543Y-114694663D02*
X228210222Y-114706093D01*
X228244939Y-114724650D01*
X228275374Y-114749626D01*
X228300350Y-114780061D01*
X228318907Y-114814778D01*
X228330337Y-114852457D01*
X228334800Y-114897773D01*
X228334800Y-115734227D01*
X228330337Y-115779543D01*
X228318907Y-115817222D01*
X228300350Y-115851939D01*
X228275374Y-115882374D01*
X228244939Y-115907350D01*
X228210222Y-115925907D01*
X228172543Y-115937337D01*
X228127227Y-115941800D01*
X227040773Y-115941800D01*
X226995457Y-115937337D01*
X226957778Y-115925907D01*
X226923061Y-115907350D01*
X226892626Y-115882374D01*
X226867650Y-115851939D01*
X226849093Y-115817222D01*
X226837663Y-115779543D01*
X226833200Y-115734227D01*
X226833200Y-114897773D01*
X226837663Y-114852457D01*
X226849093Y-114814778D01*
X226867650Y-114780061D01*
X226892626Y-114749626D01*
X226923061Y-114724650D01*
X226957778Y-114706093D01*
X226995457Y-114694663D01*
X227040773Y-114690200D01*
X228127227Y-114690200D01*
X228172543Y-114694663D01*
X228172543Y-114694663D01*
G37*
G36*
X250524543Y-114676663D02*
X250562222Y-114688093D01*
X250596939Y-114706650D01*
X250627374Y-114731626D01*
X250652350Y-114762061D01*
X250670907Y-114796778D01*
X250682337Y-114834457D01*
X250686800Y-114879773D01*
X250686800Y-115716227D01*
X250682337Y-115761543D01*
X250670907Y-115799222D01*
X250652350Y-115833939D01*
X250627374Y-115864374D01*
X250596939Y-115889350D01*
X250562222Y-115907907D01*
X250524543Y-115919337D01*
X250479227Y-115923800D01*
X249392773Y-115923800D01*
X249347457Y-115919337D01*
X249309778Y-115907907D01*
X249275061Y-115889350D01*
X249244626Y-115864374D01*
X249219650Y-115833939D01*
X249201093Y-115799222D01*
X249189663Y-115761543D01*
X249185200Y-115716227D01*
X249185200Y-114879773D01*
X249189663Y-114834457D01*
X249201093Y-114796778D01*
X249219650Y-114762061D01*
X249244626Y-114731626D01*
X249275061Y-114706650D01*
X249309778Y-114688093D01*
X249347457Y-114676663D01*
X249392773Y-114672200D01*
X250479227Y-114672200D01*
X250524543Y-114676663D01*
X250524543Y-114676663D01*
G37*
G36*
X263564787Y-113465510D02*
X263725160Y-113514160D01*
X263725162Y-113514161D01*
X263872966Y-113593163D01*
X264002517Y-113699483D01*
X264108837Y-113829034D01*
X264187839Y-113976838D01*
X264187840Y-113976840D01*
X264236490Y-114137213D01*
X264252916Y-114304000D01*
X264236490Y-114470787D01*
X264187840Y-114631160D01*
X264187839Y-114631162D01*
X264108837Y-114778966D01*
X264002517Y-114908517D01*
X263872966Y-115014837D01*
X263778886Y-115065123D01*
X263725160Y-115093840D01*
X263564787Y-115142490D01*
X263439794Y-115154800D01*
X263356206Y-115154800D01*
X263231213Y-115142490D01*
X263070840Y-115093840D01*
X263017114Y-115065123D01*
X262923034Y-115014837D01*
X262793483Y-114908517D01*
X262687163Y-114778966D01*
X262608161Y-114631162D01*
X262608160Y-114631160D01*
X262559510Y-114470787D01*
X262543084Y-114304000D01*
X262559510Y-114137213D01*
X262608160Y-113976840D01*
X262608161Y-113976838D01*
X262687163Y-113829034D01*
X262793483Y-113699483D01*
X262923034Y-113593163D01*
X263070838Y-113514161D01*
X263070840Y-113514160D01*
X263231213Y-113465510D01*
X263356206Y-113453200D01*
X263439794Y-113453200D01*
X263564787Y-113465510D01*
X263564787Y-113465510D01*
G37*
G36*
X215304787Y-112445510D02*
X215465160Y-112494160D01*
X215465162Y-112494161D01*
X215612966Y-112573163D01*
X215742517Y-112679483D01*
X215848837Y-112809034D01*
X215927839Y-112956838D01*
X215927840Y-112956840D01*
X215976490Y-113117213D01*
X215992916Y-113284000D01*
X215976490Y-113450787D01*
X215927840Y-113611160D01*
X215927839Y-113611162D01*
X215848837Y-113758966D01*
X215742517Y-113888517D01*
X215612966Y-113994837D01*
X215465162Y-114073839D01*
X215465160Y-114073840D01*
X215304787Y-114122490D01*
X215179794Y-114134800D01*
X215096206Y-114134800D01*
X214971213Y-114122490D01*
X214810840Y-114073840D01*
X214810838Y-114073839D01*
X214663034Y-113994837D01*
X214533483Y-113888517D01*
X214427163Y-113758966D01*
X214348161Y-113611162D01*
X214348160Y-113611160D01*
X214299510Y-113450787D01*
X214283084Y-113284000D01*
X214299510Y-113117213D01*
X214348160Y-112956840D01*
X214348161Y-112956838D01*
X214427163Y-112809034D01*
X214533483Y-112679483D01*
X214663034Y-112573163D01*
X214810838Y-112494161D01*
X214810840Y-112494160D01*
X214971213Y-112445510D01*
X215096206Y-112433200D01*
X215179794Y-112433200D01*
X215304787Y-112445510D01*
X215304787Y-112445510D01*
G37*
G36*
X250524543Y-112426663D02*
X250562222Y-112438093D01*
X250596939Y-112456650D01*
X250627374Y-112481626D01*
X250652350Y-112512061D01*
X250670907Y-112546778D01*
X250682337Y-112584457D01*
X250686800Y-112629773D01*
X250686800Y-113466227D01*
X250682337Y-113511543D01*
X250670907Y-113549222D01*
X250652350Y-113583939D01*
X250627374Y-113614374D01*
X250596939Y-113639350D01*
X250562222Y-113657907D01*
X250524543Y-113669337D01*
X250479227Y-113673800D01*
X249392773Y-113673800D01*
X249347457Y-113669337D01*
X249309778Y-113657907D01*
X249275061Y-113639350D01*
X249244626Y-113614374D01*
X249219650Y-113583939D01*
X249201093Y-113549222D01*
X249189663Y-113511543D01*
X249185200Y-113466227D01*
X249185200Y-112629773D01*
X249189663Y-112584457D01*
X249201093Y-112546778D01*
X249219650Y-112512061D01*
X249244626Y-112481626D01*
X249275061Y-112456650D01*
X249309778Y-112438093D01*
X249347457Y-112426663D01*
X249392773Y-112422200D01*
X250479227Y-112422200D01*
X250524543Y-112426663D01*
X250524543Y-112426663D01*
G37*
G36*
X261446543Y-112408663D02*
X261484222Y-112420093D01*
X261518939Y-112438650D01*
X261549374Y-112463626D01*
X261574350Y-112494061D01*
X261592907Y-112528778D01*
X261604337Y-112566457D01*
X261608800Y-112611773D01*
X261608800Y-113448227D01*
X261604337Y-113493543D01*
X261592907Y-113531222D01*
X261574350Y-113565939D01*
X261549374Y-113596374D01*
X261518939Y-113621350D01*
X261484222Y-113639907D01*
X261446543Y-113651337D01*
X261401227Y-113655800D01*
X260314773Y-113655800D01*
X260269457Y-113651337D01*
X260231778Y-113639907D01*
X260197061Y-113621350D01*
X260166626Y-113596374D01*
X260141650Y-113565939D01*
X260123093Y-113531222D01*
X260111663Y-113493543D01*
X260107200Y-113448227D01*
X260107200Y-112611773D01*
X260111663Y-112566457D01*
X260123093Y-112528778D01*
X260141650Y-112494061D01*
X260166626Y-112463626D01*
X260197061Y-112438650D01*
X260231778Y-112420093D01*
X260269457Y-112408663D01*
X260314773Y-112404200D01*
X261401227Y-112404200D01*
X261446543Y-112408663D01*
X261446543Y-112408663D01*
G37*
G36*
X228172543Y-112408663D02*
X228210222Y-112420093D01*
X228244939Y-112438650D01*
X228275374Y-112463626D01*
X228300350Y-112494061D01*
X228318907Y-112528778D01*
X228330337Y-112566457D01*
X228334800Y-112611773D01*
X228334800Y-113448227D01*
X228330337Y-113493543D01*
X228318907Y-113531222D01*
X228300350Y-113565939D01*
X228275374Y-113596374D01*
X228244939Y-113621350D01*
X228210222Y-113639907D01*
X228172543Y-113651337D01*
X228127227Y-113655800D01*
X227040773Y-113655800D01*
X226995457Y-113651337D01*
X226957778Y-113639907D01*
X226923061Y-113621350D01*
X226892626Y-113596374D01*
X226867650Y-113565939D01*
X226849093Y-113531222D01*
X226837663Y-113493543D01*
X226833200Y-113448227D01*
X226833200Y-112611773D01*
X226837663Y-112566457D01*
X226849093Y-112528778D01*
X226867650Y-112494061D01*
X226892626Y-112463626D01*
X226923061Y-112438650D01*
X226957778Y-112420093D01*
X226995457Y-112408663D01*
X227040773Y-112404200D01*
X228127227Y-112404200D01*
X228172543Y-112408663D01*
X228172543Y-112408663D01*
G37*
G36*
X239348543Y-112408663D02*
X239386222Y-112420093D01*
X239420939Y-112438650D01*
X239451374Y-112463626D01*
X239476350Y-112494061D01*
X239494907Y-112528778D01*
X239506337Y-112566457D01*
X239510800Y-112611773D01*
X239510800Y-113448227D01*
X239506337Y-113493543D01*
X239494907Y-113531222D01*
X239476350Y-113565939D01*
X239451374Y-113596374D01*
X239420939Y-113621350D01*
X239386222Y-113639907D01*
X239348543Y-113651337D01*
X239303227Y-113655800D01*
X238216773Y-113655800D01*
X238171457Y-113651337D01*
X238133778Y-113639907D01*
X238099061Y-113621350D01*
X238068626Y-113596374D01*
X238043650Y-113565939D01*
X238025093Y-113531222D01*
X238013663Y-113493543D01*
X238009200Y-113448227D01*
X238009200Y-112611773D01*
X238013663Y-112566457D01*
X238025093Y-112528778D01*
X238043650Y-112494061D01*
X238068626Y-112463626D01*
X238099061Y-112438650D01*
X238133778Y-112420093D01*
X238171457Y-112408663D01*
X238216773Y-112404200D01*
X239303227Y-112404200D01*
X239348543Y-112408663D01*
X239348543Y-112408663D01*
G37*
G36*
X263564787Y-110925510D02*
X263725160Y-110974160D01*
X263725162Y-110974161D01*
X263872966Y-111053163D01*
X264002517Y-111159483D01*
X264108837Y-111289034D01*
X264167201Y-111398227D01*
X264187840Y-111436840D01*
X264236490Y-111597213D01*
X264252916Y-111764000D01*
X264236490Y-111930787D01*
X264187840Y-112091160D01*
X264187839Y-112091162D01*
X264108837Y-112238966D01*
X264002517Y-112368517D01*
X263872966Y-112474837D01*
X263778886Y-112525123D01*
X263725160Y-112553840D01*
X263564787Y-112602490D01*
X263439794Y-112614800D01*
X263356206Y-112614800D01*
X263231213Y-112602490D01*
X263070840Y-112553840D01*
X263017114Y-112525123D01*
X262923034Y-112474837D01*
X262793483Y-112368517D01*
X262687163Y-112238966D01*
X262608161Y-112091162D01*
X262608160Y-112091160D01*
X262559510Y-111930787D01*
X262543084Y-111764000D01*
X262559510Y-111597213D01*
X262608160Y-111436840D01*
X262628799Y-111398227D01*
X262687163Y-111289034D01*
X262793483Y-111159483D01*
X262923034Y-111053163D01*
X263070838Y-110974161D01*
X263070840Y-110974160D01*
X263231213Y-110925510D01*
X263356206Y-110913200D01*
X263439794Y-110913200D01*
X263564787Y-110925510D01*
X263564787Y-110925510D01*
G37*
G36*
X225308800Y-111896800D02*
X220207200Y-111896800D01*
X220207200Y-110295200D01*
X225308800Y-110295200D01*
X225308800Y-111896800D01*
X225308800Y-111896800D01*
G37*
G36*
X258582800Y-111896800D02*
X253481200Y-111896800D01*
X253481200Y-110295200D01*
X258582800Y-110295200D01*
X258582800Y-111896800D01*
X258582800Y-111896800D01*
G37*
G36*
X247660800Y-111896800D02*
X242559200Y-111896800D01*
X242559200Y-110295200D01*
X247660800Y-110295200D01*
X247660800Y-111896800D01*
X247660800Y-111896800D01*
G37*
G36*
X236738800Y-111896800D02*
X231637200Y-111896800D01*
X231637200Y-110295200D01*
X236738800Y-110295200D01*
X236738800Y-111896800D01*
X236738800Y-111896800D01*
G37*
G36*
X250524543Y-110376663D02*
X250562222Y-110388093D01*
X250596939Y-110406650D01*
X250627374Y-110431626D01*
X250652350Y-110462061D01*
X250670907Y-110496778D01*
X250682337Y-110534457D01*
X250686800Y-110579773D01*
X250686800Y-111416227D01*
X250682337Y-111461543D01*
X250670907Y-111499222D01*
X250652350Y-111533939D01*
X250627374Y-111564374D01*
X250596939Y-111589350D01*
X250562222Y-111607907D01*
X250524543Y-111619337D01*
X250479227Y-111623800D01*
X249392773Y-111623800D01*
X249347457Y-111619337D01*
X249309778Y-111607907D01*
X249275061Y-111589350D01*
X249244626Y-111564374D01*
X249219650Y-111533939D01*
X249201093Y-111499222D01*
X249189663Y-111461543D01*
X249185200Y-111416227D01*
X249185200Y-110579773D01*
X249189663Y-110534457D01*
X249201093Y-110496778D01*
X249219650Y-110462061D01*
X249244626Y-110431626D01*
X249275061Y-110406650D01*
X249309778Y-110388093D01*
X249347457Y-110376663D01*
X249392773Y-110372200D01*
X250479227Y-110372200D01*
X250524543Y-110376663D01*
X250524543Y-110376663D01*
G37*
G36*
X239348543Y-110358663D02*
X239386222Y-110370093D01*
X239420939Y-110388650D01*
X239451374Y-110413626D01*
X239476350Y-110444061D01*
X239494907Y-110478778D01*
X239506337Y-110516457D01*
X239510800Y-110561773D01*
X239510800Y-111398227D01*
X239506337Y-111443543D01*
X239494907Y-111481222D01*
X239476350Y-111515939D01*
X239451374Y-111546374D01*
X239420939Y-111571350D01*
X239386222Y-111589907D01*
X239348543Y-111601337D01*
X239303227Y-111605800D01*
X238216773Y-111605800D01*
X238171457Y-111601337D01*
X238133778Y-111589907D01*
X238099061Y-111571350D01*
X238068626Y-111546374D01*
X238043650Y-111515939D01*
X238025093Y-111481222D01*
X238013663Y-111443543D01*
X238009200Y-111398227D01*
X238009200Y-110561773D01*
X238013663Y-110516457D01*
X238025093Y-110478778D01*
X238043650Y-110444061D01*
X238068626Y-110413626D01*
X238099061Y-110388650D01*
X238133778Y-110370093D01*
X238171457Y-110358663D01*
X238216773Y-110354200D01*
X239303227Y-110354200D01*
X239348543Y-110358663D01*
X239348543Y-110358663D01*
G37*
G36*
X261446543Y-110358663D02*
X261484222Y-110370093D01*
X261518939Y-110388650D01*
X261549374Y-110413626D01*
X261574350Y-110444061D01*
X261592907Y-110478778D01*
X261604337Y-110516457D01*
X261608800Y-110561773D01*
X261608800Y-111398227D01*
X261604337Y-111443543D01*
X261592907Y-111481222D01*
X261574350Y-111515939D01*
X261549374Y-111546374D01*
X261518939Y-111571350D01*
X261484222Y-111589907D01*
X261446543Y-111601337D01*
X261401227Y-111605800D01*
X260314773Y-111605800D01*
X260269457Y-111601337D01*
X260231778Y-111589907D01*
X260197061Y-111571350D01*
X260166626Y-111546374D01*
X260141650Y-111515939D01*
X260123093Y-111481222D01*
X260111663Y-111443543D01*
X260107200Y-111398227D01*
X260107200Y-110561773D01*
X260111663Y-110516457D01*
X260123093Y-110478778D01*
X260141650Y-110444061D01*
X260166626Y-110413626D01*
X260197061Y-110388650D01*
X260231778Y-110370093D01*
X260269457Y-110358663D01*
X260314773Y-110354200D01*
X261401227Y-110354200D01*
X261446543Y-110358663D01*
X261446543Y-110358663D01*
G37*
G36*
X228172543Y-110358663D02*
X228210222Y-110370093D01*
X228244939Y-110388650D01*
X228275374Y-110413626D01*
X228300350Y-110444061D01*
X228318907Y-110478778D01*
X228330337Y-110516457D01*
X228334800Y-110561773D01*
X228334800Y-111398227D01*
X228330337Y-111443543D01*
X228318907Y-111481222D01*
X228300350Y-111515939D01*
X228275374Y-111546374D01*
X228244939Y-111571350D01*
X228210222Y-111589907D01*
X228172543Y-111601337D01*
X228127227Y-111605800D01*
X227040773Y-111605800D01*
X226995457Y-111601337D01*
X226957778Y-111589907D01*
X226923061Y-111571350D01*
X226892626Y-111546374D01*
X226867650Y-111515939D01*
X226849093Y-111481222D01*
X226837663Y-111443543D01*
X226833200Y-111398227D01*
X226833200Y-110561773D01*
X226837663Y-110516457D01*
X226849093Y-110478778D01*
X226867650Y-110444061D01*
X226892626Y-110413626D01*
X226923061Y-110388650D01*
X226957778Y-110370093D01*
X226995457Y-110358663D01*
X227040773Y-110354200D01*
X228127227Y-110354200D01*
X228172543Y-110358663D01*
X228172543Y-110358663D01*
G37*
G36*
X215304787Y-109905510D02*
X215465160Y-109954160D01*
X215465162Y-109954161D01*
X215612966Y-110033163D01*
X215742517Y-110139483D01*
X215848837Y-110269034D01*
X215912772Y-110388650D01*
X215927840Y-110416840D01*
X215976490Y-110577213D01*
X215992916Y-110744000D01*
X215976490Y-110910787D01*
X215927840Y-111071160D01*
X215927839Y-111071162D01*
X215848837Y-111218966D01*
X215742517Y-111348517D01*
X215612966Y-111454837D01*
X215479626Y-111526108D01*
X215465160Y-111533840D01*
X215304787Y-111582490D01*
X215179794Y-111594800D01*
X215096206Y-111594800D01*
X214971213Y-111582490D01*
X214810840Y-111533840D01*
X214796374Y-111526108D01*
X214663034Y-111454837D01*
X214533483Y-111348517D01*
X214427163Y-111218966D01*
X214348161Y-111071162D01*
X214348160Y-111071160D01*
X214299510Y-110910787D01*
X214283084Y-110744000D01*
X214299510Y-110577213D01*
X214348160Y-110416840D01*
X214363228Y-110388650D01*
X214427163Y-110269034D01*
X214533483Y-110139483D01*
X214663034Y-110033163D01*
X214810838Y-109954161D01*
X214810840Y-109954160D01*
X214971213Y-109905510D01*
X215096206Y-109893200D01*
X215179794Y-109893200D01*
X215304787Y-109905510D01*
X215304787Y-109905510D01*
G37*
G36*
X263564787Y-108385510D02*
X263725160Y-108434160D01*
X263725162Y-108434161D01*
X263872966Y-108513163D01*
X264002517Y-108619483D01*
X264108837Y-108749034D01*
X264187839Y-108896838D01*
X264187840Y-108896840D01*
X264236490Y-109057213D01*
X264252916Y-109224000D01*
X264236490Y-109390787D01*
X264187840Y-109551160D01*
X264187839Y-109551162D01*
X264108837Y-109698966D01*
X264002517Y-109828517D01*
X263872966Y-109934837D01*
X263725162Y-110013839D01*
X263725160Y-110013840D01*
X263564787Y-110062490D01*
X263439794Y-110074800D01*
X263356206Y-110074800D01*
X263231213Y-110062490D01*
X263070840Y-110013840D01*
X263070838Y-110013839D01*
X262923034Y-109934837D01*
X262793483Y-109828517D01*
X262687163Y-109698966D01*
X262608161Y-109551162D01*
X262608160Y-109551160D01*
X262559510Y-109390787D01*
X262543084Y-109224000D01*
X262559510Y-109057213D01*
X262608160Y-108896840D01*
X262608161Y-108896838D01*
X262687163Y-108749034D01*
X262793483Y-108619483D01*
X262923034Y-108513163D01*
X263070838Y-108434161D01*
X263070840Y-108434160D01*
X263231213Y-108385510D01*
X263356206Y-108373200D01*
X263439794Y-108373200D01*
X263564787Y-108385510D01*
X263564787Y-108385510D01*
G37*
G36*
X215988800Y-109054800D02*
X214287200Y-109054800D01*
X214287200Y-107353200D01*
X215988800Y-107353200D01*
X215988800Y-109054800D01*
X215988800Y-109054800D01*
G37*
G36*
X263564787Y-105845510D02*
X263725160Y-105894160D01*
X263725162Y-105894161D01*
X263872966Y-105973163D01*
X264002517Y-106079483D01*
X264108837Y-106209034D01*
X264187839Y-106356838D01*
X264187840Y-106356840D01*
X264236490Y-106517213D01*
X264252916Y-106684000D01*
X264236490Y-106850787D01*
X264187840Y-107011160D01*
X264187839Y-107011162D01*
X264108837Y-107158966D01*
X264002517Y-107288517D01*
X263872966Y-107394837D01*
X263725162Y-107473839D01*
X263725160Y-107473840D01*
X263564787Y-107522490D01*
X263439794Y-107534800D01*
X263356206Y-107534800D01*
X263231213Y-107522490D01*
X263070840Y-107473840D01*
X263070838Y-107473839D01*
X262923034Y-107394837D01*
X262793483Y-107288517D01*
X262687163Y-107158966D01*
X262608161Y-107011162D01*
X262608160Y-107011160D01*
X262559510Y-106850787D01*
X262543084Y-106684000D01*
X262559510Y-106517213D01*
X262608160Y-106356840D01*
X262608161Y-106356838D01*
X262687163Y-106209034D01*
X262793483Y-106079483D01*
X262923034Y-105973163D01*
X263070838Y-105894161D01*
X263070840Y-105894160D01*
X263231213Y-105845510D01*
X263356206Y-105833200D01*
X263439794Y-105833200D01*
X263564787Y-105845510D01*
X263564787Y-105845510D01*
G37*
G36*
X243666543Y-104298663D02*
X243704222Y-104310093D01*
X243738939Y-104328650D01*
X243769374Y-104353626D01*
X243794350Y-104384061D01*
X243812907Y-104418778D01*
X243824337Y-104456457D01*
X243828800Y-104501773D01*
X243828800Y-105338227D01*
X243824337Y-105383543D01*
X243812907Y-105421222D01*
X243794350Y-105455939D01*
X243769374Y-105486374D01*
X243738939Y-105511350D01*
X243704222Y-105529907D01*
X243666543Y-105541337D01*
X243621227Y-105545800D01*
X242534773Y-105545800D01*
X242489457Y-105541337D01*
X242451778Y-105529907D01*
X242417061Y-105511350D01*
X242386626Y-105486374D01*
X242361650Y-105455939D01*
X242343093Y-105421222D01*
X242331663Y-105383543D01*
X242327200Y-105338227D01*
X242327200Y-104501773D01*
X242331663Y-104456457D01*
X242343093Y-104418778D01*
X242361650Y-104384061D01*
X242386626Y-104353626D01*
X242417061Y-104328650D01*
X242451778Y-104310093D01*
X242489457Y-104298663D01*
X242534773Y-104294200D01*
X243621227Y-104294200D01*
X243666543Y-104298663D01*
X243666543Y-104298663D01*
G37*
G36*
X235030543Y-104280663D02*
X235068222Y-104292093D01*
X235102939Y-104310650D01*
X235133374Y-104335626D01*
X235158350Y-104366061D01*
X235176907Y-104400778D01*
X235188337Y-104438457D01*
X235192800Y-104483773D01*
X235192800Y-105320227D01*
X235188337Y-105365543D01*
X235176907Y-105403222D01*
X235158350Y-105437939D01*
X235133374Y-105468374D01*
X235102939Y-105493350D01*
X235068222Y-105511907D01*
X235030543Y-105523337D01*
X234985227Y-105527800D01*
X233898773Y-105527800D01*
X233853457Y-105523337D01*
X233815778Y-105511907D01*
X233781061Y-105493350D01*
X233750626Y-105468374D01*
X233725650Y-105437939D01*
X233707093Y-105403222D01*
X233695663Y-105365543D01*
X233691200Y-105320227D01*
X233691200Y-104483773D01*
X233695663Y-104438457D01*
X233707093Y-104400778D01*
X233725650Y-104366061D01*
X233750626Y-104335626D01*
X233781061Y-104310650D01*
X233815778Y-104292093D01*
X233853457Y-104280663D01*
X233898773Y-104276200D01*
X234985227Y-104276200D01*
X235030543Y-104280663D01*
X235030543Y-104280663D01*
G37*
G36*
X241310800Y-105252800D02*
X236209200Y-105252800D01*
X236209200Y-103651200D01*
X241310800Y-103651200D01*
X241310800Y-105252800D01*
X241310800Y-105252800D01*
G37*
G36*
X263564787Y-103305510D02*
X263725160Y-103354160D01*
X263725162Y-103354161D01*
X263872966Y-103433163D01*
X264002517Y-103539483D01*
X264108837Y-103669034D01*
X264187839Y-103816838D01*
X264187840Y-103816840D01*
X264236490Y-103977213D01*
X264252916Y-104144000D01*
X264236490Y-104310787D01*
X264192300Y-104456457D01*
X264187839Y-104471162D01*
X264108837Y-104618966D01*
X264002517Y-104748517D01*
X263872966Y-104854837D01*
X263725162Y-104933839D01*
X263725160Y-104933840D01*
X263564787Y-104982490D01*
X263439794Y-104994800D01*
X263356206Y-104994800D01*
X263231213Y-104982490D01*
X263070840Y-104933840D01*
X263070838Y-104933839D01*
X262923034Y-104854837D01*
X262793483Y-104748517D01*
X262687163Y-104618966D01*
X262608161Y-104471162D01*
X262603700Y-104456457D01*
X262559510Y-104310787D01*
X262543084Y-104144000D01*
X262559510Y-103977213D01*
X262608160Y-103816840D01*
X262608161Y-103816838D01*
X262687163Y-103669034D01*
X262793483Y-103539483D01*
X262923034Y-103433163D01*
X263070838Y-103354161D01*
X263070840Y-103354160D01*
X263231213Y-103305510D01*
X263356206Y-103293200D01*
X263439794Y-103293200D01*
X263564787Y-103305510D01*
X263564787Y-103305510D01*
G37*
G36*
X243666543Y-102248663D02*
X243704222Y-102260093D01*
X243738939Y-102278650D01*
X243769374Y-102303626D01*
X243794350Y-102334061D01*
X243812907Y-102368778D01*
X243824337Y-102406457D01*
X243828800Y-102451773D01*
X243828800Y-103288227D01*
X243824337Y-103333543D01*
X243812907Y-103371222D01*
X243794350Y-103405939D01*
X243769374Y-103436374D01*
X243738939Y-103461350D01*
X243704222Y-103479907D01*
X243666543Y-103491337D01*
X243621227Y-103495800D01*
X242534773Y-103495800D01*
X242489457Y-103491337D01*
X242451778Y-103479907D01*
X242417061Y-103461350D01*
X242386626Y-103436374D01*
X242361650Y-103405939D01*
X242343093Y-103371222D01*
X242331663Y-103333543D01*
X242327200Y-103288227D01*
X242327200Y-102451773D01*
X242331663Y-102406457D01*
X242343093Y-102368778D01*
X242361650Y-102334061D01*
X242386626Y-102303626D01*
X242417061Y-102278650D01*
X242451778Y-102260093D01*
X242489457Y-102248663D01*
X242534773Y-102244200D01*
X243621227Y-102244200D01*
X243666543Y-102248663D01*
X243666543Y-102248663D01*
G37*
G36*
X235030543Y-102230663D02*
X235068222Y-102242093D01*
X235102939Y-102260650D01*
X235133374Y-102285626D01*
X235158350Y-102316061D01*
X235176907Y-102350778D01*
X235188337Y-102388457D01*
X235192800Y-102433773D01*
X235192800Y-103270227D01*
X235188337Y-103315543D01*
X235176907Y-103353222D01*
X235158350Y-103387939D01*
X235133374Y-103418374D01*
X235102939Y-103443350D01*
X235068222Y-103461907D01*
X235030543Y-103473337D01*
X234985227Y-103477800D01*
X233898773Y-103477800D01*
X233853457Y-103473337D01*
X233815778Y-103461907D01*
X233781061Y-103443350D01*
X233750626Y-103418374D01*
X233725650Y-103387939D01*
X233707093Y-103353222D01*
X233695663Y-103315543D01*
X233691200Y-103270227D01*
X233691200Y-102433773D01*
X233695663Y-102388457D01*
X233707093Y-102350778D01*
X233725650Y-102316061D01*
X233750626Y-102285626D01*
X233781061Y-102260650D01*
X233815778Y-102242093D01*
X233853457Y-102230663D01*
X233898773Y-102226200D01*
X234985227Y-102226200D01*
X235030543Y-102230663D01*
X235030543Y-102230663D01*
G37*
G36*
X263564787Y-100765510D02*
X263725160Y-100814160D01*
X263725162Y-100814161D01*
X263872966Y-100893163D01*
X264002517Y-100999483D01*
X264108837Y-101129034D01*
X264170712Y-101244795D01*
X264187840Y-101276840D01*
X264236490Y-101437213D01*
X264252916Y-101604000D01*
X264236490Y-101770787D01*
X264187840Y-101931160D01*
X264187839Y-101931162D01*
X264108837Y-102078966D01*
X264002517Y-102208517D01*
X263872966Y-102314837D01*
X263778886Y-102365123D01*
X263725160Y-102393840D01*
X263564787Y-102442490D01*
X263439794Y-102454800D01*
X263356206Y-102454800D01*
X263231213Y-102442490D01*
X263070840Y-102393840D01*
X263017114Y-102365123D01*
X262923034Y-102314837D01*
X262793483Y-102208517D01*
X262687163Y-102078966D01*
X262608161Y-101931162D01*
X262608160Y-101931160D01*
X262559510Y-101770787D01*
X262543084Y-101604000D01*
X262559510Y-101437213D01*
X262608160Y-101276840D01*
X262625288Y-101244795D01*
X262687163Y-101129034D01*
X262793483Y-100999483D01*
X262923034Y-100893163D01*
X263070838Y-100814161D01*
X263070840Y-100814160D01*
X263231213Y-100765510D01*
X263356206Y-100753200D01*
X263439794Y-100753200D01*
X263564787Y-100765510D01*
X263564787Y-100765510D01*
G37*
G36*
X235030543Y-100216663D02*
X235068222Y-100228093D01*
X235102939Y-100246650D01*
X235133374Y-100271626D01*
X235158350Y-100302061D01*
X235176907Y-100336778D01*
X235188337Y-100374457D01*
X235192800Y-100419773D01*
X235192800Y-101256227D01*
X235188337Y-101301543D01*
X235176907Y-101339222D01*
X235158350Y-101373939D01*
X235133374Y-101404374D01*
X235102939Y-101429350D01*
X235068222Y-101447907D01*
X235030543Y-101459337D01*
X234985227Y-101463800D01*
X233898773Y-101463800D01*
X233853457Y-101459337D01*
X233815778Y-101447907D01*
X233781061Y-101429350D01*
X233750626Y-101404374D01*
X233725650Y-101373939D01*
X233707093Y-101339222D01*
X233695663Y-101301543D01*
X233691200Y-101256227D01*
X233691200Y-100419773D01*
X233695663Y-100374457D01*
X233707093Y-100336778D01*
X233725650Y-100302061D01*
X233750626Y-100271626D01*
X233781061Y-100246650D01*
X233815778Y-100228093D01*
X233853457Y-100216663D01*
X233898773Y-100212200D01*
X234985227Y-100212200D01*
X235030543Y-100216663D01*
X235030543Y-100216663D01*
G37*
G36*
X243666543Y-100216663D02*
X243704222Y-100228093D01*
X243738939Y-100246650D01*
X243769374Y-100271626D01*
X243794350Y-100302061D01*
X243812907Y-100336778D01*
X243824337Y-100374457D01*
X243828800Y-100419773D01*
X243828800Y-101256227D01*
X243824337Y-101301543D01*
X243812907Y-101339222D01*
X243794350Y-101373939D01*
X243769374Y-101404374D01*
X243738939Y-101429350D01*
X243704222Y-101447907D01*
X243666543Y-101459337D01*
X243621227Y-101463800D01*
X242534773Y-101463800D01*
X242489457Y-101459337D01*
X242451778Y-101447907D01*
X242417061Y-101429350D01*
X242386626Y-101404374D01*
X242361650Y-101373939D01*
X242343093Y-101339222D01*
X242331663Y-101301543D01*
X242327200Y-101256227D01*
X242327200Y-100419773D01*
X242331663Y-100374457D01*
X242343093Y-100336778D01*
X242361650Y-100302061D01*
X242386626Y-100271626D01*
X242417061Y-100246650D01*
X242451778Y-100228093D01*
X242489457Y-100216663D01*
X242534773Y-100212200D01*
X243621227Y-100212200D01*
X243666543Y-100216663D01*
X243666543Y-100216663D01*
G37*
G36*
X263564787Y-98225510D02*
X263725160Y-98274160D01*
X263725162Y-98274161D01*
X263872966Y-98353163D01*
X264002517Y-98459483D01*
X264108837Y-98589034D01*
X264187839Y-98736838D01*
X264187840Y-98736840D01*
X264236490Y-98897213D01*
X264252916Y-99064000D01*
X264236490Y-99230787D01*
X264187840Y-99391160D01*
X264187839Y-99391162D01*
X264108837Y-99538966D01*
X264002517Y-99668517D01*
X263872966Y-99774837D01*
X263725162Y-99853839D01*
X263725160Y-99853840D01*
X263564787Y-99902490D01*
X263439794Y-99914800D01*
X263356206Y-99914800D01*
X263231213Y-99902490D01*
X263070840Y-99853840D01*
X263070838Y-99853839D01*
X262923034Y-99774837D01*
X262793483Y-99668517D01*
X262687163Y-99538966D01*
X262608161Y-99391162D01*
X262608160Y-99391160D01*
X262559510Y-99230787D01*
X262543084Y-99064000D01*
X262559510Y-98897213D01*
X262608160Y-98736840D01*
X262608161Y-98736838D01*
X262687163Y-98589034D01*
X262793483Y-98459483D01*
X262923034Y-98353163D01*
X263070838Y-98274161D01*
X263070840Y-98274160D01*
X263231213Y-98225510D01*
X263356206Y-98213200D01*
X263439794Y-98213200D01*
X263564787Y-98225510D01*
X263564787Y-98225510D01*
G37*
G36*
X235030543Y-98166663D02*
X235068222Y-98178093D01*
X235102939Y-98196650D01*
X235133374Y-98221626D01*
X235158350Y-98252061D01*
X235176907Y-98286778D01*
X235188337Y-98324457D01*
X235192800Y-98369773D01*
X235192800Y-99206227D01*
X235188337Y-99251543D01*
X235176907Y-99289222D01*
X235158350Y-99323939D01*
X235133374Y-99354374D01*
X235102939Y-99379350D01*
X235068222Y-99397907D01*
X235030543Y-99409337D01*
X234985227Y-99413800D01*
X233898773Y-99413800D01*
X233853457Y-99409337D01*
X233815778Y-99397907D01*
X233781061Y-99379350D01*
X233750626Y-99354374D01*
X233725650Y-99323939D01*
X233707093Y-99289222D01*
X233695663Y-99251543D01*
X233691200Y-99206227D01*
X233691200Y-98369773D01*
X233695663Y-98324457D01*
X233707093Y-98286778D01*
X233725650Y-98252061D01*
X233750626Y-98221626D01*
X233781061Y-98196650D01*
X233815778Y-98178093D01*
X233853457Y-98166663D01*
X233898773Y-98162200D01*
X234985227Y-98162200D01*
X235030543Y-98166663D01*
X235030543Y-98166663D01*
G37*
G36*
X243666543Y-98166663D02*
X243704222Y-98178093D01*
X243738939Y-98196650D01*
X243769374Y-98221626D01*
X243794350Y-98252061D01*
X243812907Y-98286778D01*
X243824337Y-98324457D01*
X243828800Y-98369773D01*
X243828800Y-99206227D01*
X243824337Y-99251543D01*
X243812907Y-99289222D01*
X243794350Y-99323939D01*
X243769374Y-99354374D01*
X243738939Y-99379350D01*
X243704222Y-99397907D01*
X243666543Y-99409337D01*
X243621227Y-99413800D01*
X242534773Y-99413800D01*
X242489457Y-99409337D01*
X242451778Y-99397907D01*
X242417061Y-99379350D01*
X242386626Y-99354374D01*
X242361650Y-99323939D01*
X242343093Y-99289222D01*
X242331663Y-99251543D01*
X242327200Y-99206227D01*
X242327200Y-98369773D01*
X242331663Y-98324457D01*
X242343093Y-98286778D01*
X242361650Y-98252061D01*
X242386626Y-98221626D01*
X242417061Y-98196650D01*
X242451778Y-98178093D01*
X242489457Y-98166663D01*
X242534773Y-98162200D01*
X243621227Y-98162200D01*
X243666543Y-98166663D01*
X243666543Y-98166663D01*
G37*
G36*
X241310800Y-99352800D02*
X236209200Y-99352800D01*
X236209200Y-97751200D01*
X241310800Y-97751200D01*
X241310800Y-99352800D01*
X241310800Y-99352800D01*
G37*
G36*
X264298800Y-96658800D02*
X262497200Y-96658800D01*
X262497200Y-94857200D01*
X264298800Y-94857200D01*
X264298800Y-96658800D01*
X264298800Y-96658800D01*
G37*
G36*
X229958362Y-93845545D02*
X230046588Y-93854234D01*
X230159789Y-93888573D01*
X230216390Y-93905743D01*
X230337748Y-93970611D01*
X230372879Y-93989389D01*
X230408609Y-94018712D01*
X230510044Y-94101956D01*
X230593288Y-94203391D01*
X230622611Y-94239121D01*
X230622612Y-94239123D01*
X230706257Y-94395610D01*
X230706257Y-94395611D01*
X230757766Y-94565412D01*
X230775158Y-94742000D01*
X230757766Y-94918588D01*
X230723427Y-95031789D01*
X230706257Y-95088390D01*
X230632178Y-95226980D01*
X230622611Y-95244879D01*
X230593288Y-95280609D01*
X230510044Y-95382044D01*
X230408609Y-95465288D01*
X230372879Y-95494611D01*
X230372877Y-95494612D01*
X230216390Y-95578257D01*
X230159789Y-95595427D01*
X230046588Y-95629766D01*
X229958362Y-95638455D01*
X229914250Y-95642800D01*
X229825750Y-95642800D01*
X229781638Y-95638455D01*
X229693412Y-95629766D01*
X229580211Y-95595427D01*
X229523610Y-95578257D01*
X229367123Y-95494612D01*
X229367121Y-95494611D01*
X229331391Y-95465288D01*
X229229956Y-95382044D01*
X229146712Y-95280609D01*
X229117389Y-95244879D01*
X229107822Y-95226980D01*
X229033743Y-95088390D01*
X229016573Y-95031789D01*
X228982234Y-94918588D01*
X228964842Y-94742000D01*
X228982234Y-94565412D01*
X229033743Y-94395611D01*
X229033743Y-94395610D01*
X229117388Y-94239123D01*
X229117389Y-94239121D01*
X229146712Y-94203391D01*
X229229956Y-94101956D01*
X229331391Y-94018712D01*
X229367121Y-93989389D01*
X229402252Y-93970611D01*
X229523610Y-93905743D01*
X229580211Y-93888573D01*
X229693412Y-93854234D01*
X229781638Y-93845545D01*
X229825750Y-93841200D01*
X229914250Y-93841200D01*
X229958362Y-93845545D01*
X229958362Y-93845545D01*
G37*
G36*
X245198362Y-93845545D02*
X245286588Y-93854234D01*
X245399789Y-93888573D01*
X245456390Y-93905743D01*
X245577748Y-93970611D01*
X245612879Y-93989389D01*
X245648609Y-94018712D01*
X245750044Y-94101956D01*
X245833288Y-94203391D01*
X245862611Y-94239121D01*
X245862612Y-94239123D01*
X245946257Y-94395610D01*
X245946257Y-94395611D01*
X245997766Y-94565412D01*
X246015158Y-94742000D01*
X245997766Y-94918588D01*
X245963427Y-95031789D01*
X245946257Y-95088390D01*
X245872178Y-95226980D01*
X245862611Y-95244879D01*
X245833288Y-95280609D01*
X245750044Y-95382044D01*
X245648609Y-95465288D01*
X245612879Y-95494611D01*
X245612877Y-95494612D01*
X245456390Y-95578257D01*
X245399789Y-95595427D01*
X245286588Y-95629766D01*
X245198362Y-95638455D01*
X245154250Y-95642800D01*
X245065750Y-95642800D01*
X245021638Y-95638455D01*
X244933412Y-95629766D01*
X244820211Y-95595427D01*
X244763610Y-95578257D01*
X244607123Y-95494612D01*
X244607121Y-95494611D01*
X244571391Y-95465288D01*
X244469956Y-95382044D01*
X244386712Y-95280609D01*
X244357389Y-95244879D01*
X244347822Y-95226980D01*
X244273743Y-95088390D01*
X244256573Y-95031789D01*
X244222234Y-94918588D01*
X244204842Y-94742000D01*
X244222234Y-94565412D01*
X244273743Y-94395611D01*
X244273743Y-94395610D01*
X244357388Y-94239123D01*
X244357389Y-94239121D01*
X244386712Y-94203391D01*
X244469956Y-94101956D01*
X244571391Y-94018712D01*
X244607121Y-93989389D01*
X244642252Y-93970611D01*
X244763610Y-93905743D01*
X244820211Y-93888573D01*
X244933412Y-93854234D01*
X245021638Y-93845545D01*
X245065750Y-93841200D01*
X245154250Y-93841200D01*
X245198362Y-93845545D01*
X245198362Y-93845545D01*
G37*
G36*
X247738362Y-93845545D02*
X247826588Y-93854234D01*
X247939789Y-93888573D01*
X247996390Y-93905743D01*
X248117748Y-93970611D01*
X248152879Y-93989389D01*
X248188609Y-94018712D01*
X248290044Y-94101956D01*
X248373288Y-94203391D01*
X248402611Y-94239121D01*
X248402612Y-94239123D01*
X248486257Y-94395610D01*
X248486257Y-94395611D01*
X248537766Y-94565412D01*
X248555158Y-94742000D01*
X248537766Y-94918588D01*
X248503427Y-95031789D01*
X248486257Y-95088390D01*
X248412178Y-95226980D01*
X248402611Y-95244879D01*
X248373288Y-95280609D01*
X248290044Y-95382044D01*
X248188609Y-95465288D01*
X248152879Y-95494611D01*
X248152877Y-95494612D01*
X247996390Y-95578257D01*
X247939789Y-95595427D01*
X247826588Y-95629766D01*
X247738362Y-95638455D01*
X247694250Y-95642800D01*
X247605750Y-95642800D01*
X247561638Y-95638455D01*
X247473412Y-95629766D01*
X247360211Y-95595427D01*
X247303610Y-95578257D01*
X247147123Y-95494612D01*
X247147121Y-95494611D01*
X247111391Y-95465288D01*
X247009956Y-95382044D01*
X246926712Y-95280609D01*
X246897389Y-95244879D01*
X246887822Y-95226980D01*
X246813743Y-95088390D01*
X246796573Y-95031789D01*
X246762234Y-94918588D01*
X246744842Y-94742000D01*
X246762234Y-94565412D01*
X246813743Y-94395611D01*
X246813743Y-94395610D01*
X246897388Y-94239123D01*
X246897389Y-94239121D01*
X246926712Y-94203391D01*
X247009956Y-94101956D01*
X247111391Y-94018712D01*
X247147121Y-93989389D01*
X247182252Y-93970611D01*
X247303610Y-93905743D01*
X247360211Y-93888573D01*
X247473412Y-93854234D01*
X247561638Y-93845545D01*
X247605750Y-93841200D01*
X247694250Y-93841200D01*
X247738362Y-93845545D01*
X247738362Y-93845545D01*
G37*
G36*
X242658362Y-93845545D02*
X242746588Y-93854234D01*
X242859789Y-93888573D01*
X242916390Y-93905743D01*
X243037748Y-93970611D01*
X243072879Y-93989389D01*
X243108609Y-94018712D01*
X243210044Y-94101956D01*
X243293288Y-94203391D01*
X243322611Y-94239121D01*
X243322612Y-94239123D01*
X243406257Y-94395610D01*
X243406257Y-94395611D01*
X243457766Y-94565412D01*
X243475158Y-94742000D01*
X243457766Y-94918588D01*
X243423427Y-95031789D01*
X243406257Y-95088390D01*
X243332178Y-95226980D01*
X243322611Y-95244879D01*
X243293288Y-95280609D01*
X243210044Y-95382044D01*
X243108609Y-95465288D01*
X243072879Y-95494611D01*
X243072877Y-95494612D01*
X242916390Y-95578257D01*
X242859789Y-95595427D01*
X242746588Y-95629766D01*
X242658362Y-95638455D01*
X242614250Y-95642800D01*
X242525750Y-95642800D01*
X242481638Y-95638455D01*
X242393412Y-95629766D01*
X242280211Y-95595427D01*
X242223610Y-95578257D01*
X242067123Y-95494612D01*
X242067121Y-95494611D01*
X242031391Y-95465288D01*
X241929956Y-95382044D01*
X241846712Y-95280609D01*
X241817389Y-95244879D01*
X241807822Y-95226980D01*
X241733743Y-95088390D01*
X241716573Y-95031789D01*
X241682234Y-94918588D01*
X241664842Y-94742000D01*
X241682234Y-94565412D01*
X241733743Y-94395611D01*
X241733743Y-94395610D01*
X241817388Y-94239123D01*
X241817389Y-94239121D01*
X241846712Y-94203391D01*
X241929956Y-94101956D01*
X242031391Y-94018712D01*
X242067121Y-93989389D01*
X242102252Y-93970611D01*
X242223610Y-93905743D01*
X242280211Y-93888573D01*
X242393412Y-93854234D01*
X242481638Y-93845545D01*
X242525750Y-93841200D01*
X242614250Y-93841200D01*
X242658362Y-93845545D01*
X242658362Y-93845545D01*
G37*
G36*
X232498362Y-93845545D02*
X232586588Y-93854234D01*
X232699789Y-93888573D01*
X232756390Y-93905743D01*
X232877748Y-93970611D01*
X232912879Y-93989389D01*
X232948609Y-94018712D01*
X233050044Y-94101956D01*
X233133288Y-94203391D01*
X233162611Y-94239121D01*
X233162612Y-94239123D01*
X233246257Y-94395610D01*
X233246257Y-94395611D01*
X233297766Y-94565412D01*
X233315158Y-94742000D01*
X233297766Y-94918588D01*
X233263427Y-95031789D01*
X233246257Y-95088390D01*
X233172178Y-95226980D01*
X233162611Y-95244879D01*
X233133288Y-95280609D01*
X233050044Y-95382044D01*
X232948609Y-95465288D01*
X232912879Y-95494611D01*
X232912877Y-95494612D01*
X232756390Y-95578257D01*
X232699789Y-95595427D01*
X232586588Y-95629766D01*
X232498362Y-95638455D01*
X232454250Y-95642800D01*
X232365750Y-95642800D01*
X232321638Y-95638455D01*
X232233412Y-95629766D01*
X232120211Y-95595427D01*
X232063610Y-95578257D01*
X231907123Y-95494612D01*
X231907121Y-95494611D01*
X231871391Y-95465288D01*
X231769956Y-95382044D01*
X231686712Y-95280609D01*
X231657389Y-95244879D01*
X231647822Y-95226980D01*
X231573743Y-95088390D01*
X231556573Y-95031789D01*
X231522234Y-94918588D01*
X231504842Y-94742000D01*
X231522234Y-94565412D01*
X231573743Y-94395611D01*
X231573743Y-94395610D01*
X231657388Y-94239123D01*
X231657389Y-94239121D01*
X231686712Y-94203391D01*
X231769956Y-94101956D01*
X231871391Y-94018712D01*
X231907121Y-93989389D01*
X231942252Y-93970611D01*
X232063610Y-93905743D01*
X232120211Y-93888573D01*
X232233412Y-93854234D01*
X232321638Y-93845545D01*
X232365750Y-93841200D01*
X232454250Y-93841200D01*
X232498362Y-93845545D01*
X232498362Y-93845545D01*
G37*
G36*
X235038362Y-93845545D02*
X235126588Y-93854234D01*
X235239789Y-93888573D01*
X235296390Y-93905743D01*
X235417748Y-93970611D01*
X235452879Y-93989389D01*
X235488609Y-94018712D01*
X235590044Y-94101956D01*
X235673288Y-94203391D01*
X235702611Y-94239121D01*
X235702612Y-94239123D01*
X235786257Y-94395610D01*
X235786257Y-94395611D01*
X235837766Y-94565412D01*
X235855158Y-94742000D01*
X235837766Y-94918588D01*
X235803427Y-95031789D01*
X235786257Y-95088390D01*
X235712178Y-95226980D01*
X235702611Y-95244879D01*
X235673288Y-95280609D01*
X235590044Y-95382044D01*
X235488609Y-95465288D01*
X235452879Y-95494611D01*
X235452877Y-95494612D01*
X235296390Y-95578257D01*
X235239789Y-95595427D01*
X235126588Y-95629766D01*
X235038362Y-95638455D01*
X234994250Y-95642800D01*
X234905750Y-95642800D01*
X234861638Y-95638455D01*
X234773412Y-95629766D01*
X234660211Y-95595427D01*
X234603610Y-95578257D01*
X234447123Y-95494612D01*
X234447121Y-95494611D01*
X234411391Y-95465288D01*
X234309956Y-95382044D01*
X234226712Y-95280609D01*
X234197389Y-95244879D01*
X234187822Y-95226980D01*
X234113743Y-95088390D01*
X234096573Y-95031789D01*
X234062234Y-94918588D01*
X234044842Y-94742000D01*
X234062234Y-94565412D01*
X234113743Y-94395611D01*
X234113743Y-94395610D01*
X234197388Y-94239123D01*
X234197389Y-94239121D01*
X234226712Y-94203391D01*
X234309956Y-94101956D01*
X234411391Y-94018712D01*
X234447121Y-93989389D01*
X234482252Y-93970611D01*
X234603610Y-93905743D01*
X234660211Y-93888573D01*
X234773412Y-93854234D01*
X234861638Y-93845545D01*
X234905750Y-93841200D01*
X234994250Y-93841200D01*
X235038362Y-93845545D01*
X235038362Y-93845545D01*
G37*
G36*
X240118362Y-93845545D02*
X240206588Y-93854234D01*
X240319789Y-93888573D01*
X240376390Y-93905743D01*
X240497748Y-93970611D01*
X240532879Y-93989389D01*
X240568609Y-94018712D01*
X240670044Y-94101956D01*
X240753288Y-94203391D01*
X240782611Y-94239121D01*
X240782612Y-94239123D01*
X240866257Y-94395610D01*
X240866257Y-94395611D01*
X240917766Y-94565412D01*
X240935158Y-94742000D01*
X240917766Y-94918588D01*
X240883427Y-95031789D01*
X240866257Y-95088390D01*
X240792178Y-95226980D01*
X240782611Y-95244879D01*
X240753288Y-95280609D01*
X240670044Y-95382044D01*
X240568609Y-95465288D01*
X240532879Y-95494611D01*
X240532877Y-95494612D01*
X240376390Y-95578257D01*
X240319789Y-95595427D01*
X240206588Y-95629766D01*
X240118362Y-95638455D01*
X240074250Y-95642800D01*
X239985750Y-95642800D01*
X239941638Y-95638455D01*
X239853412Y-95629766D01*
X239740211Y-95595427D01*
X239683610Y-95578257D01*
X239527123Y-95494612D01*
X239527121Y-95494611D01*
X239491391Y-95465288D01*
X239389956Y-95382044D01*
X239306712Y-95280609D01*
X239277389Y-95244879D01*
X239267822Y-95226980D01*
X239193743Y-95088390D01*
X239176573Y-95031789D01*
X239142234Y-94918588D01*
X239124842Y-94742000D01*
X239142234Y-94565412D01*
X239193743Y-94395611D01*
X239193743Y-94395610D01*
X239277388Y-94239123D01*
X239277389Y-94239121D01*
X239306712Y-94203391D01*
X239389956Y-94101956D01*
X239491391Y-94018712D01*
X239527121Y-93989389D01*
X239562252Y-93970611D01*
X239683610Y-93905743D01*
X239740211Y-93888573D01*
X239853412Y-93854234D01*
X239941638Y-93845545D01*
X239985750Y-93841200D01*
X240074250Y-93841200D01*
X240118362Y-93845545D01*
X240118362Y-93845545D01*
G37*
G36*
X237578362Y-93845545D02*
X237666588Y-93854234D01*
X237779789Y-93888573D01*
X237836390Y-93905743D01*
X237957748Y-93970611D01*
X237992879Y-93989389D01*
X238028609Y-94018712D01*
X238130044Y-94101956D01*
X238213288Y-94203391D01*
X238242611Y-94239121D01*
X238242612Y-94239123D01*
X238326257Y-94395610D01*
X238326257Y-94395611D01*
X238377766Y-94565412D01*
X238395158Y-94742000D01*
X238377766Y-94918588D01*
X238343427Y-95031789D01*
X238326257Y-95088390D01*
X238252178Y-95226980D01*
X238242611Y-95244879D01*
X238213288Y-95280609D01*
X238130044Y-95382044D01*
X238028609Y-95465288D01*
X237992879Y-95494611D01*
X237992877Y-95494612D01*
X237836390Y-95578257D01*
X237779789Y-95595427D01*
X237666588Y-95629766D01*
X237578362Y-95638455D01*
X237534250Y-95642800D01*
X237445750Y-95642800D01*
X237401638Y-95638455D01*
X237313412Y-95629766D01*
X237200211Y-95595427D01*
X237143610Y-95578257D01*
X236987123Y-95494612D01*
X236987121Y-95494611D01*
X236951391Y-95465288D01*
X236849956Y-95382044D01*
X236766712Y-95280609D01*
X236737389Y-95244879D01*
X236727822Y-95226980D01*
X236653743Y-95088390D01*
X236636573Y-95031789D01*
X236602234Y-94918588D01*
X236584842Y-94742000D01*
X236602234Y-94565412D01*
X236653743Y-94395611D01*
X236653743Y-94395610D01*
X236737388Y-94239123D01*
X236737389Y-94239121D01*
X236766712Y-94203391D01*
X236849956Y-94101956D01*
X236951391Y-94018712D01*
X236987121Y-93989389D01*
X237022252Y-93970611D01*
X237143610Y-93905743D01*
X237200211Y-93888573D01*
X237313412Y-93854234D01*
X237401638Y-93845545D01*
X237445750Y-93841200D01*
X237534250Y-93841200D01*
X237578362Y-93845545D01*
X237578362Y-93845545D01*
G37*
G36*
X263486362Y-92321545D02*
X263574588Y-92330234D01*
X263687789Y-92364573D01*
X263744390Y-92381743D01*
X263882980Y-92455822D01*
X263900879Y-92465389D01*
X263936609Y-92494712D01*
X264038044Y-92577956D01*
X264121288Y-92679391D01*
X264150611Y-92715121D01*
X264150612Y-92715123D01*
X264234257Y-92871610D01*
X264234257Y-92871611D01*
X264285766Y-93041412D01*
X264303158Y-93218000D01*
X264285766Y-93394588D01*
X264251427Y-93507789D01*
X264234257Y-93564390D01*
X264160178Y-93702980D01*
X264150611Y-93720879D01*
X264121288Y-93756609D01*
X264038044Y-93858044D01*
X263936609Y-93941288D01*
X263900879Y-93970611D01*
X263900877Y-93970612D01*
X263744390Y-94054257D01*
X263687789Y-94071427D01*
X263574588Y-94105766D01*
X263486362Y-94114455D01*
X263442250Y-94118800D01*
X263353750Y-94118800D01*
X263309638Y-94114455D01*
X263221412Y-94105766D01*
X263108211Y-94071427D01*
X263051610Y-94054257D01*
X262895123Y-93970612D01*
X262895121Y-93970611D01*
X262859391Y-93941288D01*
X262757956Y-93858044D01*
X262674712Y-93756609D01*
X262645389Y-93720879D01*
X262635822Y-93702980D01*
X262561743Y-93564390D01*
X262544573Y-93507789D01*
X262510234Y-93394588D01*
X262492842Y-93218000D01*
X262510234Y-93041412D01*
X262561743Y-92871611D01*
X262561743Y-92871610D01*
X262645388Y-92715123D01*
X262645389Y-92715121D01*
X262674712Y-92679391D01*
X262757956Y-92577956D01*
X262859391Y-92494712D01*
X262895121Y-92465389D01*
X262913020Y-92455822D01*
X263051610Y-92381743D01*
X263108211Y-92364573D01*
X263221412Y-92330234D01*
X263309638Y-92321545D01*
X263353750Y-92317200D01*
X263442250Y-92317200D01*
X263486362Y-92321545D01*
X263486362Y-92321545D01*
G37*
G36*
X245198362Y-91305545D02*
X245286588Y-91314234D01*
X245399789Y-91348573D01*
X245456390Y-91365743D01*
X245577748Y-91430611D01*
X245612879Y-91449389D01*
X245648609Y-91478712D01*
X245750044Y-91561956D01*
X245833288Y-91663391D01*
X245862611Y-91699121D01*
X245862612Y-91699123D01*
X245946257Y-91855610D01*
X245946257Y-91855611D01*
X245997766Y-92025412D01*
X246015158Y-92202000D01*
X245997766Y-92378588D01*
X245971435Y-92465388D01*
X245946257Y-92548390D01*
X245930453Y-92577956D01*
X245862611Y-92704879D01*
X245833288Y-92740609D01*
X245750044Y-92842044D01*
X245648609Y-92925288D01*
X245612879Y-92954611D01*
X245612877Y-92954612D01*
X245456390Y-93038257D01*
X245399789Y-93055427D01*
X245286588Y-93089766D01*
X245198362Y-93098455D01*
X245154250Y-93102800D01*
X245065750Y-93102800D01*
X245021638Y-93098455D01*
X244933412Y-93089766D01*
X244820211Y-93055427D01*
X244763610Y-93038257D01*
X244607123Y-92954612D01*
X244607121Y-92954611D01*
X244571391Y-92925288D01*
X244469956Y-92842044D01*
X244386712Y-92740609D01*
X244357389Y-92704879D01*
X244289547Y-92577956D01*
X244273743Y-92548390D01*
X244248565Y-92465388D01*
X244222234Y-92378588D01*
X244204842Y-92202000D01*
X244222234Y-92025412D01*
X244273743Y-91855611D01*
X244273743Y-91855610D01*
X244357388Y-91699123D01*
X244357389Y-91699121D01*
X244386712Y-91663391D01*
X244469956Y-91561956D01*
X244571391Y-91478712D01*
X244607121Y-91449389D01*
X244642252Y-91430611D01*
X244763610Y-91365743D01*
X244820211Y-91348573D01*
X244933412Y-91314234D01*
X245021638Y-91305545D01*
X245065750Y-91301200D01*
X245154250Y-91301200D01*
X245198362Y-91305545D01*
X245198362Y-91305545D01*
G37*
G36*
X242658362Y-91305545D02*
X242746588Y-91314234D01*
X242859789Y-91348573D01*
X242916390Y-91365743D01*
X243037748Y-91430611D01*
X243072879Y-91449389D01*
X243108609Y-91478712D01*
X243210044Y-91561956D01*
X243293288Y-91663391D01*
X243322611Y-91699121D01*
X243322612Y-91699123D01*
X243406257Y-91855610D01*
X243406257Y-91855611D01*
X243457766Y-92025412D01*
X243475158Y-92202000D01*
X243457766Y-92378588D01*
X243431435Y-92465388D01*
X243406257Y-92548390D01*
X243390453Y-92577956D01*
X243322611Y-92704879D01*
X243293288Y-92740609D01*
X243210044Y-92842044D01*
X243108609Y-92925288D01*
X243072879Y-92954611D01*
X243072877Y-92954612D01*
X242916390Y-93038257D01*
X242859789Y-93055427D01*
X242746588Y-93089766D01*
X242658362Y-93098455D01*
X242614250Y-93102800D01*
X242525750Y-93102800D01*
X242481638Y-93098455D01*
X242393412Y-93089766D01*
X242280211Y-93055427D01*
X242223610Y-93038257D01*
X242067123Y-92954612D01*
X242067121Y-92954611D01*
X242031391Y-92925288D01*
X241929956Y-92842044D01*
X241846712Y-92740609D01*
X241817389Y-92704879D01*
X241749547Y-92577956D01*
X241733743Y-92548390D01*
X241708565Y-92465388D01*
X241682234Y-92378588D01*
X241664842Y-92202000D01*
X241682234Y-92025412D01*
X241733743Y-91855611D01*
X241733743Y-91855610D01*
X241817388Y-91699123D01*
X241817389Y-91699121D01*
X241846712Y-91663391D01*
X241929956Y-91561956D01*
X242031391Y-91478712D01*
X242067121Y-91449389D01*
X242102252Y-91430611D01*
X242223610Y-91365743D01*
X242280211Y-91348573D01*
X242393412Y-91314234D01*
X242481638Y-91305545D01*
X242525750Y-91301200D01*
X242614250Y-91301200D01*
X242658362Y-91305545D01*
X242658362Y-91305545D01*
G37*
G36*
X235038362Y-91305545D02*
X235126588Y-91314234D01*
X235239789Y-91348573D01*
X235296390Y-91365743D01*
X235417748Y-91430611D01*
X235452879Y-91449389D01*
X235488609Y-91478712D01*
X235590044Y-91561956D01*
X235673288Y-91663391D01*
X235702611Y-91699121D01*
X235702612Y-91699123D01*
X235786257Y-91855610D01*
X235786257Y-91855611D01*
X235837766Y-92025412D01*
X235855158Y-92202000D01*
X235837766Y-92378588D01*
X235811435Y-92465388D01*
X235786257Y-92548390D01*
X235770453Y-92577956D01*
X235702611Y-92704879D01*
X235673288Y-92740609D01*
X235590044Y-92842044D01*
X235488609Y-92925288D01*
X235452879Y-92954611D01*
X235452877Y-92954612D01*
X235296390Y-93038257D01*
X235239789Y-93055427D01*
X235126588Y-93089766D01*
X235038362Y-93098455D01*
X234994250Y-93102800D01*
X234905750Y-93102800D01*
X234861638Y-93098455D01*
X234773412Y-93089766D01*
X234660211Y-93055427D01*
X234603610Y-93038257D01*
X234447123Y-92954612D01*
X234447121Y-92954611D01*
X234411391Y-92925288D01*
X234309956Y-92842044D01*
X234226712Y-92740609D01*
X234197389Y-92704879D01*
X234129547Y-92577956D01*
X234113743Y-92548390D01*
X234088565Y-92465388D01*
X234062234Y-92378588D01*
X234044842Y-92202000D01*
X234062234Y-92025412D01*
X234113743Y-91855611D01*
X234113743Y-91855610D01*
X234197388Y-91699123D01*
X234197389Y-91699121D01*
X234226712Y-91663391D01*
X234309956Y-91561956D01*
X234411391Y-91478712D01*
X234447121Y-91449389D01*
X234482252Y-91430611D01*
X234603610Y-91365743D01*
X234660211Y-91348573D01*
X234773412Y-91314234D01*
X234861638Y-91305545D01*
X234905750Y-91301200D01*
X234994250Y-91301200D01*
X235038362Y-91305545D01*
X235038362Y-91305545D01*
G37*
G36*
X237578362Y-91305545D02*
X237666588Y-91314234D01*
X237779789Y-91348573D01*
X237836390Y-91365743D01*
X237957748Y-91430611D01*
X237992879Y-91449389D01*
X238028609Y-91478712D01*
X238130044Y-91561956D01*
X238213288Y-91663391D01*
X238242611Y-91699121D01*
X238242612Y-91699123D01*
X238326257Y-91855610D01*
X238326257Y-91855611D01*
X238377766Y-92025412D01*
X238395158Y-92202000D01*
X238377766Y-92378588D01*
X238351435Y-92465388D01*
X238326257Y-92548390D01*
X238310453Y-92577956D01*
X238242611Y-92704879D01*
X238213288Y-92740609D01*
X238130044Y-92842044D01*
X238028609Y-92925288D01*
X237992879Y-92954611D01*
X237992877Y-92954612D01*
X237836390Y-93038257D01*
X237779789Y-93055427D01*
X237666588Y-93089766D01*
X237578362Y-93098455D01*
X237534250Y-93102800D01*
X237445750Y-93102800D01*
X237401638Y-93098455D01*
X237313412Y-93089766D01*
X237200211Y-93055427D01*
X237143610Y-93038257D01*
X236987123Y-92954612D01*
X236987121Y-92954611D01*
X236951391Y-92925288D01*
X236849956Y-92842044D01*
X236766712Y-92740609D01*
X236737389Y-92704879D01*
X236669547Y-92577956D01*
X236653743Y-92548390D01*
X236628565Y-92465388D01*
X236602234Y-92378588D01*
X236584842Y-92202000D01*
X236602234Y-92025412D01*
X236653743Y-91855611D01*
X236653743Y-91855610D01*
X236737388Y-91699123D01*
X236737389Y-91699121D01*
X236766712Y-91663391D01*
X236849956Y-91561956D01*
X236951391Y-91478712D01*
X236987121Y-91449389D01*
X237022252Y-91430611D01*
X237143610Y-91365743D01*
X237200211Y-91348573D01*
X237313412Y-91314234D01*
X237401638Y-91305545D01*
X237445750Y-91301200D01*
X237534250Y-91301200D01*
X237578362Y-91305545D01*
X237578362Y-91305545D01*
G37*
G36*
X240118362Y-91305545D02*
X240206588Y-91314234D01*
X240319789Y-91348573D01*
X240376390Y-91365743D01*
X240497748Y-91430611D01*
X240532879Y-91449389D01*
X240568609Y-91478712D01*
X240670044Y-91561956D01*
X240753288Y-91663391D01*
X240782611Y-91699121D01*
X240782612Y-91699123D01*
X240866257Y-91855610D01*
X240866257Y-91855611D01*
X240917766Y-92025412D01*
X240935158Y-92202000D01*
X240917766Y-92378588D01*
X240891435Y-92465388D01*
X240866257Y-92548390D01*
X240850453Y-92577956D01*
X240782611Y-92704879D01*
X240753288Y-92740609D01*
X240670044Y-92842044D01*
X240568609Y-92925288D01*
X240532879Y-92954611D01*
X240532877Y-92954612D01*
X240376390Y-93038257D01*
X240319789Y-93055427D01*
X240206588Y-93089766D01*
X240118362Y-93098455D01*
X240074250Y-93102800D01*
X239985750Y-93102800D01*
X239941638Y-93098455D01*
X239853412Y-93089766D01*
X239740211Y-93055427D01*
X239683610Y-93038257D01*
X239527123Y-92954612D01*
X239527121Y-92954611D01*
X239491391Y-92925288D01*
X239389956Y-92842044D01*
X239306712Y-92740609D01*
X239277389Y-92704879D01*
X239209547Y-92577956D01*
X239193743Y-92548390D01*
X239168565Y-92465388D01*
X239142234Y-92378588D01*
X239124842Y-92202000D01*
X239142234Y-92025412D01*
X239193743Y-91855611D01*
X239193743Y-91855610D01*
X239277388Y-91699123D01*
X239277389Y-91699121D01*
X239306712Y-91663391D01*
X239389956Y-91561956D01*
X239491391Y-91478712D01*
X239527121Y-91449389D01*
X239562252Y-91430611D01*
X239683610Y-91365743D01*
X239740211Y-91348573D01*
X239853412Y-91314234D01*
X239941638Y-91305545D01*
X239985750Y-91301200D01*
X240074250Y-91301200D01*
X240118362Y-91305545D01*
X240118362Y-91305545D01*
G37*
G36*
X232498362Y-91305545D02*
X232586588Y-91314234D01*
X232699789Y-91348573D01*
X232756390Y-91365743D01*
X232877748Y-91430611D01*
X232912879Y-91449389D01*
X232948609Y-91478712D01*
X233050044Y-91561956D01*
X233133288Y-91663391D01*
X233162611Y-91699121D01*
X233162612Y-91699123D01*
X233246257Y-91855610D01*
X233246257Y-91855611D01*
X233297766Y-92025412D01*
X233315158Y-92202000D01*
X233297766Y-92378588D01*
X233271435Y-92465388D01*
X233246257Y-92548390D01*
X233230453Y-92577956D01*
X233162611Y-92704879D01*
X233133288Y-92740609D01*
X233050044Y-92842044D01*
X232948609Y-92925288D01*
X232912879Y-92954611D01*
X232912877Y-92954612D01*
X232756390Y-93038257D01*
X232699789Y-93055427D01*
X232586588Y-93089766D01*
X232498362Y-93098455D01*
X232454250Y-93102800D01*
X232365750Y-93102800D01*
X232321638Y-93098455D01*
X232233412Y-93089766D01*
X232120211Y-93055427D01*
X232063610Y-93038257D01*
X231907123Y-92954612D01*
X231907121Y-92954611D01*
X231871391Y-92925288D01*
X231769956Y-92842044D01*
X231686712Y-92740609D01*
X231657389Y-92704879D01*
X231589547Y-92577956D01*
X231573743Y-92548390D01*
X231548565Y-92465388D01*
X231522234Y-92378588D01*
X231504842Y-92202000D01*
X231522234Y-92025412D01*
X231573743Y-91855611D01*
X231573743Y-91855610D01*
X231657388Y-91699123D01*
X231657389Y-91699121D01*
X231686712Y-91663391D01*
X231769956Y-91561956D01*
X231871391Y-91478712D01*
X231907121Y-91449389D01*
X231942252Y-91430611D01*
X232063610Y-91365743D01*
X232120211Y-91348573D01*
X232233412Y-91314234D01*
X232321638Y-91305545D01*
X232365750Y-91301200D01*
X232454250Y-91301200D01*
X232498362Y-91305545D01*
X232498362Y-91305545D01*
G37*
G36*
X248550800Y-93102800D02*
X246749200Y-93102800D01*
X246749200Y-91301200D01*
X248550800Y-91301200D01*
X248550800Y-93102800D01*
X248550800Y-93102800D01*
G37*
G36*
X229958362Y-91305545D02*
X230046588Y-91314234D01*
X230159789Y-91348573D01*
X230216390Y-91365743D01*
X230337748Y-91430611D01*
X230372879Y-91449389D01*
X230408609Y-91478712D01*
X230510044Y-91561956D01*
X230593288Y-91663391D01*
X230622611Y-91699121D01*
X230622612Y-91699123D01*
X230706257Y-91855610D01*
X230706257Y-91855611D01*
X230757766Y-92025412D01*
X230775158Y-92202000D01*
X230757766Y-92378588D01*
X230731435Y-92465388D01*
X230706257Y-92548390D01*
X230690453Y-92577956D01*
X230622611Y-92704879D01*
X230593288Y-92740609D01*
X230510044Y-92842044D01*
X230408609Y-92925288D01*
X230372879Y-92954611D01*
X230372877Y-92954612D01*
X230216390Y-93038257D01*
X230159789Y-93055427D01*
X230046588Y-93089766D01*
X229958362Y-93098455D01*
X229914250Y-93102800D01*
X229825750Y-93102800D01*
X229781638Y-93098455D01*
X229693412Y-93089766D01*
X229580211Y-93055427D01*
X229523610Y-93038257D01*
X229367123Y-92954612D01*
X229367121Y-92954611D01*
X229331391Y-92925288D01*
X229229956Y-92842044D01*
X229146712Y-92740609D01*
X229117389Y-92704879D01*
X229049547Y-92577956D01*
X229033743Y-92548390D01*
X229008565Y-92465388D01*
X228982234Y-92378588D01*
X228964842Y-92202000D01*
X228982234Y-92025412D01*
X229033743Y-91855611D01*
X229033743Y-91855610D01*
X229117388Y-91699123D01*
X229117389Y-91699121D01*
X229146712Y-91663391D01*
X229229956Y-91561956D01*
X229331391Y-91478712D01*
X229367121Y-91449389D01*
X229402252Y-91430611D01*
X229523610Y-91365743D01*
X229580211Y-91348573D01*
X229693412Y-91314234D01*
X229781638Y-91305545D01*
X229825750Y-91301200D01*
X229914250Y-91301200D01*
X229958362Y-91305545D01*
X229958362Y-91305545D01*
G37*
G36*
X263486362Y-89781545D02*
X263574588Y-89790234D01*
X263687789Y-89824573D01*
X263744390Y-89841743D01*
X263882980Y-89915822D01*
X263900879Y-89925389D01*
X263936609Y-89954712D01*
X264038044Y-90037956D01*
X264121288Y-90139391D01*
X264150611Y-90175121D01*
X264150612Y-90175123D01*
X264234257Y-90331610D01*
X264234257Y-90331611D01*
X264285766Y-90501412D01*
X264303158Y-90678000D01*
X264285766Y-90854588D01*
X264251427Y-90967789D01*
X264234257Y-91024390D01*
X264160178Y-91162980D01*
X264150611Y-91180879D01*
X264121288Y-91216609D01*
X264038044Y-91318044D01*
X263936609Y-91401288D01*
X263900879Y-91430611D01*
X263900877Y-91430612D01*
X263744390Y-91514257D01*
X263687789Y-91531427D01*
X263574588Y-91565766D01*
X263486362Y-91574455D01*
X263442250Y-91578800D01*
X263353750Y-91578800D01*
X263309638Y-91574455D01*
X263221412Y-91565766D01*
X263108211Y-91531427D01*
X263051610Y-91514257D01*
X262895123Y-91430612D01*
X262895121Y-91430611D01*
X262859391Y-91401288D01*
X262757956Y-91318044D01*
X262674712Y-91216609D01*
X262645389Y-91180879D01*
X262635822Y-91162980D01*
X262561743Y-91024390D01*
X262544573Y-90967789D01*
X262510234Y-90854588D01*
X262492842Y-90678000D01*
X262510234Y-90501412D01*
X262561743Y-90331611D01*
X262561743Y-90331610D01*
X262645388Y-90175123D01*
X262645389Y-90175121D01*
X262674712Y-90139391D01*
X262757956Y-90037956D01*
X262859391Y-89954712D01*
X262895121Y-89925389D01*
X262913020Y-89915822D01*
X263051610Y-89841743D01*
X263108211Y-89824573D01*
X263221412Y-89790234D01*
X263309638Y-89781545D01*
X263353750Y-89777200D01*
X263442250Y-89777200D01*
X263486362Y-89781545D01*
X263486362Y-89781545D01*
G37*
G36*
X263486362Y-87241545D02*
X263574588Y-87250234D01*
X263687789Y-87284573D01*
X263744390Y-87301743D01*
X263882980Y-87375822D01*
X263900879Y-87385389D01*
X263936609Y-87414712D01*
X264038044Y-87497956D01*
X264121288Y-87599391D01*
X264150611Y-87635121D01*
X264150612Y-87635123D01*
X264234257Y-87791610D01*
X264234257Y-87791611D01*
X264285766Y-87961412D01*
X264303158Y-88138000D01*
X264285766Y-88314588D01*
X264251427Y-88427789D01*
X264234257Y-88484390D01*
X264160178Y-88622980D01*
X264150611Y-88640879D01*
X264121288Y-88676609D01*
X264038044Y-88778044D01*
X263936609Y-88861288D01*
X263900879Y-88890611D01*
X263900877Y-88890612D01*
X263744390Y-88974257D01*
X263687789Y-88991427D01*
X263574588Y-89025766D01*
X263486362Y-89034455D01*
X263442250Y-89038800D01*
X263353750Y-89038800D01*
X263309638Y-89034455D01*
X263221412Y-89025766D01*
X263108211Y-88991427D01*
X263051610Y-88974257D01*
X262895123Y-88890612D01*
X262895121Y-88890611D01*
X262859391Y-88861288D01*
X262757956Y-88778044D01*
X262674712Y-88676609D01*
X262645389Y-88640879D01*
X262635822Y-88622980D01*
X262561743Y-88484390D01*
X262544573Y-88427789D01*
X262510234Y-88314588D01*
X262492842Y-88138000D01*
X262510234Y-87961412D01*
X262561743Y-87791611D01*
X262561743Y-87791610D01*
X262645388Y-87635123D01*
X262645389Y-87635121D01*
X262674712Y-87599391D01*
X262757956Y-87497956D01*
X262859391Y-87414712D01*
X262895121Y-87385389D01*
X262913020Y-87375822D01*
X263051610Y-87301743D01*
X263108211Y-87284573D01*
X263221412Y-87250234D01*
X263309638Y-87241545D01*
X263353750Y-87237200D01*
X263442250Y-87237200D01*
X263486362Y-87241545D01*
X263486362Y-87241545D01*
G37*
M02*
