M48
;DRILL file {KiCad 5.0.2-bee76a0~70~ubuntu18.04.1} date Thu 21 Feb 2019 09:15:04 PM MST
;FORMAT={-:-/ absolute / inch / decimal}
FMAT,2
INCH,TZ
T1C0.0236
T2C0.0315
T3C0.0394
%
G90
G05
T1
X8.69Y-4.22
X8.73Y-4.44
X8.7981Y-4.2255
X8.9213Y-4.7087
X8.9291Y-4.
X8.95Y-3.89
X8.96Y-4.29
X9.1535Y-4.1896
X9.1535Y-4.2618
X9.175Y-4.44
X9.4092Y-4.0442
X9.4331Y-4.748
X9.4601Y-4.2001
X9.4783Y-4.3012
X9.6Y-4.44
X9.61Y-4.19
X9.6109Y-4.2639
X9.8Y-4.04
X9.811Y-4.4882
X9.811Y-4.3071
X10.035Y-4.44
X10.04Y-4.19
X10.04Y-4.27
X10.27Y-4.27
T2
X8.47Y-4.26
X8.47Y-4.36
X8.47Y-4.46
X8.47Y-4.56
X8.47Y-4.66
X8.47Y-4.76
X8.47Y-4.86
X8.47Y-4.96
X8.47Y-5.16
X8.47Y-5.26
X8.47Y-5.36
X8.47Y-5.46
X8.47Y-5.56
X8.47Y-5.66
X10.37Y-3.9002
X10.37Y-4.0002
X10.37Y-4.1002
X10.37Y-4.2002
X10.37Y-4.3002
X10.37Y-4.4002
X10.37Y-4.5002
X10.37Y-4.6002
X10.37Y-4.7002
X10.37Y-4.8002
X10.37Y-4.96
X10.37Y-5.06
X10.37Y-5.16
X10.37Y-5.26
X10.37Y-5.36
X10.37Y-5.46
X10.37Y-5.56
X10.37Y-5.66
T3
X9.06Y-4.92
X9.06Y-5.02
X9.06Y-5.12
X9.06Y-5.22
X9.06Y-5.32
X9.06Y-5.42
X9.06Y-5.52
X9.06Y-5.62
X9.16Y-4.92
X9.16Y-5.02
X9.16Y-5.12
X9.16Y-5.22
X9.16Y-5.32
X9.16Y-5.42
X9.16Y-5.52
X9.16Y-5.62
X8.62Y-4.92
X8.62Y-5.02
X8.62Y-5.12
X8.62Y-5.22
X8.62Y-5.32
X8.62Y-5.42
X8.62Y-5.52
X8.62Y-5.62
X8.72Y-4.92
X8.72Y-5.02
X8.72Y-5.12
X8.72Y-5.22
X8.72Y-5.32
X8.72Y-5.42
X8.72Y-5.52
X8.72Y-5.62
X9.94Y-4.92
X9.94Y-5.02
X9.94Y-5.12
X9.94Y-5.22
X9.94Y-5.32
X9.94Y-5.42
X9.94Y-5.52
X9.94Y-5.62
X10.04Y-4.92
X10.04Y-5.02
X10.04Y-5.12
X10.04Y-5.22
X10.04Y-5.32
X10.04Y-5.42
X10.04Y-5.52
X10.04Y-5.62
X10.37Y-3.47
X10.37Y-3.57
X10.37Y-3.67
X10.37Y-3.77
X9.048Y-3.5197
X9.048Y-3.6197
X9.148Y-3.5197
X9.148Y-3.6197
X9.248Y-3.5197
X9.248Y-3.6197
X9.348Y-3.5197
X9.348Y-3.6197
X9.448Y-3.5197
X9.448Y-3.6197
X9.548Y-3.5197
X9.548Y-3.6197
X9.648Y-3.5197
X9.648Y-3.6197
X9.748Y-3.5197
X9.748Y-3.6197
X9.5Y-4.92
X9.5Y-5.02
X9.5Y-5.12
X9.5Y-5.22
X9.5Y-5.32
X9.5Y-5.42
X9.5Y-5.52
X9.5Y-5.62
X9.6Y-4.92
X9.6Y-5.02
X9.6Y-5.12
X9.6Y-5.22
X9.6Y-5.32
X9.6Y-5.42
X9.6Y-5.52
X9.6Y-5.62
T0
M30
