M48
;DRILL file {KiCad 5.0.2-bee76a0~70~ubuntu18.04.1} date Mon 28 Jan 2019 08:05:29 PM MST
;FORMAT={-:-/ absolute / inch / decimal}
FMAT,2
INCH,TZ
T1C0.0100
T2C0.0315
T3C0.0394
%
G90
G05
T1
X8.73Y-4.44
X8.88Y-4.19
X8.88Y-4.24
X8.92Y-4.29
X8.99Y-4.04
X9.05Y-4.74
X9.155Y-3.905
X9.175Y-4.44
X9.2Y-4.19
X9.2Y-4.24
X9.36Y-4.3
X9.39Y-4.045
X9.46Y-4.45
X9.47Y-4.2156
X9.48Y-4.17
X9.485Y-4.045
X9.6Y-4.44
X9.62Y-4.24
X9.64Y-4.19
X9.72Y-4.26
X9.8Y-4.04
X9.84Y-4.32
X10.035Y-4.44
X10.06Y-4.24
X10.08Y-4.19
X10.15Y-4.26
T2
X8.47Y-4.26
X8.47Y-4.36
X8.47Y-4.46
X8.47Y-4.56
X8.47Y-4.66
X8.47Y-4.76
X8.47Y-4.86
X8.47Y-4.96
X8.47Y-5.16
X8.47Y-5.26
X8.47Y-5.36
X8.47Y-5.46
X8.47Y-5.56
X8.47Y-5.66
X10.37Y-3.9002
X10.37Y-4.0002
X10.37Y-4.1002
X10.37Y-4.2002
X10.37Y-4.3002
X10.37Y-4.4002
X10.37Y-4.5002
X10.37Y-4.6002
X10.37Y-4.7002
X10.37Y-4.8002
X10.37Y-4.96
X10.37Y-5.06
X10.37Y-5.16
X10.37Y-5.26
X10.37Y-5.36
X10.37Y-5.46
X10.37Y-5.56
X10.37Y-5.66
T3
X9.5Y-4.92
X9.5Y-5.02
X9.5Y-5.12
X9.5Y-5.22
X9.5Y-5.32
X9.5Y-5.42
X9.5Y-5.52
X9.5Y-5.62
X9.6Y-4.92
X9.6Y-5.02
X9.6Y-5.12
X9.6Y-5.22
X9.6Y-5.32
X9.6Y-5.42
X9.6Y-5.52
X9.6Y-5.62
X8.62Y-4.92
X8.62Y-5.02
X8.62Y-5.12
X8.62Y-5.22
X8.62Y-5.32
X8.62Y-5.42
X8.62Y-5.52
X8.62Y-5.62
X8.72Y-4.92
X8.72Y-5.02
X8.72Y-5.12
X8.72Y-5.22
X8.72Y-5.32
X8.72Y-5.42
X8.72Y-5.52
X8.72Y-5.62
X10.37Y-3.47
X10.37Y-3.57
X10.37Y-3.67
X10.37Y-3.77
X9.05Y-3.63
X9.05Y-3.73
X9.15Y-3.63
X9.15Y-3.73
X9.25Y-3.63
X9.25Y-3.73
X9.35Y-3.63
X9.35Y-3.73
X9.45Y-3.63
X9.45Y-3.73
X9.55Y-3.63
X9.55Y-3.73
X9.65Y-3.63
X9.65Y-3.73
X9.75Y-3.63
X9.75Y-3.73
X9.94Y-4.92
X9.94Y-5.02
X9.94Y-5.12
X9.94Y-5.22
X9.94Y-5.32
X9.94Y-5.42
X9.94Y-5.52
X9.94Y-5.62
X10.04Y-4.92
X10.04Y-5.02
X10.04Y-5.12
X10.04Y-5.22
X10.04Y-5.32
X10.04Y-5.42
X10.04Y-5.52
X10.04Y-5.62
X9.06Y-4.92
X9.06Y-5.02
X9.06Y-5.12
X9.06Y-5.22
X9.06Y-5.32
X9.06Y-5.42
X9.06Y-5.52
X9.06Y-5.62
X9.16Y-4.92
X9.16Y-5.02
X9.16Y-5.12
X9.16Y-5.22
X9.16Y-5.32
X9.16Y-5.42
X9.16Y-5.52
X9.16Y-5.62
T0
M30
