G04 #@! TF.GenerationSoftware,KiCad,Pcbnew,5.0.2-bee76a0~70~ubuntu18.04.1*
G04 #@! TF.CreationDate,2019-02-21T21:15:02-07:00*
G04 #@! TF.ProjectId,adc,6164632e-6b69-4636-9164-5f7063625858,rev?*
G04 #@! TF.SameCoordinates,Original*
G04 #@! TF.FileFunction,Legend,Bot*
G04 #@! TF.FilePolarity,Positive*
%FSLAX46Y46*%
G04 Gerber Fmt 4.6, Leading zero omitted, Abs format (unit mm)*
G04 Created by KiCad (PCBNEW 5.0.2-bee76a0~70~ubuntu18.04.1) date Thu 21 Feb 2019 09:15:02 PM MST*
%MOMM*%
%LPD*%
G01*
G04 APERTURE LIST*
%ADD10C,0.300000*%
%ADD11C,0.120000*%
%ADD12C,0.150000*%
G04 APERTURE END LIST*
D10*
X255938571Y-83811000D02*
X255224285Y-83811000D01*
X256081428Y-84239571D02*
X255581428Y-82739571D01*
X255081428Y-84239571D01*
X254581428Y-84239571D02*
X254581428Y-82739571D01*
X254224285Y-82739571D01*
X254010000Y-82811000D01*
X253867142Y-82953857D01*
X253795714Y-83096714D01*
X253724285Y-83382428D01*
X253724285Y-83596714D01*
X253795714Y-83882428D01*
X253867142Y-84025285D01*
X254010000Y-84168142D01*
X254224285Y-84239571D01*
X254581428Y-84239571D01*
X252224285Y-84096714D02*
X252295714Y-84168142D01*
X252510000Y-84239571D01*
X252652857Y-84239571D01*
X252867142Y-84168142D01*
X253010000Y-84025285D01*
X253081428Y-83882428D01*
X253152857Y-83596714D01*
X253152857Y-83382428D01*
X253081428Y-83096714D01*
X253010000Y-82953857D01*
X252867142Y-82811000D01*
X252652857Y-82739571D01*
X252510000Y-82739571D01*
X252295714Y-82811000D01*
X252224285Y-82882428D01*
X250795714Y-84239571D02*
X251652857Y-84239571D01*
X251224285Y-84239571D02*
X251224285Y-82739571D01*
X251367142Y-82953857D01*
X251510000Y-83096714D01*
X251652857Y-83168142D01*
X250224285Y-82882428D02*
X250152857Y-82811000D01*
X250010000Y-82739571D01*
X249652857Y-82739571D01*
X249510000Y-82811000D01*
X249438571Y-82882428D01*
X249367142Y-83025285D01*
X249367142Y-83168142D01*
X249438571Y-83382428D01*
X250295714Y-84239571D01*
X249367142Y-84239571D01*
X248510000Y-83382428D02*
X248652857Y-83311000D01*
X248724285Y-83239571D01*
X248795714Y-83096714D01*
X248795714Y-83025285D01*
X248724285Y-82882428D01*
X248652857Y-82811000D01*
X248510000Y-82739571D01*
X248224285Y-82739571D01*
X248081428Y-82811000D01*
X248010000Y-82882428D01*
X247938571Y-83025285D01*
X247938571Y-83096714D01*
X248010000Y-83239571D01*
X248081428Y-83311000D01*
X248224285Y-83382428D01*
X248510000Y-83382428D01*
X248652857Y-83453857D01*
X248724285Y-83525285D01*
X248795714Y-83668142D01*
X248795714Y-83953857D01*
X248724285Y-84096714D01*
X248652857Y-84168142D01*
X248510000Y-84239571D01*
X248224285Y-84239571D01*
X248081428Y-84168142D01*
X248010000Y-84096714D01*
X247938571Y-83953857D01*
X247938571Y-83668142D01*
X248010000Y-83525285D01*
X248081428Y-83453857D01*
X248224285Y-83382428D01*
X247295714Y-84239571D02*
X247295714Y-82739571D01*
X246938571Y-82739571D01*
X246724285Y-82811000D01*
X246581428Y-82953857D01*
X246510000Y-83096714D01*
X246438571Y-83382428D01*
X246438571Y-83596714D01*
X246510000Y-83882428D01*
X246581428Y-84025285D01*
X246724285Y-84168142D01*
X246938571Y-84239571D01*
X247295714Y-84239571D01*
X245581428Y-83382428D02*
X245724285Y-83311000D01*
X245795714Y-83239571D01*
X245867142Y-83096714D01*
X245867142Y-83025285D01*
X245795714Y-82882428D01*
X245724285Y-82811000D01*
X245581428Y-82739571D01*
X245295714Y-82739571D01*
X245152857Y-82811000D01*
X245081428Y-82882428D01*
X245010000Y-83025285D01*
X245010000Y-83096714D01*
X245081428Y-83239571D01*
X245152857Y-83311000D01*
X245295714Y-83382428D01*
X245581428Y-83382428D01*
X245724285Y-83453857D01*
X245795714Y-83525285D01*
X245867142Y-83668142D01*
X245867142Y-83953857D01*
X245795714Y-84096714D01*
X245724285Y-84168142D01*
X245581428Y-84239571D01*
X245295714Y-84239571D01*
X245152857Y-84168142D01*
X245081428Y-84096714D01*
X245010000Y-83953857D01*
X245010000Y-83668142D01*
X245081428Y-83525285D01*
X245152857Y-83453857D01*
X245295714Y-83382428D01*
X243581428Y-84239571D02*
X244438571Y-84239571D01*
X244010000Y-84239571D02*
X244010000Y-82739571D01*
X244152857Y-82953857D01*
X244295714Y-83096714D01*
X244438571Y-83168142D01*
X242724285Y-83382428D02*
X242867142Y-83311000D01*
X242938571Y-83239571D01*
X243010000Y-83096714D01*
X243010000Y-83025285D01*
X242938571Y-82882428D01*
X242867142Y-82811000D01*
X242724285Y-82739571D01*
X242438571Y-82739571D01*
X242295714Y-82811000D01*
X242224285Y-82882428D01*
X242152857Y-83025285D01*
X242152857Y-83096714D01*
X242224285Y-83239571D01*
X242295714Y-83311000D01*
X242438571Y-83382428D01*
X242724285Y-83382428D01*
X242867142Y-83453857D01*
X242938571Y-83525285D01*
X243010000Y-83668142D01*
X243010000Y-83953857D01*
X242938571Y-84096714D01*
X242867142Y-84168142D01*
X242724285Y-84239571D01*
X242438571Y-84239571D01*
X242295714Y-84168142D01*
X242224285Y-84096714D01*
X242152857Y-83953857D01*
X242152857Y-83668142D01*
X242224285Y-83525285D01*
X242295714Y-83453857D01*
X242438571Y-83382428D01*
X240581428Y-82739571D02*
X239724285Y-82739571D01*
X240152857Y-84239571D02*
X240152857Y-82739571D01*
X239224285Y-84239571D02*
X239224285Y-82739571D01*
X238581428Y-84239571D02*
X238581428Y-83453857D01*
X238652857Y-83311000D01*
X238795714Y-83239571D01*
X239010000Y-83239571D01*
X239152857Y-83311000D01*
X239224285Y-83382428D01*
X237295714Y-84168142D02*
X237438571Y-84239571D01*
X237724285Y-84239571D01*
X237867142Y-84168142D01*
X237938571Y-84025285D01*
X237938571Y-83453857D01*
X237867142Y-83311000D01*
X237724285Y-83239571D01*
X237438571Y-83239571D01*
X237295714Y-83311000D01*
X237224285Y-83453857D01*
X237224285Y-83596714D01*
X237938571Y-83739571D01*
X236581428Y-84239571D02*
X236581428Y-83239571D01*
X236581428Y-83525285D02*
X236510000Y-83382428D01*
X236438571Y-83311000D01*
X236295714Y-83239571D01*
X236152857Y-83239571D01*
X235652857Y-84239571D02*
X235652857Y-83239571D01*
X235652857Y-83382428D02*
X235581428Y-83311000D01*
X235438571Y-83239571D01*
X235224285Y-83239571D01*
X235081428Y-83311000D01*
X235010000Y-83453857D01*
X235010000Y-84239571D01*
X235010000Y-83453857D02*
X234938571Y-83311000D01*
X234795714Y-83239571D01*
X234581428Y-83239571D01*
X234438571Y-83311000D01*
X234367142Y-83453857D01*
X234367142Y-84239571D01*
X233652857Y-84239571D02*
X233652857Y-83239571D01*
X233652857Y-82739571D02*
X233724285Y-82811000D01*
X233652857Y-82882428D01*
X233581428Y-82811000D01*
X233652857Y-82739571D01*
X233652857Y-82882428D01*
X233010000Y-84168142D02*
X232867142Y-84239571D01*
X232581428Y-84239571D01*
X232438571Y-84168142D01*
X232367142Y-84025285D01*
X232367142Y-83953857D01*
X232438571Y-83811000D01*
X232581428Y-83739571D01*
X232795714Y-83739571D01*
X232938571Y-83668142D01*
X233010000Y-83525285D01*
X233010000Y-83453857D01*
X232938571Y-83311000D01*
X232795714Y-83239571D01*
X232581428Y-83239571D01*
X232438571Y-83311000D01*
X231938571Y-83239571D02*
X231367142Y-83239571D01*
X231724285Y-82739571D02*
X231724285Y-84025285D01*
X231652857Y-84168142D01*
X231510000Y-84239571D01*
X231367142Y-84239571D01*
X230652857Y-84239571D02*
X230795714Y-84168142D01*
X230867142Y-84096714D01*
X230938571Y-83953857D01*
X230938571Y-83525285D01*
X230867142Y-83382428D01*
X230795714Y-83311000D01*
X230652857Y-83239571D01*
X230438571Y-83239571D01*
X230295714Y-83311000D01*
X230224285Y-83382428D01*
X230152857Y-83525285D01*
X230152857Y-83953857D01*
X230224285Y-84096714D01*
X230295714Y-84168142D01*
X230438571Y-84239571D01*
X230652857Y-84239571D01*
X229510000Y-84239571D02*
X229510000Y-83239571D01*
X229510000Y-83525285D02*
X229438571Y-83382428D01*
X229367142Y-83311000D01*
X229224285Y-83239571D01*
X229081428Y-83239571D01*
X226938571Y-83453857D02*
X226724285Y-83525285D01*
X226652857Y-83596714D01*
X226581428Y-83739571D01*
X226581428Y-83953857D01*
X226652857Y-84096714D01*
X226724285Y-84168142D01*
X226867142Y-84239571D01*
X227438571Y-84239571D01*
X227438571Y-82739571D01*
X226938571Y-82739571D01*
X226795714Y-82811000D01*
X226724285Y-82882428D01*
X226652857Y-83025285D01*
X226652857Y-83168142D01*
X226724285Y-83311000D01*
X226795714Y-83382428D01*
X226938571Y-83453857D01*
X227438571Y-83453857D01*
X225724285Y-84239571D02*
X225867142Y-84168142D01*
X225938571Y-84096714D01*
X226010000Y-83953857D01*
X226010000Y-83525285D01*
X225938571Y-83382428D01*
X225867142Y-83311000D01*
X225724285Y-83239571D01*
X225510000Y-83239571D01*
X225367142Y-83311000D01*
X225295714Y-83382428D01*
X225224285Y-83525285D01*
X225224285Y-83953857D01*
X225295714Y-84096714D01*
X225367142Y-84168142D01*
X225510000Y-84239571D01*
X225724285Y-84239571D01*
X223938571Y-84239571D02*
X223938571Y-83453857D01*
X224010000Y-83311000D01*
X224152857Y-83239571D01*
X224438571Y-83239571D01*
X224581428Y-83311000D01*
X223938571Y-84168142D02*
X224081428Y-84239571D01*
X224438571Y-84239571D01*
X224581428Y-84168142D01*
X224652857Y-84025285D01*
X224652857Y-83882428D01*
X224581428Y-83739571D01*
X224438571Y-83668142D01*
X224081428Y-83668142D01*
X223938571Y-83596714D01*
X223224285Y-84239571D02*
X223224285Y-83239571D01*
X223224285Y-83525285D02*
X223152857Y-83382428D01*
X223081428Y-83311000D01*
X222938571Y-83239571D01*
X222795714Y-83239571D01*
X221652857Y-84239571D02*
X221652857Y-82739571D01*
X221652857Y-84168142D02*
X221795714Y-84239571D01*
X222081428Y-84239571D01*
X222224285Y-84168142D01*
X222295714Y-84096714D01*
X222367142Y-83953857D01*
X222367142Y-83525285D01*
X222295714Y-83382428D01*
X222224285Y-83311000D01*
X222081428Y-83239571D01*
X221795714Y-83239571D01*
X221652857Y-83311000D01*
X246045714Y-85289571D02*
X246045714Y-86361000D01*
X246117142Y-86575285D01*
X246260000Y-86718142D01*
X246474285Y-86789571D01*
X246617142Y-86789571D01*
X244688571Y-86789571D02*
X244688571Y-86003857D01*
X244760000Y-85861000D01*
X244902857Y-85789571D01*
X245188571Y-85789571D01*
X245331428Y-85861000D01*
X244688571Y-86718142D02*
X244831428Y-86789571D01*
X245188571Y-86789571D01*
X245331428Y-86718142D01*
X245402857Y-86575285D01*
X245402857Y-86432428D01*
X245331428Y-86289571D01*
X245188571Y-86218142D01*
X244831428Y-86218142D01*
X244688571Y-86146714D01*
X243331428Y-86718142D02*
X243474285Y-86789571D01*
X243760000Y-86789571D01*
X243902857Y-86718142D01*
X243974285Y-86646714D01*
X244045714Y-86503857D01*
X244045714Y-86075285D01*
X243974285Y-85932428D01*
X243902857Y-85861000D01*
X243760000Y-85789571D01*
X243474285Y-85789571D01*
X243331428Y-85861000D01*
X242474285Y-86789571D02*
X242617142Y-86718142D01*
X242688571Y-86646714D01*
X242760000Y-86503857D01*
X242760000Y-86075285D01*
X242688571Y-85932428D01*
X242617142Y-85861000D01*
X242474285Y-85789571D01*
X242260000Y-85789571D01*
X242117142Y-85861000D01*
X242045714Y-85932428D01*
X241974285Y-86075285D01*
X241974285Y-86503857D01*
X242045714Y-86646714D01*
X242117142Y-86718142D01*
X242260000Y-86789571D01*
X242474285Y-86789571D01*
X241331428Y-86789571D02*
X241331428Y-85289571D01*
X241331428Y-85861000D02*
X241188571Y-85789571D01*
X240902857Y-85789571D01*
X240760000Y-85861000D01*
X240688571Y-85932428D01*
X240617142Y-86075285D01*
X240617142Y-86503857D01*
X240688571Y-86646714D01*
X240760000Y-86718142D01*
X240902857Y-86789571D01*
X241188571Y-86789571D01*
X241331428Y-86718142D01*
X238831428Y-86789571D02*
X238831428Y-85289571D01*
X237974285Y-86789571D02*
X238617142Y-85932428D01*
X237974285Y-85289571D02*
X238831428Y-86146714D01*
X237331428Y-86789571D02*
X237331428Y-85789571D01*
X237331428Y-85289571D02*
X237402857Y-85361000D01*
X237331428Y-85432428D01*
X237260000Y-85361000D01*
X237331428Y-85289571D01*
X237331428Y-85432428D01*
X236402857Y-86789571D02*
X236545714Y-86718142D01*
X236617142Y-86575285D01*
X236617142Y-85289571D01*
X235617142Y-86789571D02*
X235760000Y-86718142D01*
X235831428Y-86575285D01*
X235831428Y-85289571D01*
X234474285Y-86718142D02*
X234617142Y-86789571D01*
X234902857Y-86789571D01*
X235045714Y-86718142D01*
X235117142Y-86575285D01*
X235117142Y-86003857D01*
X235045714Y-85861000D01*
X234902857Y-85789571D01*
X234617142Y-85789571D01*
X234474285Y-85861000D01*
X234402857Y-86003857D01*
X234402857Y-86146714D01*
X235117142Y-86289571D01*
X233545714Y-86789571D02*
X233688571Y-86718142D01*
X233760000Y-86575285D01*
X233760000Y-85289571D01*
X232402857Y-86718142D02*
X232545714Y-86789571D01*
X232831428Y-86789571D01*
X232974285Y-86718142D01*
X233045714Y-86575285D01*
X233045714Y-86003857D01*
X232974285Y-85861000D01*
X232831428Y-85789571D01*
X232545714Y-85789571D01*
X232402857Y-85861000D01*
X232331428Y-86003857D01*
X232331428Y-86146714D01*
X233045714Y-86289571D01*
X231045714Y-86789571D02*
X231045714Y-86003857D01*
X231117142Y-85861000D01*
X231260000Y-85789571D01*
X231545714Y-85789571D01*
X231688571Y-85861000D01*
X231045714Y-86718142D02*
X231188571Y-86789571D01*
X231545714Y-86789571D01*
X231688571Y-86718142D01*
X231760000Y-86575285D01*
X231760000Y-86432428D01*
X231688571Y-86289571D01*
X231545714Y-86218142D01*
X231188571Y-86218142D01*
X231045714Y-86146714D01*
D11*
G04 #@! TO.C,A1*
X250448000Y-148974000D02*
X217678000Y-148974000D01*
X217678000Y-148974000D02*
X215138000Y-146434000D01*
X215138000Y-146434000D02*
X212468000Y-146434000D01*
X212468000Y-146434000D02*
X212468000Y-80134000D01*
X212468000Y-80134000D02*
X215648000Y-80134000D01*
X215648000Y-80134000D02*
X215648000Y-78234000D01*
X215648000Y-78234000D02*
X224788000Y-78234000D01*
X224788000Y-78234000D02*
X224788000Y-80134000D01*
X224788000Y-80134000D02*
X244858000Y-80134000D01*
X244858000Y-80134000D02*
X244858000Y-73784000D01*
X244858000Y-73784000D02*
X256538000Y-73784000D01*
X256538000Y-73784000D02*
X256538000Y-80134000D01*
X256538000Y-80134000D02*
X266068000Y-80134000D01*
X266068000Y-80134000D02*
X266068000Y-144784000D01*
X266068000Y-144784000D02*
X264418000Y-146434000D01*
X264418000Y-146434000D02*
X252988000Y-146434000D01*
X252988000Y-146434000D02*
X250448000Y-148974000D01*
G04 #@! TO.C,R1*
X260148000Y-111743748D02*
X260148000Y-112266252D01*
X261568000Y-111743748D02*
X261568000Y-112266252D01*
G04 #@! TO.C,R2*
X260148000Y-116856252D02*
X260148000Y-116333748D01*
X261568000Y-116856252D02*
X261568000Y-116333748D01*
G04 #@! TO.C,R3*
X251974000Y-111415748D02*
X251974000Y-111938252D01*
X250554000Y-111415748D02*
X250554000Y-111938252D01*
G04 #@! TO.C,R4*
X251974000Y-115715748D02*
X251974000Y-116238252D01*
X250554000Y-115715748D02*
X250554000Y-116238252D01*
G04 #@! TO.C,R5*
X252110000Y-121086252D02*
X252110000Y-120563748D01*
X250690000Y-121086252D02*
X250690000Y-120563748D01*
G04 #@! TO.C,R6*
X239310000Y-116913748D02*
X239310000Y-117436252D01*
X237890000Y-116913748D02*
X237890000Y-117436252D01*
G04 #@! TO.C,R7*
X239310000Y-112836252D02*
X239310000Y-112313748D01*
X237890000Y-112836252D02*
X237890000Y-112313748D01*
G04 #@! TO.C,R8*
X229310000Y-112436252D02*
X229310000Y-111913748D01*
X227890000Y-112436252D02*
X227890000Y-111913748D01*
G04 #@! TO.C,R9*
X227890000Y-120363748D02*
X227890000Y-120886252D01*
X229310000Y-120363748D02*
X229310000Y-120886252D01*
G04 #@! TO.C,R10*
X229310000Y-116436252D02*
X229310000Y-115913748D01*
X227890000Y-116436252D02*
X227890000Y-115913748D01*
G04 #@! TO.C,R11*
X233732000Y-100074252D02*
X233732000Y-99551748D01*
X235152000Y-100074252D02*
X235152000Y-99551748D01*
G04 #@! TO.C,R12*
X235152000Y-104138252D02*
X235152000Y-103615748D01*
X233732000Y-104138252D02*
X233732000Y-103615748D01*
G04 #@! TO.C,R13*
X243788000Y-103633748D02*
X243788000Y-104156252D01*
X242368000Y-103633748D02*
X242368000Y-104156252D01*
G04 #@! TO.C,R14*
X243788000Y-99551748D02*
X243788000Y-100074252D01*
X242368000Y-99551748D02*
X242368000Y-100074252D01*
D12*
G04 #@! TO.C,U1*
X258757000Y-111846000D02*
X258757000Y-116246000D01*
X253232000Y-110271000D02*
X253232000Y-116246000D01*
G04 #@! TO.C,U2*
X242310000Y-110271000D02*
X242310000Y-116246000D01*
X247835000Y-111846000D02*
X247835000Y-116246000D01*
G04 #@! TO.C,U3*
X236913000Y-111846000D02*
X236913000Y-116246000D01*
X231388000Y-110271000D02*
X231388000Y-116246000D01*
G04 #@! TO.C,U4*
X219958000Y-110271000D02*
X219958000Y-116246000D01*
X225483000Y-111846000D02*
X225483000Y-116246000D01*
G04 #@! TO.C,U5*
X236035000Y-103702000D02*
X236035000Y-99302000D01*
X241560000Y-105277000D02*
X241560000Y-99302000D01*
G04 #@! TO.C,A1*
X211494666Y-108759714D02*
X211494666Y-109235904D01*
X211780380Y-108664476D02*
X210780380Y-108997809D01*
X211780380Y-109331142D01*
X211780380Y-110188285D02*
X211780380Y-109616857D01*
X211780380Y-109902571D02*
X210780380Y-109902571D01*
X210923238Y-109807333D01*
X211018476Y-109712095D01*
X211066095Y-109616857D01*
G04 #@! TO.C,R1*
X261310380Y-108545333D02*
X260834190Y-108212000D01*
X261310380Y-107973904D02*
X260310380Y-107973904D01*
X260310380Y-108354857D01*
X260358000Y-108450095D01*
X260405619Y-108497714D01*
X260500857Y-108545333D01*
X260643714Y-108545333D01*
X260738952Y-108497714D01*
X260786571Y-108450095D01*
X260834190Y-108354857D01*
X260834190Y-107973904D01*
X261310380Y-109497714D02*
X261310380Y-108926285D01*
X261310380Y-109212000D02*
X260310380Y-109212000D01*
X260453238Y-109116761D01*
X260548476Y-109021523D01*
X260596095Y-108926285D01*
G04 #@! TO.C,R2*
X261310380Y-119467333D02*
X260834190Y-119134000D01*
X261310380Y-118895904D02*
X260310380Y-118895904D01*
X260310380Y-119276857D01*
X260358000Y-119372095D01*
X260405619Y-119419714D01*
X260500857Y-119467333D01*
X260643714Y-119467333D01*
X260738952Y-119419714D01*
X260786571Y-119372095D01*
X260834190Y-119276857D01*
X260834190Y-118895904D01*
X260405619Y-119848285D02*
X260358000Y-119895904D01*
X260310380Y-119991142D01*
X260310380Y-120229238D01*
X260358000Y-120324476D01*
X260405619Y-120372095D01*
X260500857Y-120419714D01*
X260596095Y-120419714D01*
X260738952Y-120372095D01*
X261310380Y-119800666D01*
X261310380Y-120419714D01*
G04 #@! TO.C,R3*
X249684380Y-111510333D02*
X249208190Y-111177000D01*
X249684380Y-110938904D02*
X248684380Y-110938904D01*
X248684380Y-111319857D01*
X248732000Y-111415095D01*
X248779619Y-111462714D01*
X248874857Y-111510333D01*
X249017714Y-111510333D01*
X249112952Y-111462714D01*
X249160571Y-111415095D01*
X249208190Y-111319857D01*
X249208190Y-110938904D01*
X248684380Y-111843666D02*
X248684380Y-112462714D01*
X249065333Y-112129380D01*
X249065333Y-112272238D01*
X249112952Y-112367476D01*
X249160571Y-112415095D01*
X249255809Y-112462714D01*
X249493904Y-112462714D01*
X249589142Y-112415095D01*
X249636761Y-112367476D01*
X249684380Y-112272238D01*
X249684380Y-111986523D01*
X249636761Y-111891285D01*
X249589142Y-111843666D01*
G04 #@! TO.C,R4*
X249684380Y-115819333D02*
X249208190Y-115486000D01*
X249684380Y-115247904D02*
X248684380Y-115247904D01*
X248684380Y-115628857D01*
X248732000Y-115724095D01*
X248779619Y-115771714D01*
X248874857Y-115819333D01*
X249017714Y-115819333D01*
X249112952Y-115771714D01*
X249160571Y-115724095D01*
X249208190Y-115628857D01*
X249208190Y-115247904D01*
X249017714Y-116676476D02*
X249684380Y-116676476D01*
X248636761Y-116438380D02*
X249351047Y-116200285D01*
X249351047Y-116819333D01*
G04 #@! TO.C,R5*
X249820380Y-120658333D02*
X249344190Y-120325000D01*
X249820380Y-120086904D02*
X248820380Y-120086904D01*
X248820380Y-120467857D01*
X248868000Y-120563095D01*
X248915619Y-120610714D01*
X249010857Y-120658333D01*
X249153714Y-120658333D01*
X249248952Y-120610714D01*
X249296571Y-120563095D01*
X249344190Y-120467857D01*
X249344190Y-120086904D01*
X248820380Y-121563095D02*
X248820380Y-121086904D01*
X249296571Y-121039285D01*
X249248952Y-121086904D01*
X249201333Y-121182142D01*
X249201333Y-121420238D01*
X249248952Y-121515476D01*
X249296571Y-121563095D01*
X249391809Y-121610714D01*
X249629904Y-121610714D01*
X249725142Y-121563095D01*
X249772761Y-121515476D01*
X249820380Y-121420238D01*
X249820380Y-121182142D01*
X249772761Y-121086904D01*
X249725142Y-121039285D01*
G04 #@! TO.C,R6*
X241084380Y-117017333D02*
X240608190Y-116684000D01*
X241084380Y-116445904D02*
X240084380Y-116445904D01*
X240084380Y-116826857D01*
X240132000Y-116922095D01*
X240179619Y-116969714D01*
X240274857Y-117017333D01*
X240417714Y-117017333D01*
X240512952Y-116969714D01*
X240560571Y-116922095D01*
X240608190Y-116826857D01*
X240608190Y-116445904D01*
X240084380Y-117874476D02*
X240084380Y-117684000D01*
X240132000Y-117588761D01*
X240179619Y-117541142D01*
X240322476Y-117445904D01*
X240512952Y-117398285D01*
X240893904Y-117398285D01*
X240989142Y-117445904D01*
X241036761Y-117493523D01*
X241084380Y-117588761D01*
X241084380Y-117779238D01*
X241036761Y-117874476D01*
X240989142Y-117922095D01*
X240893904Y-117969714D01*
X240655809Y-117969714D01*
X240560571Y-117922095D01*
X240512952Y-117874476D01*
X240465333Y-117779238D01*
X240465333Y-117588761D01*
X240512952Y-117493523D01*
X240560571Y-117445904D01*
X240655809Y-117398285D01*
G04 #@! TO.C,R7*
X241084380Y-112399333D02*
X240608190Y-112066000D01*
X241084380Y-111827904D02*
X240084380Y-111827904D01*
X240084380Y-112208857D01*
X240132000Y-112304095D01*
X240179619Y-112351714D01*
X240274857Y-112399333D01*
X240417714Y-112399333D01*
X240512952Y-112351714D01*
X240560571Y-112304095D01*
X240608190Y-112208857D01*
X240608190Y-111827904D01*
X240084380Y-112732666D02*
X240084380Y-113399333D01*
X241084380Y-112970761D01*
G04 #@! TO.C,R8*
X231084380Y-112017333D02*
X230608190Y-111684000D01*
X231084380Y-111445904D02*
X230084380Y-111445904D01*
X230084380Y-111826857D01*
X230132000Y-111922095D01*
X230179619Y-111969714D01*
X230274857Y-112017333D01*
X230417714Y-112017333D01*
X230512952Y-111969714D01*
X230560571Y-111922095D01*
X230608190Y-111826857D01*
X230608190Y-111445904D01*
X230512952Y-112588761D02*
X230465333Y-112493523D01*
X230417714Y-112445904D01*
X230322476Y-112398285D01*
X230274857Y-112398285D01*
X230179619Y-112445904D01*
X230132000Y-112493523D01*
X230084380Y-112588761D01*
X230084380Y-112779238D01*
X230132000Y-112874476D01*
X230179619Y-112922095D01*
X230274857Y-112969714D01*
X230322476Y-112969714D01*
X230417714Y-112922095D01*
X230465333Y-112874476D01*
X230512952Y-112779238D01*
X230512952Y-112588761D01*
X230560571Y-112493523D01*
X230608190Y-112445904D01*
X230703428Y-112398285D01*
X230893904Y-112398285D01*
X230989142Y-112445904D01*
X231036761Y-112493523D01*
X231084380Y-112588761D01*
X231084380Y-112779238D01*
X231036761Y-112874476D01*
X230989142Y-112922095D01*
X230893904Y-112969714D01*
X230703428Y-112969714D01*
X230608190Y-112922095D01*
X230560571Y-112874476D01*
X230512952Y-112779238D01*
G04 #@! TO.C,R9*
X227274380Y-120458333D02*
X226798190Y-120125000D01*
X227274380Y-119886904D02*
X226274380Y-119886904D01*
X226274380Y-120267857D01*
X226322000Y-120363095D01*
X226369619Y-120410714D01*
X226464857Y-120458333D01*
X226607714Y-120458333D01*
X226702952Y-120410714D01*
X226750571Y-120363095D01*
X226798190Y-120267857D01*
X226798190Y-119886904D01*
X227274380Y-120934523D02*
X227274380Y-121125000D01*
X227226761Y-121220238D01*
X227179142Y-121267857D01*
X227036285Y-121363095D01*
X226845809Y-121410714D01*
X226464857Y-121410714D01*
X226369619Y-121363095D01*
X226322000Y-121315476D01*
X226274380Y-121220238D01*
X226274380Y-121029761D01*
X226322000Y-120934523D01*
X226369619Y-120886904D01*
X226464857Y-120839285D01*
X226702952Y-120839285D01*
X226798190Y-120886904D01*
X226845809Y-120934523D01*
X226893428Y-121029761D01*
X226893428Y-121220238D01*
X226845809Y-121315476D01*
X226798190Y-121363095D01*
X226702952Y-121410714D01*
G04 #@! TO.C,R10*
X231084380Y-115269142D02*
X230608190Y-114935809D01*
X231084380Y-114697714D02*
X230084380Y-114697714D01*
X230084380Y-115078666D01*
X230132000Y-115173904D01*
X230179619Y-115221523D01*
X230274857Y-115269142D01*
X230417714Y-115269142D01*
X230512952Y-115221523D01*
X230560571Y-115173904D01*
X230608190Y-115078666D01*
X230608190Y-114697714D01*
X231084380Y-116221523D02*
X231084380Y-115650095D01*
X231084380Y-115935809D02*
X230084380Y-115935809D01*
X230227238Y-115840571D01*
X230322476Y-115745333D01*
X230370095Y-115650095D01*
X230084380Y-116840571D02*
X230084380Y-116935809D01*
X230132000Y-117031047D01*
X230179619Y-117078666D01*
X230274857Y-117126285D01*
X230465333Y-117173904D01*
X230703428Y-117173904D01*
X230893904Y-117126285D01*
X230989142Y-117078666D01*
X231036761Y-117031047D01*
X231084380Y-116935809D01*
X231084380Y-116840571D01*
X231036761Y-116745333D01*
X230989142Y-116697714D01*
X230893904Y-116650095D01*
X230703428Y-116602476D01*
X230465333Y-116602476D01*
X230274857Y-116650095D01*
X230179619Y-116697714D01*
X230132000Y-116745333D01*
X230084380Y-116840571D01*
G04 #@! TO.C,R11*
X232608380Y-99433142D02*
X232132190Y-99099809D01*
X232608380Y-98861714D02*
X231608380Y-98861714D01*
X231608380Y-99242666D01*
X231656000Y-99337904D01*
X231703619Y-99385523D01*
X231798857Y-99433142D01*
X231941714Y-99433142D01*
X232036952Y-99385523D01*
X232084571Y-99337904D01*
X232132190Y-99242666D01*
X232132190Y-98861714D01*
X232608380Y-100385523D02*
X232608380Y-99814095D01*
X232608380Y-100099809D02*
X231608380Y-100099809D01*
X231751238Y-100004571D01*
X231846476Y-99909333D01*
X231894095Y-99814095D01*
X232608380Y-101337904D02*
X232608380Y-100766476D01*
X232608380Y-101052190D02*
X231608380Y-101052190D01*
X231751238Y-100956952D01*
X231846476Y-100861714D01*
X231894095Y-100766476D01*
G04 #@! TO.C,R12*
X232608380Y-103243142D02*
X232132190Y-102909809D01*
X232608380Y-102671714D02*
X231608380Y-102671714D01*
X231608380Y-103052666D01*
X231656000Y-103147904D01*
X231703619Y-103195523D01*
X231798857Y-103243142D01*
X231941714Y-103243142D01*
X232036952Y-103195523D01*
X232084571Y-103147904D01*
X232132190Y-103052666D01*
X232132190Y-102671714D01*
X232608380Y-104195523D02*
X232608380Y-103624095D01*
X232608380Y-103909809D02*
X231608380Y-103909809D01*
X231751238Y-103814571D01*
X231846476Y-103719333D01*
X231894095Y-103624095D01*
X231703619Y-104576476D02*
X231656000Y-104624095D01*
X231608380Y-104719333D01*
X231608380Y-104957428D01*
X231656000Y-105052666D01*
X231703619Y-105100285D01*
X231798857Y-105147904D01*
X231894095Y-105147904D01*
X232036952Y-105100285D01*
X232608380Y-104528857D01*
X232608380Y-105147904D01*
G04 #@! TO.C,R13*
X245562380Y-103243142D02*
X245086190Y-102909809D01*
X245562380Y-102671714D02*
X244562380Y-102671714D01*
X244562380Y-103052666D01*
X244610000Y-103147904D01*
X244657619Y-103195523D01*
X244752857Y-103243142D01*
X244895714Y-103243142D01*
X244990952Y-103195523D01*
X245038571Y-103147904D01*
X245086190Y-103052666D01*
X245086190Y-102671714D01*
X245562380Y-104195523D02*
X245562380Y-103624095D01*
X245562380Y-103909809D02*
X244562380Y-103909809D01*
X244705238Y-103814571D01*
X244800476Y-103719333D01*
X244848095Y-103624095D01*
X244562380Y-104528857D02*
X244562380Y-105147904D01*
X244943333Y-104814571D01*
X244943333Y-104957428D01*
X244990952Y-105052666D01*
X245038571Y-105100285D01*
X245133809Y-105147904D01*
X245371904Y-105147904D01*
X245467142Y-105100285D01*
X245514761Y-105052666D01*
X245562380Y-104957428D01*
X245562380Y-104671714D01*
X245514761Y-104576476D01*
X245467142Y-104528857D01*
G04 #@! TO.C,R14*
X245562380Y-99179142D02*
X245086190Y-98845809D01*
X245562380Y-98607714D02*
X244562380Y-98607714D01*
X244562380Y-98988666D01*
X244610000Y-99083904D01*
X244657619Y-99131523D01*
X244752857Y-99179142D01*
X244895714Y-99179142D01*
X244990952Y-99131523D01*
X245038571Y-99083904D01*
X245086190Y-98988666D01*
X245086190Y-98607714D01*
X245562380Y-100131523D02*
X245562380Y-99560095D01*
X245562380Y-99845809D02*
X244562380Y-99845809D01*
X244705238Y-99750571D01*
X244800476Y-99655333D01*
X244848095Y-99560095D01*
X244895714Y-100988666D02*
X245562380Y-100988666D01*
X244514761Y-100750571D02*
X245229047Y-100512476D01*
X245229047Y-101131523D01*
G04 #@! TO.C,U1*
X256793904Y-107910380D02*
X256793904Y-108719904D01*
X256746285Y-108815142D01*
X256698666Y-108862761D01*
X256603428Y-108910380D01*
X256412952Y-108910380D01*
X256317714Y-108862761D01*
X256270095Y-108815142D01*
X256222476Y-108719904D01*
X256222476Y-107910380D01*
X255222476Y-108910380D02*
X255793904Y-108910380D01*
X255508190Y-108910380D02*
X255508190Y-107910380D01*
X255603428Y-108053238D01*
X255698666Y-108148476D01*
X255793904Y-108196095D01*
G04 #@! TO.C,U2*
X245871904Y-107910380D02*
X245871904Y-108719904D01*
X245824285Y-108815142D01*
X245776666Y-108862761D01*
X245681428Y-108910380D01*
X245490952Y-108910380D01*
X245395714Y-108862761D01*
X245348095Y-108815142D01*
X245300476Y-108719904D01*
X245300476Y-107910380D01*
X244871904Y-108005619D02*
X244824285Y-107958000D01*
X244729047Y-107910380D01*
X244490952Y-107910380D01*
X244395714Y-107958000D01*
X244348095Y-108005619D01*
X244300476Y-108100857D01*
X244300476Y-108196095D01*
X244348095Y-108338952D01*
X244919523Y-108910380D01*
X244300476Y-108910380D01*
G04 #@! TO.C,U3*
X234949904Y-107910380D02*
X234949904Y-108719904D01*
X234902285Y-108815142D01*
X234854666Y-108862761D01*
X234759428Y-108910380D01*
X234568952Y-108910380D01*
X234473714Y-108862761D01*
X234426095Y-108815142D01*
X234378476Y-108719904D01*
X234378476Y-107910380D01*
X233997523Y-107910380D02*
X233378476Y-107910380D01*
X233711809Y-108291333D01*
X233568952Y-108291333D01*
X233473714Y-108338952D01*
X233426095Y-108386571D01*
X233378476Y-108481809D01*
X233378476Y-108719904D01*
X233426095Y-108815142D01*
X233473714Y-108862761D01*
X233568952Y-108910380D01*
X233854666Y-108910380D01*
X233949904Y-108862761D01*
X233997523Y-108815142D01*
G04 #@! TO.C,U4*
X223773904Y-107910380D02*
X223773904Y-108719904D01*
X223726285Y-108815142D01*
X223678666Y-108862761D01*
X223583428Y-108910380D01*
X223392952Y-108910380D01*
X223297714Y-108862761D01*
X223250095Y-108815142D01*
X223202476Y-108719904D01*
X223202476Y-107910380D01*
X222297714Y-108243714D02*
X222297714Y-108910380D01*
X222535809Y-107862761D02*
X222773904Y-108577047D01*
X222154857Y-108577047D01*
G04 #@! TO.C,U5*
X239521904Y-106132380D02*
X239521904Y-106941904D01*
X239474285Y-107037142D01*
X239426666Y-107084761D01*
X239331428Y-107132380D01*
X239140952Y-107132380D01*
X239045714Y-107084761D01*
X238998095Y-107037142D01*
X238950476Y-106941904D01*
X238950476Y-106132380D01*
X237998095Y-106132380D02*
X238474285Y-106132380D01*
X238521904Y-106608571D01*
X238474285Y-106560952D01*
X238379047Y-106513333D01*
X238140952Y-106513333D01*
X238045714Y-106560952D01*
X237998095Y-106608571D01*
X237950476Y-106703809D01*
X237950476Y-106941904D01*
X237998095Y-107037142D01*
X238045714Y-107084761D01*
X238140952Y-107132380D01*
X238379047Y-107132380D01*
X238474285Y-107084761D01*
X238521904Y-107037142D01*
G04 #@! TD*
M02*
