G04 #@! TF.GenerationSoftware,KiCad,Pcbnew,5.0.2-bee76a0~70~ubuntu18.04.1*
G04 #@! TF.CreationDate,2019-01-28T20:05:27-07:00*
G04 #@! TF.ProjectId,adc,6164632e-6b69-4636-9164-5f7063625858,rev?*
G04 #@! TF.SameCoordinates,Original*
G04 #@! TF.FileFunction,Paste,Bot*
G04 #@! TF.FilePolarity,Positive*
%FSLAX46Y46*%
G04 Gerber Fmt 4.6, Leading zero omitted, Abs format (unit mm)*
G04 Created by KiCad (PCBNEW 5.0.2-bee76a0~70~ubuntu18.04.1) date Mon 28 Jan 2019 08:05:27 PM MST*
%MOMM*%
%LPD*%
G01*
G04 APERTURE LIST*
%ADD10C,0.100000*%
%ADD11C,1.150000*%
%ADD12R,0.450000X1.500000*%
G04 APERTURE END LIST*
D10*
G04 #@! TO.C,R1*
G36*
X261332505Y-110406204D02*
X261356773Y-110409804D01*
X261380572Y-110415765D01*
X261403671Y-110424030D01*
X261425850Y-110434520D01*
X261446893Y-110447132D01*
X261466599Y-110461747D01*
X261484777Y-110478223D01*
X261501253Y-110496401D01*
X261515868Y-110516107D01*
X261528480Y-110537150D01*
X261538970Y-110559329D01*
X261547235Y-110582428D01*
X261553196Y-110606227D01*
X261556796Y-110630495D01*
X261558000Y-110654999D01*
X261558000Y-111305001D01*
X261556796Y-111329505D01*
X261553196Y-111353773D01*
X261547235Y-111377572D01*
X261538970Y-111400671D01*
X261528480Y-111422850D01*
X261515868Y-111443893D01*
X261501253Y-111463599D01*
X261484777Y-111481777D01*
X261466599Y-111498253D01*
X261446893Y-111512868D01*
X261425850Y-111525480D01*
X261403671Y-111535970D01*
X261380572Y-111544235D01*
X261356773Y-111550196D01*
X261332505Y-111553796D01*
X261308001Y-111555000D01*
X260407999Y-111555000D01*
X260383495Y-111553796D01*
X260359227Y-111550196D01*
X260335428Y-111544235D01*
X260312329Y-111535970D01*
X260290150Y-111525480D01*
X260269107Y-111512868D01*
X260249401Y-111498253D01*
X260231223Y-111481777D01*
X260214747Y-111463599D01*
X260200132Y-111443893D01*
X260187520Y-111422850D01*
X260177030Y-111400671D01*
X260168765Y-111377572D01*
X260162804Y-111353773D01*
X260159204Y-111329505D01*
X260158000Y-111305001D01*
X260158000Y-110654999D01*
X260159204Y-110630495D01*
X260162804Y-110606227D01*
X260168765Y-110582428D01*
X260177030Y-110559329D01*
X260187520Y-110537150D01*
X260200132Y-110516107D01*
X260214747Y-110496401D01*
X260231223Y-110478223D01*
X260249401Y-110461747D01*
X260269107Y-110447132D01*
X260290150Y-110434520D01*
X260312329Y-110424030D01*
X260335428Y-110415765D01*
X260359227Y-110409804D01*
X260383495Y-110406204D01*
X260407999Y-110405000D01*
X261308001Y-110405000D01*
X261332505Y-110406204D01*
X261332505Y-110406204D01*
G37*
D11*
X260858000Y-110980000D03*
D10*
G36*
X261332505Y-112456204D02*
X261356773Y-112459804D01*
X261380572Y-112465765D01*
X261403671Y-112474030D01*
X261425850Y-112484520D01*
X261446893Y-112497132D01*
X261466599Y-112511747D01*
X261484777Y-112528223D01*
X261501253Y-112546401D01*
X261515868Y-112566107D01*
X261528480Y-112587150D01*
X261538970Y-112609329D01*
X261547235Y-112632428D01*
X261553196Y-112656227D01*
X261556796Y-112680495D01*
X261558000Y-112704999D01*
X261558000Y-113355001D01*
X261556796Y-113379505D01*
X261553196Y-113403773D01*
X261547235Y-113427572D01*
X261538970Y-113450671D01*
X261528480Y-113472850D01*
X261515868Y-113493893D01*
X261501253Y-113513599D01*
X261484777Y-113531777D01*
X261466599Y-113548253D01*
X261446893Y-113562868D01*
X261425850Y-113575480D01*
X261403671Y-113585970D01*
X261380572Y-113594235D01*
X261356773Y-113600196D01*
X261332505Y-113603796D01*
X261308001Y-113605000D01*
X260407999Y-113605000D01*
X260383495Y-113603796D01*
X260359227Y-113600196D01*
X260335428Y-113594235D01*
X260312329Y-113585970D01*
X260290150Y-113575480D01*
X260269107Y-113562868D01*
X260249401Y-113548253D01*
X260231223Y-113531777D01*
X260214747Y-113513599D01*
X260200132Y-113493893D01*
X260187520Y-113472850D01*
X260177030Y-113450671D01*
X260168765Y-113427572D01*
X260162804Y-113403773D01*
X260159204Y-113379505D01*
X260158000Y-113355001D01*
X260158000Y-112704999D01*
X260159204Y-112680495D01*
X260162804Y-112656227D01*
X260168765Y-112632428D01*
X260177030Y-112609329D01*
X260187520Y-112587150D01*
X260200132Y-112566107D01*
X260214747Y-112546401D01*
X260231223Y-112528223D01*
X260249401Y-112511747D01*
X260269107Y-112497132D01*
X260290150Y-112484520D01*
X260312329Y-112474030D01*
X260335428Y-112465765D01*
X260359227Y-112459804D01*
X260383495Y-112456204D01*
X260407999Y-112455000D01*
X261308001Y-112455000D01*
X261332505Y-112456204D01*
X261332505Y-112456204D01*
G37*
D11*
X260858000Y-113030000D03*
G04 #@! TD*
D10*
G04 #@! TO.C,R2*
G36*
X261332505Y-114996204D02*
X261356773Y-114999804D01*
X261380572Y-115005765D01*
X261403671Y-115014030D01*
X261425850Y-115024520D01*
X261446893Y-115037132D01*
X261466599Y-115051747D01*
X261484777Y-115068223D01*
X261501253Y-115086401D01*
X261515868Y-115106107D01*
X261528480Y-115127150D01*
X261538970Y-115149329D01*
X261547235Y-115172428D01*
X261553196Y-115196227D01*
X261556796Y-115220495D01*
X261558000Y-115244999D01*
X261558000Y-115895001D01*
X261556796Y-115919505D01*
X261553196Y-115943773D01*
X261547235Y-115967572D01*
X261538970Y-115990671D01*
X261528480Y-116012850D01*
X261515868Y-116033893D01*
X261501253Y-116053599D01*
X261484777Y-116071777D01*
X261466599Y-116088253D01*
X261446893Y-116102868D01*
X261425850Y-116115480D01*
X261403671Y-116125970D01*
X261380572Y-116134235D01*
X261356773Y-116140196D01*
X261332505Y-116143796D01*
X261308001Y-116145000D01*
X260407999Y-116145000D01*
X260383495Y-116143796D01*
X260359227Y-116140196D01*
X260335428Y-116134235D01*
X260312329Y-116125970D01*
X260290150Y-116115480D01*
X260269107Y-116102868D01*
X260249401Y-116088253D01*
X260231223Y-116071777D01*
X260214747Y-116053599D01*
X260200132Y-116033893D01*
X260187520Y-116012850D01*
X260177030Y-115990671D01*
X260168765Y-115967572D01*
X260162804Y-115943773D01*
X260159204Y-115919505D01*
X260158000Y-115895001D01*
X260158000Y-115244999D01*
X260159204Y-115220495D01*
X260162804Y-115196227D01*
X260168765Y-115172428D01*
X260177030Y-115149329D01*
X260187520Y-115127150D01*
X260200132Y-115106107D01*
X260214747Y-115086401D01*
X260231223Y-115068223D01*
X260249401Y-115051747D01*
X260269107Y-115037132D01*
X260290150Y-115024520D01*
X260312329Y-115014030D01*
X260335428Y-115005765D01*
X260359227Y-114999804D01*
X260383495Y-114996204D01*
X260407999Y-114995000D01*
X261308001Y-114995000D01*
X261332505Y-114996204D01*
X261332505Y-114996204D01*
G37*
D11*
X260858000Y-115570000D03*
D10*
G36*
X261332505Y-117046204D02*
X261356773Y-117049804D01*
X261380572Y-117055765D01*
X261403671Y-117064030D01*
X261425850Y-117074520D01*
X261446893Y-117087132D01*
X261466599Y-117101747D01*
X261484777Y-117118223D01*
X261501253Y-117136401D01*
X261515868Y-117156107D01*
X261528480Y-117177150D01*
X261538970Y-117199329D01*
X261547235Y-117222428D01*
X261553196Y-117246227D01*
X261556796Y-117270495D01*
X261558000Y-117294999D01*
X261558000Y-117945001D01*
X261556796Y-117969505D01*
X261553196Y-117993773D01*
X261547235Y-118017572D01*
X261538970Y-118040671D01*
X261528480Y-118062850D01*
X261515868Y-118083893D01*
X261501253Y-118103599D01*
X261484777Y-118121777D01*
X261466599Y-118138253D01*
X261446893Y-118152868D01*
X261425850Y-118165480D01*
X261403671Y-118175970D01*
X261380572Y-118184235D01*
X261356773Y-118190196D01*
X261332505Y-118193796D01*
X261308001Y-118195000D01*
X260407999Y-118195000D01*
X260383495Y-118193796D01*
X260359227Y-118190196D01*
X260335428Y-118184235D01*
X260312329Y-118175970D01*
X260290150Y-118165480D01*
X260269107Y-118152868D01*
X260249401Y-118138253D01*
X260231223Y-118121777D01*
X260214747Y-118103599D01*
X260200132Y-118083893D01*
X260187520Y-118062850D01*
X260177030Y-118040671D01*
X260168765Y-118017572D01*
X260162804Y-117993773D01*
X260159204Y-117969505D01*
X260158000Y-117945001D01*
X260158000Y-117294999D01*
X260159204Y-117270495D01*
X260162804Y-117246227D01*
X260168765Y-117222428D01*
X260177030Y-117199329D01*
X260187520Y-117177150D01*
X260200132Y-117156107D01*
X260214747Y-117136401D01*
X260231223Y-117118223D01*
X260249401Y-117101747D01*
X260269107Y-117087132D01*
X260290150Y-117074520D01*
X260312329Y-117064030D01*
X260335428Y-117055765D01*
X260359227Y-117049804D01*
X260383495Y-117046204D01*
X260407999Y-117045000D01*
X261308001Y-117045000D01*
X261332505Y-117046204D01*
X261332505Y-117046204D01*
G37*
D11*
X260858000Y-117620000D03*
G04 #@! TD*
D10*
G04 #@! TO.C,R3*
G36*
X250410505Y-114724204D02*
X250434773Y-114727804D01*
X250458572Y-114733765D01*
X250481671Y-114742030D01*
X250503850Y-114752520D01*
X250524893Y-114765132D01*
X250544599Y-114779747D01*
X250562777Y-114796223D01*
X250579253Y-114814401D01*
X250593868Y-114834107D01*
X250606480Y-114855150D01*
X250616970Y-114877329D01*
X250625235Y-114900428D01*
X250631196Y-114924227D01*
X250634796Y-114948495D01*
X250636000Y-114972999D01*
X250636000Y-115623001D01*
X250634796Y-115647505D01*
X250631196Y-115671773D01*
X250625235Y-115695572D01*
X250616970Y-115718671D01*
X250606480Y-115740850D01*
X250593868Y-115761893D01*
X250579253Y-115781599D01*
X250562777Y-115799777D01*
X250544599Y-115816253D01*
X250524893Y-115830868D01*
X250503850Y-115843480D01*
X250481671Y-115853970D01*
X250458572Y-115862235D01*
X250434773Y-115868196D01*
X250410505Y-115871796D01*
X250386001Y-115873000D01*
X249485999Y-115873000D01*
X249461495Y-115871796D01*
X249437227Y-115868196D01*
X249413428Y-115862235D01*
X249390329Y-115853970D01*
X249368150Y-115843480D01*
X249347107Y-115830868D01*
X249327401Y-115816253D01*
X249309223Y-115799777D01*
X249292747Y-115781599D01*
X249278132Y-115761893D01*
X249265520Y-115740850D01*
X249255030Y-115718671D01*
X249246765Y-115695572D01*
X249240804Y-115671773D01*
X249237204Y-115647505D01*
X249236000Y-115623001D01*
X249236000Y-114972999D01*
X249237204Y-114948495D01*
X249240804Y-114924227D01*
X249246765Y-114900428D01*
X249255030Y-114877329D01*
X249265520Y-114855150D01*
X249278132Y-114834107D01*
X249292747Y-114814401D01*
X249309223Y-114796223D01*
X249327401Y-114779747D01*
X249347107Y-114765132D01*
X249368150Y-114752520D01*
X249390329Y-114742030D01*
X249413428Y-114733765D01*
X249437227Y-114727804D01*
X249461495Y-114724204D01*
X249485999Y-114723000D01*
X250386001Y-114723000D01*
X250410505Y-114724204D01*
X250410505Y-114724204D01*
G37*
D11*
X249936000Y-115298000D03*
D10*
G36*
X250410505Y-116774204D02*
X250434773Y-116777804D01*
X250458572Y-116783765D01*
X250481671Y-116792030D01*
X250503850Y-116802520D01*
X250524893Y-116815132D01*
X250544599Y-116829747D01*
X250562777Y-116846223D01*
X250579253Y-116864401D01*
X250593868Y-116884107D01*
X250606480Y-116905150D01*
X250616970Y-116927329D01*
X250625235Y-116950428D01*
X250631196Y-116974227D01*
X250634796Y-116998495D01*
X250636000Y-117022999D01*
X250636000Y-117673001D01*
X250634796Y-117697505D01*
X250631196Y-117721773D01*
X250625235Y-117745572D01*
X250616970Y-117768671D01*
X250606480Y-117790850D01*
X250593868Y-117811893D01*
X250579253Y-117831599D01*
X250562777Y-117849777D01*
X250544599Y-117866253D01*
X250524893Y-117880868D01*
X250503850Y-117893480D01*
X250481671Y-117903970D01*
X250458572Y-117912235D01*
X250434773Y-117918196D01*
X250410505Y-117921796D01*
X250386001Y-117923000D01*
X249485999Y-117923000D01*
X249461495Y-117921796D01*
X249437227Y-117918196D01*
X249413428Y-117912235D01*
X249390329Y-117903970D01*
X249368150Y-117893480D01*
X249347107Y-117880868D01*
X249327401Y-117866253D01*
X249309223Y-117849777D01*
X249292747Y-117831599D01*
X249278132Y-117811893D01*
X249265520Y-117790850D01*
X249255030Y-117768671D01*
X249246765Y-117745572D01*
X249240804Y-117721773D01*
X249237204Y-117697505D01*
X249236000Y-117673001D01*
X249236000Y-117022999D01*
X249237204Y-116998495D01*
X249240804Y-116974227D01*
X249246765Y-116950428D01*
X249255030Y-116927329D01*
X249265520Y-116905150D01*
X249278132Y-116884107D01*
X249292747Y-116864401D01*
X249309223Y-116846223D01*
X249327401Y-116829747D01*
X249347107Y-116815132D01*
X249368150Y-116802520D01*
X249390329Y-116792030D01*
X249413428Y-116783765D01*
X249437227Y-116777804D01*
X249461495Y-116774204D01*
X249485999Y-116773000D01*
X250386001Y-116773000D01*
X250410505Y-116774204D01*
X250410505Y-116774204D01*
G37*
D11*
X249936000Y-117348000D03*
G04 #@! TD*
D10*
G04 #@! TO.C,R4*
G36*
X250410505Y-110424204D02*
X250434773Y-110427804D01*
X250458572Y-110433765D01*
X250481671Y-110442030D01*
X250503850Y-110452520D01*
X250524893Y-110465132D01*
X250544599Y-110479747D01*
X250562777Y-110496223D01*
X250579253Y-110514401D01*
X250593868Y-110534107D01*
X250606480Y-110555150D01*
X250616970Y-110577329D01*
X250625235Y-110600428D01*
X250631196Y-110624227D01*
X250634796Y-110648495D01*
X250636000Y-110672999D01*
X250636000Y-111323001D01*
X250634796Y-111347505D01*
X250631196Y-111371773D01*
X250625235Y-111395572D01*
X250616970Y-111418671D01*
X250606480Y-111440850D01*
X250593868Y-111461893D01*
X250579253Y-111481599D01*
X250562777Y-111499777D01*
X250544599Y-111516253D01*
X250524893Y-111530868D01*
X250503850Y-111543480D01*
X250481671Y-111553970D01*
X250458572Y-111562235D01*
X250434773Y-111568196D01*
X250410505Y-111571796D01*
X250386001Y-111573000D01*
X249485999Y-111573000D01*
X249461495Y-111571796D01*
X249437227Y-111568196D01*
X249413428Y-111562235D01*
X249390329Y-111553970D01*
X249368150Y-111543480D01*
X249347107Y-111530868D01*
X249327401Y-111516253D01*
X249309223Y-111499777D01*
X249292747Y-111481599D01*
X249278132Y-111461893D01*
X249265520Y-111440850D01*
X249255030Y-111418671D01*
X249246765Y-111395572D01*
X249240804Y-111371773D01*
X249237204Y-111347505D01*
X249236000Y-111323001D01*
X249236000Y-110672999D01*
X249237204Y-110648495D01*
X249240804Y-110624227D01*
X249246765Y-110600428D01*
X249255030Y-110577329D01*
X249265520Y-110555150D01*
X249278132Y-110534107D01*
X249292747Y-110514401D01*
X249309223Y-110496223D01*
X249327401Y-110479747D01*
X249347107Y-110465132D01*
X249368150Y-110452520D01*
X249390329Y-110442030D01*
X249413428Y-110433765D01*
X249437227Y-110427804D01*
X249461495Y-110424204D01*
X249485999Y-110423000D01*
X250386001Y-110423000D01*
X250410505Y-110424204D01*
X250410505Y-110424204D01*
G37*
D11*
X249936000Y-110998000D03*
D10*
G36*
X250410505Y-112474204D02*
X250434773Y-112477804D01*
X250458572Y-112483765D01*
X250481671Y-112492030D01*
X250503850Y-112502520D01*
X250524893Y-112515132D01*
X250544599Y-112529747D01*
X250562777Y-112546223D01*
X250579253Y-112564401D01*
X250593868Y-112584107D01*
X250606480Y-112605150D01*
X250616970Y-112627329D01*
X250625235Y-112650428D01*
X250631196Y-112674227D01*
X250634796Y-112698495D01*
X250636000Y-112722999D01*
X250636000Y-113373001D01*
X250634796Y-113397505D01*
X250631196Y-113421773D01*
X250625235Y-113445572D01*
X250616970Y-113468671D01*
X250606480Y-113490850D01*
X250593868Y-113511893D01*
X250579253Y-113531599D01*
X250562777Y-113549777D01*
X250544599Y-113566253D01*
X250524893Y-113580868D01*
X250503850Y-113593480D01*
X250481671Y-113603970D01*
X250458572Y-113612235D01*
X250434773Y-113618196D01*
X250410505Y-113621796D01*
X250386001Y-113623000D01*
X249485999Y-113623000D01*
X249461495Y-113621796D01*
X249437227Y-113618196D01*
X249413428Y-113612235D01*
X249390329Y-113603970D01*
X249368150Y-113593480D01*
X249347107Y-113580868D01*
X249327401Y-113566253D01*
X249309223Y-113549777D01*
X249292747Y-113531599D01*
X249278132Y-113511893D01*
X249265520Y-113490850D01*
X249255030Y-113468671D01*
X249246765Y-113445572D01*
X249240804Y-113421773D01*
X249237204Y-113397505D01*
X249236000Y-113373001D01*
X249236000Y-112722999D01*
X249237204Y-112698495D01*
X249240804Y-112674227D01*
X249246765Y-112650428D01*
X249255030Y-112627329D01*
X249265520Y-112605150D01*
X249278132Y-112584107D01*
X249292747Y-112564401D01*
X249309223Y-112546223D01*
X249327401Y-112529747D01*
X249347107Y-112515132D01*
X249368150Y-112502520D01*
X249390329Y-112492030D01*
X249413428Y-112483765D01*
X249437227Y-112477804D01*
X249461495Y-112474204D01*
X249485999Y-112473000D01*
X250386001Y-112473000D01*
X250410505Y-112474204D01*
X250410505Y-112474204D01*
G37*
D11*
X249936000Y-113048000D03*
G04 #@! TD*
D10*
G04 #@! TO.C,R5*
G36*
X251056505Y-118935204D02*
X251080773Y-118938804D01*
X251104572Y-118944765D01*
X251127671Y-118953030D01*
X251149850Y-118963520D01*
X251170893Y-118976132D01*
X251190599Y-118990747D01*
X251208777Y-119007223D01*
X251225253Y-119025401D01*
X251239868Y-119045107D01*
X251252480Y-119066150D01*
X251262970Y-119088329D01*
X251271235Y-119111428D01*
X251277196Y-119135227D01*
X251280796Y-119159495D01*
X251282000Y-119183999D01*
X251282000Y-120084001D01*
X251280796Y-120108505D01*
X251277196Y-120132773D01*
X251271235Y-120156572D01*
X251262970Y-120179671D01*
X251252480Y-120201850D01*
X251239868Y-120222893D01*
X251225253Y-120242599D01*
X251208777Y-120260777D01*
X251190599Y-120277253D01*
X251170893Y-120291868D01*
X251149850Y-120304480D01*
X251127671Y-120314970D01*
X251104572Y-120323235D01*
X251080773Y-120329196D01*
X251056505Y-120332796D01*
X251032001Y-120334000D01*
X250381999Y-120334000D01*
X250357495Y-120332796D01*
X250333227Y-120329196D01*
X250309428Y-120323235D01*
X250286329Y-120314970D01*
X250264150Y-120304480D01*
X250243107Y-120291868D01*
X250223401Y-120277253D01*
X250205223Y-120260777D01*
X250188747Y-120242599D01*
X250174132Y-120222893D01*
X250161520Y-120201850D01*
X250151030Y-120179671D01*
X250142765Y-120156572D01*
X250136804Y-120132773D01*
X250133204Y-120108505D01*
X250132000Y-120084001D01*
X250132000Y-119183999D01*
X250133204Y-119159495D01*
X250136804Y-119135227D01*
X250142765Y-119111428D01*
X250151030Y-119088329D01*
X250161520Y-119066150D01*
X250174132Y-119045107D01*
X250188747Y-119025401D01*
X250205223Y-119007223D01*
X250223401Y-118990747D01*
X250243107Y-118976132D01*
X250264150Y-118963520D01*
X250286329Y-118953030D01*
X250309428Y-118944765D01*
X250333227Y-118938804D01*
X250357495Y-118935204D01*
X250381999Y-118934000D01*
X251032001Y-118934000D01*
X251056505Y-118935204D01*
X251056505Y-118935204D01*
G37*
D11*
X250707000Y-119634000D03*
D10*
G36*
X249006505Y-118935204D02*
X249030773Y-118938804D01*
X249054572Y-118944765D01*
X249077671Y-118953030D01*
X249099850Y-118963520D01*
X249120893Y-118976132D01*
X249140599Y-118990747D01*
X249158777Y-119007223D01*
X249175253Y-119025401D01*
X249189868Y-119045107D01*
X249202480Y-119066150D01*
X249212970Y-119088329D01*
X249221235Y-119111428D01*
X249227196Y-119135227D01*
X249230796Y-119159495D01*
X249232000Y-119183999D01*
X249232000Y-120084001D01*
X249230796Y-120108505D01*
X249227196Y-120132773D01*
X249221235Y-120156572D01*
X249212970Y-120179671D01*
X249202480Y-120201850D01*
X249189868Y-120222893D01*
X249175253Y-120242599D01*
X249158777Y-120260777D01*
X249140599Y-120277253D01*
X249120893Y-120291868D01*
X249099850Y-120304480D01*
X249077671Y-120314970D01*
X249054572Y-120323235D01*
X249030773Y-120329196D01*
X249006505Y-120332796D01*
X248982001Y-120334000D01*
X248331999Y-120334000D01*
X248307495Y-120332796D01*
X248283227Y-120329196D01*
X248259428Y-120323235D01*
X248236329Y-120314970D01*
X248214150Y-120304480D01*
X248193107Y-120291868D01*
X248173401Y-120277253D01*
X248155223Y-120260777D01*
X248138747Y-120242599D01*
X248124132Y-120222893D01*
X248111520Y-120201850D01*
X248101030Y-120179671D01*
X248092765Y-120156572D01*
X248086804Y-120132773D01*
X248083204Y-120108505D01*
X248082000Y-120084001D01*
X248082000Y-119183999D01*
X248083204Y-119159495D01*
X248086804Y-119135227D01*
X248092765Y-119111428D01*
X248101030Y-119088329D01*
X248111520Y-119066150D01*
X248124132Y-119045107D01*
X248138747Y-119025401D01*
X248155223Y-119007223D01*
X248173401Y-118990747D01*
X248193107Y-118976132D01*
X248214150Y-118963520D01*
X248236329Y-118953030D01*
X248259428Y-118944765D01*
X248283227Y-118938804D01*
X248307495Y-118935204D01*
X248331999Y-118934000D01*
X248982001Y-118934000D01*
X249006505Y-118935204D01*
X249006505Y-118935204D01*
G37*
D11*
X248657000Y-119634000D03*
G04 #@! TD*
D10*
G04 #@! TO.C,R6*
G36*
X239234505Y-112456204D02*
X239258773Y-112459804D01*
X239282572Y-112465765D01*
X239305671Y-112474030D01*
X239327850Y-112484520D01*
X239348893Y-112497132D01*
X239368599Y-112511747D01*
X239386777Y-112528223D01*
X239403253Y-112546401D01*
X239417868Y-112566107D01*
X239430480Y-112587150D01*
X239440970Y-112609329D01*
X239449235Y-112632428D01*
X239455196Y-112656227D01*
X239458796Y-112680495D01*
X239460000Y-112704999D01*
X239460000Y-113355001D01*
X239458796Y-113379505D01*
X239455196Y-113403773D01*
X239449235Y-113427572D01*
X239440970Y-113450671D01*
X239430480Y-113472850D01*
X239417868Y-113493893D01*
X239403253Y-113513599D01*
X239386777Y-113531777D01*
X239368599Y-113548253D01*
X239348893Y-113562868D01*
X239327850Y-113575480D01*
X239305671Y-113585970D01*
X239282572Y-113594235D01*
X239258773Y-113600196D01*
X239234505Y-113603796D01*
X239210001Y-113605000D01*
X238309999Y-113605000D01*
X238285495Y-113603796D01*
X238261227Y-113600196D01*
X238237428Y-113594235D01*
X238214329Y-113585970D01*
X238192150Y-113575480D01*
X238171107Y-113562868D01*
X238151401Y-113548253D01*
X238133223Y-113531777D01*
X238116747Y-113513599D01*
X238102132Y-113493893D01*
X238089520Y-113472850D01*
X238079030Y-113450671D01*
X238070765Y-113427572D01*
X238064804Y-113403773D01*
X238061204Y-113379505D01*
X238060000Y-113355001D01*
X238060000Y-112704999D01*
X238061204Y-112680495D01*
X238064804Y-112656227D01*
X238070765Y-112632428D01*
X238079030Y-112609329D01*
X238089520Y-112587150D01*
X238102132Y-112566107D01*
X238116747Y-112546401D01*
X238133223Y-112528223D01*
X238151401Y-112511747D01*
X238171107Y-112497132D01*
X238192150Y-112484520D01*
X238214329Y-112474030D01*
X238237428Y-112465765D01*
X238261227Y-112459804D01*
X238285495Y-112456204D01*
X238309999Y-112455000D01*
X239210001Y-112455000D01*
X239234505Y-112456204D01*
X239234505Y-112456204D01*
G37*
D11*
X238760000Y-113030000D03*
D10*
G36*
X239234505Y-110406204D02*
X239258773Y-110409804D01*
X239282572Y-110415765D01*
X239305671Y-110424030D01*
X239327850Y-110434520D01*
X239348893Y-110447132D01*
X239368599Y-110461747D01*
X239386777Y-110478223D01*
X239403253Y-110496401D01*
X239417868Y-110516107D01*
X239430480Y-110537150D01*
X239440970Y-110559329D01*
X239449235Y-110582428D01*
X239455196Y-110606227D01*
X239458796Y-110630495D01*
X239460000Y-110654999D01*
X239460000Y-111305001D01*
X239458796Y-111329505D01*
X239455196Y-111353773D01*
X239449235Y-111377572D01*
X239440970Y-111400671D01*
X239430480Y-111422850D01*
X239417868Y-111443893D01*
X239403253Y-111463599D01*
X239386777Y-111481777D01*
X239368599Y-111498253D01*
X239348893Y-111512868D01*
X239327850Y-111525480D01*
X239305671Y-111535970D01*
X239282572Y-111544235D01*
X239258773Y-111550196D01*
X239234505Y-111553796D01*
X239210001Y-111555000D01*
X238309999Y-111555000D01*
X238285495Y-111553796D01*
X238261227Y-111550196D01*
X238237428Y-111544235D01*
X238214329Y-111535970D01*
X238192150Y-111525480D01*
X238171107Y-111512868D01*
X238151401Y-111498253D01*
X238133223Y-111481777D01*
X238116747Y-111463599D01*
X238102132Y-111443893D01*
X238089520Y-111422850D01*
X238079030Y-111400671D01*
X238070765Y-111377572D01*
X238064804Y-111353773D01*
X238061204Y-111329505D01*
X238060000Y-111305001D01*
X238060000Y-110654999D01*
X238061204Y-110630495D01*
X238064804Y-110606227D01*
X238070765Y-110582428D01*
X238079030Y-110559329D01*
X238089520Y-110537150D01*
X238102132Y-110516107D01*
X238116747Y-110496401D01*
X238133223Y-110478223D01*
X238151401Y-110461747D01*
X238171107Y-110447132D01*
X238192150Y-110434520D01*
X238214329Y-110424030D01*
X238237428Y-110415765D01*
X238261227Y-110409804D01*
X238285495Y-110406204D01*
X238309999Y-110405000D01*
X239210001Y-110405000D01*
X239234505Y-110406204D01*
X239234505Y-110406204D01*
G37*
D11*
X238760000Y-110980000D03*
G04 #@! TD*
D10*
G04 #@! TO.C,R7*
G36*
X239234505Y-116792204D02*
X239258773Y-116795804D01*
X239282572Y-116801765D01*
X239305671Y-116810030D01*
X239327850Y-116820520D01*
X239348893Y-116833132D01*
X239368599Y-116847747D01*
X239386777Y-116864223D01*
X239403253Y-116882401D01*
X239417868Y-116902107D01*
X239430480Y-116923150D01*
X239440970Y-116945329D01*
X239449235Y-116968428D01*
X239455196Y-116992227D01*
X239458796Y-117016495D01*
X239460000Y-117040999D01*
X239460000Y-117691001D01*
X239458796Y-117715505D01*
X239455196Y-117739773D01*
X239449235Y-117763572D01*
X239440970Y-117786671D01*
X239430480Y-117808850D01*
X239417868Y-117829893D01*
X239403253Y-117849599D01*
X239386777Y-117867777D01*
X239368599Y-117884253D01*
X239348893Y-117898868D01*
X239327850Y-117911480D01*
X239305671Y-117921970D01*
X239282572Y-117930235D01*
X239258773Y-117936196D01*
X239234505Y-117939796D01*
X239210001Y-117941000D01*
X238309999Y-117941000D01*
X238285495Y-117939796D01*
X238261227Y-117936196D01*
X238237428Y-117930235D01*
X238214329Y-117921970D01*
X238192150Y-117911480D01*
X238171107Y-117898868D01*
X238151401Y-117884253D01*
X238133223Y-117867777D01*
X238116747Y-117849599D01*
X238102132Y-117829893D01*
X238089520Y-117808850D01*
X238079030Y-117786671D01*
X238070765Y-117763572D01*
X238064804Y-117739773D01*
X238061204Y-117715505D01*
X238060000Y-117691001D01*
X238060000Y-117040999D01*
X238061204Y-117016495D01*
X238064804Y-116992227D01*
X238070765Y-116968428D01*
X238079030Y-116945329D01*
X238089520Y-116923150D01*
X238102132Y-116902107D01*
X238116747Y-116882401D01*
X238133223Y-116864223D01*
X238151401Y-116847747D01*
X238171107Y-116833132D01*
X238192150Y-116820520D01*
X238214329Y-116810030D01*
X238237428Y-116801765D01*
X238261227Y-116795804D01*
X238285495Y-116792204D01*
X238309999Y-116791000D01*
X239210001Y-116791000D01*
X239234505Y-116792204D01*
X239234505Y-116792204D01*
G37*
D11*
X238760000Y-117366000D03*
D10*
G36*
X239234505Y-114742204D02*
X239258773Y-114745804D01*
X239282572Y-114751765D01*
X239305671Y-114760030D01*
X239327850Y-114770520D01*
X239348893Y-114783132D01*
X239368599Y-114797747D01*
X239386777Y-114814223D01*
X239403253Y-114832401D01*
X239417868Y-114852107D01*
X239430480Y-114873150D01*
X239440970Y-114895329D01*
X239449235Y-114918428D01*
X239455196Y-114942227D01*
X239458796Y-114966495D01*
X239460000Y-114990999D01*
X239460000Y-115641001D01*
X239458796Y-115665505D01*
X239455196Y-115689773D01*
X239449235Y-115713572D01*
X239440970Y-115736671D01*
X239430480Y-115758850D01*
X239417868Y-115779893D01*
X239403253Y-115799599D01*
X239386777Y-115817777D01*
X239368599Y-115834253D01*
X239348893Y-115848868D01*
X239327850Y-115861480D01*
X239305671Y-115871970D01*
X239282572Y-115880235D01*
X239258773Y-115886196D01*
X239234505Y-115889796D01*
X239210001Y-115891000D01*
X238309999Y-115891000D01*
X238285495Y-115889796D01*
X238261227Y-115886196D01*
X238237428Y-115880235D01*
X238214329Y-115871970D01*
X238192150Y-115861480D01*
X238171107Y-115848868D01*
X238151401Y-115834253D01*
X238133223Y-115817777D01*
X238116747Y-115799599D01*
X238102132Y-115779893D01*
X238089520Y-115758850D01*
X238079030Y-115736671D01*
X238070765Y-115713572D01*
X238064804Y-115689773D01*
X238061204Y-115665505D01*
X238060000Y-115641001D01*
X238060000Y-114990999D01*
X238061204Y-114966495D01*
X238064804Y-114942227D01*
X238070765Y-114918428D01*
X238079030Y-114895329D01*
X238089520Y-114873150D01*
X238102132Y-114852107D01*
X238116747Y-114832401D01*
X238133223Y-114814223D01*
X238151401Y-114797747D01*
X238171107Y-114783132D01*
X238192150Y-114770520D01*
X238214329Y-114760030D01*
X238237428Y-114751765D01*
X238261227Y-114745804D01*
X238285495Y-114742204D01*
X238309999Y-114741000D01*
X239210001Y-114741000D01*
X239234505Y-114742204D01*
X239234505Y-114742204D01*
G37*
D11*
X238760000Y-115316000D03*
G04 #@! TD*
D10*
G04 #@! TO.C,R8*
G36*
X228058505Y-112456204D02*
X228082773Y-112459804D01*
X228106572Y-112465765D01*
X228129671Y-112474030D01*
X228151850Y-112484520D01*
X228172893Y-112497132D01*
X228192599Y-112511747D01*
X228210777Y-112528223D01*
X228227253Y-112546401D01*
X228241868Y-112566107D01*
X228254480Y-112587150D01*
X228264970Y-112609329D01*
X228273235Y-112632428D01*
X228279196Y-112656227D01*
X228282796Y-112680495D01*
X228284000Y-112704999D01*
X228284000Y-113355001D01*
X228282796Y-113379505D01*
X228279196Y-113403773D01*
X228273235Y-113427572D01*
X228264970Y-113450671D01*
X228254480Y-113472850D01*
X228241868Y-113493893D01*
X228227253Y-113513599D01*
X228210777Y-113531777D01*
X228192599Y-113548253D01*
X228172893Y-113562868D01*
X228151850Y-113575480D01*
X228129671Y-113585970D01*
X228106572Y-113594235D01*
X228082773Y-113600196D01*
X228058505Y-113603796D01*
X228034001Y-113605000D01*
X227133999Y-113605000D01*
X227109495Y-113603796D01*
X227085227Y-113600196D01*
X227061428Y-113594235D01*
X227038329Y-113585970D01*
X227016150Y-113575480D01*
X226995107Y-113562868D01*
X226975401Y-113548253D01*
X226957223Y-113531777D01*
X226940747Y-113513599D01*
X226926132Y-113493893D01*
X226913520Y-113472850D01*
X226903030Y-113450671D01*
X226894765Y-113427572D01*
X226888804Y-113403773D01*
X226885204Y-113379505D01*
X226884000Y-113355001D01*
X226884000Y-112704999D01*
X226885204Y-112680495D01*
X226888804Y-112656227D01*
X226894765Y-112632428D01*
X226903030Y-112609329D01*
X226913520Y-112587150D01*
X226926132Y-112566107D01*
X226940747Y-112546401D01*
X226957223Y-112528223D01*
X226975401Y-112511747D01*
X226995107Y-112497132D01*
X227016150Y-112484520D01*
X227038329Y-112474030D01*
X227061428Y-112465765D01*
X227085227Y-112459804D01*
X227109495Y-112456204D01*
X227133999Y-112455000D01*
X228034001Y-112455000D01*
X228058505Y-112456204D01*
X228058505Y-112456204D01*
G37*
D11*
X227584000Y-113030000D03*
D10*
G36*
X228058505Y-110406204D02*
X228082773Y-110409804D01*
X228106572Y-110415765D01*
X228129671Y-110424030D01*
X228151850Y-110434520D01*
X228172893Y-110447132D01*
X228192599Y-110461747D01*
X228210777Y-110478223D01*
X228227253Y-110496401D01*
X228241868Y-110516107D01*
X228254480Y-110537150D01*
X228264970Y-110559329D01*
X228273235Y-110582428D01*
X228279196Y-110606227D01*
X228282796Y-110630495D01*
X228284000Y-110654999D01*
X228284000Y-111305001D01*
X228282796Y-111329505D01*
X228279196Y-111353773D01*
X228273235Y-111377572D01*
X228264970Y-111400671D01*
X228254480Y-111422850D01*
X228241868Y-111443893D01*
X228227253Y-111463599D01*
X228210777Y-111481777D01*
X228192599Y-111498253D01*
X228172893Y-111512868D01*
X228151850Y-111525480D01*
X228129671Y-111535970D01*
X228106572Y-111544235D01*
X228082773Y-111550196D01*
X228058505Y-111553796D01*
X228034001Y-111555000D01*
X227133999Y-111555000D01*
X227109495Y-111553796D01*
X227085227Y-111550196D01*
X227061428Y-111544235D01*
X227038329Y-111535970D01*
X227016150Y-111525480D01*
X226995107Y-111512868D01*
X226975401Y-111498253D01*
X226957223Y-111481777D01*
X226940747Y-111463599D01*
X226926132Y-111443893D01*
X226913520Y-111422850D01*
X226903030Y-111400671D01*
X226894765Y-111377572D01*
X226888804Y-111353773D01*
X226885204Y-111329505D01*
X226884000Y-111305001D01*
X226884000Y-110654999D01*
X226885204Y-110630495D01*
X226888804Y-110606227D01*
X226894765Y-110582428D01*
X226903030Y-110559329D01*
X226913520Y-110537150D01*
X226926132Y-110516107D01*
X226940747Y-110496401D01*
X226957223Y-110478223D01*
X226975401Y-110461747D01*
X226995107Y-110447132D01*
X227016150Y-110434520D01*
X227038329Y-110424030D01*
X227061428Y-110415765D01*
X227085227Y-110409804D01*
X227109495Y-110406204D01*
X227133999Y-110405000D01*
X228034001Y-110405000D01*
X228058505Y-110406204D01*
X228058505Y-110406204D01*
G37*
D11*
X227584000Y-110980000D03*
G04 #@! TD*
D10*
G04 #@! TO.C,R9*
G36*
X226917505Y-119697204D02*
X226941773Y-119700804D01*
X226965572Y-119706765D01*
X226988671Y-119715030D01*
X227010850Y-119725520D01*
X227031893Y-119738132D01*
X227051599Y-119752747D01*
X227069777Y-119769223D01*
X227086253Y-119787401D01*
X227100868Y-119807107D01*
X227113480Y-119828150D01*
X227123970Y-119850329D01*
X227132235Y-119873428D01*
X227138196Y-119897227D01*
X227141796Y-119921495D01*
X227143000Y-119945999D01*
X227143000Y-120846001D01*
X227141796Y-120870505D01*
X227138196Y-120894773D01*
X227132235Y-120918572D01*
X227123970Y-120941671D01*
X227113480Y-120963850D01*
X227100868Y-120984893D01*
X227086253Y-121004599D01*
X227069777Y-121022777D01*
X227051599Y-121039253D01*
X227031893Y-121053868D01*
X227010850Y-121066480D01*
X226988671Y-121076970D01*
X226965572Y-121085235D01*
X226941773Y-121091196D01*
X226917505Y-121094796D01*
X226893001Y-121096000D01*
X226242999Y-121096000D01*
X226218495Y-121094796D01*
X226194227Y-121091196D01*
X226170428Y-121085235D01*
X226147329Y-121076970D01*
X226125150Y-121066480D01*
X226104107Y-121053868D01*
X226084401Y-121039253D01*
X226066223Y-121022777D01*
X226049747Y-121004599D01*
X226035132Y-120984893D01*
X226022520Y-120963850D01*
X226012030Y-120941671D01*
X226003765Y-120918572D01*
X225997804Y-120894773D01*
X225994204Y-120870505D01*
X225993000Y-120846001D01*
X225993000Y-119945999D01*
X225994204Y-119921495D01*
X225997804Y-119897227D01*
X226003765Y-119873428D01*
X226012030Y-119850329D01*
X226022520Y-119828150D01*
X226035132Y-119807107D01*
X226049747Y-119787401D01*
X226066223Y-119769223D01*
X226084401Y-119752747D01*
X226104107Y-119738132D01*
X226125150Y-119725520D01*
X226147329Y-119715030D01*
X226170428Y-119706765D01*
X226194227Y-119700804D01*
X226218495Y-119697204D01*
X226242999Y-119696000D01*
X226893001Y-119696000D01*
X226917505Y-119697204D01*
X226917505Y-119697204D01*
G37*
D11*
X226568000Y-120396000D03*
D10*
G36*
X228967505Y-119697204D02*
X228991773Y-119700804D01*
X229015572Y-119706765D01*
X229038671Y-119715030D01*
X229060850Y-119725520D01*
X229081893Y-119738132D01*
X229101599Y-119752747D01*
X229119777Y-119769223D01*
X229136253Y-119787401D01*
X229150868Y-119807107D01*
X229163480Y-119828150D01*
X229173970Y-119850329D01*
X229182235Y-119873428D01*
X229188196Y-119897227D01*
X229191796Y-119921495D01*
X229193000Y-119945999D01*
X229193000Y-120846001D01*
X229191796Y-120870505D01*
X229188196Y-120894773D01*
X229182235Y-120918572D01*
X229173970Y-120941671D01*
X229163480Y-120963850D01*
X229150868Y-120984893D01*
X229136253Y-121004599D01*
X229119777Y-121022777D01*
X229101599Y-121039253D01*
X229081893Y-121053868D01*
X229060850Y-121066480D01*
X229038671Y-121076970D01*
X229015572Y-121085235D01*
X228991773Y-121091196D01*
X228967505Y-121094796D01*
X228943001Y-121096000D01*
X228292999Y-121096000D01*
X228268495Y-121094796D01*
X228244227Y-121091196D01*
X228220428Y-121085235D01*
X228197329Y-121076970D01*
X228175150Y-121066480D01*
X228154107Y-121053868D01*
X228134401Y-121039253D01*
X228116223Y-121022777D01*
X228099747Y-121004599D01*
X228085132Y-120984893D01*
X228072520Y-120963850D01*
X228062030Y-120941671D01*
X228053765Y-120918572D01*
X228047804Y-120894773D01*
X228044204Y-120870505D01*
X228043000Y-120846001D01*
X228043000Y-119945999D01*
X228044204Y-119921495D01*
X228047804Y-119897227D01*
X228053765Y-119873428D01*
X228062030Y-119850329D01*
X228072520Y-119828150D01*
X228085132Y-119807107D01*
X228099747Y-119787401D01*
X228116223Y-119769223D01*
X228134401Y-119752747D01*
X228154107Y-119738132D01*
X228175150Y-119725520D01*
X228197329Y-119715030D01*
X228220428Y-119706765D01*
X228244227Y-119700804D01*
X228268495Y-119697204D01*
X228292999Y-119696000D01*
X228943001Y-119696000D01*
X228967505Y-119697204D01*
X228967505Y-119697204D01*
G37*
D11*
X228618000Y-120396000D03*
G04 #@! TD*
D10*
G04 #@! TO.C,R10*
G36*
X228058505Y-116792204D02*
X228082773Y-116795804D01*
X228106572Y-116801765D01*
X228129671Y-116810030D01*
X228151850Y-116820520D01*
X228172893Y-116833132D01*
X228192599Y-116847747D01*
X228210777Y-116864223D01*
X228227253Y-116882401D01*
X228241868Y-116902107D01*
X228254480Y-116923150D01*
X228264970Y-116945329D01*
X228273235Y-116968428D01*
X228279196Y-116992227D01*
X228282796Y-117016495D01*
X228284000Y-117040999D01*
X228284000Y-117691001D01*
X228282796Y-117715505D01*
X228279196Y-117739773D01*
X228273235Y-117763572D01*
X228264970Y-117786671D01*
X228254480Y-117808850D01*
X228241868Y-117829893D01*
X228227253Y-117849599D01*
X228210777Y-117867777D01*
X228192599Y-117884253D01*
X228172893Y-117898868D01*
X228151850Y-117911480D01*
X228129671Y-117921970D01*
X228106572Y-117930235D01*
X228082773Y-117936196D01*
X228058505Y-117939796D01*
X228034001Y-117941000D01*
X227133999Y-117941000D01*
X227109495Y-117939796D01*
X227085227Y-117936196D01*
X227061428Y-117930235D01*
X227038329Y-117921970D01*
X227016150Y-117911480D01*
X226995107Y-117898868D01*
X226975401Y-117884253D01*
X226957223Y-117867777D01*
X226940747Y-117849599D01*
X226926132Y-117829893D01*
X226913520Y-117808850D01*
X226903030Y-117786671D01*
X226894765Y-117763572D01*
X226888804Y-117739773D01*
X226885204Y-117715505D01*
X226884000Y-117691001D01*
X226884000Y-117040999D01*
X226885204Y-117016495D01*
X226888804Y-116992227D01*
X226894765Y-116968428D01*
X226903030Y-116945329D01*
X226913520Y-116923150D01*
X226926132Y-116902107D01*
X226940747Y-116882401D01*
X226957223Y-116864223D01*
X226975401Y-116847747D01*
X226995107Y-116833132D01*
X227016150Y-116820520D01*
X227038329Y-116810030D01*
X227061428Y-116801765D01*
X227085227Y-116795804D01*
X227109495Y-116792204D01*
X227133999Y-116791000D01*
X228034001Y-116791000D01*
X228058505Y-116792204D01*
X228058505Y-116792204D01*
G37*
D11*
X227584000Y-117366000D03*
D10*
G36*
X228058505Y-114742204D02*
X228082773Y-114745804D01*
X228106572Y-114751765D01*
X228129671Y-114760030D01*
X228151850Y-114770520D01*
X228172893Y-114783132D01*
X228192599Y-114797747D01*
X228210777Y-114814223D01*
X228227253Y-114832401D01*
X228241868Y-114852107D01*
X228254480Y-114873150D01*
X228264970Y-114895329D01*
X228273235Y-114918428D01*
X228279196Y-114942227D01*
X228282796Y-114966495D01*
X228284000Y-114990999D01*
X228284000Y-115641001D01*
X228282796Y-115665505D01*
X228279196Y-115689773D01*
X228273235Y-115713572D01*
X228264970Y-115736671D01*
X228254480Y-115758850D01*
X228241868Y-115779893D01*
X228227253Y-115799599D01*
X228210777Y-115817777D01*
X228192599Y-115834253D01*
X228172893Y-115848868D01*
X228151850Y-115861480D01*
X228129671Y-115871970D01*
X228106572Y-115880235D01*
X228082773Y-115886196D01*
X228058505Y-115889796D01*
X228034001Y-115891000D01*
X227133999Y-115891000D01*
X227109495Y-115889796D01*
X227085227Y-115886196D01*
X227061428Y-115880235D01*
X227038329Y-115871970D01*
X227016150Y-115861480D01*
X226995107Y-115848868D01*
X226975401Y-115834253D01*
X226957223Y-115817777D01*
X226940747Y-115799599D01*
X226926132Y-115779893D01*
X226913520Y-115758850D01*
X226903030Y-115736671D01*
X226894765Y-115713572D01*
X226888804Y-115689773D01*
X226885204Y-115665505D01*
X226884000Y-115641001D01*
X226884000Y-114990999D01*
X226885204Y-114966495D01*
X226888804Y-114942227D01*
X226894765Y-114918428D01*
X226903030Y-114895329D01*
X226913520Y-114873150D01*
X226926132Y-114852107D01*
X226940747Y-114832401D01*
X226957223Y-114814223D01*
X226975401Y-114797747D01*
X226995107Y-114783132D01*
X227016150Y-114770520D01*
X227038329Y-114760030D01*
X227061428Y-114751765D01*
X227085227Y-114745804D01*
X227109495Y-114742204D01*
X227133999Y-114741000D01*
X228034001Y-114741000D01*
X228058505Y-114742204D01*
X228058505Y-114742204D01*
G37*
D11*
X227584000Y-115316000D03*
G04 #@! TD*
D10*
G04 #@! TO.C,R11*
G36*
X234916505Y-98214204D02*
X234940773Y-98217804D01*
X234964572Y-98223765D01*
X234987671Y-98232030D01*
X235009850Y-98242520D01*
X235030893Y-98255132D01*
X235050599Y-98269747D01*
X235068777Y-98286223D01*
X235085253Y-98304401D01*
X235099868Y-98324107D01*
X235112480Y-98345150D01*
X235122970Y-98367329D01*
X235131235Y-98390428D01*
X235137196Y-98414227D01*
X235140796Y-98438495D01*
X235142000Y-98462999D01*
X235142000Y-99113001D01*
X235140796Y-99137505D01*
X235137196Y-99161773D01*
X235131235Y-99185572D01*
X235122970Y-99208671D01*
X235112480Y-99230850D01*
X235099868Y-99251893D01*
X235085253Y-99271599D01*
X235068777Y-99289777D01*
X235050599Y-99306253D01*
X235030893Y-99320868D01*
X235009850Y-99333480D01*
X234987671Y-99343970D01*
X234964572Y-99352235D01*
X234940773Y-99358196D01*
X234916505Y-99361796D01*
X234892001Y-99363000D01*
X233991999Y-99363000D01*
X233967495Y-99361796D01*
X233943227Y-99358196D01*
X233919428Y-99352235D01*
X233896329Y-99343970D01*
X233874150Y-99333480D01*
X233853107Y-99320868D01*
X233833401Y-99306253D01*
X233815223Y-99289777D01*
X233798747Y-99271599D01*
X233784132Y-99251893D01*
X233771520Y-99230850D01*
X233761030Y-99208671D01*
X233752765Y-99185572D01*
X233746804Y-99161773D01*
X233743204Y-99137505D01*
X233742000Y-99113001D01*
X233742000Y-98462999D01*
X233743204Y-98438495D01*
X233746804Y-98414227D01*
X233752765Y-98390428D01*
X233761030Y-98367329D01*
X233771520Y-98345150D01*
X233784132Y-98324107D01*
X233798747Y-98304401D01*
X233815223Y-98286223D01*
X233833401Y-98269747D01*
X233853107Y-98255132D01*
X233874150Y-98242520D01*
X233896329Y-98232030D01*
X233919428Y-98223765D01*
X233943227Y-98217804D01*
X233967495Y-98214204D01*
X233991999Y-98213000D01*
X234892001Y-98213000D01*
X234916505Y-98214204D01*
X234916505Y-98214204D01*
G37*
D11*
X234442000Y-98788000D03*
D10*
G36*
X234916505Y-100264204D02*
X234940773Y-100267804D01*
X234964572Y-100273765D01*
X234987671Y-100282030D01*
X235009850Y-100292520D01*
X235030893Y-100305132D01*
X235050599Y-100319747D01*
X235068777Y-100336223D01*
X235085253Y-100354401D01*
X235099868Y-100374107D01*
X235112480Y-100395150D01*
X235122970Y-100417329D01*
X235131235Y-100440428D01*
X235137196Y-100464227D01*
X235140796Y-100488495D01*
X235142000Y-100512999D01*
X235142000Y-101163001D01*
X235140796Y-101187505D01*
X235137196Y-101211773D01*
X235131235Y-101235572D01*
X235122970Y-101258671D01*
X235112480Y-101280850D01*
X235099868Y-101301893D01*
X235085253Y-101321599D01*
X235068777Y-101339777D01*
X235050599Y-101356253D01*
X235030893Y-101370868D01*
X235009850Y-101383480D01*
X234987671Y-101393970D01*
X234964572Y-101402235D01*
X234940773Y-101408196D01*
X234916505Y-101411796D01*
X234892001Y-101413000D01*
X233991999Y-101413000D01*
X233967495Y-101411796D01*
X233943227Y-101408196D01*
X233919428Y-101402235D01*
X233896329Y-101393970D01*
X233874150Y-101383480D01*
X233853107Y-101370868D01*
X233833401Y-101356253D01*
X233815223Y-101339777D01*
X233798747Y-101321599D01*
X233784132Y-101301893D01*
X233771520Y-101280850D01*
X233761030Y-101258671D01*
X233752765Y-101235572D01*
X233746804Y-101211773D01*
X233743204Y-101187505D01*
X233742000Y-101163001D01*
X233742000Y-100512999D01*
X233743204Y-100488495D01*
X233746804Y-100464227D01*
X233752765Y-100440428D01*
X233761030Y-100417329D01*
X233771520Y-100395150D01*
X233784132Y-100374107D01*
X233798747Y-100354401D01*
X233815223Y-100336223D01*
X233833401Y-100319747D01*
X233853107Y-100305132D01*
X233874150Y-100292520D01*
X233896329Y-100282030D01*
X233919428Y-100273765D01*
X233943227Y-100267804D01*
X233967495Y-100264204D01*
X233991999Y-100263000D01*
X234892001Y-100263000D01*
X234916505Y-100264204D01*
X234916505Y-100264204D01*
G37*
D11*
X234442000Y-100838000D03*
G04 #@! TD*
D10*
G04 #@! TO.C,R12*
G36*
X234916505Y-104328204D02*
X234940773Y-104331804D01*
X234964572Y-104337765D01*
X234987671Y-104346030D01*
X235009850Y-104356520D01*
X235030893Y-104369132D01*
X235050599Y-104383747D01*
X235068777Y-104400223D01*
X235085253Y-104418401D01*
X235099868Y-104438107D01*
X235112480Y-104459150D01*
X235122970Y-104481329D01*
X235131235Y-104504428D01*
X235137196Y-104528227D01*
X235140796Y-104552495D01*
X235142000Y-104576999D01*
X235142000Y-105227001D01*
X235140796Y-105251505D01*
X235137196Y-105275773D01*
X235131235Y-105299572D01*
X235122970Y-105322671D01*
X235112480Y-105344850D01*
X235099868Y-105365893D01*
X235085253Y-105385599D01*
X235068777Y-105403777D01*
X235050599Y-105420253D01*
X235030893Y-105434868D01*
X235009850Y-105447480D01*
X234987671Y-105457970D01*
X234964572Y-105466235D01*
X234940773Y-105472196D01*
X234916505Y-105475796D01*
X234892001Y-105477000D01*
X233991999Y-105477000D01*
X233967495Y-105475796D01*
X233943227Y-105472196D01*
X233919428Y-105466235D01*
X233896329Y-105457970D01*
X233874150Y-105447480D01*
X233853107Y-105434868D01*
X233833401Y-105420253D01*
X233815223Y-105403777D01*
X233798747Y-105385599D01*
X233784132Y-105365893D01*
X233771520Y-105344850D01*
X233761030Y-105322671D01*
X233752765Y-105299572D01*
X233746804Y-105275773D01*
X233743204Y-105251505D01*
X233742000Y-105227001D01*
X233742000Y-104576999D01*
X233743204Y-104552495D01*
X233746804Y-104528227D01*
X233752765Y-104504428D01*
X233761030Y-104481329D01*
X233771520Y-104459150D01*
X233784132Y-104438107D01*
X233798747Y-104418401D01*
X233815223Y-104400223D01*
X233833401Y-104383747D01*
X233853107Y-104369132D01*
X233874150Y-104356520D01*
X233896329Y-104346030D01*
X233919428Y-104337765D01*
X233943227Y-104331804D01*
X233967495Y-104328204D01*
X233991999Y-104327000D01*
X234892001Y-104327000D01*
X234916505Y-104328204D01*
X234916505Y-104328204D01*
G37*
D11*
X234442000Y-104902000D03*
D10*
G36*
X234916505Y-102278204D02*
X234940773Y-102281804D01*
X234964572Y-102287765D01*
X234987671Y-102296030D01*
X235009850Y-102306520D01*
X235030893Y-102319132D01*
X235050599Y-102333747D01*
X235068777Y-102350223D01*
X235085253Y-102368401D01*
X235099868Y-102388107D01*
X235112480Y-102409150D01*
X235122970Y-102431329D01*
X235131235Y-102454428D01*
X235137196Y-102478227D01*
X235140796Y-102502495D01*
X235142000Y-102526999D01*
X235142000Y-103177001D01*
X235140796Y-103201505D01*
X235137196Y-103225773D01*
X235131235Y-103249572D01*
X235122970Y-103272671D01*
X235112480Y-103294850D01*
X235099868Y-103315893D01*
X235085253Y-103335599D01*
X235068777Y-103353777D01*
X235050599Y-103370253D01*
X235030893Y-103384868D01*
X235009850Y-103397480D01*
X234987671Y-103407970D01*
X234964572Y-103416235D01*
X234940773Y-103422196D01*
X234916505Y-103425796D01*
X234892001Y-103427000D01*
X233991999Y-103427000D01*
X233967495Y-103425796D01*
X233943227Y-103422196D01*
X233919428Y-103416235D01*
X233896329Y-103407970D01*
X233874150Y-103397480D01*
X233853107Y-103384868D01*
X233833401Y-103370253D01*
X233815223Y-103353777D01*
X233798747Y-103335599D01*
X233784132Y-103315893D01*
X233771520Y-103294850D01*
X233761030Y-103272671D01*
X233752765Y-103249572D01*
X233746804Y-103225773D01*
X233743204Y-103201505D01*
X233742000Y-103177001D01*
X233742000Y-102526999D01*
X233743204Y-102502495D01*
X233746804Y-102478227D01*
X233752765Y-102454428D01*
X233761030Y-102431329D01*
X233771520Y-102409150D01*
X233784132Y-102388107D01*
X233798747Y-102368401D01*
X233815223Y-102350223D01*
X233833401Y-102333747D01*
X233853107Y-102319132D01*
X233874150Y-102306520D01*
X233896329Y-102296030D01*
X233919428Y-102287765D01*
X233943227Y-102281804D01*
X233967495Y-102278204D01*
X233991999Y-102277000D01*
X234892001Y-102277000D01*
X234916505Y-102278204D01*
X234916505Y-102278204D01*
G37*
D11*
X234442000Y-102852000D03*
G04 #@! TD*
D10*
G04 #@! TO.C,R13*
G36*
X243552505Y-104346204D02*
X243576773Y-104349804D01*
X243600572Y-104355765D01*
X243623671Y-104364030D01*
X243645850Y-104374520D01*
X243666893Y-104387132D01*
X243686599Y-104401747D01*
X243704777Y-104418223D01*
X243721253Y-104436401D01*
X243735868Y-104456107D01*
X243748480Y-104477150D01*
X243758970Y-104499329D01*
X243767235Y-104522428D01*
X243773196Y-104546227D01*
X243776796Y-104570495D01*
X243778000Y-104594999D01*
X243778000Y-105245001D01*
X243776796Y-105269505D01*
X243773196Y-105293773D01*
X243767235Y-105317572D01*
X243758970Y-105340671D01*
X243748480Y-105362850D01*
X243735868Y-105383893D01*
X243721253Y-105403599D01*
X243704777Y-105421777D01*
X243686599Y-105438253D01*
X243666893Y-105452868D01*
X243645850Y-105465480D01*
X243623671Y-105475970D01*
X243600572Y-105484235D01*
X243576773Y-105490196D01*
X243552505Y-105493796D01*
X243528001Y-105495000D01*
X242627999Y-105495000D01*
X242603495Y-105493796D01*
X242579227Y-105490196D01*
X242555428Y-105484235D01*
X242532329Y-105475970D01*
X242510150Y-105465480D01*
X242489107Y-105452868D01*
X242469401Y-105438253D01*
X242451223Y-105421777D01*
X242434747Y-105403599D01*
X242420132Y-105383893D01*
X242407520Y-105362850D01*
X242397030Y-105340671D01*
X242388765Y-105317572D01*
X242382804Y-105293773D01*
X242379204Y-105269505D01*
X242378000Y-105245001D01*
X242378000Y-104594999D01*
X242379204Y-104570495D01*
X242382804Y-104546227D01*
X242388765Y-104522428D01*
X242397030Y-104499329D01*
X242407520Y-104477150D01*
X242420132Y-104456107D01*
X242434747Y-104436401D01*
X242451223Y-104418223D01*
X242469401Y-104401747D01*
X242489107Y-104387132D01*
X242510150Y-104374520D01*
X242532329Y-104364030D01*
X242555428Y-104355765D01*
X242579227Y-104349804D01*
X242603495Y-104346204D01*
X242627999Y-104345000D01*
X243528001Y-104345000D01*
X243552505Y-104346204D01*
X243552505Y-104346204D01*
G37*
D11*
X243078000Y-104920000D03*
D10*
G36*
X243552505Y-102296204D02*
X243576773Y-102299804D01*
X243600572Y-102305765D01*
X243623671Y-102314030D01*
X243645850Y-102324520D01*
X243666893Y-102337132D01*
X243686599Y-102351747D01*
X243704777Y-102368223D01*
X243721253Y-102386401D01*
X243735868Y-102406107D01*
X243748480Y-102427150D01*
X243758970Y-102449329D01*
X243767235Y-102472428D01*
X243773196Y-102496227D01*
X243776796Y-102520495D01*
X243778000Y-102544999D01*
X243778000Y-103195001D01*
X243776796Y-103219505D01*
X243773196Y-103243773D01*
X243767235Y-103267572D01*
X243758970Y-103290671D01*
X243748480Y-103312850D01*
X243735868Y-103333893D01*
X243721253Y-103353599D01*
X243704777Y-103371777D01*
X243686599Y-103388253D01*
X243666893Y-103402868D01*
X243645850Y-103415480D01*
X243623671Y-103425970D01*
X243600572Y-103434235D01*
X243576773Y-103440196D01*
X243552505Y-103443796D01*
X243528001Y-103445000D01*
X242627999Y-103445000D01*
X242603495Y-103443796D01*
X242579227Y-103440196D01*
X242555428Y-103434235D01*
X242532329Y-103425970D01*
X242510150Y-103415480D01*
X242489107Y-103402868D01*
X242469401Y-103388253D01*
X242451223Y-103371777D01*
X242434747Y-103353599D01*
X242420132Y-103333893D01*
X242407520Y-103312850D01*
X242397030Y-103290671D01*
X242388765Y-103267572D01*
X242382804Y-103243773D01*
X242379204Y-103219505D01*
X242378000Y-103195001D01*
X242378000Y-102544999D01*
X242379204Y-102520495D01*
X242382804Y-102496227D01*
X242388765Y-102472428D01*
X242397030Y-102449329D01*
X242407520Y-102427150D01*
X242420132Y-102406107D01*
X242434747Y-102386401D01*
X242451223Y-102368223D01*
X242469401Y-102351747D01*
X242489107Y-102337132D01*
X242510150Y-102324520D01*
X242532329Y-102314030D01*
X242555428Y-102305765D01*
X242579227Y-102299804D01*
X242603495Y-102296204D01*
X242627999Y-102295000D01*
X243528001Y-102295000D01*
X243552505Y-102296204D01*
X243552505Y-102296204D01*
G37*
D11*
X243078000Y-102870000D03*
G04 #@! TD*
D10*
G04 #@! TO.C,R14*
G36*
X243552505Y-100264204D02*
X243576773Y-100267804D01*
X243600572Y-100273765D01*
X243623671Y-100282030D01*
X243645850Y-100292520D01*
X243666893Y-100305132D01*
X243686599Y-100319747D01*
X243704777Y-100336223D01*
X243721253Y-100354401D01*
X243735868Y-100374107D01*
X243748480Y-100395150D01*
X243758970Y-100417329D01*
X243767235Y-100440428D01*
X243773196Y-100464227D01*
X243776796Y-100488495D01*
X243778000Y-100512999D01*
X243778000Y-101163001D01*
X243776796Y-101187505D01*
X243773196Y-101211773D01*
X243767235Y-101235572D01*
X243758970Y-101258671D01*
X243748480Y-101280850D01*
X243735868Y-101301893D01*
X243721253Y-101321599D01*
X243704777Y-101339777D01*
X243686599Y-101356253D01*
X243666893Y-101370868D01*
X243645850Y-101383480D01*
X243623671Y-101393970D01*
X243600572Y-101402235D01*
X243576773Y-101408196D01*
X243552505Y-101411796D01*
X243528001Y-101413000D01*
X242627999Y-101413000D01*
X242603495Y-101411796D01*
X242579227Y-101408196D01*
X242555428Y-101402235D01*
X242532329Y-101393970D01*
X242510150Y-101383480D01*
X242489107Y-101370868D01*
X242469401Y-101356253D01*
X242451223Y-101339777D01*
X242434747Y-101321599D01*
X242420132Y-101301893D01*
X242407520Y-101280850D01*
X242397030Y-101258671D01*
X242388765Y-101235572D01*
X242382804Y-101211773D01*
X242379204Y-101187505D01*
X242378000Y-101163001D01*
X242378000Y-100512999D01*
X242379204Y-100488495D01*
X242382804Y-100464227D01*
X242388765Y-100440428D01*
X242397030Y-100417329D01*
X242407520Y-100395150D01*
X242420132Y-100374107D01*
X242434747Y-100354401D01*
X242451223Y-100336223D01*
X242469401Y-100319747D01*
X242489107Y-100305132D01*
X242510150Y-100292520D01*
X242532329Y-100282030D01*
X242555428Y-100273765D01*
X242579227Y-100267804D01*
X242603495Y-100264204D01*
X242627999Y-100263000D01*
X243528001Y-100263000D01*
X243552505Y-100264204D01*
X243552505Y-100264204D01*
G37*
D11*
X243078000Y-100838000D03*
D10*
G36*
X243552505Y-98214204D02*
X243576773Y-98217804D01*
X243600572Y-98223765D01*
X243623671Y-98232030D01*
X243645850Y-98242520D01*
X243666893Y-98255132D01*
X243686599Y-98269747D01*
X243704777Y-98286223D01*
X243721253Y-98304401D01*
X243735868Y-98324107D01*
X243748480Y-98345150D01*
X243758970Y-98367329D01*
X243767235Y-98390428D01*
X243773196Y-98414227D01*
X243776796Y-98438495D01*
X243778000Y-98462999D01*
X243778000Y-99113001D01*
X243776796Y-99137505D01*
X243773196Y-99161773D01*
X243767235Y-99185572D01*
X243758970Y-99208671D01*
X243748480Y-99230850D01*
X243735868Y-99251893D01*
X243721253Y-99271599D01*
X243704777Y-99289777D01*
X243686599Y-99306253D01*
X243666893Y-99320868D01*
X243645850Y-99333480D01*
X243623671Y-99343970D01*
X243600572Y-99352235D01*
X243576773Y-99358196D01*
X243552505Y-99361796D01*
X243528001Y-99363000D01*
X242627999Y-99363000D01*
X242603495Y-99361796D01*
X242579227Y-99358196D01*
X242555428Y-99352235D01*
X242532329Y-99343970D01*
X242510150Y-99333480D01*
X242489107Y-99320868D01*
X242469401Y-99306253D01*
X242451223Y-99289777D01*
X242434747Y-99271599D01*
X242420132Y-99251893D01*
X242407520Y-99230850D01*
X242397030Y-99208671D01*
X242388765Y-99185572D01*
X242382804Y-99161773D01*
X242379204Y-99137505D01*
X242378000Y-99113001D01*
X242378000Y-98462999D01*
X242379204Y-98438495D01*
X242382804Y-98414227D01*
X242388765Y-98390428D01*
X242397030Y-98367329D01*
X242407520Y-98345150D01*
X242420132Y-98324107D01*
X242434747Y-98304401D01*
X242451223Y-98286223D01*
X242469401Y-98269747D01*
X242489107Y-98255132D01*
X242510150Y-98242520D01*
X242532329Y-98232030D01*
X242555428Y-98223765D01*
X242579227Y-98217804D01*
X242603495Y-98214204D01*
X242627999Y-98213000D01*
X243528001Y-98213000D01*
X243552505Y-98214204D01*
X243552505Y-98214204D01*
G37*
D11*
X243078000Y-98788000D03*
G04 #@! TD*
D12*
G04 #@! TO.C,U1*
X253757000Y-111096000D03*
X254407000Y-111096000D03*
X255057000Y-111096000D03*
X255707000Y-111096000D03*
X256357000Y-111096000D03*
X257007000Y-111096000D03*
X257657000Y-111096000D03*
X258307000Y-111096000D03*
X258307000Y-116996000D03*
X257657000Y-116996000D03*
X257007000Y-116996000D03*
X256357000Y-116996000D03*
X255707000Y-116996000D03*
X255057000Y-116996000D03*
X254407000Y-116996000D03*
X253757000Y-116996000D03*
G04 #@! TD*
G04 #@! TO.C,U2*
X242835000Y-116996000D03*
X243485000Y-116996000D03*
X244135000Y-116996000D03*
X244785000Y-116996000D03*
X245435000Y-116996000D03*
X246085000Y-116996000D03*
X246735000Y-116996000D03*
X247385000Y-116996000D03*
X247385000Y-111096000D03*
X246735000Y-111096000D03*
X246085000Y-111096000D03*
X245435000Y-111096000D03*
X244785000Y-111096000D03*
X244135000Y-111096000D03*
X243485000Y-111096000D03*
X242835000Y-111096000D03*
G04 #@! TD*
G04 #@! TO.C,U3*
X231913000Y-111096000D03*
X232563000Y-111096000D03*
X233213000Y-111096000D03*
X233863000Y-111096000D03*
X234513000Y-111096000D03*
X235163000Y-111096000D03*
X235813000Y-111096000D03*
X236463000Y-111096000D03*
X236463000Y-116996000D03*
X235813000Y-116996000D03*
X235163000Y-116996000D03*
X234513000Y-116996000D03*
X233863000Y-116996000D03*
X233213000Y-116996000D03*
X232563000Y-116996000D03*
X231913000Y-116996000D03*
G04 #@! TD*
G04 #@! TO.C,U4*
X220483000Y-116996000D03*
X221133000Y-116996000D03*
X221783000Y-116996000D03*
X222433000Y-116996000D03*
X223083000Y-116996000D03*
X223733000Y-116996000D03*
X224383000Y-116996000D03*
X225033000Y-116996000D03*
X225033000Y-111096000D03*
X224383000Y-111096000D03*
X223733000Y-111096000D03*
X223083000Y-111096000D03*
X222433000Y-111096000D03*
X221783000Y-111096000D03*
X221133000Y-111096000D03*
X220483000Y-111096000D03*
G04 #@! TD*
G04 #@! TO.C,U5*
X241035000Y-104452000D03*
X240385000Y-104452000D03*
X239735000Y-104452000D03*
X239085000Y-104452000D03*
X238435000Y-104452000D03*
X237785000Y-104452000D03*
X237135000Y-104452000D03*
X236485000Y-104452000D03*
X236485000Y-98552000D03*
X237135000Y-98552000D03*
X237785000Y-98552000D03*
X238435000Y-98552000D03*
X239085000Y-98552000D03*
X239735000Y-98552000D03*
X240385000Y-98552000D03*
X241035000Y-98552000D03*
G04 #@! TD*
M02*
