G04 #@! TF.GenerationSoftware,KiCad,Pcbnew,5.0.2-bee76a0~70~ubuntu18.04.1*
G04 #@! TF.CreationDate,2019-02-21T21:15:02-07:00*
G04 #@! TF.ProjectId,adc,6164632e-6b69-4636-9164-5f7063625858,rev?*
G04 #@! TF.SameCoordinates,Original*
G04 #@! TF.FileFunction,Legend,Top*
G04 #@! TF.FilePolarity,Positive*
%FSLAX46Y46*%
G04 Gerber Fmt 4.6, Leading zero omitted, Abs format (unit mm)*
G04 Created by KiCad (PCBNEW 5.0.2-bee76a0~70~ubuntu18.04.1) date Thu 21 Feb 2019 09:15:02 PM MST*
%MOMM*%
%LPD*%
G01*
G04 APERTURE LIST*
%ADD10C,0.200000*%
%ADD11C,0.300000*%
%ADD12C,0.120000*%
%ADD13C,0.150000*%
G04 APERTURE END LIST*
D10*
X213868000Y-84836000D02*
X226568000Y-84836000D01*
D11*
X216702214Y-96397071D02*
X215987928Y-96397071D01*
X215916500Y-97111357D01*
X215987928Y-97039928D01*
X216130785Y-96968500D01*
X216487928Y-96968500D01*
X216630785Y-97039928D01*
X216702214Y-97111357D01*
X216773642Y-97254214D01*
X216773642Y-97611357D01*
X216702214Y-97754214D01*
X216630785Y-97825642D01*
X216487928Y-97897071D01*
X216130785Y-97897071D01*
X215987928Y-97825642D01*
X215916500Y-97754214D01*
X218916500Y-98397071D02*
X218916500Y-96254214D01*
X221416500Y-96397071D02*
X221559357Y-96397071D01*
X221702214Y-96468500D01*
X221773642Y-96539928D01*
X221845071Y-96682785D01*
X221916500Y-96968500D01*
X221916500Y-97325642D01*
X221845071Y-97611357D01*
X221773642Y-97754214D01*
X221702214Y-97825642D01*
X221559357Y-97897071D01*
X221416500Y-97897071D01*
X221273642Y-97825642D01*
X221202214Y-97754214D01*
X221130785Y-97611357D01*
X221059357Y-97325642D01*
X221059357Y-96968500D01*
X221130785Y-96682785D01*
X221202214Y-96539928D01*
X221273642Y-96468500D01*
X221416500Y-96397071D01*
X222416500Y-97897071D02*
X223202214Y-96897071D01*
X222416500Y-96897071D02*
X223202214Y-97897071D01*
X223702214Y-96539928D02*
X223773642Y-96468500D01*
X223916500Y-96397071D01*
X224273642Y-96397071D01*
X224416500Y-96468500D01*
X224487928Y-96539928D01*
X224559357Y-96682785D01*
X224559357Y-96825642D01*
X224487928Y-97039928D01*
X223630785Y-97897071D01*
X224559357Y-97897071D01*
X225202214Y-97111357D02*
X225702214Y-97111357D01*
X225916500Y-97897071D02*
X225202214Y-97897071D01*
X225202214Y-96397071D01*
X225916500Y-96397071D01*
X216622857Y-94166571D02*
X216622857Y-95166571D01*
X216265714Y-93595142D02*
X215908571Y-94666571D01*
X216837142Y-94666571D01*
X218908571Y-95666571D02*
X218908571Y-93523714D01*
X221408571Y-93666571D02*
X221551428Y-93666571D01*
X221694285Y-93738000D01*
X221765714Y-93809428D01*
X221837142Y-93952285D01*
X221908571Y-94238000D01*
X221908571Y-94595142D01*
X221837142Y-94880857D01*
X221765714Y-95023714D01*
X221694285Y-95095142D01*
X221551428Y-95166571D01*
X221408571Y-95166571D01*
X221265714Y-95095142D01*
X221194285Y-95023714D01*
X221122857Y-94880857D01*
X221051428Y-94595142D01*
X221051428Y-94238000D01*
X221122857Y-93952285D01*
X221194285Y-93809428D01*
X221265714Y-93738000D01*
X221408571Y-93666571D01*
X222408571Y-95166571D02*
X223194285Y-94166571D01*
X222408571Y-94166571D02*
X223194285Y-95166571D01*
X223694285Y-93809428D02*
X223765714Y-93738000D01*
X223908571Y-93666571D01*
X224265714Y-93666571D01*
X224408571Y-93738000D01*
X224480000Y-93809428D01*
X224551428Y-93952285D01*
X224551428Y-94095142D01*
X224480000Y-94309428D01*
X223622857Y-95166571D01*
X224551428Y-95166571D01*
X225194285Y-95166571D02*
X225194285Y-93666571D01*
X225551428Y-93666571D01*
X225765714Y-93738000D01*
X225908571Y-93880857D01*
X225980000Y-94023714D01*
X226051428Y-94309428D01*
X226051428Y-94523714D01*
X225980000Y-94809428D01*
X225908571Y-94952285D01*
X225765714Y-95095142D01*
X225551428Y-95166571D01*
X225194285Y-95166571D01*
X215817285Y-90872571D02*
X216745857Y-90872571D01*
X216245857Y-91444000D01*
X216460142Y-91444000D01*
X216603000Y-91515428D01*
X216674428Y-91586857D01*
X216745857Y-91729714D01*
X216745857Y-92086857D01*
X216674428Y-92229714D01*
X216603000Y-92301142D01*
X216460142Y-92372571D01*
X216031571Y-92372571D01*
X215888714Y-92301142D01*
X215817285Y-92229714D01*
X218888714Y-92872571D02*
X218888714Y-90729714D01*
X221388714Y-90872571D02*
X221531571Y-90872571D01*
X221674428Y-90944000D01*
X221745857Y-91015428D01*
X221817285Y-91158285D01*
X221888714Y-91444000D01*
X221888714Y-91801142D01*
X221817285Y-92086857D01*
X221745857Y-92229714D01*
X221674428Y-92301142D01*
X221531571Y-92372571D01*
X221388714Y-92372571D01*
X221245857Y-92301142D01*
X221174428Y-92229714D01*
X221103000Y-92086857D01*
X221031571Y-91801142D01*
X221031571Y-91444000D01*
X221103000Y-91158285D01*
X221174428Y-91015428D01*
X221245857Y-90944000D01*
X221388714Y-90872571D01*
X222388714Y-92372571D02*
X223174428Y-91372571D01*
X222388714Y-91372571D02*
X223174428Y-92372571D01*
X224531571Y-92372571D02*
X223674428Y-92372571D01*
X224103000Y-92372571D02*
X224103000Y-90872571D01*
X223960142Y-91086857D01*
X223817285Y-91229714D01*
X223674428Y-91301142D01*
X225674428Y-91586857D02*
X225174428Y-91586857D01*
X225174428Y-92372571D02*
X225174428Y-90872571D01*
X225888714Y-90872571D01*
X215853000Y-88221428D02*
X215924428Y-88150000D01*
X216067285Y-88078571D01*
X216424428Y-88078571D01*
X216567285Y-88150000D01*
X216638714Y-88221428D01*
X216710142Y-88364285D01*
X216710142Y-88507142D01*
X216638714Y-88721428D01*
X215781571Y-89578571D01*
X216710142Y-89578571D01*
X218853000Y-90078571D02*
X218853000Y-87935714D01*
X221353000Y-88078571D02*
X221495857Y-88078571D01*
X221638714Y-88150000D01*
X221710142Y-88221428D01*
X221781571Y-88364285D01*
X221853000Y-88650000D01*
X221853000Y-89007142D01*
X221781571Y-89292857D01*
X221710142Y-89435714D01*
X221638714Y-89507142D01*
X221495857Y-89578571D01*
X221353000Y-89578571D01*
X221210142Y-89507142D01*
X221138714Y-89435714D01*
X221067285Y-89292857D01*
X220995857Y-89007142D01*
X220995857Y-88650000D01*
X221067285Y-88364285D01*
X221138714Y-88221428D01*
X221210142Y-88150000D01*
X221353000Y-88078571D01*
X222353000Y-89578571D02*
X223138714Y-88578571D01*
X222353000Y-88578571D02*
X223138714Y-89578571D01*
X224495857Y-89578571D02*
X223638714Y-89578571D01*
X224067285Y-89578571D02*
X224067285Y-88078571D01*
X223924428Y-88292857D01*
X223781571Y-88435714D01*
X223638714Y-88507142D01*
X225138714Y-88792857D02*
X225638714Y-88792857D01*
X225853000Y-89578571D02*
X225138714Y-89578571D01*
X225138714Y-88078571D01*
X225853000Y-88078571D01*
X216765714Y-86784571D02*
X215908571Y-86784571D01*
X216337142Y-86784571D02*
X216337142Y-85284571D01*
X216194285Y-85498857D01*
X216051428Y-85641714D01*
X215908571Y-85713142D01*
X218908571Y-87284571D02*
X218908571Y-85141714D01*
X221408571Y-85284571D02*
X221551428Y-85284571D01*
X221694285Y-85356000D01*
X221765714Y-85427428D01*
X221837142Y-85570285D01*
X221908571Y-85856000D01*
X221908571Y-86213142D01*
X221837142Y-86498857D01*
X221765714Y-86641714D01*
X221694285Y-86713142D01*
X221551428Y-86784571D01*
X221408571Y-86784571D01*
X221265714Y-86713142D01*
X221194285Y-86641714D01*
X221122857Y-86498857D01*
X221051428Y-86213142D01*
X221051428Y-85856000D01*
X221122857Y-85570285D01*
X221194285Y-85427428D01*
X221265714Y-85356000D01*
X221408571Y-85284571D01*
X222408571Y-86784571D02*
X223194285Y-85784571D01*
X222408571Y-85784571D02*
X223194285Y-86784571D01*
X224551428Y-86784571D02*
X223694285Y-86784571D01*
X224122857Y-86784571D02*
X224122857Y-85284571D01*
X223980000Y-85498857D01*
X223837142Y-85641714D01*
X223694285Y-85713142D01*
X225194285Y-86784571D02*
X225194285Y-85284571D01*
X225551428Y-85284571D01*
X225765714Y-85356000D01*
X225908571Y-85498857D01*
X225980000Y-85641714D01*
X226051428Y-85927428D01*
X226051428Y-86141714D01*
X225980000Y-86427428D01*
X225908571Y-86570285D01*
X225765714Y-86713142D01*
X225551428Y-86784571D01*
X225194285Y-86784571D01*
X215146571Y-83847714D02*
X215075142Y-83919142D01*
X214860857Y-83990571D01*
X214718000Y-83990571D01*
X214503714Y-83919142D01*
X214360857Y-83776285D01*
X214289428Y-83633428D01*
X214218000Y-83347714D01*
X214218000Y-83133428D01*
X214289428Y-82847714D01*
X214360857Y-82704857D01*
X214503714Y-82562000D01*
X214718000Y-82490571D01*
X214860857Y-82490571D01*
X215075142Y-82562000D01*
X215146571Y-82633428D01*
X215789428Y-83990571D02*
X215789428Y-82490571D01*
X215789428Y-83204857D02*
X216646571Y-83204857D01*
X216646571Y-83990571D02*
X216646571Y-82490571D01*
X218860857Y-84490571D02*
X218860857Y-82347714D01*
X221003714Y-83562000D02*
X221718000Y-83562000D01*
X220860857Y-83990571D02*
X221360857Y-82490571D01*
X221860857Y-83990571D01*
X222360857Y-83990571D02*
X222360857Y-82490571D01*
X222718000Y-82490571D01*
X222932285Y-82562000D01*
X223075142Y-82704857D01*
X223146571Y-82847714D01*
X223218000Y-83133428D01*
X223218000Y-83347714D01*
X223146571Y-83633428D01*
X223075142Y-83776285D01*
X222932285Y-83919142D01*
X222718000Y-83990571D01*
X222360857Y-83990571D01*
X223860857Y-83990571D02*
X223860857Y-82490571D01*
X224218000Y-82490571D01*
X224432285Y-82562000D01*
X224575142Y-82704857D01*
X224646571Y-82847714D01*
X224718000Y-83133428D01*
X224718000Y-83347714D01*
X224646571Y-83633428D01*
X224575142Y-83776285D01*
X224432285Y-83919142D01*
X224218000Y-83990571D01*
X223860857Y-83990571D01*
X226218000Y-83990571D02*
X225718000Y-83276285D01*
X225360857Y-83990571D02*
X225360857Y-82490571D01*
X225932285Y-82490571D01*
X226075142Y-82562000D01*
X226146571Y-82633428D01*
X226218000Y-82776285D01*
X226218000Y-82990571D01*
X226146571Y-83133428D01*
X226075142Y-83204857D01*
X225932285Y-83276285D01*
X225360857Y-83276285D01*
X229532857Y-90197714D02*
X229461428Y-90269142D01*
X229247142Y-90340571D01*
X229104285Y-90340571D01*
X228890000Y-90269142D01*
X228747142Y-90126285D01*
X228675714Y-89983428D01*
X228604285Y-89697714D01*
X228604285Y-89483428D01*
X228675714Y-89197714D01*
X228747142Y-89054857D01*
X228890000Y-88912000D01*
X229104285Y-88840571D01*
X229247142Y-88840571D01*
X229461428Y-88912000D01*
X229532857Y-88983428D01*
X230175714Y-90340571D02*
X230175714Y-88840571D01*
X230175714Y-89554857D02*
X231032857Y-89554857D01*
X231032857Y-90340571D02*
X231032857Y-88840571D01*
X233604285Y-88840571D02*
X232890000Y-88840571D01*
X232818571Y-89554857D01*
X232890000Y-89483428D01*
X233032857Y-89412000D01*
X233390000Y-89412000D01*
X233532857Y-89483428D01*
X233604285Y-89554857D01*
X233675714Y-89697714D01*
X233675714Y-90054857D01*
X233604285Y-90197714D01*
X233532857Y-90269142D01*
X233390000Y-90340571D01*
X233032857Y-90340571D01*
X232890000Y-90269142D01*
X232818571Y-90197714D01*
X218610857Y-145823714D02*
X218539428Y-145895142D01*
X218325142Y-145966571D01*
X218182285Y-145966571D01*
X217968000Y-145895142D01*
X217825142Y-145752285D01*
X217753714Y-145609428D01*
X217682285Y-145323714D01*
X217682285Y-145109428D01*
X217753714Y-144823714D01*
X217825142Y-144680857D01*
X217968000Y-144538000D01*
X218182285Y-144466571D01*
X218325142Y-144466571D01*
X218539428Y-144538000D01*
X218610857Y-144609428D01*
X219253714Y-145966571D02*
X219253714Y-144466571D01*
X219253714Y-145180857D02*
X220110857Y-145180857D01*
X220110857Y-145966571D02*
X220110857Y-144466571D01*
X222610857Y-144966571D02*
X222610857Y-145966571D01*
X222253714Y-144395142D02*
X221896571Y-145466571D01*
X222825142Y-145466571D01*
X229532857Y-145823714D02*
X229461428Y-145895142D01*
X229247142Y-145966571D01*
X229104285Y-145966571D01*
X228890000Y-145895142D01*
X228747142Y-145752285D01*
X228675714Y-145609428D01*
X228604285Y-145323714D01*
X228604285Y-145109428D01*
X228675714Y-144823714D01*
X228747142Y-144680857D01*
X228890000Y-144538000D01*
X229104285Y-144466571D01*
X229247142Y-144466571D01*
X229461428Y-144538000D01*
X229532857Y-144609428D01*
X230175714Y-145966571D02*
X230175714Y-144466571D01*
X230175714Y-145180857D02*
X231032857Y-145180857D01*
X231032857Y-145966571D02*
X231032857Y-144466571D01*
X232747142Y-144466571D02*
X233675714Y-144466571D01*
X233175714Y-145038000D01*
X233390000Y-145038000D01*
X233532857Y-145109428D01*
X233604285Y-145180857D01*
X233675714Y-145323714D01*
X233675714Y-145680857D01*
X233604285Y-145823714D01*
X233532857Y-145895142D01*
X233390000Y-145966571D01*
X232961428Y-145966571D01*
X232818571Y-145895142D01*
X232747142Y-145823714D01*
X240708857Y-145823714D02*
X240637428Y-145895142D01*
X240423142Y-145966571D01*
X240280285Y-145966571D01*
X240066000Y-145895142D01*
X239923142Y-145752285D01*
X239851714Y-145609428D01*
X239780285Y-145323714D01*
X239780285Y-145109428D01*
X239851714Y-144823714D01*
X239923142Y-144680857D01*
X240066000Y-144538000D01*
X240280285Y-144466571D01*
X240423142Y-144466571D01*
X240637428Y-144538000D01*
X240708857Y-144609428D01*
X241351714Y-145966571D02*
X241351714Y-144466571D01*
X241351714Y-145180857D02*
X242208857Y-145180857D01*
X242208857Y-145966571D02*
X242208857Y-144466571D01*
X243994571Y-144609428D02*
X244066000Y-144538000D01*
X244208857Y-144466571D01*
X244566000Y-144466571D01*
X244708857Y-144538000D01*
X244780285Y-144609428D01*
X244851714Y-144752285D01*
X244851714Y-144895142D01*
X244780285Y-145109428D01*
X243923142Y-145966571D01*
X244851714Y-145966571D01*
X252138857Y-145823714D02*
X252067428Y-145895142D01*
X251853142Y-145966571D01*
X251710285Y-145966571D01*
X251496000Y-145895142D01*
X251353142Y-145752285D01*
X251281714Y-145609428D01*
X251210285Y-145323714D01*
X251210285Y-145109428D01*
X251281714Y-144823714D01*
X251353142Y-144680857D01*
X251496000Y-144538000D01*
X251710285Y-144466571D01*
X251853142Y-144466571D01*
X252067428Y-144538000D01*
X252138857Y-144609428D01*
X252781714Y-145966571D02*
X252781714Y-144466571D01*
X252781714Y-145180857D02*
X253638857Y-145180857D01*
X253638857Y-145966571D02*
X253638857Y-144466571D01*
X256281714Y-145966571D02*
X255424571Y-145966571D01*
X255853142Y-145966571D02*
X255853142Y-144466571D01*
X255710285Y-144680857D01*
X255567428Y-144823714D01*
X255424571Y-144895142D01*
X257222857Y-87316571D02*
X258151428Y-87316571D01*
X257651428Y-87888000D01*
X257865714Y-87888000D01*
X258008571Y-87959428D01*
X258080000Y-88030857D01*
X258151428Y-88173714D01*
X258151428Y-88530857D01*
X258080000Y-88673714D01*
X258008571Y-88745142D01*
X257865714Y-88816571D01*
X257437142Y-88816571D01*
X257294285Y-88745142D01*
X257222857Y-88673714D01*
X258580000Y-87316571D02*
X259080000Y-88816571D01*
X259580000Y-87316571D01*
X259937142Y-87316571D02*
X260865714Y-87316571D01*
X260365714Y-87888000D01*
X260580000Y-87888000D01*
X260722857Y-87959428D01*
X260794285Y-88030857D01*
X260865714Y-88173714D01*
X260865714Y-88530857D01*
X260794285Y-88673714D01*
X260722857Y-88745142D01*
X260580000Y-88816571D01*
X260151428Y-88816571D01*
X260008571Y-88745142D01*
X259937142Y-88673714D01*
X257937142Y-89928000D02*
X257794285Y-89856571D01*
X257580000Y-89856571D01*
X257365714Y-89928000D01*
X257222857Y-90070857D01*
X257151428Y-90213714D01*
X257080000Y-90499428D01*
X257080000Y-90713714D01*
X257151428Y-90999428D01*
X257222857Y-91142285D01*
X257365714Y-91285142D01*
X257580000Y-91356571D01*
X257722857Y-91356571D01*
X257937142Y-91285142D01*
X258008571Y-91213714D01*
X258008571Y-90713714D01*
X257722857Y-90713714D01*
X258651428Y-91356571D02*
X258651428Y-89856571D01*
X259508571Y-91356571D01*
X259508571Y-89856571D01*
X260222857Y-91356571D02*
X260222857Y-89856571D01*
X260580000Y-89856571D01*
X260794285Y-89928000D01*
X260937142Y-90070857D01*
X261008571Y-90213714D01*
X261080000Y-90499428D01*
X261080000Y-90713714D01*
X261008571Y-90999428D01*
X260937142Y-91142285D01*
X260794285Y-91285142D01*
X260580000Y-91356571D01*
X260222857Y-91356571D01*
X257294285Y-93825142D02*
X257508571Y-93896571D01*
X257865714Y-93896571D01*
X258008571Y-93825142D01*
X258080000Y-93753714D01*
X258151428Y-93610857D01*
X258151428Y-93468000D01*
X258080000Y-93325142D01*
X258008571Y-93253714D01*
X257865714Y-93182285D01*
X257580000Y-93110857D01*
X257437142Y-93039428D01*
X257365714Y-92968000D01*
X257294285Y-92825142D01*
X257294285Y-92682285D01*
X257365714Y-92539428D01*
X257437142Y-92468000D01*
X257580000Y-92396571D01*
X257937142Y-92396571D01*
X258151428Y-92468000D01*
X259651428Y-93753714D02*
X259580000Y-93825142D01*
X259365714Y-93896571D01*
X259222857Y-93896571D01*
X259008571Y-93825142D01*
X258865714Y-93682285D01*
X258794285Y-93539428D01*
X258722857Y-93253714D01*
X258722857Y-93039428D01*
X258794285Y-92753714D01*
X258865714Y-92610857D01*
X259008571Y-92468000D01*
X259222857Y-92396571D01*
X259365714Y-92396571D01*
X259580000Y-92468000D01*
X259651428Y-92539428D01*
X261008571Y-93896571D02*
X260294285Y-93896571D01*
X260294285Y-92396571D01*
X257258571Y-96619142D02*
X257472857Y-96690571D01*
X257830000Y-96690571D01*
X257972857Y-96619142D01*
X258044285Y-96547714D01*
X258115714Y-96404857D01*
X258115714Y-96262000D01*
X258044285Y-96119142D01*
X257972857Y-96047714D01*
X257830000Y-95976285D01*
X257544285Y-95904857D01*
X257401428Y-95833428D01*
X257330000Y-95762000D01*
X257258571Y-95619142D01*
X257258571Y-95476285D01*
X257330000Y-95333428D01*
X257401428Y-95262000D01*
X257544285Y-95190571D01*
X257901428Y-95190571D01*
X258115714Y-95262000D01*
X258758571Y-96690571D02*
X258758571Y-95190571D01*
X259115714Y-95190571D01*
X259330000Y-95262000D01*
X259472857Y-95404857D01*
X259544285Y-95547714D01*
X259615714Y-95833428D01*
X259615714Y-96047714D01*
X259544285Y-96333428D01*
X259472857Y-96476285D01*
X259330000Y-96619142D01*
X259115714Y-96690571D01*
X258758571Y-96690571D01*
X260187142Y-96262000D02*
X260901428Y-96262000D01*
X260044285Y-96690571D02*
X260544285Y-95190571D01*
X261044285Y-96690571D01*
D12*
G04 #@! TO.C,C3*
X255720436Y-109384000D02*
X256924564Y-109384000D01*
X255720436Y-112104000D02*
X256924564Y-112104000D01*
G04 #@! TO.C,C4*
X255720436Y-116168000D02*
X256924564Y-116168000D01*
X255720436Y-113448000D02*
X256924564Y-113448000D01*
G04 #@! TO.C,C6*
X246002564Y-116168000D02*
X244798436Y-116168000D01*
X246002564Y-113448000D02*
X244798436Y-113448000D01*
G04 #@! TO.C,C8*
X246002564Y-109384000D02*
X244798436Y-109384000D01*
X246002564Y-112104000D02*
X244798436Y-112104000D01*
G04 #@! TO.C,C11*
X233876436Y-113448000D02*
X235080564Y-113448000D01*
X233876436Y-116168000D02*
X235080564Y-116168000D01*
G04 #@! TO.C,C12*
X233876436Y-112104000D02*
X235080564Y-112104000D01*
X233876436Y-109384000D02*
X235080564Y-109384000D01*
G04 #@! TO.C,C14*
X223587064Y-113448000D02*
X222382936Y-113448000D01*
X223587064Y-116168000D02*
X222382936Y-116168000D01*
G04 #@! TO.C,C16*
X223587064Y-112040500D02*
X222382936Y-112040500D01*
X223587064Y-109320500D02*
X222382936Y-109320500D01*
G04 #@! TO.C,C20*
X245240564Y-105436500D02*
X244036436Y-105436500D01*
X245240564Y-102716500D02*
X244036436Y-102716500D01*
G04 #@! TO.C,R21*
X259899564Y-125878000D02*
X258695436Y-125878000D01*
X259899564Y-124058000D02*
X258695436Y-124058000D01*
G04 #@! TO.C,R22*
X259972564Y-126598000D02*
X258768436Y-126598000D01*
X259972564Y-128418000D02*
X258768436Y-128418000D01*
G04 #@! TO.C,R23*
X259899564Y-130958000D02*
X258695436Y-130958000D01*
X259899564Y-129138000D02*
X258695436Y-129138000D01*
G04 #@! TO.C,R24*
X259936064Y-131678000D02*
X258731936Y-131678000D01*
X259936064Y-133498000D02*
X258731936Y-133498000D01*
G04 #@! TO.C,R25*
X248796564Y-125878000D02*
X247592436Y-125878000D01*
X248796564Y-124058000D02*
X247592436Y-124058000D01*
G04 #@! TO.C,R26*
X259899564Y-134218000D02*
X258695436Y-134218000D01*
X259899564Y-136038000D02*
X258695436Y-136038000D01*
G04 #@! TO.C,R27*
X248723564Y-126598000D02*
X247519436Y-126598000D01*
X248723564Y-128418000D02*
X247519436Y-128418000D01*
G04 #@! TO.C,R28*
X259899564Y-138578000D02*
X258695436Y-138578000D01*
X259899564Y-136758000D02*
X258695436Y-136758000D01*
G04 #@! TO.C,R29*
X248723564Y-130958000D02*
X247519436Y-130958000D01*
X248723564Y-129138000D02*
X247519436Y-129138000D01*
G04 #@! TO.C,R30*
X259899564Y-139298000D02*
X258695436Y-139298000D01*
X259899564Y-141118000D02*
X258695436Y-141118000D01*
G04 #@! TO.C,R31*
X248723564Y-131678000D02*
X247519436Y-131678000D01*
X248723564Y-133498000D02*
X247519436Y-133498000D01*
G04 #@! TO.C,R32*
X259899564Y-143658000D02*
X258695436Y-143658000D01*
X259899564Y-141838000D02*
X258695436Y-141838000D01*
G04 #@! TO.C,R33*
X248760064Y-136038000D02*
X247555936Y-136038000D01*
X248760064Y-134218000D02*
X247555936Y-134218000D01*
G04 #@! TO.C,R34*
X248796564Y-136758000D02*
X247592436Y-136758000D01*
X248796564Y-138578000D02*
X247592436Y-138578000D01*
G04 #@! TO.C,R35*
X248760064Y-141118000D02*
X247555936Y-141118000D01*
X248760064Y-139298000D02*
X247555936Y-139298000D01*
G04 #@! TO.C,R36*
X248796564Y-141838000D02*
X247592436Y-141838000D01*
X248796564Y-143658000D02*
X247592436Y-143658000D01*
G04 #@! TO.C,R37*
X237547564Y-124058000D02*
X236343436Y-124058000D01*
X237547564Y-125878000D02*
X236343436Y-125878000D01*
G04 #@! TO.C,R38*
X237620564Y-128418000D02*
X236416436Y-128418000D01*
X237620564Y-126598000D02*
X236416436Y-126598000D01*
G04 #@! TO.C,R39*
X237620564Y-129138000D02*
X236416436Y-129138000D01*
X237620564Y-130958000D02*
X236416436Y-130958000D01*
G04 #@! TO.C,R40*
X226408064Y-125878000D02*
X225203936Y-125878000D01*
X226408064Y-124058000D02*
X225203936Y-124058000D01*
G04 #@! TO.C,R41*
X237547564Y-133498000D02*
X236343436Y-133498000D01*
X237547564Y-131678000D02*
X236343436Y-131678000D01*
G04 #@! TO.C,R42*
X226371564Y-126598000D02*
X225167436Y-126598000D01*
X226371564Y-128418000D02*
X225167436Y-128418000D01*
G04 #@! TO.C,R43*
X237547564Y-134218000D02*
X236343436Y-134218000D01*
X237547564Y-136038000D02*
X236343436Y-136038000D01*
G04 #@! TO.C,R44*
X226371564Y-130958000D02*
X225167436Y-130958000D01*
X226371564Y-129138000D02*
X225167436Y-129138000D01*
G04 #@! TO.C,R45*
X237547564Y-138578000D02*
X236343436Y-138578000D01*
X237547564Y-136758000D02*
X236343436Y-136758000D01*
G04 #@! TO.C,R46*
X226371564Y-131678000D02*
X225167436Y-131678000D01*
X226371564Y-133498000D02*
X225167436Y-133498000D01*
G04 #@! TO.C,R47*
X237547564Y-139298000D02*
X236343436Y-139298000D01*
X237547564Y-141118000D02*
X236343436Y-141118000D01*
G04 #@! TO.C,R48*
X226371564Y-136038000D02*
X225167436Y-136038000D01*
X226371564Y-134218000D02*
X225167436Y-134218000D01*
G04 #@! TO.C,R49*
X237547564Y-143658000D02*
X236343436Y-143658000D01*
X237547564Y-141838000D02*
X236343436Y-141838000D01*
G04 #@! TO.C,R50*
X226371564Y-136758000D02*
X225167436Y-136758000D01*
X226371564Y-138578000D02*
X225167436Y-138578000D01*
G04 #@! TO.C,R51*
X226371564Y-141118000D02*
X225167436Y-141118000D01*
X226371564Y-139298000D02*
X225167436Y-139298000D01*
G04 #@! TO.C,R52*
X226371564Y-141838000D02*
X225167436Y-141838000D01*
X226371564Y-143658000D02*
X225167436Y-143658000D01*
G04 #@! TO.C,R53*
X246740000Y-99698564D02*
X246740000Y-98494436D01*
X248560000Y-99698564D02*
X248560000Y-98494436D01*
G04 #@! TO.C,R54*
X246110000Y-99664564D02*
X246110000Y-98460436D01*
X244290000Y-99664564D02*
X244290000Y-98460436D01*
G04 #@! TO.C,R55*
X241690000Y-99614564D02*
X241690000Y-98410436D01*
X243510000Y-99614564D02*
X243510000Y-98410436D01*
G04 #@! TO.C,R56*
X240940000Y-99625564D02*
X240940000Y-98421436D01*
X239120000Y-99625564D02*
X239120000Y-98421436D01*
G04 #@! TO.C,R57*
X236580000Y-99625564D02*
X236580000Y-98421436D01*
X238400000Y-99625564D02*
X238400000Y-98421436D01*
G04 #@! TO.C,R58*
X235860000Y-99614564D02*
X235860000Y-98410436D01*
X234040000Y-99614564D02*
X234040000Y-98410436D01*
G04 #@! TO.C,R59*
X231500000Y-99625564D02*
X231500000Y-98421436D01*
X233320000Y-99625564D02*
X233320000Y-98421436D01*
G04 #@! TO.C,R60*
X230760000Y-99614564D02*
X230760000Y-98410436D01*
X228940000Y-99614564D02*
X228940000Y-98410436D01*
G04 #@! TO.C,C18*
X233429564Y-105500000D02*
X232225436Y-105500000D01*
X233429564Y-102780000D02*
X232225436Y-102780000D01*
G04 #@! TO.C,J1*
X251146000Y-144078000D02*
X256346000Y-144078000D01*
X251146000Y-126238000D02*
X251146000Y-144078000D01*
X256346000Y-123638000D02*
X256346000Y-144078000D01*
X251146000Y-126238000D02*
X253746000Y-126238000D01*
X253746000Y-126238000D02*
X253746000Y-123638000D01*
X253746000Y-123638000D02*
X256346000Y-123638000D01*
X251146000Y-124968000D02*
X251146000Y-123638000D01*
X251146000Y-123638000D02*
X252476000Y-123638000D01*
G04 #@! TO.C,J2*
X239970000Y-123638000D02*
X241300000Y-123638000D01*
X239970000Y-124968000D02*
X239970000Y-123638000D01*
X242570000Y-123638000D02*
X245170000Y-123638000D01*
X242570000Y-126238000D02*
X242570000Y-123638000D01*
X239970000Y-126238000D02*
X242570000Y-126238000D01*
X245170000Y-123638000D02*
X245170000Y-144078000D01*
X239970000Y-126238000D02*
X239970000Y-144078000D01*
X239970000Y-144078000D02*
X245170000Y-144078000D01*
G04 #@! TO.C,J3*
X228794000Y-144078000D02*
X233994000Y-144078000D01*
X228794000Y-126238000D02*
X228794000Y-144078000D01*
X233994000Y-123638000D02*
X233994000Y-144078000D01*
X228794000Y-126238000D02*
X231394000Y-126238000D01*
X231394000Y-126238000D02*
X231394000Y-123638000D01*
X231394000Y-123638000D02*
X233994000Y-123638000D01*
X228794000Y-124968000D02*
X228794000Y-123638000D01*
X228794000Y-123638000D02*
X230124000Y-123638000D01*
G04 #@! TO.C,J4*
X217618000Y-144078000D02*
X222818000Y-144078000D01*
X217618000Y-126238000D02*
X217618000Y-144078000D01*
X222818000Y-123638000D02*
X222818000Y-144078000D01*
X217618000Y-126238000D02*
X220218000Y-126238000D01*
X220218000Y-126238000D02*
X220218000Y-123638000D01*
X220218000Y-123638000D02*
X222818000Y-123638000D01*
X217618000Y-124968000D02*
X217618000Y-123638000D01*
X217618000Y-123638000D02*
X218948000Y-123638000D01*
G04 #@! TO.C,J5*
X264728000Y-86808000D02*
X262068000Y-86808000D01*
X264728000Y-94488000D02*
X264728000Y-86808000D01*
X262068000Y-94488000D02*
X262068000Y-86808000D01*
X264728000Y-94488000D02*
X262068000Y-94488000D01*
X264728000Y-95758000D02*
X264728000Y-97088000D01*
X264728000Y-97088000D02*
X263398000Y-97088000D01*
G04 #@! TO.C,J9*
X248930000Y-88070000D02*
X248930000Y-89400000D01*
X247600000Y-88070000D02*
X248930000Y-88070000D01*
X248930000Y-90670000D02*
X248930000Y-93270000D01*
X246330000Y-90670000D02*
X248930000Y-90670000D01*
X246330000Y-88070000D02*
X246330000Y-90670000D01*
X248930000Y-93270000D02*
X228490000Y-93270000D01*
X246330000Y-88070000D02*
X228490000Y-88070000D01*
X228490000Y-88070000D02*
X228490000Y-93270000D01*
G04 #@! TO.C,C1*
X253887500Y-119045000D02*
X257972500Y-119045000D01*
X253887500Y-117175000D02*
X253887500Y-119045000D01*
X257972500Y-117175000D02*
X253887500Y-117175000D01*
G04 #@! TO.C,C2*
X257926500Y-119842000D02*
X253841500Y-119842000D01*
X253841500Y-119842000D02*
X253841500Y-121712000D01*
X253841500Y-121712000D02*
X257926500Y-121712000D01*
G04 #@! TO.C,C5*
X247050500Y-117175000D02*
X242965500Y-117175000D01*
X242965500Y-117175000D02*
X242965500Y-119045000D01*
X242965500Y-119045000D02*
X247050500Y-119045000D01*
G04 #@! TO.C,C7*
X242965500Y-121839000D02*
X247050500Y-121839000D01*
X242965500Y-119969000D02*
X242965500Y-121839000D01*
X247050500Y-119969000D02*
X242965500Y-119969000D01*
G04 #@! TO.C,C9*
X232043500Y-121839000D02*
X236128500Y-121839000D01*
X232043500Y-119969000D02*
X232043500Y-121839000D01*
X236128500Y-119969000D02*
X232043500Y-119969000D01*
G04 #@! TO.C,C10*
X236128500Y-117175000D02*
X232043500Y-117175000D01*
X232043500Y-117175000D02*
X232043500Y-119045000D01*
X232043500Y-119045000D02*
X236128500Y-119045000D01*
G04 #@! TO.C,C13*
X224571500Y-119969000D02*
X220486500Y-119969000D01*
X220486500Y-119969000D02*
X220486500Y-121839000D01*
X220486500Y-121839000D02*
X224571500Y-121839000D01*
G04 #@! TO.C,C15*
X220486500Y-119045000D02*
X224571500Y-119045000D01*
X220486500Y-117175000D02*
X220486500Y-119045000D01*
X224571500Y-117175000D02*
X220486500Y-117175000D01*
G04 #@! TO.C,C17*
X224504500Y-105075000D02*
X228589500Y-105075000D01*
X224504500Y-103205000D02*
X224504500Y-105075000D01*
X228589500Y-103205000D02*
X224504500Y-103205000D01*
G04 #@! TO.C,C19*
X248757500Y-105075000D02*
X252842500Y-105075000D01*
X252842500Y-105075000D02*
X252842500Y-103205000D01*
X252842500Y-103205000D02*
X248757500Y-103205000D01*
G04 #@! TO.C,R15*
X258990251Y-100930999D02*
X258467747Y-100930999D01*
X258990251Y-102350999D02*
X258467747Y-102350999D01*
G04 #@! TO.C,R16*
X258990251Y-99770000D02*
X258467747Y-99770000D01*
X258990251Y-98350000D02*
X258467747Y-98350000D01*
G04 #@! TO.C,C3*
D13*
X259675333Y-111101142D02*
X259627714Y-111148761D01*
X259484857Y-111196380D01*
X259389619Y-111196380D01*
X259246761Y-111148761D01*
X259151523Y-111053523D01*
X259103904Y-110958285D01*
X259056285Y-110767809D01*
X259056285Y-110624952D01*
X259103904Y-110434476D01*
X259151523Y-110339238D01*
X259246761Y-110244000D01*
X259389619Y-110196380D01*
X259484857Y-110196380D01*
X259627714Y-110244000D01*
X259675333Y-110291619D01*
X260008666Y-110196380D02*
X260627714Y-110196380D01*
X260294380Y-110577333D01*
X260437238Y-110577333D01*
X260532476Y-110624952D01*
X260580095Y-110672571D01*
X260627714Y-110767809D01*
X260627714Y-111005904D01*
X260580095Y-111101142D01*
X260532476Y-111148761D01*
X260437238Y-111196380D01*
X260151523Y-111196380D01*
X260056285Y-111148761D01*
X260008666Y-111101142D01*
G04 #@! TO.C,C4*
X259675333Y-115165142D02*
X259627714Y-115212761D01*
X259484857Y-115260380D01*
X259389619Y-115260380D01*
X259246761Y-115212761D01*
X259151523Y-115117523D01*
X259103904Y-115022285D01*
X259056285Y-114831809D01*
X259056285Y-114688952D01*
X259103904Y-114498476D01*
X259151523Y-114403238D01*
X259246761Y-114308000D01*
X259389619Y-114260380D01*
X259484857Y-114260380D01*
X259627714Y-114308000D01*
X259675333Y-114355619D01*
X260532476Y-114593714D02*
X260532476Y-115260380D01*
X260294380Y-114212761D02*
X260056285Y-114927047D01*
X260675333Y-114927047D01*
G04 #@! TO.C,C6*
X249007333Y-115165142D02*
X248959714Y-115212761D01*
X248816857Y-115260380D01*
X248721619Y-115260380D01*
X248578761Y-115212761D01*
X248483523Y-115117523D01*
X248435904Y-115022285D01*
X248388285Y-114831809D01*
X248388285Y-114688952D01*
X248435904Y-114498476D01*
X248483523Y-114403238D01*
X248578761Y-114308000D01*
X248721619Y-114260380D01*
X248816857Y-114260380D01*
X248959714Y-114308000D01*
X249007333Y-114355619D01*
X249864476Y-114260380D02*
X249674000Y-114260380D01*
X249578761Y-114308000D01*
X249531142Y-114355619D01*
X249435904Y-114498476D01*
X249388285Y-114688952D01*
X249388285Y-115069904D01*
X249435904Y-115165142D01*
X249483523Y-115212761D01*
X249578761Y-115260380D01*
X249769238Y-115260380D01*
X249864476Y-115212761D01*
X249912095Y-115165142D01*
X249959714Y-115069904D01*
X249959714Y-114831809D01*
X249912095Y-114736571D01*
X249864476Y-114688952D01*
X249769238Y-114641333D01*
X249578761Y-114641333D01*
X249483523Y-114688952D01*
X249435904Y-114736571D01*
X249388285Y-114831809D01*
G04 #@! TO.C,C8*
X249007333Y-111101142D02*
X248959714Y-111148761D01*
X248816857Y-111196380D01*
X248721619Y-111196380D01*
X248578761Y-111148761D01*
X248483523Y-111053523D01*
X248435904Y-110958285D01*
X248388285Y-110767809D01*
X248388285Y-110624952D01*
X248435904Y-110434476D01*
X248483523Y-110339238D01*
X248578761Y-110244000D01*
X248721619Y-110196380D01*
X248816857Y-110196380D01*
X248959714Y-110244000D01*
X249007333Y-110291619D01*
X249578761Y-110624952D02*
X249483523Y-110577333D01*
X249435904Y-110529714D01*
X249388285Y-110434476D01*
X249388285Y-110386857D01*
X249435904Y-110291619D01*
X249483523Y-110244000D01*
X249578761Y-110196380D01*
X249769238Y-110196380D01*
X249864476Y-110244000D01*
X249912095Y-110291619D01*
X249959714Y-110386857D01*
X249959714Y-110434476D01*
X249912095Y-110529714D01*
X249864476Y-110577333D01*
X249769238Y-110624952D01*
X249578761Y-110624952D01*
X249483523Y-110672571D01*
X249435904Y-110720190D01*
X249388285Y-110815428D01*
X249388285Y-111005904D01*
X249435904Y-111101142D01*
X249483523Y-111148761D01*
X249578761Y-111196380D01*
X249769238Y-111196380D01*
X249864476Y-111148761D01*
X249912095Y-111101142D01*
X249959714Y-111005904D01*
X249959714Y-110815428D01*
X249912095Y-110720190D01*
X249864476Y-110672571D01*
X249769238Y-110624952D01*
G04 #@! TO.C,C11*
X237863142Y-115165142D02*
X237815523Y-115212761D01*
X237672666Y-115260380D01*
X237577428Y-115260380D01*
X237434571Y-115212761D01*
X237339333Y-115117523D01*
X237291714Y-115022285D01*
X237244095Y-114831809D01*
X237244095Y-114688952D01*
X237291714Y-114498476D01*
X237339333Y-114403238D01*
X237434571Y-114308000D01*
X237577428Y-114260380D01*
X237672666Y-114260380D01*
X237815523Y-114308000D01*
X237863142Y-114355619D01*
X238815523Y-115260380D02*
X238244095Y-115260380D01*
X238529809Y-115260380D02*
X238529809Y-114260380D01*
X238434571Y-114403238D01*
X238339333Y-114498476D01*
X238244095Y-114546095D01*
X239767904Y-115260380D02*
X239196476Y-115260380D01*
X239482190Y-115260380D02*
X239482190Y-114260380D01*
X239386952Y-114403238D01*
X239291714Y-114498476D01*
X239196476Y-114546095D01*
G04 #@! TO.C,C12*
X237863142Y-111101142D02*
X237815523Y-111148761D01*
X237672666Y-111196380D01*
X237577428Y-111196380D01*
X237434571Y-111148761D01*
X237339333Y-111053523D01*
X237291714Y-110958285D01*
X237244095Y-110767809D01*
X237244095Y-110624952D01*
X237291714Y-110434476D01*
X237339333Y-110339238D01*
X237434571Y-110244000D01*
X237577428Y-110196380D01*
X237672666Y-110196380D01*
X237815523Y-110244000D01*
X237863142Y-110291619D01*
X238815523Y-111196380D02*
X238244095Y-111196380D01*
X238529809Y-111196380D02*
X238529809Y-110196380D01*
X238434571Y-110339238D01*
X238339333Y-110434476D01*
X238244095Y-110482095D01*
X239196476Y-110291619D02*
X239244095Y-110244000D01*
X239339333Y-110196380D01*
X239577428Y-110196380D01*
X239672666Y-110244000D01*
X239720285Y-110291619D01*
X239767904Y-110386857D01*
X239767904Y-110482095D01*
X239720285Y-110624952D01*
X239148857Y-111196380D01*
X239767904Y-111196380D01*
G04 #@! TO.C,C14*
X226433142Y-115165142D02*
X226385523Y-115212761D01*
X226242666Y-115260380D01*
X226147428Y-115260380D01*
X226004571Y-115212761D01*
X225909333Y-115117523D01*
X225861714Y-115022285D01*
X225814095Y-114831809D01*
X225814095Y-114688952D01*
X225861714Y-114498476D01*
X225909333Y-114403238D01*
X226004571Y-114308000D01*
X226147428Y-114260380D01*
X226242666Y-114260380D01*
X226385523Y-114308000D01*
X226433142Y-114355619D01*
X227385523Y-115260380D02*
X226814095Y-115260380D01*
X227099809Y-115260380D02*
X227099809Y-114260380D01*
X227004571Y-114403238D01*
X226909333Y-114498476D01*
X226814095Y-114546095D01*
X228242666Y-114593714D02*
X228242666Y-115260380D01*
X228004571Y-114212761D02*
X227766476Y-114927047D01*
X228385523Y-114927047D01*
G04 #@! TO.C,C16*
X226433142Y-111101142D02*
X226385523Y-111148761D01*
X226242666Y-111196380D01*
X226147428Y-111196380D01*
X226004571Y-111148761D01*
X225909333Y-111053523D01*
X225861714Y-110958285D01*
X225814095Y-110767809D01*
X225814095Y-110624952D01*
X225861714Y-110434476D01*
X225909333Y-110339238D01*
X226004571Y-110244000D01*
X226147428Y-110196380D01*
X226242666Y-110196380D01*
X226385523Y-110244000D01*
X226433142Y-110291619D01*
X227385523Y-111196380D02*
X226814095Y-111196380D01*
X227099809Y-111196380D02*
X227099809Y-110196380D01*
X227004571Y-110339238D01*
X226909333Y-110434476D01*
X226814095Y-110482095D01*
X228242666Y-110196380D02*
X228052190Y-110196380D01*
X227956952Y-110244000D01*
X227909333Y-110291619D01*
X227814095Y-110434476D01*
X227766476Y-110624952D01*
X227766476Y-111005904D01*
X227814095Y-111101142D01*
X227861714Y-111148761D01*
X227956952Y-111196380D01*
X228147428Y-111196380D01*
X228242666Y-111148761D01*
X228290285Y-111101142D01*
X228337904Y-111005904D01*
X228337904Y-110767809D01*
X228290285Y-110672571D01*
X228242666Y-110624952D01*
X228147428Y-110577333D01*
X227956952Y-110577333D01*
X227861714Y-110624952D01*
X227814095Y-110672571D01*
X227766476Y-110767809D01*
G04 #@! TO.C,C20*
X243959142Y-107037142D02*
X243911523Y-107084761D01*
X243768666Y-107132380D01*
X243673428Y-107132380D01*
X243530571Y-107084761D01*
X243435333Y-106989523D01*
X243387714Y-106894285D01*
X243340095Y-106703809D01*
X243340095Y-106560952D01*
X243387714Y-106370476D01*
X243435333Y-106275238D01*
X243530571Y-106180000D01*
X243673428Y-106132380D01*
X243768666Y-106132380D01*
X243911523Y-106180000D01*
X243959142Y-106227619D01*
X244340095Y-106227619D02*
X244387714Y-106180000D01*
X244482952Y-106132380D01*
X244721047Y-106132380D01*
X244816285Y-106180000D01*
X244863904Y-106227619D01*
X244911523Y-106322857D01*
X244911523Y-106418095D01*
X244863904Y-106560952D01*
X244292476Y-107132380D01*
X244911523Y-107132380D01*
X245530571Y-106132380D02*
X245625809Y-106132380D01*
X245721047Y-106180000D01*
X245768666Y-106227619D01*
X245816285Y-106322857D01*
X245863904Y-106513333D01*
X245863904Y-106751428D01*
X245816285Y-106941904D01*
X245768666Y-107037142D01*
X245721047Y-107084761D01*
X245625809Y-107132380D01*
X245530571Y-107132380D01*
X245435333Y-107084761D01*
X245387714Y-107037142D01*
X245340095Y-106941904D01*
X245292476Y-106751428D01*
X245292476Y-106513333D01*
X245340095Y-106322857D01*
X245387714Y-106227619D01*
X245435333Y-106180000D01*
X245530571Y-106132380D01*
G04 #@! TO.C,R21*
X258654642Y-151116380D02*
X258321309Y-150640190D01*
X258083214Y-151116380D02*
X258083214Y-150116380D01*
X258464166Y-150116380D01*
X258559404Y-150164000D01*
X258607023Y-150211619D01*
X258654642Y-150306857D01*
X258654642Y-150449714D01*
X258607023Y-150544952D01*
X258559404Y-150592571D01*
X258464166Y-150640190D01*
X258083214Y-150640190D01*
X259035595Y-150211619D02*
X259083214Y-150164000D01*
X259178452Y-150116380D01*
X259416547Y-150116380D01*
X259511785Y-150164000D01*
X259559404Y-150211619D01*
X259607023Y-150306857D01*
X259607023Y-150402095D01*
X259559404Y-150544952D01*
X258987976Y-151116380D01*
X259607023Y-151116380D01*
X260559404Y-151116380D02*
X259987976Y-151116380D01*
X260273690Y-151116380D02*
X260273690Y-150116380D01*
X260178452Y-150259238D01*
X260083214Y-150354476D01*
X259987976Y-150402095D01*
G04 #@! TO.C,R22*
X258727642Y-153656380D02*
X258394309Y-153180190D01*
X258156214Y-153656380D02*
X258156214Y-152656380D01*
X258537166Y-152656380D01*
X258632404Y-152704000D01*
X258680023Y-152751619D01*
X258727642Y-152846857D01*
X258727642Y-152989714D01*
X258680023Y-153084952D01*
X258632404Y-153132571D01*
X258537166Y-153180190D01*
X258156214Y-153180190D01*
X259108595Y-152751619D02*
X259156214Y-152704000D01*
X259251452Y-152656380D01*
X259489547Y-152656380D01*
X259584785Y-152704000D01*
X259632404Y-152751619D01*
X259680023Y-152846857D01*
X259680023Y-152942095D01*
X259632404Y-153084952D01*
X259060976Y-153656380D01*
X259680023Y-153656380D01*
X260060976Y-152751619D02*
X260108595Y-152704000D01*
X260203833Y-152656380D01*
X260441928Y-152656380D01*
X260537166Y-152704000D01*
X260584785Y-152751619D01*
X260632404Y-152846857D01*
X260632404Y-152942095D01*
X260584785Y-153084952D01*
X260013357Y-153656380D01*
X260632404Y-153656380D01*
G04 #@! TO.C,R23*
X258654642Y-156196380D02*
X258321309Y-155720190D01*
X258083214Y-156196380D02*
X258083214Y-155196380D01*
X258464166Y-155196380D01*
X258559404Y-155244000D01*
X258607023Y-155291619D01*
X258654642Y-155386857D01*
X258654642Y-155529714D01*
X258607023Y-155624952D01*
X258559404Y-155672571D01*
X258464166Y-155720190D01*
X258083214Y-155720190D01*
X259035595Y-155291619D02*
X259083214Y-155244000D01*
X259178452Y-155196380D01*
X259416547Y-155196380D01*
X259511785Y-155244000D01*
X259559404Y-155291619D01*
X259607023Y-155386857D01*
X259607023Y-155482095D01*
X259559404Y-155624952D01*
X258987976Y-156196380D01*
X259607023Y-156196380D01*
X259940357Y-155196380D02*
X260559404Y-155196380D01*
X260226071Y-155577333D01*
X260368928Y-155577333D01*
X260464166Y-155624952D01*
X260511785Y-155672571D01*
X260559404Y-155767809D01*
X260559404Y-156005904D01*
X260511785Y-156101142D01*
X260464166Y-156148761D01*
X260368928Y-156196380D01*
X260083214Y-156196380D01*
X259987976Y-156148761D01*
X259940357Y-156101142D01*
G04 #@! TO.C,R24*
X258691142Y-158736380D02*
X258357809Y-158260190D01*
X258119714Y-158736380D02*
X258119714Y-157736380D01*
X258500666Y-157736380D01*
X258595904Y-157784000D01*
X258643523Y-157831619D01*
X258691142Y-157926857D01*
X258691142Y-158069714D01*
X258643523Y-158164952D01*
X258595904Y-158212571D01*
X258500666Y-158260190D01*
X258119714Y-158260190D01*
X259072095Y-157831619D02*
X259119714Y-157784000D01*
X259214952Y-157736380D01*
X259453047Y-157736380D01*
X259548285Y-157784000D01*
X259595904Y-157831619D01*
X259643523Y-157926857D01*
X259643523Y-158022095D01*
X259595904Y-158164952D01*
X259024476Y-158736380D01*
X259643523Y-158736380D01*
X260500666Y-158069714D02*
X260500666Y-158736380D01*
X260262571Y-157688761D02*
X260024476Y-158403047D01*
X260643523Y-158403047D01*
G04 #@! TO.C,R25*
X248059642Y-151370380D02*
X247726309Y-150894190D01*
X247488214Y-151370380D02*
X247488214Y-150370380D01*
X247869166Y-150370380D01*
X247964404Y-150418000D01*
X248012023Y-150465619D01*
X248059642Y-150560857D01*
X248059642Y-150703714D01*
X248012023Y-150798952D01*
X247964404Y-150846571D01*
X247869166Y-150894190D01*
X247488214Y-150894190D01*
X248440595Y-150465619D02*
X248488214Y-150418000D01*
X248583452Y-150370380D01*
X248821547Y-150370380D01*
X248916785Y-150418000D01*
X248964404Y-150465619D01*
X249012023Y-150560857D01*
X249012023Y-150656095D01*
X248964404Y-150798952D01*
X248392976Y-151370380D01*
X249012023Y-151370380D01*
X249916785Y-150370380D02*
X249440595Y-150370380D01*
X249392976Y-150846571D01*
X249440595Y-150798952D01*
X249535833Y-150751333D01*
X249773928Y-150751333D01*
X249869166Y-150798952D01*
X249916785Y-150846571D01*
X249964404Y-150941809D01*
X249964404Y-151179904D01*
X249916785Y-151275142D01*
X249869166Y-151322761D01*
X249773928Y-151370380D01*
X249535833Y-151370380D01*
X249440595Y-151322761D01*
X249392976Y-151275142D01*
G04 #@! TO.C,R26*
X258654642Y-161276380D02*
X258321309Y-160800190D01*
X258083214Y-161276380D02*
X258083214Y-160276380D01*
X258464166Y-160276380D01*
X258559404Y-160324000D01*
X258607023Y-160371619D01*
X258654642Y-160466857D01*
X258654642Y-160609714D01*
X258607023Y-160704952D01*
X258559404Y-160752571D01*
X258464166Y-160800190D01*
X258083214Y-160800190D01*
X259035595Y-160371619D02*
X259083214Y-160324000D01*
X259178452Y-160276380D01*
X259416547Y-160276380D01*
X259511785Y-160324000D01*
X259559404Y-160371619D01*
X259607023Y-160466857D01*
X259607023Y-160562095D01*
X259559404Y-160704952D01*
X258987976Y-161276380D01*
X259607023Y-161276380D01*
X260464166Y-160276380D02*
X260273690Y-160276380D01*
X260178452Y-160324000D01*
X260130833Y-160371619D01*
X260035595Y-160514476D01*
X259987976Y-160704952D01*
X259987976Y-161085904D01*
X260035595Y-161181142D01*
X260083214Y-161228761D01*
X260178452Y-161276380D01*
X260368928Y-161276380D01*
X260464166Y-161228761D01*
X260511785Y-161181142D01*
X260559404Y-161085904D01*
X260559404Y-160847809D01*
X260511785Y-160752571D01*
X260464166Y-160704952D01*
X260368928Y-160657333D01*
X260178452Y-160657333D01*
X260083214Y-160704952D01*
X260035595Y-160752571D01*
X259987976Y-160847809D01*
G04 #@! TO.C,R27*
X247986642Y-153910380D02*
X247653309Y-153434190D01*
X247415214Y-153910380D02*
X247415214Y-152910380D01*
X247796166Y-152910380D01*
X247891404Y-152958000D01*
X247939023Y-153005619D01*
X247986642Y-153100857D01*
X247986642Y-153243714D01*
X247939023Y-153338952D01*
X247891404Y-153386571D01*
X247796166Y-153434190D01*
X247415214Y-153434190D01*
X248367595Y-153005619D02*
X248415214Y-152958000D01*
X248510452Y-152910380D01*
X248748547Y-152910380D01*
X248843785Y-152958000D01*
X248891404Y-153005619D01*
X248939023Y-153100857D01*
X248939023Y-153196095D01*
X248891404Y-153338952D01*
X248319976Y-153910380D01*
X248939023Y-153910380D01*
X249272357Y-152910380D02*
X249939023Y-152910380D01*
X249510452Y-153910380D01*
G04 #@! TO.C,R28*
X258654642Y-163816380D02*
X258321309Y-163340190D01*
X258083214Y-163816380D02*
X258083214Y-162816380D01*
X258464166Y-162816380D01*
X258559404Y-162864000D01*
X258607023Y-162911619D01*
X258654642Y-163006857D01*
X258654642Y-163149714D01*
X258607023Y-163244952D01*
X258559404Y-163292571D01*
X258464166Y-163340190D01*
X258083214Y-163340190D01*
X259035595Y-162911619D02*
X259083214Y-162864000D01*
X259178452Y-162816380D01*
X259416547Y-162816380D01*
X259511785Y-162864000D01*
X259559404Y-162911619D01*
X259607023Y-163006857D01*
X259607023Y-163102095D01*
X259559404Y-163244952D01*
X258987976Y-163816380D01*
X259607023Y-163816380D01*
X260178452Y-163244952D02*
X260083214Y-163197333D01*
X260035595Y-163149714D01*
X259987976Y-163054476D01*
X259987976Y-163006857D01*
X260035595Y-162911619D01*
X260083214Y-162864000D01*
X260178452Y-162816380D01*
X260368928Y-162816380D01*
X260464166Y-162864000D01*
X260511785Y-162911619D01*
X260559404Y-163006857D01*
X260559404Y-163054476D01*
X260511785Y-163149714D01*
X260464166Y-163197333D01*
X260368928Y-163244952D01*
X260178452Y-163244952D01*
X260083214Y-163292571D01*
X260035595Y-163340190D01*
X259987976Y-163435428D01*
X259987976Y-163625904D01*
X260035595Y-163721142D01*
X260083214Y-163768761D01*
X260178452Y-163816380D01*
X260368928Y-163816380D01*
X260464166Y-163768761D01*
X260511785Y-163721142D01*
X260559404Y-163625904D01*
X260559404Y-163435428D01*
X260511785Y-163340190D01*
X260464166Y-163292571D01*
X260368928Y-163244952D01*
G04 #@! TO.C,R29*
X247986642Y-156450380D02*
X247653309Y-155974190D01*
X247415214Y-156450380D02*
X247415214Y-155450380D01*
X247796166Y-155450380D01*
X247891404Y-155498000D01*
X247939023Y-155545619D01*
X247986642Y-155640857D01*
X247986642Y-155783714D01*
X247939023Y-155878952D01*
X247891404Y-155926571D01*
X247796166Y-155974190D01*
X247415214Y-155974190D01*
X248367595Y-155545619D02*
X248415214Y-155498000D01*
X248510452Y-155450380D01*
X248748547Y-155450380D01*
X248843785Y-155498000D01*
X248891404Y-155545619D01*
X248939023Y-155640857D01*
X248939023Y-155736095D01*
X248891404Y-155878952D01*
X248319976Y-156450380D01*
X248939023Y-156450380D01*
X249415214Y-156450380D02*
X249605690Y-156450380D01*
X249700928Y-156402761D01*
X249748547Y-156355142D01*
X249843785Y-156212285D01*
X249891404Y-156021809D01*
X249891404Y-155640857D01*
X249843785Y-155545619D01*
X249796166Y-155498000D01*
X249700928Y-155450380D01*
X249510452Y-155450380D01*
X249415214Y-155498000D01*
X249367595Y-155545619D01*
X249319976Y-155640857D01*
X249319976Y-155878952D01*
X249367595Y-155974190D01*
X249415214Y-156021809D01*
X249510452Y-156069428D01*
X249700928Y-156069428D01*
X249796166Y-156021809D01*
X249843785Y-155974190D01*
X249891404Y-155878952D01*
G04 #@! TO.C,R30*
X258654642Y-166356380D02*
X258321309Y-165880190D01*
X258083214Y-166356380D02*
X258083214Y-165356380D01*
X258464166Y-165356380D01*
X258559404Y-165404000D01*
X258607023Y-165451619D01*
X258654642Y-165546857D01*
X258654642Y-165689714D01*
X258607023Y-165784952D01*
X258559404Y-165832571D01*
X258464166Y-165880190D01*
X258083214Y-165880190D01*
X258987976Y-165356380D02*
X259607023Y-165356380D01*
X259273690Y-165737333D01*
X259416547Y-165737333D01*
X259511785Y-165784952D01*
X259559404Y-165832571D01*
X259607023Y-165927809D01*
X259607023Y-166165904D01*
X259559404Y-166261142D01*
X259511785Y-166308761D01*
X259416547Y-166356380D01*
X259130833Y-166356380D01*
X259035595Y-166308761D01*
X258987976Y-166261142D01*
X260226071Y-165356380D02*
X260321309Y-165356380D01*
X260416547Y-165404000D01*
X260464166Y-165451619D01*
X260511785Y-165546857D01*
X260559404Y-165737333D01*
X260559404Y-165975428D01*
X260511785Y-166165904D01*
X260464166Y-166261142D01*
X260416547Y-166308761D01*
X260321309Y-166356380D01*
X260226071Y-166356380D01*
X260130833Y-166308761D01*
X260083214Y-166261142D01*
X260035595Y-166165904D01*
X259987976Y-165975428D01*
X259987976Y-165737333D01*
X260035595Y-165546857D01*
X260083214Y-165451619D01*
X260130833Y-165404000D01*
X260226071Y-165356380D01*
G04 #@! TO.C,R31*
X247986642Y-158990380D02*
X247653309Y-158514190D01*
X247415214Y-158990380D02*
X247415214Y-157990380D01*
X247796166Y-157990380D01*
X247891404Y-158038000D01*
X247939023Y-158085619D01*
X247986642Y-158180857D01*
X247986642Y-158323714D01*
X247939023Y-158418952D01*
X247891404Y-158466571D01*
X247796166Y-158514190D01*
X247415214Y-158514190D01*
X248319976Y-157990380D02*
X248939023Y-157990380D01*
X248605690Y-158371333D01*
X248748547Y-158371333D01*
X248843785Y-158418952D01*
X248891404Y-158466571D01*
X248939023Y-158561809D01*
X248939023Y-158799904D01*
X248891404Y-158895142D01*
X248843785Y-158942761D01*
X248748547Y-158990380D01*
X248462833Y-158990380D01*
X248367595Y-158942761D01*
X248319976Y-158895142D01*
X249891404Y-158990380D02*
X249319976Y-158990380D01*
X249605690Y-158990380D02*
X249605690Y-157990380D01*
X249510452Y-158133238D01*
X249415214Y-158228476D01*
X249319976Y-158276095D01*
G04 #@! TO.C,R32*
X258654642Y-168896380D02*
X258321309Y-168420190D01*
X258083214Y-168896380D02*
X258083214Y-167896380D01*
X258464166Y-167896380D01*
X258559404Y-167944000D01*
X258607023Y-167991619D01*
X258654642Y-168086857D01*
X258654642Y-168229714D01*
X258607023Y-168324952D01*
X258559404Y-168372571D01*
X258464166Y-168420190D01*
X258083214Y-168420190D01*
X258987976Y-167896380D02*
X259607023Y-167896380D01*
X259273690Y-168277333D01*
X259416547Y-168277333D01*
X259511785Y-168324952D01*
X259559404Y-168372571D01*
X259607023Y-168467809D01*
X259607023Y-168705904D01*
X259559404Y-168801142D01*
X259511785Y-168848761D01*
X259416547Y-168896380D01*
X259130833Y-168896380D01*
X259035595Y-168848761D01*
X258987976Y-168801142D01*
X259987976Y-167991619D02*
X260035595Y-167944000D01*
X260130833Y-167896380D01*
X260368928Y-167896380D01*
X260464166Y-167944000D01*
X260511785Y-167991619D01*
X260559404Y-168086857D01*
X260559404Y-168182095D01*
X260511785Y-168324952D01*
X259940357Y-168896380D01*
X260559404Y-168896380D01*
G04 #@! TO.C,R33*
X248023142Y-161530380D02*
X247689809Y-161054190D01*
X247451714Y-161530380D02*
X247451714Y-160530380D01*
X247832666Y-160530380D01*
X247927904Y-160578000D01*
X247975523Y-160625619D01*
X248023142Y-160720857D01*
X248023142Y-160863714D01*
X247975523Y-160958952D01*
X247927904Y-161006571D01*
X247832666Y-161054190D01*
X247451714Y-161054190D01*
X248356476Y-160530380D02*
X248975523Y-160530380D01*
X248642190Y-160911333D01*
X248785047Y-160911333D01*
X248880285Y-160958952D01*
X248927904Y-161006571D01*
X248975523Y-161101809D01*
X248975523Y-161339904D01*
X248927904Y-161435142D01*
X248880285Y-161482761D01*
X248785047Y-161530380D01*
X248499333Y-161530380D01*
X248404095Y-161482761D01*
X248356476Y-161435142D01*
X249308857Y-160530380D02*
X249927904Y-160530380D01*
X249594571Y-160911333D01*
X249737428Y-160911333D01*
X249832666Y-160958952D01*
X249880285Y-161006571D01*
X249927904Y-161101809D01*
X249927904Y-161339904D01*
X249880285Y-161435142D01*
X249832666Y-161482761D01*
X249737428Y-161530380D01*
X249451714Y-161530380D01*
X249356476Y-161482761D01*
X249308857Y-161435142D01*
G04 #@! TO.C,R34*
X248059642Y-164070380D02*
X247726309Y-163594190D01*
X247488214Y-164070380D02*
X247488214Y-163070380D01*
X247869166Y-163070380D01*
X247964404Y-163118000D01*
X248012023Y-163165619D01*
X248059642Y-163260857D01*
X248059642Y-163403714D01*
X248012023Y-163498952D01*
X247964404Y-163546571D01*
X247869166Y-163594190D01*
X247488214Y-163594190D01*
X248392976Y-163070380D02*
X249012023Y-163070380D01*
X248678690Y-163451333D01*
X248821547Y-163451333D01*
X248916785Y-163498952D01*
X248964404Y-163546571D01*
X249012023Y-163641809D01*
X249012023Y-163879904D01*
X248964404Y-163975142D01*
X248916785Y-164022761D01*
X248821547Y-164070380D01*
X248535833Y-164070380D01*
X248440595Y-164022761D01*
X248392976Y-163975142D01*
X249869166Y-163403714D02*
X249869166Y-164070380D01*
X249631071Y-163022761D02*
X249392976Y-163737047D01*
X250012023Y-163737047D01*
G04 #@! TO.C,R35*
X248023142Y-166610380D02*
X247689809Y-166134190D01*
X247451714Y-166610380D02*
X247451714Y-165610380D01*
X247832666Y-165610380D01*
X247927904Y-165658000D01*
X247975523Y-165705619D01*
X248023142Y-165800857D01*
X248023142Y-165943714D01*
X247975523Y-166038952D01*
X247927904Y-166086571D01*
X247832666Y-166134190D01*
X247451714Y-166134190D01*
X248356476Y-165610380D02*
X248975523Y-165610380D01*
X248642190Y-165991333D01*
X248785047Y-165991333D01*
X248880285Y-166038952D01*
X248927904Y-166086571D01*
X248975523Y-166181809D01*
X248975523Y-166419904D01*
X248927904Y-166515142D01*
X248880285Y-166562761D01*
X248785047Y-166610380D01*
X248499333Y-166610380D01*
X248404095Y-166562761D01*
X248356476Y-166515142D01*
X249880285Y-165610380D02*
X249404095Y-165610380D01*
X249356476Y-166086571D01*
X249404095Y-166038952D01*
X249499333Y-165991333D01*
X249737428Y-165991333D01*
X249832666Y-166038952D01*
X249880285Y-166086571D01*
X249927904Y-166181809D01*
X249927904Y-166419904D01*
X249880285Y-166515142D01*
X249832666Y-166562761D01*
X249737428Y-166610380D01*
X249499333Y-166610380D01*
X249404095Y-166562761D01*
X249356476Y-166515142D01*
G04 #@! TO.C,R36*
X248059642Y-169150380D02*
X247726309Y-168674190D01*
X247488214Y-169150380D02*
X247488214Y-168150380D01*
X247869166Y-168150380D01*
X247964404Y-168198000D01*
X248012023Y-168245619D01*
X248059642Y-168340857D01*
X248059642Y-168483714D01*
X248012023Y-168578952D01*
X247964404Y-168626571D01*
X247869166Y-168674190D01*
X247488214Y-168674190D01*
X248392976Y-168150380D02*
X249012023Y-168150380D01*
X248678690Y-168531333D01*
X248821547Y-168531333D01*
X248916785Y-168578952D01*
X248964404Y-168626571D01*
X249012023Y-168721809D01*
X249012023Y-168959904D01*
X248964404Y-169055142D01*
X248916785Y-169102761D01*
X248821547Y-169150380D01*
X248535833Y-169150380D01*
X248440595Y-169102761D01*
X248392976Y-169055142D01*
X249869166Y-168150380D02*
X249678690Y-168150380D01*
X249583452Y-168198000D01*
X249535833Y-168245619D01*
X249440595Y-168388476D01*
X249392976Y-168578952D01*
X249392976Y-168959904D01*
X249440595Y-169055142D01*
X249488214Y-169102761D01*
X249583452Y-169150380D01*
X249773928Y-169150380D01*
X249869166Y-169102761D01*
X249916785Y-169055142D01*
X249964404Y-168959904D01*
X249964404Y-168721809D01*
X249916785Y-168626571D01*
X249869166Y-168578952D01*
X249773928Y-168531333D01*
X249583452Y-168531333D01*
X249488214Y-168578952D01*
X249440595Y-168626571D01*
X249392976Y-168721809D01*
G04 #@! TO.C,R37*
X235286642Y-151624380D02*
X234953309Y-151148190D01*
X234715214Y-151624380D02*
X234715214Y-150624380D01*
X235096166Y-150624380D01*
X235191404Y-150672000D01*
X235239023Y-150719619D01*
X235286642Y-150814857D01*
X235286642Y-150957714D01*
X235239023Y-151052952D01*
X235191404Y-151100571D01*
X235096166Y-151148190D01*
X234715214Y-151148190D01*
X235619976Y-150624380D02*
X236239023Y-150624380D01*
X235905690Y-151005333D01*
X236048547Y-151005333D01*
X236143785Y-151052952D01*
X236191404Y-151100571D01*
X236239023Y-151195809D01*
X236239023Y-151433904D01*
X236191404Y-151529142D01*
X236143785Y-151576761D01*
X236048547Y-151624380D01*
X235762833Y-151624380D01*
X235667595Y-151576761D01*
X235619976Y-151529142D01*
X236572357Y-150624380D02*
X237239023Y-150624380D01*
X236810452Y-151624380D01*
G04 #@! TO.C,R38*
X235359642Y-154164380D02*
X235026309Y-153688190D01*
X234788214Y-154164380D02*
X234788214Y-153164380D01*
X235169166Y-153164380D01*
X235264404Y-153212000D01*
X235312023Y-153259619D01*
X235359642Y-153354857D01*
X235359642Y-153497714D01*
X235312023Y-153592952D01*
X235264404Y-153640571D01*
X235169166Y-153688190D01*
X234788214Y-153688190D01*
X235692976Y-153164380D02*
X236312023Y-153164380D01*
X235978690Y-153545333D01*
X236121547Y-153545333D01*
X236216785Y-153592952D01*
X236264404Y-153640571D01*
X236312023Y-153735809D01*
X236312023Y-153973904D01*
X236264404Y-154069142D01*
X236216785Y-154116761D01*
X236121547Y-154164380D01*
X235835833Y-154164380D01*
X235740595Y-154116761D01*
X235692976Y-154069142D01*
X236883452Y-153592952D02*
X236788214Y-153545333D01*
X236740595Y-153497714D01*
X236692976Y-153402476D01*
X236692976Y-153354857D01*
X236740595Y-153259619D01*
X236788214Y-153212000D01*
X236883452Y-153164380D01*
X237073928Y-153164380D01*
X237169166Y-153212000D01*
X237216785Y-153259619D01*
X237264404Y-153354857D01*
X237264404Y-153402476D01*
X237216785Y-153497714D01*
X237169166Y-153545333D01*
X237073928Y-153592952D01*
X236883452Y-153592952D01*
X236788214Y-153640571D01*
X236740595Y-153688190D01*
X236692976Y-153783428D01*
X236692976Y-153973904D01*
X236740595Y-154069142D01*
X236788214Y-154116761D01*
X236883452Y-154164380D01*
X237073928Y-154164380D01*
X237169166Y-154116761D01*
X237216785Y-154069142D01*
X237264404Y-153973904D01*
X237264404Y-153783428D01*
X237216785Y-153688190D01*
X237169166Y-153640571D01*
X237073928Y-153592952D01*
G04 #@! TO.C,R39*
X235359642Y-156704380D02*
X235026309Y-156228190D01*
X234788214Y-156704380D02*
X234788214Y-155704380D01*
X235169166Y-155704380D01*
X235264404Y-155752000D01*
X235312023Y-155799619D01*
X235359642Y-155894857D01*
X235359642Y-156037714D01*
X235312023Y-156132952D01*
X235264404Y-156180571D01*
X235169166Y-156228190D01*
X234788214Y-156228190D01*
X235692976Y-155704380D02*
X236312023Y-155704380D01*
X235978690Y-156085333D01*
X236121547Y-156085333D01*
X236216785Y-156132952D01*
X236264404Y-156180571D01*
X236312023Y-156275809D01*
X236312023Y-156513904D01*
X236264404Y-156609142D01*
X236216785Y-156656761D01*
X236121547Y-156704380D01*
X235835833Y-156704380D01*
X235740595Y-156656761D01*
X235692976Y-156609142D01*
X236788214Y-156704380D02*
X236978690Y-156704380D01*
X237073928Y-156656761D01*
X237121547Y-156609142D01*
X237216785Y-156466285D01*
X237264404Y-156275809D01*
X237264404Y-155894857D01*
X237216785Y-155799619D01*
X237169166Y-155752000D01*
X237073928Y-155704380D01*
X236883452Y-155704380D01*
X236788214Y-155752000D01*
X236740595Y-155799619D01*
X236692976Y-155894857D01*
X236692976Y-156132952D01*
X236740595Y-156228190D01*
X236788214Y-156275809D01*
X236883452Y-156323428D01*
X237073928Y-156323428D01*
X237169166Y-156275809D01*
X237216785Y-156228190D01*
X237264404Y-156132952D01*
G04 #@! TO.C,R40*
X222877142Y-151878380D02*
X222543809Y-151402190D01*
X222305714Y-151878380D02*
X222305714Y-150878380D01*
X222686666Y-150878380D01*
X222781904Y-150926000D01*
X222829523Y-150973619D01*
X222877142Y-151068857D01*
X222877142Y-151211714D01*
X222829523Y-151306952D01*
X222781904Y-151354571D01*
X222686666Y-151402190D01*
X222305714Y-151402190D01*
X223734285Y-151211714D02*
X223734285Y-151878380D01*
X223496190Y-150830761D02*
X223258095Y-151545047D01*
X223877142Y-151545047D01*
X224448571Y-150878380D02*
X224543809Y-150878380D01*
X224639047Y-150926000D01*
X224686666Y-150973619D01*
X224734285Y-151068857D01*
X224781904Y-151259333D01*
X224781904Y-151497428D01*
X224734285Y-151687904D01*
X224686666Y-151783142D01*
X224639047Y-151830761D01*
X224543809Y-151878380D01*
X224448571Y-151878380D01*
X224353333Y-151830761D01*
X224305714Y-151783142D01*
X224258095Y-151687904D01*
X224210476Y-151497428D01*
X224210476Y-151259333D01*
X224258095Y-151068857D01*
X224305714Y-150973619D01*
X224353333Y-150926000D01*
X224448571Y-150878380D01*
G04 #@! TO.C,R41*
X235286642Y-159244380D02*
X234953309Y-158768190D01*
X234715214Y-159244380D02*
X234715214Y-158244380D01*
X235096166Y-158244380D01*
X235191404Y-158292000D01*
X235239023Y-158339619D01*
X235286642Y-158434857D01*
X235286642Y-158577714D01*
X235239023Y-158672952D01*
X235191404Y-158720571D01*
X235096166Y-158768190D01*
X234715214Y-158768190D01*
X236143785Y-158577714D02*
X236143785Y-159244380D01*
X235905690Y-158196761D02*
X235667595Y-158911047D01*
X236286642Y-158911047D01*
X237191404Y-159244380D02*
X236619976Y-159244380D01*
X236905690Y-159244380D02*
X236905690Y-158244380D01*
X236810452Y-158387238D01*
X236715214Y-158482476D01*
X236619976Y-158530095D01*
G04 #@! TO.C,R42*
X222840642Y-154418380D02*
X222507309Y-153942190D01*
X222269214Y-154418380D02*
X222269214Y-153418380D01*
X222650166Y-153418380D01*
X222745404Y-153466000D01*
X222793023Y-153513619D01*
X222840642Y-153608857D01*
X222840642Y-153751714D01*
X222793023Y-153846952D01*
X222745404Y-153894571D01*
X222650166Y-153942190D01*
X222269214Y-153942190D01*
X223697785Y-153751714D02*
X223697785Y-154418380D01*
X223459690Y-153370761D02*
X223221595Y-154085047D01*
X223840642Y-154085047D01*
X224173976Y-153513619D02*
X224221595Y-153466000D01*
X224316833Y-153418380D01*
X224554928Y-153418380D01*
X224650166Y-153466000D01*
X224697785Y-153513619D01*
X224745404Y-153608857D01*
X224745404Y-153704095D01*
X224697785Y-153846952D01*
X224126357Y-154418380D01*
X224745404Y-154418380D01*
G04 #@! TO.C,R43*
X235286642Y-161784380D02*
X234953309Y-161308190D01*
X234715214Y-161784380D02*
X234715214Y-160784380D01*
X235096166Y-160784380D01*
X235191404Y-160832000D01*
X235239023Y-160879619D01*
X235286642Y-160974857D01*
X235286642Y-161117714D01*
X235239023Y-161212952D01*
X235191404Y-161260571D01*
X235096166Y-161308190D01*
X234715214Y-161308190D01*
X236143785Y-161117714D02*
X236143785Y-161784380D01*
X235905690Y-160736761D02*
X235667595Y-161451047D01*
X236286642Y-161451047D01*
X236572357Y-160784380D02*
X237191404Y-160784380D01*
X236858071Y-161165333D01*
X237000928Y-161165333D01*
X237096166Y-161212952D01*
X237143785Y-161260571D01*
X237191404Y-161355809D01*
X237191404Y-161593904D01*
X237143785Y-161689142D01*
X237096166Y-161736761D01*
X237000928Y-161784380D01*
X236715214Y-161784380D01*
X236619976Y-161736761D01*
X236572357Y-161689142D01*
G04 #@! TO.C,R44*
X222840642Y-156958380D02*
X222507309Y-156482190D01*
X222269214Y-156958380D02*
X222269214Y-155958380D01*
X222650166Y-155958380D01*
X222745404Y-156006000D01*
X222793023Y-156053619D01*
X222840642Y-156148857D01*
X222840642Y-156291714D01*
X222793023Y-156386952D01*
X222745404Y-156434571D01*
X222650166Y-156482190D01*
X222269214Y-156482190D01*
X223697785Y-156291714D02*
X223697785Y-156958380D01*
X223459690Y-155910761D02*
X223221595Y-156625047D01*
X223840642Y-156625047D01*
X224650166Y-156291714D02*
X224650166Y-156958380D01*
X224412071Y-155910761D02*
X224173976Y-156625047D01*
X224793023Y-156625047D01*
G04 #@! TO.C,R45*
X235286642Y-164324380D02*
X234953309Y-163848190D01*
X234715214Y-164324380D02*
X234715214Y-163324380D01*
X235096166Y-163324380D01*
X235191404Y-163372000D01*
X235239023Y-163419619D01*
X235286642Y-163514857D01*
X235286642Y-163657714D01*
X235239023Y-163752952D01*
X235191404Y-163800571D01*
X235096166Y-163848190D01*
X234715214Y-163848190D01*
X236143785Y-163657714D02*
X236143785Y-164324380D01*
X235905690Y-163276761D02*
X235667595Y-163991047D01*
X236286642Y-163991047D01*
X237143785Y-163324380D02*
X236667595Y-163324380D01*
X236619976Y-163800571D01*
X236667595Y-163752952D01*
X236762833Y-163705333D01*
X237000928Y-163705333D01*
X237096166Y-163752952D01*
X237143785Y-163800571D01*
X237191404Y-163895809D01*
X237191404Y-164133904D01*
X237143785Y-164229142D01*
X237096166Y-164276761D01*
X237000928Y-164324380D01*
X236762833Y-164324380D01*
X236667595Y-164276761D01*
X236619976Y-164229142D01*
G04 #@! TO.C,R46*
X222840642Y-159498380D02*
X222507309Y-159022190D01*
X222269214Y-159498380D02*
X222269214Y-158498380D01*
X222650166Y-158498380D01*
X222745404Y-158546000D01*
X222793023Y-158593619D01*
X222840642Y-158688857D01*
X222840642Y-158831714D01*
X222793023Y-158926952D01*
X222745404Y-158974571D01*
X222650166Y-159022190D01*
X222269214Y-159022190D01*
X223697785Y-158831714D02*
X223697785Y-159498380D01*
X223459690Y-158450761D02*
X223221595Y-159165047D01*
X223840642Y-159165047D01*
X224650166Y-158498380D02*
X224459690Y-158498380D01*
X224364452Y-158546000D01*
X224316833Y-158593619D01*
X224221595Y-158736476D01*
X224173976Y-158926952D01*
X224173976Y-159307904D01*
X224221595Y-159403142D01*
X224269214Y-159450761D01*
X224364452Y-159498380D01*
X224554928Y-159498380D01*
X224650166Y-159450761D01*
X224697785Y-159403142D01*
X224745404Y-159307904D01*
X224745404Y-159069809D01*
X224697785Y-158974571D01*
X224650166Y-158926952D01*
X224554928Y-158879333D01*
X224364452Y-158879333D01*
X224269214Y-158926952D01*
X224221595Y-158974571D01*
X224173976Y-159069809D01*
G04 #@! TO.C,R47*
X235286642Y-166864380D02*
X234953309Y-166388190D01*
X234715214Y-166864380D02*
X234715214Y-165864380D01*
X235096166Y-165864380D01*
X235191404Y-165912000D01*
X235239023Y-165959619D01*
X235286642Y-166054857D01*
X235286642Y-166197714D01*
X235239023Y-166292952D01*
X235191404Y-166340571D01*
X235096166Y-166388190D01*
X234715214Y-166388190D01*
X236143785Y-166197714D02*
X236143785Y-166864380D01*
X235905690Y-165816761D02*
X235667595Y-166531047D01*
X236286642Y-166531047D01*
X236572357Y-165864380D02*
X237239023Y-165864380D01*
X236810452Y-166864380D01*
G04 #@! TO.C,R48*
X222840642Y-162038380D02*
X222507309Y-161562190D01*
X222269214Y-162038380D02*
X222269214Y-161038380D01*
X222650166Y-161038380D01*
X222745404Y-161086000D01*
X222793023Y-161133619D01*
X222840642Y-161228857D01*
X222840642Y-161371714D01*
X222793023Y-161466952D01*
X222745404Y-161514571D01*
X222650166Y-161562190D01*
X222269214Y-161562190D01*
X223697785Y-161371714D02*
X223697785Y-162038380D01*
X223459690Y-160990761D02*
X223221595Y-161705047D01*
X223840642Y-161705047D01*
X224364452Y-161466952D02*
X224269214Y-161419333D01*
X224221595Y-161371714D01*
X224173976Y-161276476D01*
X224173976Y-161228857D01*
X224221595Y-161133619D01*
X224269214Y-161086000D01*
X224364452Y-161038380D01*
X224554928Y-161038380D01*
X224650166Y-161086000D01*
X224697785Y-161133619D01*
X224745404Y-161228857D01*
X224745404Y-161276476D01*
X224697785Y-161371714D01*
X224650166Y-161419333D01*
X224554928Y-161466952D01*
X224364452Y-161466952D01*
X224269214Y-161514571D01*
X224221595Y-161562190D01*
X224173976Y-161657428D01*
X224173976Y-161847904D01*
X224221595Y-161943142D01*
X224269214Y-161990761D01*
X224364452Y-162038380D01*
X224554928Y-162038380D01*
X224650166Y-161990761D01*
X224697785Y-161943142D01*
X224745404Y-161847904D01*
X224745404Y-161657428D01*
X224697785Y-161562190D01*
X224650166Y-161514571D01*
X224554928Y-161466952D01*
G04 #@! TO.C,R49*
X235286642Y-169404380D02*
X234953309Y-168928190D01*
X234715214Y-169404380D02*
X234715214Y-168404380D01*
X235096166Y-168404380D01*
X235191404Y-168452000D01*
X235239023Y-168499619D01*
X235286642Y-168594857D01*
X235286642Y-168737714D01*
X235239023Y-168832952D01*
X235191404Y-168880571D01*
X235096166Y-168928190D01*
X234715214Y-168928190D01*
X236143785Y-168737714D02*
X236143785Y-169404380D01*
X235905690Y-168356761D02*
X235667595Y-169071047D01*
X236286642Y-169071047D01*
X236715214Y-169404380D02*
X236905690Y-169404380D01*
X237000928Y-169356761D01*
X237048547Y-169309142D01*
X237143785Y-169166285D01*
X237191404Y-168975809D01*
X237191404Y-168594857D01*
X237143785Y-168499619D01*
X237096166Y-168452000D01*
X237000928Y-168404380D01*
X236810452Y-168404380D01*
X236715214Y-168452000D01*
X236667595Y-168499619D01*
X236619976Y-168594857D01*
X236619976Y-168832952D01*
X236667595Y-168928190D01*
X236715214Y-168975809D01*
X236810452Y-169023428D01*
X237000928Y-169023428D01*
X237096166Y-168975809D01*
X237143785Y-168928190D01*
X237191404Y-168832952D01*
G04 #@! TO.C,R50*
X222840642Y-164578380D02*
X222507309Y-164102190D01*
X222269214Y-164578380D02*
X222269214Y-163578380D01*
X222650166Y-163578380D01*
X222745404Y-163626000D01*
X222793023Y-163673619D01*
X222840642Y-163768857D01*
X222840642Y-163911714D01*
X222793023Y-164006952D01*
X222745404Y-164054571D01*
X222650166Y-164102190D01*
X222269214Y-164102190D01*
X223745404Y-163578380D02*
X223269214Y-163578380D01*
X223221595Y-164054571D01*
X223269214Y-164006952D01*
X223364452Y-163959333D01*
X223602547Y-163959333D01*
X223697785Y-164006952D01*
X223745404Y-164054571D01*
X223793023Y-164149809D01*
X223793023Y-164387904D01*
X223745404Y-164483142D01*
X223697785Y-164530761D01*
X223602547Y-164578380D01*
X223364452Y-164578380D01*
X223269214Y-164530761D01*
X223221595Y-164483142D01*
X224412071Y-163578380D02*
X224507309Y-163578380D01*
X224602547Y-163626000D01*
X224650166Y-163673619D01*
X224697785Y-163768857D01*
X224745404Y-163959333D01*
X224745404Y-164197428D01*
X224697785Y-164387904D01*
X224650166Y-164483142D01*
X224602547Y-164530761D01*
X224507309Y-164578380D01*
X224412071Y-164578380D01*
X224316833Y-164530761D01*
X224269214Y-164483142D01*
X224221595Y-164387904D01*
X224173976Y-164197428D01*
X224173976Y-163959333D01*
X224221595Y-163768857D01*
X224269214Y-163673619D01*
X224316833Y-163626000D01*
X224412071Y-163578380D01*
G04 #@! TO.C,R51*
X222840642Y-167118380D02*
X222507309Y-166642190D01*
X222269214Y-167118380D02*
X222269214Y-166118380D01*
X222650166Y-166118380D01*
X222745404Y-166166000D01*
X222793023Y-166213619D01*
X222840642Y-166308857D01*
X222840642Y-166451714D01*
X222793023Y-166546952D01*
X222745404Y-166594571D01*
X222650166Y-166642190D01*
X222269214Y-166642190D01*
X223745404Y-166118380D02*
X223269214Y-166118380D01*
X223221595Y-166594571D01*
X223269214Y-166546952D01*
X223364452Y-166499333D01*
X223602547Y-166499333D01*
X223697785Y-166546952D01*
X223745404Y-166594571D01*
X223793023Y-166689809D01*
X223793023Y-166927904D01*
X223745404Y-167023142D01*
X223697785Y-167070761D01*
X223602547Y-167118380D01*
X223364452Y-167118380D01*
X223269214Y-167070761D01*
X223221595Y-167023142D01*
X224745404Y-167118380D02*
X224173976Y-167118380D01*
X224459690Y-167118380D02*
X224459690Y-166118380D01*
X224364452Y-166261238D01*
X224269214Y-166356476D01*
X224173976Y-166404095D01*
G04 #@! TO.C,R52*
X222840642Y-169658380D02*
X222507309Y-169182190D01*
X222269214Y-169658380D02*
X222269214Y-168658380D01*
X222650166Y-168658380D01*
X222745404Y-168706000D01*
X222793023Y-168753619D01*
X222840642Y-168848857D01*
X222840642Y-168991714D01*
X222793023Y-169086952D01*
X222745404Y-169134571D01*
X222650166Y-169182190D01*
X222269214Y-169182190D01*
X223745404Y-168658380D02*
X223269214Y-168658380D01*
X223221595Y-169134571D01*
X223269214Y-169086952D01*
X223364452Y-169039333D01*
X223602547Y-169039333D01*
X223697785Y-169086952D01*
X223745404Y-169134571D01*
X223793023Y-169229809D01*
X223793023Y-169467904D01*
X223745404Y-169563142D01*
X223697785Y-169610761D01*
X223602547Y-169658380D01*
X223364452Y-169658380D01*
X223269214Y-169610761D01*
X223221595Y-169563142D01*
X224173976Y-168753619D02*
X224221595Y-168706000D01*
X224316833Y-168658380D01*
X224554928Y-168658380D01*
X224650166Y-168706000D01*
X224697785Y-168753619D01*
X224745404Y-168848857D01*
X224745404Y-168944095D01*
X224697785Y-169086952D01*
X224126357Y-169658380D01*
X224745404Y-169658380D01*
G04 #@! TO.C,R53*
X204335142Y-92146380D02*
X204001809Y-91670190D01*
X203763714Y-92146380D02*
X203763714Y-91146380D01*
X204144666Y-91146380D01*
X204239904Y-91194000D01*
X204287523Y-91241619D01*
X204335142Y-91336857D01*
X204335142Y-91479714D01*
X204287523Y-91574952D01*
X204239904Y-91622571D01*
X204144666Y-91670190D01*
X203763714Y-91670190D01*
X205239904Y-91146380D02*
X204763714Y-91146380D01*
X204716095Y-91622571D01*
X204763714Y-91574952D01*
X204858952Y-91527333D01*
X205097047Y-91527333D01*
X205192285Y-91574952D01*
X205239904Y-91622571D01*
X205287523Y-91717809D01*
X205287523Y-91955904D01*
X205239904Y-92051142D01*
X205192285Y-92098761D01*
X205097047Y-92146380D01*
X204858952Y-92146380D01*
X204763714Y-92098761D01*
X204716095Y-92051142D01*
X205620857Y-91146380D02*
X206239904Y-91146380D01*
X205906571Y-91527333D01*
X206049428Y-91527333D01*
X206144666Y-91574952D01*
X206192285Y-91622571D01*
X206239904Y-91717809D01*
X206239904Y-91955904D01*
X206192285Y-92051142D01*
X206144666Y-92098761D01*
X206049428Y-92146380D01*
X205763714Y-92146380D01*
X205668476Y-92098761D01*
X205620857Y-92051142D01*
G04 #@! TO.C,R54*
X201086852Y-92185380D02*
X200753519Y-91709190D01*
X200515424Y-92185380D02*
X200515424Y-91185380D01*
X200896376Y-91185380D01*
X200991614Y-91233000D01*
X201039233Y-91280619D01*
X201086852Y-91375857D01*
X201086852Y-91518714D01*
X201039233Y-91613952D01*
X200991614Y-91661571D01*
X200896376Y-91709190D01*
X200515424Y-91709190D01*
X201991614Y-91185380D02*
X201515424Y-91185380D01*
X201467805Y-91661571D01*
X201515424Y-91613952D01*
X201610662Y-91566333D01*
X201848757Y-91566333D01*
X201943995Y-91613952D01*
X201991614Y-91661571D01*
X202039233Y-91756809D01*
X202039233Y-91994904D01*
X201991614Y-92090142D01*
X201943995Y-92137761D01*
X201848757Y-92185380D01*
X201610662Y-92185380D01*
X201515424Y-92137761D01*
X201467805Y-92090142D01*
X202896376Y-91518714D02*
X202896376Y-92185380D01*
X202658281Y-91137761D02*
X202420186Y-91852047D01*
X203039233Y-91852047D01*
G04 #@! TO.C,R55*
X197688567Y-92062380D02*
X197355234Y-91586190D01*
X197117139Y-92062380D02*
X197117139Y-91062380D01*
X197498091Y-91062380D01*
X197593329Y-91110000D01*
X197640948Y-91157619D01*
X197688567Y-91252857D01*
X197688567Y-91395714D01*
X197640948Y-91490952D01*
X197593329Y-91538571D01*
X197498091Y-91586190D01*
X197117139Y-91586190D01*
X198593329Y-91062380D02*
X198117139Y-91062380D01*
X198069520Y-91538571D01*
X198117139Y-91490952D01*
X198212377Y-91443333D01*
X198450472Y-91443333D01*
X198545710Y-91490952D01*
X198593329Y-91538571D01*
X198640948Y-91633809D01*
X198640948Y-91871904D01*
X198593329Y-91967142D01*
X198545710Y-92014761D01*
X198450472Y-92062380D01*
X198212377Y-92062380D01*
X198117139Y-92014761D01*
X198069520Y-91967142D01*
X199545710Y-91062380D02*
X199069520Y-91062380D01*
X199021901Y-91538571D01*
X199069520Y-91490952D01*
X199164758Y-91443333D01*
X199402853Y-91443333D01*
X199498091Y-91490952D01*
X199545710Y-91538571D01*
X199593329Y-91633809D01*
X199593329Y-91871904D01*
X199545710Y-91967142D01*
X199498091Y-92014761D01*
X199402853Y-92062380D01*
X199164758Y-92062380D01*
X199069520Y-92014761D01*
X199021901Y-91967142D01*
G04 #@! TO.C,R56*
X194320282Y-92146380D02*
X193986949Y-91670190D01*
X193748854Y-92146380D02*
X193748854Y-91146380D01*
X194129806Y-91146380D01*
X194225044Y-91194000D01*
X194272663Y-91241619D01*
X194320282Y-91336857D01*
X194320282Y-91479714D01*
X194272663Y-91574952D01*
X194225044Y-91622571D01*
X194129806Y-91670190D01*
X193748854Y-91670190D01*
X195225044Y-91146380D02*
X194748854Y-91146380D01*
X194701235Y-91622571D01*
X194748854Y-91574952D01*
X194844092Y-91527333D01*
X195082187Y-91527333D01*
X195177425Y-91574952D01*
X195225044Y-91622571D01*
X195272663Y-91717809D01*
X195272663Y-91955904D01*
X195225044Y-92051142D01*
X195177425Y-92098761D01*
X195082187Y-92146380D01*
X194844092Y-92146380D01*
X194748854Y-92098761D01*
X194701235Y-92051142D01*
X196129806Y-91146380D02*
X195939330Y-91146380D01*
X195844092Y-91194000D01*
X195796473Y-91241619D01*
X195701235Y-91384476D01*
X195653616Y-91574952D01*
X195653616Y-91955904D01*
X195701235Y-92051142D01*
X195748854Y-92098761D01*
X195844092Y-92146380D01*
X196034568Y-92146380D01*
X196129806Y-92098761D01*
X196177425Y-92051142D01*
X196225044Y-91955904D01*
X196225044Y-91717809D01*
X196177425Y-91622571D01*
X196129806Y-91574952D01*
X196034568Y-91527333D01*
X195844092Y-91527333D01*
X195748854Y-91574952D01*
X195701235Y-91622571D01*
X195653616Y-91717809D01*
G04 #@! TO.C,R57*
X190981997Y-92146380D02*
X190648664Y-91670190D01*
X190410569Y-92146380D02*
X190410569Y-91146380D01*
X190791521Y-91146380D01*
X190886759Y-91194000D01*
X190934378Y-91241619D01*
X190981997Y-91336857D01*
X190981997Y-91479714D01*
X190934378Y-91574952D01*
X190886759Y-91622571D01*
X190791521Y-91670190D01*
X190410569Y-91670190D01*
X191886759Y-91146380D02*
X191410569Y-91146380D01*
X191362950Y-91622571D01*
X191410569Y-91574952D01*
X191505807Y-91527333D01*
X191743902Y-91527333D01*
X191839140Y-91574952D01*
X191886759Y-91622571D01*
X191934378Y-91717809D01*
X191934378Y-91955904D01*
X191886759Y-92051142D01*
X191839140Y-92098761D01*
X191743902Y-92146380D01*
X191505807Y-92146380D01*
X191410569Y-92098761D01*
X191362950Y-92051142D01*
X192267712Y-91146380D02*
X192934378Y-91146380D01*
X192505807Y-92146380D01*
G04 #@! TO.C,R58*
X187643712Y-92098880D02*
X187310379Y-91622690D01*
X187072284Y-92098880D02*
X187072284Y-91098880D01*
X187453236Y-91098880D01*
X187548474Y-91146500D01*
X187596093Y-91194119D01*
X187643712Y-91289357D01*
X187643712Y-91432214D01*
X187596093Y-91527452D01*
X187548474Y-91575071D01*
X187453236Y-91622690D01*
X187072284Y-91622690D01*
X188548474Y-91098880D02*
X188072284Y-91098880D01*
X188024665Y-91575071D01*
X188072284Y-91527452D01*
X188167522Y-91479833D01*
X188405617Y-91479833D01*
X188500855Y-91527452D01*
X188548474Y-91575071D01*
X188596093Y-91670309D01*
X188596093Y-91908404D01*
X188548474Y-92003642D01*
X188500855Y-92051261D01*
X188405617Y-92098880D01*
X188167522Y-92098880D01*
X188072284Y-92051261D01*
X188024665Y-92003642D01*
X189167522Y-91527452D02*
X189072284Y-91479833D01*
X189024665Y-91432214D01*
X188977046Y-91336976D01*
X188977046Y-91289357D01*
X189024665Y-91194119D01*
X189072284Y-91146500D01*
X189167522Y-91098880D01*
X189357998Y-91098880D01*
X189453236Y-91146500D01*
X189500855Y-91194119D01*
X189548474Y-91289357D01*
X189548474Y-91336976D01*
X189500855Y-91432214D01*
X189453236Y-91479833D01*
X189357998Y-91527452D01*
X189167522Y-91527452D01*
X189072284Y-91575071D01*
X189024665Y-91622690D01*
X188977046Y-91717928D01*
X188977046Y-91908404D01*
X189024665Y-92003642D01*
X189072284Y-92051261D01*
X189167522Y-92098880D01*
X189357998Y-92098880D01*
X189453236Y-92051261D01*
X189500855Y-92003642D01*
X189548474Y-91908404D01*
X189548474Y-91717928D01*
X189500855Y-91622690D01*
X189453236Y-91575071D01*
X189357998Y-91527452D01*
G04 #@! TO.C,R59*
X184305427Y-92146380D02*
X183972094Y-91670190D01*
X183733999Y-92146380D02*
X183733999Y-91146380D01*
X184114951Y-91146380D01*
X184210189Y-91194000D01*
X184257808Y-91241619D01*
X184305427Y-91336857D01*
X184305427Y-91479714D01*
X184257808Y-91574952D01*
X184210189Y-91622571D01*
X184114951Y-91670190D01*
X183733999Y-91670190D01*
X185210189Y-91146380D02*
X184733999Y-91146380D01*
X184686380Y-91622571D01*
X184733999Y-91574952D01*
X184829237Y-91527333D01*
X185067332Y-91527333D01*
X185162570Y-91574952D01*
X185210189Y-91622571D01*
X185257808Y-91717809D01*
X185257808Y-91955904D01*
X185210189Y-92051142D01*
X185162570Y-92098761D01*
X185067332Y-92146380D01*
X184829237Y-92146380D01*
X184733999Y-92098761D01*
X184686380Y-92051142D01*
X185733999Y-92146380D02*
X185924475Y-92146380D01*
X186019713Y-92098761D01*
X186067332Y-92051142D01*
X186162570Y-91908285D01*
X186210189Y-91717809D01*
X186210189Y-91336857D01*
X186162570Y-91241619D01*
X186114951Y-91194000D01*
X186019713Y-91146380D01*
X185829237Y-91146380D01*
X185733999Y-91194000D01*
X185686380Y-91241619D01*
X185638761Y-91336857D01*
X185638761Y-91574952D01*
X185686380Y-91670190D01*
X185733999Y-91717809D01*
X185829237Y-91765428D01*
X186019713Y-91765428D01*
X186114951Y-91717809D01*
X186162570Y-91670190D01*
X186210189Y-91574952D01*
G04 #@! TO.C,C18*
X232184642Y-107037142D02*
X232137023Y-107084761D01*
X231994166Y-107132380D01*
X231898928Y-107132380D01*
X231756071Y-107084761D01*
X231660833Y-106989523D01*
X231613214Y-106894285D01*
X231565595Y-106703809D01*
X231565595Y-106560952D01*
X231613214Y-106370476D01*
X231660833Y-106275238D01*
X231756071Y-106180000D01*
X231898928Y-106132380D01*
X231994166Y-106132380D01*
X232137023Y-106180000D01*
X232184642Y-106227619D01*
X233137023Y-107132380D02*
X232565595Y-107132380D01*
X232851309Y-107132380D02*
X232851309Y-106132380D01*
X232756071Y-106275238D01*
X232660833Y-106370476D01*
X232565595Y-106418095D01*
X233708452Y-106560952D02*
X233613214Y-106513333D01*
X233565595Y-106465714D01*
X233517976Y-106370476D01*
X233517976Y-106322857D01*
X233565595Y-106227619D01*
X233613214Y-106180000D01*
X233708452Y-106132380D01*
X233898928Y-106132380D01*
X233994166Y-106180000D01*
X234041785Y-106227619D01*
X234089404Y-106322857D01*
X234089404Y-106370476D01*
X234041785Y-106465714D01*
X233994166Y-106513333D01*
X233898928Y-106560952D01*
X233708452Y-106560952D01*
X233613214Y-106608571D01*
X233565595Y-106656190D01*
X233517976Y-106751428D01*
X233517976Y-106941904D01*
X233565595Y-107037142D01*
X233613214Y-107084761D01*
X233708452Y-107132380D01*
X233898928Y-107132380D01*
X233994166Y-107084761D01*
X234041785Y-107037142D01*
X234089404Y-106941904D01*
X234089404Y-106751428D01*
X234041785Y-106656190D01*
X233994166Y-106608571D01*
X233898928Y-106560952D01*
G04 #@! TO.C,J1*
X251380666Y-122388380D02*
X251380666Y-123102666D01*
X251333047Y-123245523D01*
X251237809Y-123340761D01*
X251094952Y-123388380D01*
X250999714Y-123388380D01*
X252380666Y-123388380D02*
X251809238Y-123388380D01*
X252094952Y-123388380D02*
X252094952Y-122388380D01*
X251999714Y-122531238D01*
X251904476Y-122626476D01*
X251809238Y-122674095D01*
G04 #@! TO.C,J2*
X240204666Y-122388380D02*
X240204666Y-123102666D01*
X240157047Y-123245523D01*
X240061809Y-123340761D01*
X239918952Y-123388380D01*
X239823714Y-123388380D01*
X240633238Y-122483619D02*
X240680857Y-122436000D01*
X240776095Y-122388380D01*
X241014190Y-122388380D01*
X241109428Y-122436000D01*
X241157047Y-122483619D01*
X241204666Y-122578857D01*
X241204666Y-122674095D01*
X241157047Y-122816952D01*
X240585619Y-123388380D01*
X241204666Y-123388380D01*
G04 #@! TO.C,J3*
X229028666Y-122388380D02*
X229028666Y-123102666D01*
X228981047Y-123245523D01*
X228885809Y-123340761D01*
X228742952Y-123388380D01*
X228647714Y-123388380D01*
X229409619Y-122388380D02*
X230028666Y-122388380D01*
X229695333Y-122769333D01*
X229838190Y-122769333D01*
X229933428Y-122816952D01*
X229981047Y-122864571D01*
X230028666Y-122959809D01*
X230028666Y-123197904D01*
X229981047Y-123293142D01*
X229933428Y-123340761D01*
X229838190Y-123388380D01*
X229552476Y-123388380D01*
X229457238Y-123340761D01*
X229409619Y-123293142D01*
G04 #@! TO.C,J4*
X217852666Y-122388380D02*
X217852666Y-123102666D01*
X217805047Y-123245523D01*
X217709809Y-123340761D01*
X217566952Y-123388380D01*
X217471714Y-123388380D01*
X218757428Y-122721714D02*
X218757428Y-123388380D01*
X218519333Y-122340761D02*
X218281238Y-123055047D01*
X218900285Y-123055047D01*
G04 #@! TO.C,J5*
X263064666Y-84796380D02*
X263064666Y-85510666D01*
X263017047Y-85653523D01*
X262921809Y-85748761D01*
X262778952Y-85796380D01*
X262683714Y-85796380D01*
X264017047Y-84796380D02*
X263540857Y-84796380D01*
X263493238Y-85272571D01*
X263540857Y-85224952D01*
X263636095Y-85177333D01*
X263874190Y-85177333D01*
X263969428Y-85224952D01*
X264017047Y-85272571D01*
X264064666Y-85367809D01*
X264064666Y-85605904D01*
X264017047Y-85701142D01*
X263969428Y-85748761D01*
X263874190Y-85796380D01*
X263636095Y-85796380D01*
X263540857Y-85748761D01*
X263493238Y-85701142D01*
G04 #@! TO.C,J9*
X247266666Y-86058380D02*
X247266666Y-86772666D01*
X247219047Y-86915523D01*
X247123809Y-87010761D01*
X246980952Y-87058380D01*
X246885714Y-87058380D01*
X247790476Y-87058380D02*
X247980952Y-87058380D01*
X248076190Y-87010761D01*
X248123809Y-86963142D01*
X248219047Y-86820285D01*
X248266666Y-86629809D01*
X248266666Y-86248857D01*
X248219047Y-86153619D01*
X248171428Y-86106000D01*
X248076190Y-86058380D01*
X247885714Y-86058380D01*
X247790476Y-86106000D01*
X247742857Y-86153619D01*
X247695238Y-86248857D01*
X247695238Y-86486952D01*
X247742857Y-86582190D01*
X247790476Y-86629809D01*
X247885714Y-86677428D01*
X248076190Y-86677428D01*
X248171428Y-86629809D01*
X248219047Y-86582190D01*
X248266666Y-86486952D01*
G04 #@! TO.C,C1*
X259675333Y-118467142D02*
X259627714Y-118514761D01*
X259484857Y-118562380D01*
X259389619Y-118562380D01*
X259246761Y-118514761D01*
X259151523Y-118419523D01*
X259103904Y-118324285D01*
X259056285Y-118133809D01*
X259056285Y-117990952D01*
X259103904Y-117800476D01*
X259151523Y-117705238D01*
X259246761Y-117610000D01*
X259389619Y-117562380D01*
X259484857Y-117562380D01*
X259627714Y-117610000D01*
X259675333Y-117657619D01*
X260627714Y-118562380D02*
X260056285Y-118562380D01*
X260342000Y-118562380D02*
X260342000Y-117562380D01*
X260246761Y-117705238D01*
X260151523Y-117800476D01*
X260056285Y-117848095D01*
G04 #@! TO.C,C2*
X259675333Y-121007142D02*
X259627714Y-121054761D01*
X259484857Y-121102380D01*
X259389619Y-121102380D01*
X259246761Y-121054761D01*
X259151523Y-120959523D01*
X259103904Y-120864285D01*
X259056285Y-120673809D01*
X259056285Y-120530952D01*
X259103904Y-120340476D01*
X259151523Y-120245238D01*
X259246761Y-120150000D01*
X259389619Y-120102380D01*
X259484857Y-120102380D01*
X259627714Y-120150000D01*
X259675333Y-120197619D01*
X260056285Y-120197619D02*
X260103904Y-120150000D01*
X260199142Y-120102380D01*
X260437238Y-120102380D01*
X260532476Y-120150000D01*
X260580095Y-120197619D01*
X260627714Y-120292857D01*
X260627714Y-120388095D01*
X260580095Y-120530952D01*
X260008666Y-121102380D01*
X260627714Y-121102380D01*
G04 #@! TO.C,C5*
X249007333Y-118467142D02*
X248959714Y-118514761D01*
X248816857Y-118562380D01*
X248721619Y-118562380D01*
X248578761Y-118514761D01*
X248483523Y-118419523D01*
X248435904Y-118324285D01*
X248388285Y-118133809D01*
X248388285Y-117990952D01*
X248435904Y-117800476D01*
X248483523Y-117705238D01*
X248578761Y-117610000D01*
X248721619Y-117562380D01*
X248816857Y-117562380D01*
X248959714Y-117610000D01*
X249007333Y-117657619D01*
X249912095Y-117562380D02*
X249435904Y-117562380D01*
X249388285Y-118038571D01*
X249435904Y-117990952D01*
X249531142Y-117943333D01*
X249769238Y-117943333D01*
X249864476Y-117990952D01*
X249912095Y-118038571D01*
X249959714Y-118133809D01*
X249959714Y-118371904D01*
X249912095Y-118467142D01*
X249864476Y-118514761D01*
X249769238Y-118562380D01*
X249531142Y-118562380D01*
X249435904Y-118514761D01*
X249388285Y-118467142D01*
G04 #@! TO.C,C7*
X248753333Y-121261142D02*
X248705714Y-121308761D01*
X248562857Y-121356380D01*
X248467619Y-121356380D01*
X248324761Y-121308761D01*
X248229523Y-121213523D01*
X248181904Y-121118285D01*
X248134285Y-120927809D01*
X248134285Y-120784952D01*
X248181904Y-120594476D01*
X248229523Y-120499238D01*
X248324761Y-120404000D01*
X248467619Y-120356380D01*
X248562857Y-120356380D01*
X248705714Y-120404000D01*
X248753333Y-120451619D01*
X249086666Y-120356380D02*
X249753333Y-120356380D01*
X249324761Y-121356380D01*
G04 #@! TO.C,C9*
X238085333Y-121261142D02*
X238037714Y-121308761D01*
X237894857Y-121356380D01*
X237799619Y-121356380D01*
X237656761Y-121308761D01*
X237561523Y-121213523D01*
X237513904Y-121118285D01*
X237466285Y-120927809D01*
X237466285Y-120784952D01*
X237513904Y-120594476D01*
X237561523Y-120499238D01*
X237656761Y-120404000D01*
X237799619Y-120356380D01*
X237894857Y-120356380D01*
X238037714Y-120404000D01*
X238085333Y-120451619D01*
X238561523Y-121356380D02*
X238752000Y-121356380D01*
X238847238Y-121308761D01*
X238894857Y-121261142D01*
X238990095Y-121118285D01*
X239037714Y-120927809D01*
X239037714Y-120546857D01*
X238990095Y-120451619D01*
X238942476Y-120404000D01*
X238847238Y-120356380D01*
X238656761Y-120356380D01*
X238561523Y-120404000D01*
X238513904Y-120451619D01*
X238466285Y-120546857D01*
X238466285Y-120784952D01*
X238513904Y-120880190D01*
X238561523Y-120927809D01*
X238656761Y-120975428D01*
X238847238Y-120975428D01*
X238942476Y-120927809D01*
X238990095Y-120880190D01*
X239037714Y-120784952D01*
G04 #@! TO.C,C10*
X237863142Y-118467142D02*
X237815523Y-118514761D01*
X237672666Y-118562380D01*
X237577428Y-118562380D01*
X237434571Y-118514761D01*
X237339333Y-118419523D01*
X237291714Y-118324285D01*
X237244095Y-118133809D01*
X237244095Y-117990952D01*
X237291714Y-117800476D01*
X237339333Y-117705238D01*
X237434571Y-117610000D01*
X237577428Y-117562380D01*
X237672666Y-117562380D01*
X237815523Y-117610000D01*
X237863142Y-117657619D01*
X238815523Y-118562380D02*
X238244095Y-118562380D01*
X238529809Y-118562380D02*
X238529809Y-117562380D01*
X238434571Y-117705238D01*
X238339333Y-117800476D01*
X238244095Y-117848095D01*
X239434571Y-117562380D02*
X239529809Y-117562380D01*
X239625047Y-117610000D01*
X239672666Y-117657619D01*
X239720285Y-117752857D01*
X239767904Y-117943333D01*
X239767904Y-118181428D01*
X239720285Y-118371904D01*
X239672666Y-118467142D01*
X239625047Y-118514761D01*
X239529809Y-118562380D01*
X239434571Y-118562380D01*
X239339333Y-118514761D01*
X239291714Y-118467142D01*
X239244095Y-118371904D01*
X239196476Y-118181428D01*
X239196476Y-117943333D01*
X239244095Y-117752857D01*
X239291714Y-117657619D01*
X239339333Y-117610000D01*
X239434571Y-117562380D01*
G04 #@! TO.C,C13*
X226433142Y-121261142D02*
X226385523Y-121308761D01*
X226242666Y-121356380D01*
X226147428Y-121356380D01*
X226004571Y-121308761D01*
X225909333Y-121213523D01*
X225861714Y-121118285D01*
X225814095Y-120927809D01*
X225814095Y-120784952D01*
X225861714Y-120594476D01*
X225909333Y-120499238D01*
X226004571Y-120404000D01*
X226147428Y-120356380D01*
X226242666Y-120356380D01*
X226385523Y-120404000D01*
X226433142Y-120451619D01*
X227385523Y-121356380D02*
X226814095Y-121356380D01*
X227099809Y-121356380D02*
X227099809Y-120356380D01*
X227004571Y-120499238D01*
X226909333Y-120594476D01*
X226814095Y-120642095D01*
X227718857Y-120356380D02*
X228337904Y-120356380D01*
X228004571Y-120737333D01*
X228147428Y-120737333D01*
X228242666Y-120784952D01*
X228290285Y-120832571D01*
X228337904Y-120927809D01*
X228337904Y-121165904D01*
X228290285Y-121261142D01*
X228242666Y-121308761D01*
X228147428Y-121356380D01*
X227861714Y-121356380D01*
X227766476Y-121308761D01*
X227718857Y-121261142D01*
G04 #@! TO.C,C15*
X226433142Y-118467142D02*
X226385523Y-118514761D01*
X226242666Y-118562380D01*
X226147428Y-118562380D01*
X226004571Y-118514761D01*
X225909333Y-118419523D01*
X225861714Y-118324285D01*
X225814095Y-118133809D01*
X225814095Y-117990952D01*
X225861714Y-117800476D01*
X225909333Y-117705238D01*
X226004571Y-117610000D01*
X226147428Y-117562380D01*
X226242666Y-117562380D01*
X226385523Y-117610000D01*
X226433142Y-117657619D01*
X227385523Y-118562380D02*
X226814095Y-118562380D01*
X227099809Y-118562380D02*
X227099809Y-117562380D01*
X227004571Y-117705238D01*
X226909333Y-117800476D01*
X226814095Y-117848095D01*
X228290285Y-117562380D02*
X227814095Y-117562380D01*
X227766476Y-118038571D01*
X227814095Y-117990952D01*
X227909333Y-117943333D01*
X228147428Y-117943333D01*
X228242666Y-117990952D01*
X228290285Y-118038571D01*
X228337904Y-118133809D01*
X228337904Y-118371904D01*
X228290285Y-118467142D01*
X228242666Y-118514761D01*
X228147428Y-118562380D01*
X227909333Y-118562380D01*
X227814095Y-118514761D01*
X227766476Y-118467142D01*
G04 #@! TO.C,C17*
X226433142Y-107037142D02*
X226385523Y-107084761D01*
X226242666Y-107132380D01*
X226147428Y-107132380D01*
X226004571Y-107084761D01*
X225909333Y-106989523D01*
X225861714Y-106894285D01*
X225814095Y-106703809D01*
X225814095Y-106560952D01*
X225861714Y-106370476D01*
X225909333Y-106275238D01*
X226004571Y-106180000D01*
X226147428Y-106132380D01*
X226242666Y-106132380D01*
X226385523Y-106180000D01*
X226433142Y-106227619D01*
X227385523Y-107132380D02*
X226814095Y-107132380D01*
X227099809Y-107132380D02*
X227099809Y-106132380D01*
X227004571Y-106275238D01*
X226909333Y-106370476D01*
X226814095Y-106418095D01*
X227718857Y-106132380D02*
X228385523Y-106132380D01*
X227956952Y-107132380D01*
G04 #@! TO.C,C19*
X249714642Y-107037142D02*
X249667023Y-107084761D01*
X249524166Y-107132380D01*
X249428928Y-107132380D01*
X249286071Y-107084761D01*
X249190833Y-106989523D01*
X249143214Y-106894285D01*
X249095595Y-106703809D01*
X249095595Y-106560952D01*
X249143214Y-106370476D01*
X249190833Y-106275238D01*
X249286071Y-106180000D01*
X249428928Y-106132380D01*
X249524166Y-106132380D01*
X249667023Y-106180000D01*
X249714642Y-106227619D01*
X250667023Y-107132380D02*
X250095595Y-107132380D01*
X250381309Y-107132380D02*
X250381309Y-106132380D01*
X250286071Y-106275238D01*
X250190833Y-106370476D01*
X250095595Y-106418095D01*
X251143214Y-107132380D02*
X251333690Y-107132380D01*
X251428928Y-107084761D01*
X251476547Y-107037142D01*
X251571785Y-106894285D01*
X251619404Y-106703809D01*
X251619404Y-106322857D01*
X251571785Y-106227619D01*
X251524166Y-106180000D01*
X251428928Y-106132380D01*
X251238452Y-106132380D01*
X251143214Y-106180000D01*
X251095595Y-106227619D01*
X251047976Y-106322857D01*
X251047976Y-106560952D01*
X251095595Y-106656190D01*
X251143214Y-106703809D01*
X251238452Y-106751428D01*
X251428928Y-106751428D01*
X251524166Y-106703809D01*
X251571785Y-106656190D01*
X251619404Y-106560952D01*
G04 #@! TO.C,R15*
X254373142Y-102052380D02*
X254039809Y-101576190D01*
X253801714Y-102052380D02*
X253801714Y-101052380D01*
X254182666Y-101052380D01*
X254277904Y-101100000D01*
X254325523Y-101147619D01*
X254373142Y-101242857D01*
X254373142Y-101385714D01*
X254325523Y-101480952D01*
X254277904Y-101528571D01*
X254182666Y-101576190D01*
X253801714Y-101576190D01*
X255325523Y-102052380D02*
X254754095Y-102052380D01*
X255039809Y-102052380D02*
X255039809Y-101052380D01*
X254944571Y-101195238D01*
X254849333Y-101290476D01*
X254754095Y-101338095D01*
X256230285Y-101052380D02*
X255754095Y-101052380D01*
X255706476Y-101528571D01*
X255754095Y-101480952D01*
X255849333Y-101433333D01*
X256087428Y-101433333D01*
X256182666Y-101480952D01*
X256230285Y-101528571D01*
X256277904Y-101623809D01*
X256277904Y-101861904D01*
X256230285Y-101957142D01*
X256182666Y-102004761D01*
X256087428Y-102052380D01*
X255849333Y-102052380D01*
X255754095Y-102004761D01*
X255706476Y-101957142D01*
G04 #@! TO.C,R16*
X254373142Y-99512380D02*
X254039809Y-99036190D01*
X253801714Y-99512380D02*
X253801714Y-98512380D01*
X254182666Y-98512380D01*
X254277904Y-98560000D01*
X254325523Y-98607619D01*
X254373142Y-98702857D01*
X254373142Y-98845714D01*
X254325523Y-98940952D01*
X254277904Y-98988571D01*
X254182666Y-99036190D01*
X253801714Y-99036190D01*
X255325523Y-99512380D02*
X254754095Y-99512380D01*
X255039809Y-99512380D02*
X255039809Y-98512380D01*
X254944571Y-98655238D01*
X254849333Y-98750476D01*
X254754095Y-98798095D01*
X256182666Y-98512380D02*
X255992190Y-98512380D01*
X255896952Y-98560000D01*
X255849333Y-98607619D01*
X255754095Y-98750476D01*
X255706476Y-98940952D01*
X255706476Y-99321904D01*
X255754095Y-99417142D01*
X255801714Y-99464761D01*
X255896952Y-99512380D01*
X256087428Y-99512380D01*
X256182666Y-99464761D01*
X256230285Y-99417142D01*
X256277904Y-99321904D01*
X256277904Y-99083809D01*
X256230285Y-98988571D01*
X256182666Y-98940952D01*
X256087428Y-98893333D01*
X255896952Y-98893333D01*
X255801714Y-98940952D01*
X255754095Y-98988571D01*
X255706476Y-99083809D01*
G04 #@! TD*
M02*
